<svg xmlns="http://www.w3.org/2000/svg" width="150" height="150"><defs><clipPath id="a"><path d="M0 0h150v150H0z"/></clipPath></defs><g data-name="Groupe 23132" clip-path="url(#a)"><path data-name="Tracé 23159" d="M44.35 60.146c.323 1.352.488 3.906 1.608 3.869s5.427 3.447 5.427 3.447 3.085 10.961 3.3 11.264 10.265 8.625 11.581 11.787 3.708 21.576 2.061 22.811-36.323-.836-36.323-.836l-4.859-13.775 1.067-15.049-2.529-11.314.211-1.262.725-.838 1.083-.467h5.386l.262-1.307.389-1.385v-1.988l-.389-1.773s4.167-1.2 4.036-.334 3.879-3.072 3.756-1.482 2.886-2.719 3.208-1.368z" fill="#fff"/><path data-name="Tracé 22168" d="M97.937 58.381l-3.654.418-.5-.91-1.024-21.617.72-5.156 3.283-3.316 1.464-3.543-1.751-6.141L81.147 7.479l-16.853 3.5.573 11.27-.573 4.469v4.641l.416 5.2.789 3.934 1.535 3.164 2.338 2.543 2.713 1.559.51 7.453-.51 5.09-4.4-.91-2.593 9.469 15.358 5.375 15.73-2.914 3.489-8.16z" fill="#fff"/><path data-name="Tracé 12030" d="M45.408 61.358l1.482-.966 1.832-.992 2.279-.757 2.219-.539 2.605-.4 3.439.4h3.084l5.773 1.3v1.958l.824 1.328 1.221 2.033 1.754 1.661 2.795 1.494 2.332.537 3.154.525h3.01l3.955-.525 3.359-1.423 3.168-2.27 2.34-2.033 1.445-2.678.816-1.365 2.98-.539h5.4l5.35.539 6.9 1.749 4.932 2.294 3.77 2.594 2.338 2.595 2.154 3.821 1.473 4.379.67 6.041v6.727l-1.232 11.659-2.311 10.3-3.092 10.466-6.209 12.736-2.492 3.813-4.049 3.9-4.684 2.432-4.033.424-5.281-.424-11.045-1.709-41.107-.723-1.832-.706-.893-1.42-.59-3.638.59-1.586-1.2-.365-2.895 4.455-2.928 2.554-2.275.706h-2.549l-4.5-.706-3.514-1.838-2.492-2.323-1.891-2.848-1.342-4.031-.633-3.417v-9.626l1.113-7.092 1.516-6.583 2.121-6.767 2.777-1.357 1.73 5.37 2.459 4.848 1.779 1.96.459 1.563 1.184.966h14.664l1.422-.4.885-1.263.91-2.825h2.242l1.283-.551 3.33-3.428 2.256-3.657-1.166-2.582-1.881-2.979-3.035-3.31-3.443-1.193-1.381-.387-2.881-.524-.625-6.49 1.227-2.9.857-2.915v-4.949l-2.084-3.7-2.088-1.061z" fill="#ffc300"/><path d="M66.119 14.549a61.427 61.427 0 00-1.062 13.487 64.072 64.072 0 00.354 9.007 13.37 13.37 0 003.542 7.94 10.125 10.125 0 008.155 2.7 13.335 13.335 0 009.139-4.719c.457-.568 1.257.239.811.8-3.917 4.865-12.085 6.929-17.444 3.232-5.645-3.892-5.71-11.184-5.71-17.332a70.82 70.82 0 011.148-15.38c.159-.7 1.255-.408 1.142.306zM81.028 27.272a1.2 1.2 0 01.5.635v.1a1.744 1.744 0 010 .249 1.932 1.932 0 010 .262v.124a1.829 1.829 0 01-.159.341 1.256 1.256 0 01-.149.192.316.316 0 01-.091.079.383.383 0 01-.115.069.607.607 0 01-.342.089.659.659 0 01-.457-.181.721.721 0 01-.18-.679 2.678 2.678 0 01.159-.379l.149-.3a.566.566 0 01.343-.259.525.525 0 01.433.057.546.546 0 01.262.328v.158a.509.509 0 01-.08.284c-.068.16-.149.322-.217.489v-.138a.147.147 0 000 .081v-.386l-.091-.113-.115-.091-.136-.057h-.3l-.137.057h.056l-.113.08v-.058l-.091.114a1.278 1.278 0 00.127-.2l-.057.136a1.053 1.053 0 000-.193v.148a.936.936 0 000-.158l.057.136-.069-.126.091.126-.1-.107.114.084a.563.563 0 01.137-1.032.617.617 0 01.446.057z" fill="#223254"/><path d="M69.397 27.874a1.2 1.2 0 01.5.635v.1a1.421 1.421 0 010 .511v.125a1.846 1.846 0 01-.161.341 1.354 1.354 0 01-.147.193.316.316 0 01-.091.079l-.115.079a.719.719 0 01-.343.091.68.68 0 01-.453-.193.71.71 0 01-.183-.679 2.7 2.7 0 01.161-.38l.147-.3a.579.579 0 01.343-.26.531.531 0 01.433.057.568.568 0 01.264.341v.147a.513.513 0 01-.081.284c-.068.158-.147.322-.217.487v-.136a.237.237 0 000 .079v-.214l-.056-.136-.08-.13-.115-.086h-.492l-.113.086v-.062l-.091.125a.832.832 0 00.125-.215v.136a1.288 1.288 0 000-.2v.148a.8.8 0 000-.17v.151a.6.6 0 000-.146v.136a.446.446 0 00-.069-.125l.091.114-.1-.108.114.1a.64.64 0 01-.264-.341.6.6 0 01.057-.442.564.564 0 01.343-.261.612.612 0 01.442.056zM94.724 24.043a.8.8 0 00-.974.114 2.509 2.509 0 00-.616.941 6.21 6.21 0 00-.569 2.439c0 .181-.3.181-.286 0a6.775 6.775 0 01.743-2.871 1.9 1.9 0 01.834-.91 1.022 1.022 0 011.074.089c.137.114 0 .307-.206.193z" fill="#223254"/><path d="M93.685 25.607h-.057a.387.387 0 00-.251 0 .341.341 0 00-.127.067.328.328 0 00-.113.1 1.106 1.106 0 00-.195.272.139.139 0 01-.24-.136 1.042 1.042 0 01.632-.59.594.594 0 01.693.257.137.137 0 01-.049.189.14.14 0 01-.19-.048zM93.652 30.551c-.216 7.428.078 14.906.559 22.322q.188 2.978.479 5.967c.068.727-1.074.714-1.143 0-.741-7.554-1.039-15.177-1.085-22.753v-5.536a.572.572 0 011.144 0zM72.522 47.77c.161 4.129.526 8.292.354 12.42a.572.572 0 01-1.143 0c.172-4.129-.193-8.291-.354-12.42a.572.572 0 011.143 0zM75.017 27.635a28.782 28.782 0 00-.4 5.933.571.571 0 01-1.142 0 31.638 31.638 0 01.435-6.243.592.592 0 011.142.31zM82.695 23.067l-.274-.148a.394.394 0 00-.161-.057 3.231 3.231 0 00-.558-.159h-.995a.671.671 0 01-.446-.057.635.635 0 01-.262-.339.578.578 0 01.4-.7 4.532 4.532 0 012.922.522.566.566 0 01.227.771.574.574 0 01-.777.224l-.032-.019zM70.45 24.235l-.274-.136h-.159a3.413 3.413 0 00-.56-.16h-.974a.684.684 0 01-.446-.057.6.6 0 01-.259-.344.577.577 0 01.4-.7 4.594 4.594 0 012.922.522.564.564 0 01.226.77.573.573 0 01-.775.225l-.032-.02z" fill="#223254"/><path d="M86.225 44.389s-6.92 10.719-13.903 14.235l-.286-5.315-.091-5.539 3.233.657c4.045.85 9.687-2.553 11.047-4.038zM78.627 36.733a6.867 6.867 0 01-2.73 1.134.588.588 0 11-.312-1.134 4.958 4.958 0 001.341-.375h.066l.174-.079.274-.148a5.138 5.138 0 00.606-.374.575.575 0 01.784.2.574.574 0 01-.2.771z" fill="#223254"/><path d="M94.118 58.84s30.413-5.051 38.1 12.931-5.844 70.2-23.074 72.429c-20.916 2.705-43.831-16.646-52.639-31.754a7.841 7.841 0 00-2.284-2.449c-1.348-.98-2.983-2.746-1.241-4.9" fill="none" stroke="#223254" stroke-miterlimit="10"/><path d="M61.001 94.649a3.674 3.674 0 015.116.745 3.724 3.724 0 01.253.389 4.622 4.622 0 002.284 1.814c6.992 2.824 34.008 14.2 39.286 24.047" fill="none" stroke="#223254" stroke-miterlimit="10"/><path d="M51.955 86.778c2.443 1.236 5.151 2.552 6.991 4.651a15.433 15.433 0 013.427 6.4.593.593 0 01-1.143.306 14.2 14.2 0 00-3.187-6.018c-1.758-1.966-4.329-3.181-6.659-4.36-.651-.329-.068-1.315.581-.976zM39.08 90.884a54.347 54.347 0 006.18.86 23.611 23.611 0 006.061-.1c.719-.136 1.029.967.3 1.134a24.411 24.411 0 01-6.357.151 56.4 56.4 0 01-6.478-.9c-.719-.148-.422-1.236.3-1.134zM42.302 95.124a10.575 10.575 0 002.953.465.578.578 0 01.57.568.569.569 0 01-.57.562 12.234 12.234 0 01-3.261-.506.566.566 0 01-.4-.692.594.594 0 01.708-.397zM44.268 99.04a20.732 20.732 0 003.429.386.567.567 0 110 1.134 23.37 23.37 0 01-3.788-.42.589.589 0 11.312-1.136zM46.243 102.736c2.922.884 5.844 2 8.944 1.984a.568.568 0 110 1.136c-3.211 0-6.216-1.131-9.242-2.019a.587.587 0 11.3-1.134z" fill="#223254"/><path d="M54.605 105.585a33.248 33.248 0 007.459-9.208c.343-.635 1.341-.068.983.583a34.308 34.308 0 01-7.63 9.433c-.55.473-1.36-.332-.812-.808zM106.136 101.294l-3.209 8.836a15.818 15.818 0 00-1.314 4.186c-.057 1.055-1.622.85-1.313-.148a.6.6 0 01.548-.408h.06a.567.567 0 110 1.134h-.062l.548-.42v-.158l-.262-.341h-.5l.093-.072-.264.341a1.722 1.722 0 010-.589 6.2 6.2 0 01.274-.752l.629-1.735 1.222-3.4 2.49-6.805c.24-.68 1.348-.386 1.138.3zM92.806 142.9c-5.231.1-10.487-.2-15.707-.386-6.855-.249-13.708-.51-20.564-.568h-4.568a24.433 24.433 0 00-2.6.08 3.192 3.192 0 01-2.937-.8c-1.781-1.838-1.325-5.036-1.073-7.308.332-3.072.411-6.182.445-9.267 0-4.817-.178-9.616-.327-14.437v-.259a.572.572 0 011.144 0c.215 3.936.324 7.941.342 11.83 0 3.131 0 6.274-.217 9.4-.09 1.487-.308 2.961-.411 4.458a8.617 8.617 0 00.4 3.958 2.275 2.275 0 001.143 1.26 1.48 1.48 0 00.594.124h.433a11.81 11.81 0 011.885-.124h4.3c6.661 0 13.312.25 19.956.489 5.461.2 10.944.476 16.417.476h1.269a.568.568 0 110 1.135z" fill="#223254"/><path d="M63.539 13.358c-.24-.737-1.223 6.261 1.142 10.559 0 0 .81-10.208 1.839-11.251" fill="#1e96fc" stroke="#223254"/><path d="M49.395 91.951l-3.781-20.2a2.4 2.4 0 00-2.365-1.95H28.171a2.393 2.393 0 00-2.408 2.375 2.422 2.422 0 00.053.506l7.54 35.39a2.42 2.42 0 002.353 1.895h13.812a2.391 2.391 0 002.371-2.41 2.366 2.366 0 00-.087-.609l-.582-2.132" fill="none" stroke="#223254" stroke-miterlimit="10"/><path d="M46.242 131.264c-1.142 4.537-3.712 8.52-8.339 9.981a13.283 13.283 0 01-10.281-1.289c-6.2-3.337-7.87-9.872-8-16.406-.25-8.919 1.733-18.045 4.569-26.484a57.272 57.272 0 011.565-4.3 14.434 14.434 0 001.052-5.15 3.923 3.923 0 011.559-3.4" fill="none" stroke="#223254" stroke-miterlimit="10"/><path d="M41.398 123.846a44.881 44.881 0 00.6-6.663q0-1.622-.069-3.232c0-.523-.068-1.033-.113-1.554a2.575 2.575 0 00-.081-.773c-.08-.26 0-.341 0-.511s0-.363.326-.079l.566-.562a.572.572 0 11-.573-.568.787.787 0 01.743.556 9.082 9.082 0 01.217 1.934c.115 1.289.183 2.587.183 3.878a47.9 47.9 0 01-.629 7.872c-.125.716-1.222.408-1.142-.306zM50.002 69.991c1.143 3.8-.548 7.61-2.137 11.013-.308.67-1.291.091-.983-.566 1.45-3.131 3.031-6.663 2.022-10.21a.59.59 0 011.144-.294zM44.953 60.018a15.338 15.338 0 011.4 6.205.572.572 0 01-1.143 0 14.1 14.1 0 00-1.238-5.671.563.563 0 01.133-.791.574.574 0 01.8.13.736.736 0 01.055.094zM41.319 61.631a12.733 12.733 0 01.937 3.1.573.573 0 01-1.107.3 10.978 10.978 0 00-.333-1.473 13.662 13.662 0 00-.228-.7l-.137-.363-.068-.159v-.107a.565.565 0 01.138-.79.572.572 0 01.8.138.532.532 0 01.047.079zM37.492 62.889a9.127 9.127 0 01.377 1.045 7.189 7.189 0 01.183 1.134.533.533 0 01-.171.4.575.575 0 01-.809 0 .562.562 0 01-.165-.393v-.057a6.817 6.817 0 00-.442-1.621v.138a.6.6 0 01-.057-.443.583.583 0 01.264-.341.573.573 0 01.775.2zM34.065 63.489a10.851 10.851 0 01-.331 5.978.59.59 0 01-1.142-.294 9.8 9.8 0 00.331-5.374.593.593 0 011.142-.31z" fill="#223254"/><path d="M72.116 60.745c-8.476-1.688-18.791-4.774-26.422.976-.582.43-1.143-.544-.572-.986 6.112-4.594 14.189-3.7 21.249-2.325 2.022.4 4.032.839 6.054 1.247.72.136.412 1.238-.308 1.135z" fill="#223254"/><path d="M98.494 59.033c-1.714 4.98-6.261 8.28-11.264 9.55s-11.619 1.293-15.994-2.108a9.351 9.351 0 01-3.712-6.885.571.571 0 011.142 0c.194 5.051 5.187 7.94 9.742 8.461 4.9.59 10.394-.341 14.4-3.311a12.731 12.731 0 004.576-6.015c.227-.682 1.338-.386 1.144.306z" fill="#223254"/><g fill="none" stroke="#223254" stroke-miterlimit="10"><path d="M109.14 144.205a38.827 38.827 0 002.182 10.922 111.386 111.386 0 012.512 64.654 706.311 706.311 0 01-23.041 69.655 19.425 19.425 0 00-.766 11.729c3.634 14.747 12.362 54.093 10.823 86.432-1.615 33.9-67.906-59.221-59.486-123.307a417.805 417.805 0 0110.225-51.551 57.077 57.077 0 013.427-10.663M49.395 141.462v1.656a17.087 17.087 0 01-3.04 9.743c-12.562 18.285-60.3 89.607-63.205 126.833"/></g><path d="M41.057 268.101c-3.154 9.38-9.471 17.161-15.674 24.727-.467.566-1.272-.239-.81-.808 6.077-7.393 12.3-15.038 15.388-24.215.228-.692 1.336-.393 1.142.3zM94.223 59.326c-4.251 5.536-12.566 8.123-19.078 5.1a7.388 7.388 0 01-4.045-4.048c0-.17.217-.25.274-.076 1.566 4.329 7.381 5.418 11.424 5a16.223 16.223 0 0011.171-6.125c.115-.136.367 0 .252.146zM104.502 104.111c-.5-.123-7.207 4.539-15.993 2.669 0 0 10.174 6.045 10.714 6.419s1.759 2.269 2.857-2.268a24.07 24.07 0 012.422-6.82zM46.424 121.039s1.255 10.207-2.284 15.323-5.473 4.62-5.473 4.62 9.139-6.062 3.348-21.306c-1.911-5.025-7.322-9.483-7.322-9.483h13.3l-1.6 4.253M48.172 149.461s22.276 15.646 66.805 18.665c0 0-2.661-10.129-3.152-11.57s-2.034-7.092-2.034-7.092 0-5-1.874-5.013-10.966-.538-11.959-1.135-11.607-2.572-14.852-2.322-13.274.669-16.125.828-13.1-.374-13.1-.374-2.922-.284-2.514 1.719" fill="#223254"/><path d="M50.949 215.039c.252-.476-12.771 25.736-16.622 65.153l4.57-8.076s2.993-6.884 2.742-10 7.721-44.112 9.307-47.067zM33.551 108.589c-.193-.521-9.721-7.667-9.242-10.616a35.682 35.682 0 011.668-6.018s.709-3.833.743-4.332 1.543-6.571 2.137-.686" fill="#223254"/><path d="M92.303 29.917a7.348 7.348 0 003.03-2.336 5.424 5.424 0 001.254-3.857 2.281 2.281 0 00-2.576-1.936 2.165 2.165 0 00-.27.053 3.5 3.5 0 00-2.513 2.795c-.161.709-1.258.416-1.142-.3a4.837 4.837 0 012.182-3.143 3.838 3.838 0 013.883-.067c2.585 1.655 1.509 5.285 0 7.242a8.8 8.8 0 01-3.551 2.648.57.57 0 01-.3-1.1z" fill="#1e96fc"/><path d="M65.665 7.16s-4.272.375-2.7-2.859 22.7-3.784 26.617 3.145c0 0 8.831 1.747 9.86 8.4s-3.326 19.85-3.783 21.733c-.844 3.4-2.558 3.675-2.558 3.4s-.091-7.407-.091-7.407.161-3.685 1.807-4.6 3.563-3.845 2.284-5.671-1.9-3.4-4.57-1.577l-1.805 3.289s-1.759-.057-1.69-.363-.206-5.318-.206-5.318a6.823 6.823 0 01-4.216-4.958s-9.481 5.15-15.067 4.129c-4.992-.907-1.529-3.481-.719-4.027-.765.489-4.113 2.365-6.728-.1-3.028-2.778.41-6.57 3.565-7.216z" fill="#1e96fc" stroke="#223254"/></g></svg>