<svg xmlns="http://www.w3.org/2000/svg" width="150" height="150"><defs><clipPath id="a"><path d="M0 0h150v150H0z"/></clipPath></defs><g clip-path="url(#a)"><path data-name="Tracé 23171" d="M135.536 42.963h-3.613l-.981.295-.6.43-.629.682-.267 1.113-7 31.236v1.09l.512.906.513.555.637.535.954.248h11.7s1.7-7.1 2.25-7.24a38.754 38.754 0 004.049-3.373l5.2-23.176V45l-.433-.809-.723-.93-.976-.295h-10.6z" fill="#fff"/><path data-name="Tracé 23170" d="M137.115 94.064l.717-6.4.626-5.6v-2.48l.26-1.553.584-1.41 1.148-1.314 1.5-1.691 1.325-2 1.732-3.012s-3.365-4.641-3.8-3.684-1.192-4.057-1.745-3.223-1.618-4.27-1.955-3.789a2.054 2.054 0 00-2.625 0 19.45 19.45 0 00-3.644 4.137c-.157.359-1.529 3.279-1.529 3.279l-1 2.68-.395 2.3-.2 2.721-.373 3.191-.621 3.371-.7 3.014-1.107 3.869-1.461 4.045-.856 2.15z" fill="#fff"/><path data-name="Tracé 23166" d="M105.791 82.041c.127-.42.148-2.748.752-3.814a27.056 27.056 0 013.094-4.4c.607-.453 2.361-1.65 2.361-1.65l1.528-1.447.995-1.531.649-1.84v-1.641h2.647l.639-.7-.343-1.076-1.786-1.135-2.8-.723h-1.056l-1.707-1.523a6.705 6.705 0 012.763-1.189c1.145-.031 2.8 0 2.8 0s1.066-2.16 0-2.146-3.541 0-3.541 0l-2.344.361-.8.633-1.623 1.582-2.672 3.275-4.135 7.232 2.958 14.494z" fill="#fff"/><path data-name="Tracé 23165" d="M11.365 142.5l-.8-1.947-.878-1.406-1.011-1.328-.783-1.314-.537-1.434-.309-1.443v-1.344l.846-2.42.783-1.18 1.259-1.463 1.881-1.432 1.986-1.574 1.657-1.354 1.71-1.7 1.46-1.787 1.419-2.148 1.194-2.367 1.013-2.971.722-3.656.517-4.459.73-7.572 1.008-7.375v-1.414l-.633-2.52-.771-3.752-.851-5.687-.25-3.023v-2.812l.512-4.357.984-3.32 1.507-2.672 1.439-1.691 1.411-1 1.9-.732s2.128-.389 2.374-.359 14.445.359 14.445.359l5.5.328a19.9 19.9 0 011.159-2.139 14.88 14.88 0 001.043-1.611l1.456-.652h2.373s3.731-.318 4.125-.32 3.162 0 3.162 0l6.019.7 3.678.67 1.089.652.757 1.17.742 1.527.881.4 6.966.314 4.5.682 3.772 1.4 2.351 1.59 1.819 1.982 1.375 2.428 1.917 5.6 1.654 5.066 1.018 3.363 1.2 4.684 1.722 6.42 2.113 8.02 1.448 5.506s1.376 5.139 1.37 5.359 1.144 3.908 1.144 3.908l.287.977 2.307-5.475 2.506-6.119 3.458-7.811 1.767-4.365a30.2 30.2 0 015.712-1.01c1.668.066 5.079 1.152 5.768 1.873a14.883 14.883 0 011.66 2.854l-1.66 10.063-1.931 8.123-2.1 7.242-2.5 6.789-2.7 5.758-1.987 3.363-2.023 2.711-2.772 2.43-3.192 1.834-2.594.861H110l-3.4-.861-3.777-2.588-2.588-2.645-2.512-3.527-2.052-3.975-1.831-4.121-1.692-5.053-1.428-5.389-1.208-4.6h-.79l-2.1 3.088-2.7 4.3-2.27 4.643-1.064 3.422-.448 2.992.448 2.646 1.064 5.018s1.157 5.7 1.1 5.789.513 3.725.513 3.725l.408 4.881H11.361z" fill="#ffc300"/><path data-name="Tracé 23164" d="M82.914 13.7l.87 2.223 1.026 1.969.781 1.637 1.319 2.537 1.122 1.631.905 1.133.4.648v1.8l-1.042.881 1.042 2.5.724 4.281v1.873l-.315 2.664-.807 1.494-.905 1.33-1.122.84-2.1.859a10.673 10.673 0 01-1.625.445c-.267-.018-3.028.268-3.028.268h-1.885l-.3 1.965-.507 2.334-.293 2.615v2.338l-1.365-1.053-2.265-.537-2.5-.4-2.236-.346H57.025l1.907-6.914L71.044 9.328z" fill="#fff"/><g data-name="Groupe 22076"><path d="M77.965 44.609a31.155 31.155 0 00-1.3 7.654c-.067.616.9.607.963 0a30.414 30.414 0 011.264-7.394c.212-.587-.712-.837-.962-.26z" fill="#223254"/><path data-name="Path" d="M77.216 44.523c16.454 1.348 12.92-9.782 11.553-15.4-.1-.375-.212-.741-.308-1.107a2.311 2.311 0 00.462-3.148 20.219 20.219 0 01-1.329-1.858 32.012 32.012 0 01-2.349-4.2A143.81 143.81 0 0078.41 5.973" fill="none" stroke="#223254" stroke-miterlimit="10"/><path data-name="Path" d="M74.941 25.412c.25-.2.626-.058.866.077a4.641 4.641 0 01.751.539 4.15 4.15 0 011.05 1.512c0 .144.289.077.231-.067a4.458 4.458 0 00-1.242-1.734c-.452-.375-1.251-.962-1.82-.5-.125.1.048.27.164.173z" fill="#223254"/><path data-name="Path" d="M76.325 26.846a.761.761 0 01.876-.222.135.135 0 00.154-.086.125.125 0 00-.087-.145 1.021 1.021 0 00-1.116.28.125.125 0 00.173.173zM60.44 34.134c-.612 2.889-1.084 5.844-1.652 8.755a51.807 51.807 0 01-2.214 8.6c-.221.578.712.828.963.25a52.635 52.635 0 002.2-8.6c.582-2.882 1.054-5.85 1.67-8.745.125-.605-.799-.866-.967-.26zM26.696 80.04a139.41 139.41 0 00-3.148 17.715c-.424 3.851-.616 7.77-1.29 11.553a22.991 22.991 0 01-3.447 8.935 21.3 21.3 0 01-4.246 4.718c-2.027 1.665-4.38 3.138-6.065 5.179a8.03 8.03 0 00-1.926 4.073 7.259 7.259 0 00.587 3.668 17.041 17.041 0 001.777 3.062 10.918 10.918 0 011.483 2.378c.212.587 1.136.337.963-.25a8.877 8.877 0 00-1.2-2.07 25.032 25.032 0 01-1.666-2.58 6.364 6.364 0 01.125-6.884c1.5-2.243 3.976-3.793 6.056-5.459a23.367 23.367 0 004.487-4.708 23.03 23.03 0 003.8-8.819 105.576 105.576 0 001.319-11 140.363 140.363 0 013.316-19.259.5.5 0 00-.963-.26z" fill="#223254"/><path data-name="Path" d="M79.735 150.486a150.905 150.905 0 00-25.234-9.792 164.635 164.635 0 00-27.035-5.468 150.193 150.193 0 00-15.145-.963.481.481 0 100 .963 155.344 155.344 0 0126.871 2.811 163.547 163.547 0 0126.207 7.317 142.24 142.24 0 0113.855 6.009c.549.27 1.04-.558.481-.838zM83.273 21.695a1.926 1.926 0 000 .327 1.29 1.29 0 000 .337 1.627 1.627 0 00.173.53.481.481 0 00.289.221.443.443 0 00.366-.048.462.462 0 00.221-.275v-.139a.433.433 0 00-.067-.241v-.067l.048.116a1.5 1.5 0 01-.1-.356v.124a1.165 1.165 0 010-.366v.135a.433.433 0 000-.193.53.53 0 00-.054-.172.443.443 0 00-.287-.222.472.472 0 00-.377.048.453.453 0 00-.223.289zM84.159 29.474a2.59 2.59 0 002.33 1.5.481.481 0 00.481-.481.491.491 0 00-.481-.481h-.193l-.289-.067-.135-.048h-.067l-.25-.143h-.106l-.212-.202v-.058c0-.048.058.087 0 0l-.077-.12a1.454 1.454 0 01-.144-.265.481.481 0 00-.289-.222.53.53 0 00-.366.048.5.5 0 00-.221.289.568.568 0 00.048.376zM81.366 18.489l.34-.096a.327.327 0 00.16-.077.356.356 0 00.125-.145.27.27 0 00.058-.173.327.327 0 000-.193v-.115a.5.5 0 00-.173-.173l-.116-.049a.549.549 0 00-.25 0l-.347.1a.308.308 0 00-.163.086.424.424 0 00-.125.132.53.53 0 00-.058.173.433.433 0 000 .195l.048.114a.5.5 0 00.173.173l.116.048a.587.587 0 00.26 0z" fill="#223254"/><path data-name="Path" d="M75.617 22.571a1.271 1.271 0 01-1.685 1.1 2.041 2.041 0 00-2.792 1.223c-.876 2.051 1.03 4.034 2.234 5.006a1.4 1.4 0 01.395 1.675c-.693 1.512-2.08 4.429-3.572 7.057-1.714 3.023-1.54 5.083-4.958 6.008h-7.558c-.116 0 .087.058 0 0-1.532-.965-13.663-8.07-14.443-18.449a16.492 16.492 0 014.959-13.219 27.766 27.766 0 004.448-5.622c1.492-2.542 4.987-5.777 13.151-6.191a20.911 20.911 0 0116.175 6.672c3.427 3.5 2.2 6.6-2.763 6.836a14.567 14.567 0 01-4.593-.525.385.385 0 00-.443.568 8.771 8.771 0 011.54 5.6z" fill="#1e96fc" stroke="#223254"/><g fill="none" stroke="#223254" stroke-miterlimit="10"><path data-name="Path" d="M89.334 110.036c0-.26-10.591 12.516-8.877 20.642 4.323 20.222 4.361 24.15-.231 27.241M72.293 56.663c3.042-.135 6.094-.1 9.137.048 6.431.308 13.594.4 17.5 6.239 1.772 2.657 2.33 5.719 3.4 8.665.876 2.407 1.6 4.881 2.282 7.365 1.444 5.218 2.725 10.485 4.15 15.712q2.773 10.225 5.43 20.469v.135M115.493 119.359a65.065 65.065 0 01-1.589-5.507s4.5-10.86 8.963-21a64.978 64.978 0 005.42-22.23 22.991 22.991 0 013.294-8.933"/><path data-name="Path" d="M87.255 103.011a85.494 85.494 0 013.091 10.215s6 32.975 23.886 29.576c16.887-3.206 23.7-48.052 24.262-63.033a5.9 5.9 0 011.723-4.284c1.666-1.492 3.466-4.602 4.814-6.922M73.044 56.635c.337 0-26.544-.712-39.859-1.088-7.972-.222-14.663 9.396-7.134 34.66"/></g><path data-name="Path" d="M78.195 155.074s-63.601-1.853-74.673 2.884c0 0 4.41-10.918 5.16-12.275s3.447-6.109 3.909-7.209.588-3.96 3.765-3.681 30.809 2.888 45.953 9.137l13.084 5.3s1.926.087 2.378 2.985" fill="#223254"/><path data-name="Path" d="M145.056 60.707l3.187-14.442a2.782 2.782 0 00-2.773-3.341h-13.161a2.811 2.811 0 00-2.763 2.176l-7.009 31.502a2.782 2.782 0 002.763 3.35h8.405" fill="none" stroke="#223254" stroke-miterlimit="10"/><path data-name="Path" d="M79.247 56.258c-1.049-1.165-1.358-2.888-2.888-3.668a10.976 10.976 0 00-2.889-.673 76.029 76.029 0 00-3.331-.549 34.66 34.66 0 00-6.621-.385c-1.148.058-2.284.183-3.421.275s-2.146.1-3.225.129a3.254 3.254 0 00-2.561 1.223 18.572 18.572 0 00-1.733 2.888c-.289.549.54 1.04.84.491a24.84 24.84 0 011.375-2.416 2.542 2.542 0 012.291-1.215c2.031 0 4.044-.26 6.075-.385a32.436 32.436 0 016.037.241 49.853 49.853 0 016.1 1.03c1.81.462 2.128 2.455 3.245 3.707.414.462 1.088-.221.684-.684zM102.043 69.881l6.136-9.492a8.049 8.049 0 012.01-2.176 3.62 3.62 0 011.4-.289 48.938 48.938 0 011.694-.116c1.126-.067 2.263-.1 3.389-.1a.481.481 0 100-.963c-1.2 0-2.407 0-3.6.106a9.04 9.04 0 00-3.22.457 6.826 6.826 0 00-2.147 2.147l-6.336 9.752c-.395.472.289 1.155.674.674z" fill="#223254"/><path data-name="Path" d="M112.686 62.517a9.734 9.734 0 014.034.963c.51.289 1.579 1.03.963 1.685s-1.589.241-2.253 0a.491.491 0 00-.616.462 7.635 7.635 0 01-1.724 4.814 7.808 7.808 0 01-1.926 1.675 5.469 5.469 0 00-1.839 1.5c-.347.52.491.963.828.491.5-.751 1.463-1.088 2.166-1.617a8.665 8.665 0 001.849-1.924 8.521 8.521 0 001.608-4.972l-.607.462a3.2 3.2 0 003.024-.14 1.589 1.589 0 00.241-2.33c-1.339-1.676-3.765-1.926-5.777-2.092-.614-.055-.614.908 0 .965zM51.249 82.871a139.371 139.371 0 01-7.5 32.359q-1.627 4.525-3.572 8.925c-.058.135.144.26.212.116a140.382 140.382 0 009.772-32.081q.828-4.641 1.329-9.32a.12.12 0 00-.241.001zM39.701 127.543l-.414-.203a.116.116 0 00-.1 0 .106.106 0 00-.063.058.125.125 0 000 .166l.413.2a.193.193 0 00.1 0 .154.154 0 00.074-.058.125.125 0 00-.049-.163z" fill="#223254"/><path data-name="Path" d="M43.015 17.017c.963-4.881-.193-10.388-3.851-13.758s-9.993-3.855-13.479-.308a18.013 18.013 0 01-2.831 2.888c-2.888 1.781-6.277.635-9.358.27A11.332 11.332 0 004.379 9.18a8.54 8.54 0 00-2.725 6.335 9.426 9.426 0 002.3 5.5c5.257 6.4 14.336 8.9 22.336 8.02a10.417 10.417 0 013.091-.067 18.542 18.542 0 011.993.655 8.665 8.665 0 0011.332-7.452" fill="#1e96fc" stroke="#223254"/><path data-name="Path" d="M43.441 17.141a16.714 16.714 0 00-1.339-10.735A11.553 11.553 0 0034.236.273a9.791 9.791 0 00-9.089 2.465c-.693.722-1.271 1.55-2.012 2.2a5.661 5.661 0 01-2.888 1.271c-2.089.308-4.207-.279-6.277-.558A11.861 11.861 0 003.38 9.507 9.233 9.233 0 001.127 14.6a9 9 0 001.617 5.719 20.382 20.382 0 008.472 6.874 28.431 28.431 0 0010.533 2.5 41.631 41.631 0 005.584-.26 7.385 7.385 0 013.35.51 9.743 9.743 0 002.888.616 9.185 9.185 0 009.522-8.357c.058-.616-.905-.616-.963 0a8.261 8.261 0 01-6.942 7.307 8.049 8.049 0 01-2.84-.067c-.963-.193-1.8-.635-2.734-.857-1.8-.443-3.764.1-5.594.154-6.738.225-13.824-1.854-18.628-6.739a11.63 11.63 0 01-3.052-4.724 7.259 7.259 0 01.616-5.555A10.591 10.591 0 0112.42 6.5c3.582.1 7.529 1.926 10.812-.433 1.425-1.011 2.263-2.628 3.716-3.62A8.54 8.54 0 0131.3 1.024a10.35 10.35 0 018.434 3.63 14.143 14.143 0 013.119 9.666 17.648 17.648 0 01-.289 2.571c-.116.607.809.857.963.25zM17.746 121.179a.125.125 0 000-.241.125.125 0 000 .241z"/></g><path data-name="Tracé 23167" d="M139.665 61.654a9.85 9.85 0 00-1.579 3.563" fill="none" stroke="#223254" stroke-miterlimit="10"/><path data-name="Tracé 23168" d="M137.957 58.045a6.949 6.949 0 00-2.744 5.144" fill="none" stroke="#223254" stroke-miterlimit="10"/><path data-name="Tracé 23169" d="M141.34 64.716a7.252 7.252 0 00-1.19 3.074" fill="none" stroke="#223254" stroke-miterlimit="10"/></g></svg>