<svg xmlns="http://www.w3.org/2000/svg" width="150" height="150"><defs><clipPath id="b"><path data-name="Rectangle 2057" fill="none" d="M0 0h200.666v211.289H0z"/></clipPath><clipPath id="a"><path d="M0 0h150v150H0z"/></clipPath></defs><g clip-path="url(#a)"><g transform="translate(-42.738 -21)" clip-path="url(#b)"><g data-name="Groupe 5252" transform="translate(-89.075 22.433)"><path data-name="Tracé 23160" d="M158.626 122.629v15.3h43.283l-2.23 4.041-1.779 2.727-1.65 2.3-2.766 3.02h60.865v-6.127l2.412.254 3.465-.254 3.461-.564 3.23-.869 2.684-1.127 2.3-1.529 1.4-1.566 1.145-1.818 1.412-2.85.988-2.826.948-3.148.851-3.561.677-4.187-29.806-60.316-10.16-2.5-.423-.7.423-23.9 5.99-.85L248.9 15.85l.83-1.883.651-2.607.235-1.943-.235-1.834-.651-1.457-1.345-1.3-1.53-1.076-1.509-.605-2.133-.723-2.57-.5-2.61-.389-3.556-.379h-3.711l-20.291 14.047-.34 4.367-.386 15.316.386 2.18.6 1.908.683 1.508.939 1.484 1.078 1.277 1.479 1.326 1.607 1.082 2.448 1.213.862.359.276 3.654s.321 4.678 0 4.738-2.663 1.047-2.663 1.047L206.55 67.945l-26.562 33.775-2.414 1.713-.247 8.443v1.3l-1.481-.385-3.043-1.242-2.143-.326h-2.114l-2.394.652-2.334.916-1.887 1.4-1.353 1.619-1.044 1.891-.528 1.8-.366 1.963z" fill="#fff"/><path data-name="Tracé 12023" d="M219.97 55.708l-4.955 1.087-10.458 3.019-7.987 3.25-8.383 4.968-3.686 3.6-2.46 5.175-3.271 14.032-1.09 12.507v2.615l18.89-1.353v6.332l5.2-.725 4.738.725 2.976 1.766 2.175 1.64 2.62.86 5.691 1.456 5.676 1.318 6.716.909 13.182.863 7.693.817.987-5.364.927-9.245 8.61.828 8.416 1.618 6.284 1.808 2 .725V92.423l-.806-8.419-1.189-7.192-3.624-5.175-3.947-3.6-5.394-2.759-5.882-2.213-9.005-3.249-2.861-.813-4.665 6.275-3.424 4.8-2.51 2.478-1.953 2.217-2.836 1.215-5.161-9.056-4.644 5.625-2.59 2.218-4.119-5.585-1.567-2.258a17.147 17.147 0 011.562-6.145 18.96 18.96 0 014.124-5.079z" fill="#ffc300"/><path data-name="Tracé 5649" d="M168.792 253.417c2.061-13.39 13.047-32.961 38.8-45.664s45.321-16.137 45.321-16.137" fill="#fff"/><g data-name="Groupe 5246"><path data-name="Tracé 5650" d="M250.486 8.788c-.345-4.6-5.576-6.124-9.383-6.794a69.156 69.156 0 00-13.335-.831c-1 .019-1.994.047-2.988.11a2.108 2.108 0 100 4.215c2.524-.158 5.065-.165 7.591-.093a75.14 75.14 0 013.221.158q.859.06 1.714.145c.254.026.508.053.76.081l.378.045.251.032c.339.041-.187-.022-.187-.026.008-.053 2.846.5 3.113.563a24.841 24.841 0 012.754.852c.059.021-.474-.217-.094-.037.116.055.231.109.346.165.205.1.406.212.6.332.172.105.332.235.5.336s-.277-.227-.261-.2a1.213 1.213 0 00.157.13c.068.063.139.123.207.188.1.1.511.585.243.241s.077.162.151.279c.195.308-.089-.256-.079-.209.015.079.058.158.08.236s.036.194.068.281c.084.227-.063-.632-.031-.195a2.108 2.108 0 004.216 0z" fill="#e8ebef"/></g><g data-name="Groupe 5247" stroke="#223254" stroke-miterlimit="10"><path data-name="Tracé 5651" d="M211.473 11.431c-1.762 6.934-1.553 14.761-1.694 22.138a13.549 13.549 0 007.049 12.3 12.25 12.25 0 0015.533-2.632" fill="none"/><path data-name="Tracé 5652" d="M226.487 25.658a.572.572 0 01.262.482.885.885 0 01-.191.526c-.053.072-.155.145-.229.094s-.039-.149 0-.222l.236-.475" fill="none"/><path data-name="Tracé 5653" d="M214.611 25.894a.57.57 0 01.262.482.869.869 0 01-.191.526c-.053.072-.153.145-.229.093s-.039-.148 0-.221l.236-.476" fill="none"/><path data-name="Tracé 5654" d="M237.592 30.44a7.908 7.908 0 005.412-4.184 4.61 4.61 0 00.5-2.233 2.871 2.871 0 00-.99-2.036 3.371 3.371 0 00-3.362-.359 4.389 4.389 0 00-2.3 2.453" fill="none"/><path data-name="Tracé 5655" d="M239.398 30.243c-.24 8.194-.079 18.6-.317 26.794" fill="none"/><path data-name="Tracé 5656" d="M219.729 47.167a68.6 68.6 0 01.215 10.471" fill="none"/><path data-name="Tracé 5657" d="M229.557 45.708c-2.248 1.165-1.922 3.047-9.226 7.065-.63.346.27-.8-.287-.369-.113-1.2.047-3.651 0-4.851 6.975.675 3.977.483 3.977.483-.391-.538-1.55.773 1.2-.483" fill="#223254"/><path data-name="Tracé 5658" d="M220.102 25.166a30.691 30.691 0 00-.633 6.231" fill="none"/><path data-name="Tracé 5659" d="M228.956 20.405a3.932 3.932 0 00-2.514-.552" fill="none"/><path data-name="Tracé 5660" d="M216.429 21.202a3.939 3.939 0 00-2.513-.552" fill="none"/></g><path data-name="Tracé 5661" d="M220.444 34.417a3.459 3.459 0 001.8-.359 7.76 7.76 0 001.546-1.026" fill="none" stroke="#223254" stroke-miterlimit="10"/><path data-name="Tracé 5662" d="M209.676 16.95c5.575-.857 15.451-3.127 19.279-8.738a37.12 37.12 0 01-4.683 7.071.759.759 0 00.679 1.264c2.436-.433 5.485-1.906 5.921-7.075 0 0 .912 12.028 6.769 13.289 0 0 1.508-2.343 3.187-1.558s3.078 2.171 2.626 3.612a9.454 9.454 0 01-2.338 3.869c-.782.589-2.141.873-1.729 3.734l-.125 5.895s15.753-11.656 8.319-25.093C240.172-.171 232.732 2.49 232.732 2.49s-15.829-10.368-25.539 11.205a2.333 2.333 0 002.483 3.255z" fill="#1e96fc" stroke="#223254" stroke-miterlimit="10"/><path data-name="Tracé 5663" d="M248.798 15.97s4.281 18.02 4.454 24.816-14.175 4.922-14.175 4.922l.317-11" fill="#1e96fc" stroke="#223254" stroke-miterlimit="10"/><g data-name="Groupe 5248" transform="translate(234.359 20.662)"><ellipse data-name="Ellipse 7" cx="4.921" cy="5.345" rx="4.921" ry="5.345" fill="#e8ebef"/><ellipse data-name="Ellipse 8" cx="4.921" cy="5.345" rx="4.921" ry="5.345" fill="none" stroke="#223254" stroke-miterlimit="10"/></g><g data-name="Groupe 5249"><path data-name="Tracé 5664" d="M241.632 26.751c.028-.051.071-.093.1-.144-.02.035-.419.528-.21.274l.138-.172c.243-.3.489-.6.731-.9a78.195 78.195 0 002.447-3.187 35.338 35.338 0 004.738-8.539 13.584 13.584 0 00.911-5.293 2.108 2.108 0 00-4.216 0 9.071 9.071 0 010 1c-.008.146-.024.292-.034.437-.029.394.026-.083.021-.119a1.173 1.173 0 01-.047.3 14.38 14.38 0 01-.541 2.106c-.12.359-.258.711-.392 1.064-.035.091-.157.372.024-.048-.033.077-.065.152-.1.228-.091.2-.181.4-.275.6-.334.706-.7 1.4-1.085 2.074a44.346 44.346 0 01-2.432 3.768c-.392.549-.8 1.088-1.2 1.625-.232.308.255-.323.024-.03l-.256.327c-.166.212-.335.423-.5.634a15.491 15.491 0 00-1.479 1.873 2.108 2.108 0 003.64 2.128z" fill="#e8ebef"/></g><path data-name="Tracé 5665" d="M244.307 7.221c-.6 0 .215.1.32.152.205.1.406.212.6.332.143.087.279.188.419.279.063.057.126.112.188.171.039.038.118.126.19.207.055.087.143.22.189.289l.017.051c.015.051.027.1.038.157a8.6 8.6 0 010 .925c-.007.146-.024.292-.034.437 0 .039 0 .064-.006.086s-.016.065-.02.091a14.379 14.379 0 01-.541 2.106c-.12.359-.259.711-.392 1.064l-.039.1c-.014.037-.024.055-.037.083-.091.2-.181.4-.275.6-.334.706-.7 1.4-1.086 2.074a44.032 44.032 0 01-2.43 3.768c-.392.549-.8 1.088-1.2 1.625h0l-.233.3c-.166.212-.335.423-.5.634a15.492 15.492 0 00-1.479 1.873 2.108 2.108 0 003.64 2.128.542.542 0 01.04-.058c.239-.3.48-.59.718-.886a78.195 78.195 0 002.447-3.187 35.3 35.3 0 004.738-8.539 13.586 13.586 0 00.911-5.293 2.4 2.4 0 00-.06-.411c-.621-4.278-5.634-5.734-9.323-6.382a52.083 52.083 0 00-11.562-.819m15.67 12.553z" fill="none" stroke="#223254" stroke-miterlimit="10"/><path data-name="Tracé 5666" d="M209.842 34.242l-5.283 5.283a.551.551 0 000 .779l.321.321a.55.55 0 00.778 0l.615-.615a.551.551 0 00.063-.7l-.64-.916" fill="#223254" stroke="#223254" stroke-miterlimit="10"/><path data-name="Tracé 5667" d="M239.077 57.037s35.119 6.513 39.238 20.247 3.434 53.561-6.523 62.487c-9.333 8.369-42.621 3.863-58.979-8.329a9.633 9.633 0 00-6.025-1.864 22.853 22.853 0 01-4.694-.451c-6.181-1.144-9.613.229-9.613.229" fill="none" stroke="#223254" stroke-miterlimit="10"/><path data-name="Tracé 5668" d="M191.134 125.236a13.911 13.911 0 013.4-.967" fill="none" stroke="#223254" stroke-miterlimit="10"/><path data-name="Tracé 5669" d="M189.855 121.922a5.008 5.008 0 012.625-1.062" fill="none" stroke="#223254" stroke-miterlimit="10"/><path data-name="Tracé 5670" d="M187.047 118.085c4.246-2.651 8.248-3.189 13.245-2.925" fill="none" stroke="#223254" stroke-miterlimit="10"/><path data-name="Tracé 5671" d="M199.779 110.501a12.423 12.423 0 0110.22 2.7 13.211 13.211 0 002.052 1.459 8.522 8.522 0 001.647.544c4.054 1.039 8.115 2.08 12.248 2.742 12.019 1.928 24.684.681 36.04 5.063" fill="none" stroke="#223254" stroke-miterlimit="10"/><path data-name="Tracé 5672" d="M218.263 56.041s-31.265 6.714-35.3 18.381c-5.683 16.423-5.683 39.086-5.683 39.086" fill="none" stroke="#223254" stroke-miterlimit="10"/><path data-name="Tracé 5673" d="M183.034 118.086s-6.86-7.327-13.383-6.812-10.987 4.081-10.987 11.739" fill="none" stroke="#223254" stroke-miterlimit="10"/><path data-name="Tracé 5674" d="M162.302 121.237a11.844 11.844 0 00.037 4.238" fill="none" stroke="#223254" stroke-miterlimit="10"/><path data-name="Tracé 5675" d="M166.178 121.117a16.324 16.324 0 00.178 4.124" fill="none" stroke="#223254" stroke-miterlimit="10"/><path data-name="Tracé 5676" d="M171.419 124.448q-.154-1.618-.21-3.245c-.038-1.069.038-2.315.908-2.939" fill="none" stroke="#223254" stroke-miterlimit="10"/><path data-name="Tracé 5677" d="M176.106 123.386a5.012 5.012 0 002.344-3.175" fill="none" stroke="#223254" stroke-miterlimit="10"/><g data-name="Groupe 5250" transform="translate(111.159 125.351)"><rect data-name="Rectangle 2050" width="78.695" height="5.722" rx=".753" fill="#e8ebef"/><rect data-name="Rectangle 2051" width="78.695" height="5.722" rx=".753" fill="none" stroke="#223254" stroke-miterlimit="10"/></g><g data-name="Groupe 5251" fill="#223254" stroke="#223254" stroke-miterlimit="10"><path data-name="Rectangle 2052" d="M127.935 124.211h4.807v1.031h-4.807z"/><path data-name="Rectangle 2053" d="M135.946 124.211h4.807v1.031h-4.807z"/><path data-name="Rectangle 2054" d="M143.958 124.211h4.807v1.031h-4.807z"/><path data-name="Rectangle 2055" d="M151.969 124.211h4.807v1.031h-4.807z"/></g><rect data-name="Rectangle 2056" width="211.558" height="9.728" rx="3.088" transform="translate(0 131.073)" fill="#223254" stroke="#223254" stroke-miterlimit="10"/><path data-name="Tracé 5678" d="M254.161 106.583a84.165 84.165 0 0122.757 3.117c1.075.3 2.145.624 3.213.947.169.051.374.152.36.328s-.376.041-.226-.051" fill="none" stroke="#223254" stroke-miterlimit="10"/><path data-name="Tracé 5679" d="M254.798 107.039a88.709 88.709 0 01-1.776 13.161" fill="none" stroke="#223254" stroke-miterlimit="10"/><path data-name="Tracé 5680" d="M197.994 87.131c-2.047 6.6-1.189 20.49 0 27.3" fill="none" stroke="#223254" stroke-miterlimit="10"/><path data-name="Tracé 5681" d="M177.83 105.871a119.367 119.367 0 0118.429-1.4" fill="none" stroke="#223254" stroke-miterlimit="10"/><path data-name="Tracé 5682" d="M214.357 66.29a32.4 32.4 0 006.031 9.037 61.561 61.561 0 016.833-8.465q3.066 4.467 5.688 9.222c3.466-1.956 5.976-5.207 8.389-8.37l4.648-6.1" fill="none" stroke="#223254" stroke-miterlimit="10"/><path data-name="Tracé 5683" d="M167.419 220.456c37.939-42.231 39.61-44.113 39.61-44.113" fill="none" stroke="#223254" stroke-miterlimit="10"/><path data-name="Tracé 5684" d="M254.322 144.05c9.669 9.228 9.45 27.8 7.089 37.724-3.093 13-23.63 25.93-33.051 35.412-11.969 12.048-19.419 20.18-34.231 29.51" fill="none" stroke="#223254" stroke-miterlimit="10"/><path data-name="Tracé 5685" d="M200.293 140.801a38.6 38.6 0 01-14.051 15.036c-19.067 11.647-38.142 24.932-51.978 42.739-6.707 8.632-12.27 18.592-14.374 29.408" fill="none" stroke="#223254" stroke-miterlimit="10"/><path data-name="Tracé 5686" d="M209.61 129.908l13.665 7.249s10.38 5.043 17.4 5.457a71.574 71.574 0 0111.006 1.35 5.962 5.962 0 014.312 1.761c1.687 1.878 6.01 10.671 6.01 15.351 0 0-4.6 1.667-34.693-11.96-15.182-6.875-27.529-7.61-27.529-7.61s-5.21-12.411-3.672-12.8" fill="#223254"/><path data-name="Tracé 5687" d="M156.062 239.678c17.113-28.073 39.13-50.143 39.13-50.143s-30.952 24.937-41.336 35.362" fill="#223254"/><path data-name="Tracé 5688" d="M256.63 106.583s18.218 11.864 21.9 17.617c0 0 1.285-8.022 1.443-9.641s1.945-3.446-1.419-4.65c-4.3-1.541-21.924-3.326-21.924-3.326z" fill="#223254"/><path data-name="Tracé 5689" d="M180.044 105.55s13.968 2.86 17.949 7.958c0 0-1.1-5.754-.891-6.48s.306-2.585-1.617-2.559" fill="#223254"/></g></g></g></svg>