<svg xmlns="http://www.w3.org/2000/svg" width="60" height="60"><defs><clipPath id="a"><path d="M0 0h60v60H0z"/></clipPath></defs><g clip-path="url(#a)"><path data-name="Tracé 23178" d="M31.487 11.321s-4.5-8.318-15.818-7.5S1.351 14.191 1.214 16.778-.559 29.321 7.896 37.911a208.528 208.528 0 0018.409 16.772c1.091.682 3.273 3.409 6.272.818s15.683-13.5 17.728-15.818 7.278-8.182 8.183-14.864 1.5-14.045-6.272-19.5-18.683 2.051-20.729 6.002z" fill="#e23f34"/><path data-name="Tracé 23179" d="M15.465 9.208s-.375-.375.17-.989a5.636 5.636 0 015.318-1.807c3.034.511 4.227 2.25 4.432 2.8s.647 1.738.409 2.216a.9.9 0 01-1.432.273c-.545-.477-1.432-1.807-2.693-2.08a12.311 12.311 0 00-3.784-.2c-.887.127-2.011.4-2.42-.213z" fill="#ed8385"/><path data-name="Tracé 23180" d="M43.385 7.503s-.034.306.2.341.818.1 2.25.17 2.795 0 3.783.716a21.559 21.559 0 001.978 1.5 1.077 1.077 0 001.125 0c.239-.17.546-.988-.375-2.046a5.344 5.344 0 00-4.172-1.977c-2.126-.104-4.142.512-4.789 1.296z" fill="#ed8385"/><path data-name="Tracé 23181" d="M43.982 3.558c-5.74.851-11.12 5.105-12.494 7.763a27.757 27.757 0 012.727 5.25s2.472-9.456 9.767-13.013z" fill="#bb3136"/><g data-name="Groupe 23138"><path data-name="Tracé 23182" d="M29.613 54.121a4.3 4.3 0 01-2.046-.971 58.509 58.509 0 01-6.966-6.443C17.623 43.536 9.874 32.082 8.238 27.889s-1.022-9.818.716-15.944c1.1-3.864 4.59-6.625 7.023-8.139-.1.006-.2.007-.308.015-11.318.818-14.318 10.37-14.455 12.957S-.559 29.321 7.896 37.911a208.592 208.592 0 0018.409 16.773c1.091.682 3.273 3.409 6.272.818 1.21-1.045 4-3.442 7.021-6.084-1.907 1.09-4.639 2.684-6.049 3.655-2.301 1.585-3.221 1.125-3.936 1.048z" fill="#bb3136"/></g></g></svg>