<svg xmlns="http://www.w3.org/2000/svg" width="60" height="60"><defs><clipPath id="a"><path d="M0 0h60v60H0z"/></clipPath></defs><g data-name="Groupe 23176" clip-path="url(#a)"><path data-name="Rectangle 7821" fill="#c5c5c4" d="M26.855 36.273l-10.28 10.28-1.658-1.657 10.28-10.28z"/><path data-name="Tracé 23332" d="M25.71 35.197c4.31 4.311 3.545 8.335 2.107 11.322l28.7-41.887-42.636 29.013c2.984-1.421 7.679-2.598 11.829 1.552z" fill="#f5a100"/><path data-name="Tracé 23333" d="M39.456 48.944c2.672 2.672 3.871 6.109 3.388 8.907L56.517 4.632 27.383 47.147c2.838-2.837 8.247-2.032 12.073 1.797z" fill="#ffc11c"/><path data-name="Tracé 23334" d="M3.177 18.184c2.8-.481 6.237.718 8.907 3.39 3.83 3.828 4.634 9.233 1.8 12.071L56.521 4.632z" fill="#ec6f2c"/><path data-name="Tracé 23335" d="M16.574 46.553l-.091-.093-1.567-1.565-.314-.314-5.674 5.674c-.929.929-2.7.667-3.956-.589s-1.518-3.024-.588-3.956l.018-.016a1.679 1.679 0 00-2.273-2.271h-.005l-.012.013c-1.859 1.859-1.333 5.4 1.178 7.909s6.051 3.037 7.91 1.18l5.674-5.676z" fill="#2f3337"/><path data-name="Tracé 23336" d="M58.583 2.567a1.056 1.056 0 00-1.443-.214l-2.839 2.838a3.044 3.044 0 001.66 1.658L58.8 4.011a1.057 1.057 0 00-.217-1.444z" fill="#2f3337"/><path data-name="Tracé 23337" d="M18.746 39.696c.093-.009.243.1.378.234l.347.346-1.043 1.045c.172-.867-.1-1.585.318-1.625z" fill="#2f3337"/></g></svg>