<svg xmlns="http://www.w3.org/2000/svg" width="60" height="60"><defs><clipPath id="a"><path d="M0 0h60v60H0z"/></clipPath></defs><g data-name="Groupe 23172" clip-path="url(#a)"><g data-name="Groupe 23167"><path data-name="Tracé 23293" d="M11.448 13.863a25.05 25.05 0 0135.386 0 24.918 24.918 0 010 35.386 25.05 25.05 0 01-35.386 0 24.919 24.919 0 010-35.386z" fill="#fff"/><path data-name="Tracé 23294" d="M43.397 31.555a14.54 14.54 0 01-4.2 10.048 14.173 14.173 0 01-20.041 0 15.072 15.072 0 01-4.26-10.048 13.947 13.947 0 013.986-9.939 14.973 14.973 0 0110.321-4.26 13.374 13.374 0 019.993 4.1 14.746 14.746 0 014.201 10.099z" fill="#fff"/><path data-name="Tracé 23295" d="M29.196 58.75a27.412 27.412 0 01-19.277-7.974 27.221 27.221 0 010-38.388 27.028 27.028 0 0138.444 0 27.223 27.223 0 010 38.388 27.287 27.287 0 01-19.167 7.974zm0-49.256a22.457 22.457 0 00-15.618 6.5 22.007 22.007 0 1031.125 0 22.331 22.331 0 00-15.507-6.499z" fill="#e03233"/><path data-name="Tracé 23296" d="M29.196 47.939a16.576 16.576 0 01-11.578-4.751 16.394 16.394 0 01-4.806-11.632 15.653 15.653 0 014.533-11.467 16.924 16.924 0 0111.74-4.916 16.225 16.225 0 0116.382 16.383 15.97 15.97 0 01-4.751 11.577 16.531 16.531 0 01-11.52 4.806zm.218-27.195h-.218a11.544 11.544 0 00-7.864 3.221 9.9 9.9 0 00-2.949 7.645 10.626 10.626 0 003.167 7.646 10.85 10.85 0 107.864-18.512z" fill="#e03233"/><path data-name="Tracé 23297" d="M25.973 28.443a4.621 4.621 0 016.334 0 4.486 4.486 0 010 6.226 4.621 4.621 0 01-6.334 0 4.485 4.485 0 010-6.226z" fill="#e03233"/></g><g data-name="Groupe 23171"><path data-name="Tracé 23323" d="M29.262 32.396a.556.556 0 01-.787-.786l2.216-2.215.715.786z" fill="#bebebe"/><g data-name="Groupe 23170"><g data-name="Groupe 23169"><path data-name="Tracé 23320" d="M41.555 19.863a77.171 77.171 0 017.218-6.898c4.24-3.56 5.236-4.102 5.584-4.1s5.621 1.233 5.291 3.55-4.536 6.535-6.05 6.998a28.925 28.925 0 01-7.845.966c-2.275-.169-4.198-.516-4.198-.516z" fill="#48bef1"/><path data-name="Tracé 23322" d="M55.26 18.174a20.766 20.766 0 01-7.6.763c-3.458-.5.02-4.514-1.421-3.045s-4.23 5.21-4.23 5.21 1.893.457 7.07-.342 6.181-2.586 6.181-2.586z" fill="#1a9cd5"/><path data-name="Tracé 23300" d="M30.561 26.525c-1.291 1.354-2.124 2.691-1.5 4.2a2.8 2.8 0 003.559 1.789c1.735-.406 18.493-19.977 19.8-21.592s3.09-4.227 3.114-4.871-2.124 1.205-2.124 1.205S31.852 25.17 30.561 26.525z" fill="#006399"/><path data-name="Tracé 23302" d="M30.248 32.177s-.772-1.2 1.351-4.158S55.38 6.248 55.38 6.248s.372.236 0-.328c-.234-.354-9.1 6.951-16.6 13.52-5.09 3.988-7.952 6.689-9.347 8.58-1.675 2.036.815 4.157.815 4.157z" fill="#0771ac"/><path data-name="Tracé 23303" d="M41.117 18.3a76.809 76.809 0 007.727-6.324c4.049-3.775 4.71-4.7 4.748-5.041s-.537-5.732-2.876-5.686-7.04 3.707-7.684 5.154a28.9 28.9 0 00-1.914 7.668c-.107 2.282-.001 4.229-.001 4.229z" fill="#48bef1"/></g><path data-name="Tracé 23321" d="M44.056 5.17a20.757 20.757 0 00-.763 7.6c.5 3.459 4.514-.021 3.044 1.422s-5.21 4.23-5.21 4.23-.457-1.895.342-7.072 2.587-6.18 2.587-6.18z" fill="#1a9cd5"/></g></g><path data-name="Tracé 23324" d="M29.029 32.635l-4.654 25.438s5.728 2.059 13.739-1.02 10.614-6.773 10.614-6.773z" fill="#bebebe" style="mix-blend-mode:multiply;isolation:isolate"/></g></svg>