<svg xmlns="http://www.w3.org/2000/svg" width="60" height="60"><defs><clipPath id="a"><path d="M0 0h60v60H0z"/></clipPath></defs><g data-name="Groupe 23160" clip-path="url(#a)"><g data-name="Groupe 23159"><g data-name="Groupe 23154"><g data-name="Groupe 23153"><path data-name="Tracé 23219" d="M1.001 29.989s.962-11.564 7.049-17.385S19.958 2.917 32.262 2.163s19.979 11.7 21.169 13.913 4.727 8.806 4.727 13.913.036 15.824-7.24 20.587-14.289 7.542-19.317 7.277-17.729-1.323-23.418-9.261-7.182-10.479-7.182-18.603z" fill="#ffc710"/><path data-name="Tracé 23220" d="M30.591 8.17a10.17 10.17 0 017.758.879.353.353 0 00.486-.474c-1.081-1.99-3.9-5.607-8.576-1.006a.354.354 0 00.332.601z" fill="#ffe737"/><g data-name="Groupe 23152"><g data-name="Groupe 23151"><g data-name="Groupe 23150"><path data-name="Tracé 23221" d="M19.131 52.589c-2.978-3.076-6.947-6.947-6.549-20.243s3.577-18 5.854-21.533c1.241-1.924 5.537-5.891 10.818-8.385-10.28 1.168-15.64 4.848-21.2 10.17-6.086 5.822-7.049 17.386-7.049 17.386 0 8.124 1.492 10.664 7.181 18.6s18.391 9 23.418 9.262c-.004 0-9.496-2.181-12.473-5.257z" fill="#fca814"/></g></g></g></g></g><g data-name="Groupe 23156"><g data-name="Groupe 23155"><path data-name="Tracé 23222" d="M54.579 20.538c-.132-.428-.332-.83-.463-1.257a3.7 3.7 0 01.025-2.127q-.311-.039-.637-.069c-1.562-.138-6.337-.046-8.542 0a10.747 10.747 0 00-5.1 1.424 10.082 10.082 0 01-4.5 1.217 8.833 8.833 0 01-4.087-.9 19.634 19.634 0 00-5.832-.734c-2.112 0-10.517.321-13.455.964s-2.894 2.3-2.894 2.3c.184 1.424 1.791 1.286 2.434 1.332s.781.5.827 1.056a33.1 33.1 0 001.1 6.292 4.889 4.889 0 003.123 3.674c1.01.552 3.49.413 6.476.413a39.82 39.82 0 008.312-.918c1.47-.414 1.516-1.608 1.7-2.3s.826-4.546 1.1-5.511.734-1.194.964-1.286a1.794 1.794 0 011.194.184c.6.23 1.056 1.423 1.24 2.434a15.8 15.8 0 001.929 4.73c.872 1.24 3.214 1.056 6.107 1.056a28.19 28.19 0 006.889-.8c1.377-.385 1.974-2.095 2.25-3.013a36.34 36.34 0 00.734-5.1c.045-.538.1-.959.165-1.305a4.318 4.318 0 01-1.059-1.756z" fill="#fca814"/></g></g><g data-name="Groupe 23157"><path data-name="Tracé 23223" d="M22.161 39.966c1.179-.7 1.928.246 2.714.79 2.484 1.716 4.992 3.331 8.1 3.661 4.5.477 8.133-.849 10.6-4.862.509-.828.932-2.57 2.126-1.933 1.349.719-.076 1.95-.353 2.951-.016.058-.034.115-.051.173a11.46 11.46 0 01-7.075 6 15.484 15.484 0 01-11.26-.543 11.059 11.059 0 01-4.324-3.719 2.376 2.376 0 01-.477-2.518z" fill="#6e0f12"/><path data-name="Tracé 23224" d="M22.162 39.967c.521 3.308 4.376 6.333 8.522 6.895a14.6 14.6 0 0014.62-6.116c-.022 2.216-1.709 3.393-3.118 4.593-5.268 4.489-14.67 3.833-19.311-1.3-1.018-1.127-2.182-2.42-.713-4.072z" fill="#fca814"/></g><g data-name="Groupe 23158"><path data-name="Tracé 23225" d="M10.459 19.224s-.046-1.653 2.893-2.3 11.343-.964 13.456-.964a19.612 19.612 0 015.833.735 8.837 8.837 0 004.087.9 10.083 10.083 0 004.5-1.217 10.754 10.754 0 015.1-1.424c2.2-.046 6.98-.137 8.542 0a6.9 6.9 0 013.4.919c.5.459.872 1.1.688 1.562a6.2 6.2 0 01-1.423 1.469c-.322.276-.551.918-.689 2.572a36.269 36.269 0 01-.735 5.1c-.276.918-.873 2.628-2.25 3.013a28.182 28.182 0 01-6.888.8c-2.893 0-5.235.184-6.108-1.056a15.807 15.807 0 01-1.928-4.73c-.184-1.01-.643-2.2-1.24-2.434a1.791 1.791 0 00-1.194-.184c-.23.092-.689.321-.965 1.286s-.918 4.822-1.1 5.51-.229 1.883-1.7 2.3a39.784 39.784 0 01-8.312.919c-2.985 0-5.465.137-6.475-.413a4.89 4.89 0 01-3.123-3.674 33.054 33.054 0 01-1.1-6.292c-.046-.551-.184-1.01-.827-1.056s-2.258.084-2.442-1.341z" fill="#050404"/><path data-name="Tracé 23226" d="M16.414 21.858a18 18 0 00.153 2.265 12.1 12.1 0 00.8 3.092 5.41 5.41 0 001.684 2.144 7.247 7.247 0 002.694.428c1.348.031 5.786-.031 6.46 0s2.847.031 3.367-.52a4.628 4.628 0 001.592-2.847c.184-1.531.245-4.746.245-5.389s.061-1.133-.459-1.531a3.5 3.5 0 00-2.235-.765c-.948.03-7.9-.034-9.4 0s-3.215 0-3.857.645a2.751 2.751 0 00-1.044 2.478z" fill="#1d2428"/><path data-name="Tracé 23227" d="M40.477 21.735s.246 1.99.459 2.878a10.169 10.169 0 001.286 2.847 1.813 1.813 0 001.684.949c1.1.122 3.918.214 5.174.184a11.435 11.435 0 003.459-.521 3.283 3.283 0 001.838-1.562 8.172 8.172 0 00.551-3.245c0-1.439-.062-3.368-.123-3.98a2.638 2.638 0 00-2.6-1.867 63.267 63.267 0 00-7.226.275 13.133 13.133 0 00-3.827 1.03c-.552.318-.945 1.118-.675 3.012z" fill="#1d2428"/><path data-name="Tracé 23228" d="M16.797 28.432s.046-.23.207-.23.321.012.6.4.5.98.941 1.2a2.919 2.919 0 001.584.334 20 20 0 012.112 0c.276.115.414.712.115.735s-2.479.046-3.146 0a2.353 2.353 0 01-2.411-1.768 1.391 1.391 0 01-.002-.671z" fill="#47565f"/><path data-name="Tracé 23229" d="M18.537 25.516a.229.229 0 00.275-.184c.046-.23-.046-1.125 0-2.09s.092-1.768.689-2.158a7.139 7.139 0 011.791-.9c.367-.069.826-.207 1.125-.252s.528-.207.482-.321a5.029 5.029 0 00-1.562-.115 16.9 16.9 0 00-2.411 0c-.413.115-.965-.115-1.194.643a7.676 7.676 0 00-.184 2.342c.03.623.443 2.989.989 3.035z" fill="#47565f"/><path data-name="Tracé 23230" d="M21.756 17.158s-.046.167.459.244 8.358.215 9.369.307 0-.643-.965-.826a28.527 28.527 0 00-4.776-.6c-1.652 0-4.27.14-4.087.875z" fill="#627785"/><path data-name="Tracé 23231" d="M29.838 21.062a1.405 1.405 0 01.735.5c.23.368.413 1.009.918.918s.781-.083.964-.707a1.471 1.471 0 00-.453-1.68c-.557-.458-1.062-.791-1.521-.647s-1.1.235-1.1.647-.278.463.457.969z" fill="#627785"/><path data-name="Tracé 23232" d="M52.061 19.486a.933.933 0 01.487.335c.152.244.274.669.609.609s.518-.055.639-.469a.976.976 0 00-.3-1.114c-.37-.3-.7-.524-1.009-.43s-.731.156-.731.43-.182.304.305.639z" fill="#627785"/><path data-name="Tracé 23233" d="M42.099 24.261c.459.011.275-.607.321-1.26s.23-2.26.873-2.674a9.766 9.766 0 012.3-1.148c.689-.184.505-.359 0-.455a9.427 9.427 0 00-2.755.225 1.956 1.956 0 00-1.332 1.653c-.05.827-.05 3.643.593 3.659z" fill="#47565f"/><path data-name="Tracé 23234" d="M41.12 28.202a2.213 2.213 0 00.643 1.094 2.136 2.136 0 001.562.5c1.071.051 1.714.194 1.929 0s.122-.592-.123-.592a5.344 5.344 0 01-1.884-.156c-.474-.242-1.147-.518-1.3-.977s-.367-.765-.643-.7-.358.361-.184.831z" fill="#47565f"/><path data-name="Tracé 23235" d="M47.09 16.286s-.087.123.568.123 4.3-.092 5.646 0a26.208 26.208 0 012.694.275c.49.092.734.153.8 0s-.245-.552-.827-.735a18.751 18.751 0 00-2.938-.49c-.979-.092-2.511 0-3.429 0a9.915 9.915 0 00-2.357.4c-.188.06-.34.151-.157.427z" fill="#627785"/><path data-name="Tracé 23236" d="M37.601 19.166a2.51 2.51 0 000 .873c.092.367 0 .869.459.894s.781-.05.873-.518a5.3 5.3 0 000-1.713c-.092-.225-.385-.638-.651-.546s-.681.138-.681 1.01z" fill="#47565f"/></g></g></g></svg>