<svg xmlns="http://www.w3.org/2000/svg" width="150" height="150"><defs><clipPath id="a"><path d="M0 0h150v150H0z"/></clipPath></defs><g data-name="illu-assu-3" clip-path="url(#a)"><path data-name="Rectangle 7594" fill="#fff" d="M24 118h83v32H24z"/><path data-name="Tracé 22167" d="M79.641 94.189l.641-1.7 1.292-2.09 1.112-2.355.812-2.363.67-2.4.773-1.7 1.218-1.41L98.334 54.55l.766-1.008.875-.613 1.105-.352h.863l8.04 2.188 8.884 2.453 6.828 2.148 6.693 2.543 4.592 2.047 5.113 2.438 4.573 2.793 1.136.922.569.934.209 1.379-.436 1.395-6.05 12.629-5.575 11.27-2.571 5.23-.713 1.207-1.616.488h-1.939l-4.307-1.117-3.1-.809-1.794 2.691-16.284 2.914H83.504l-5.339-9.562z" fill="#fff"/><path data-name="Tracé 22166" d="M39.676 53l1.136-8.4.926-6.088 1.382-10.834.22-.9-1.6-1.262-.926-1.732-.684-1.076v-2.912l1.021-1.176 1.411-.475 14.9-8.852 14.766.316.719 13.676-1.109 18.234-9.9 9.5-.535 8.607-2.116.535-3.195-.24-3.079-.5-2.837-.705-2.887-1.121-2.75-1.27-2.792-1.588z" fill="#fff"/><path data-name="Tracé 12021" d="M24.353 149.653l-4.709-2.4-4.5-4.383-3.421-7.3-3.4-11.47-2.841-12.468-1.669-9.754-.772-7.263-.731-9.543.731-5.984.772-3.155 1.669-2.974 3.646-3.111 6.021-4.092 11.759-6.069v-3.181l.828-4.131 1.4-3.706 2.456-4.046 2.941-3.33 3.177-2.85 4.2-2.335-.826 7.451-1.436 8.816 2.262 2.693 4.188 1.438 4.423 2.257 4.419.924h6.46v-2.071l.4-3.492.435-3.452 2.806.456 2-.456 2-1.3 1.071-.7 1.141 2 1.358 2.978.519 1.923.825.933 4.162-.442 5.03.442 3.2 1.11 2.559 1.147 2.113 2.343 1.356 2.554.492 2.1-7.308 15.758-1.072.971-.779 2.588-1.007 2.621-1.239 3.321-1.964 2.791v1.641l1.326 2.553 1.877 2.722 1.786 2.007 1.858 1.479 1.62.944 3.513-1.63 2.939-2.8 1.788-2.722 1.235-2.553 13.454 3.525.436 2.408 1.152 1.349s1.495.975 2.383.793a16.2 16.2 0 013.045 0h2.545l2.213-.793-.8 2.423-1.411 3.351.422.994 1.791 2.136-.8 6.118-2.772 8.59-2.5 6.606-3.548 7.257-3.57 6.2-2.7 2.309-8.58-4.588-2.836-2.858-17.246 1.6-14.38 4.383-4.877 2.4z" fill="#ffc300"/><path data-name="Tracé 5690" d="M62.416 46.62c-.5 2.91-.874 9.863-1.129 12.778" fill="none" stroke="#223254" stroke-miterlimit="10"/><path data-name="Tracé 5691" d="M95.298 99.358c-.2.322.258 5.364-3.605 6.7-1.338.46.567 3.832-1.287 6.408s-2.885 3.246-2.319 6.49-1.7 10.046-4.378 13.7-5.113 7.562-3.456 7.621 8.667-.249 9.777-.414 4.087-1.429 4.376.059.532 3.345-.653 3.655-23.13 2.472-24.675 3.246a12.946 12.946 0 00-3.194 2.73s-8.963.625-5.409-1.207 4.327-3.327 7.161-5.387 10.871-11.534 12.158-13.7 3.925-5.894 3.959-8.923-.375-4.751.141-5.787a8.747 8.747 0 012.132-2.859c1.082-.978 2.288-1.574 2.5-3.142a4.279 4.279 0 00-.391-2.892c-.2-.148-.878-.728.644-.952a11.733 11.733 0 003.788-1.9z" fill="#223254"/><path data-name="Tracé 5692" d="M42.048 35.885c-8.619 3.288-16.429 14.766-15.4 23.934l-9.539 5.048c-5.3 2.806-10.982 6.005-13.365 11.514-1.52 3.517-1.456 7.492-1.245 11.318a180.6 180.6 0 008.034 44.141 40.479 40.479 0 004.619 10.6c2.158 3.209 5.542 6.368 9.587 6.987" fill="none" stroke="#223254" stroke-miterlimit="10" stroke-width="1.5"/><path data-name="Tracé 5693" d="M38.685 116.041c5.494-4.822 7.9-6.531 13.4-11.353 3.774-3.312 7.979-6.8 13-6.976 2.729-.094 5.774.75 7.985-.85 1.824-1.319 3.447-4.233 5.424-3.157a3.965 3.965 0 011.466 2.266 17.74 17.74 0 006.14 7.981c.993.717 2.132 1.417 2.529 2.576 1.113 3.239-4.2 5.165-4.872 8.522a10.389 10.389 0 00.085 2.82c.314 4.095-1.767 7.973-4.047 11.388-5.647 8.461-12.646 14.593-21.07 20.294" fill="none" stroke="#223254" stroke-miterlimit="10"/><path data-name="Tracé 5694" d="M84.984 81.897a5.329 5.329 0 00-1.128 2.553 28.328 28.328 0 01-3.073 7.345 6.65 6.65 0 00-1.238 3" fill="none" stroke="#223254" stroke-miterlimit="10"/><path data-name="Tracé 5695" d="M95.52 80.806a14.522 14.522 0 00-4.959 4.508" fill="none" stroke="#223254" stroke-miterlimit="10"/><path data-name="Tracé 5696" d="M94.238 86.395a4.309 4.309 0 013.631-.349" fill="none" stroke="#223254" stroke-miterlimit="10"/><path data-name="Tracé 5697" d="M96.217 89.717a4.271 4.271 0 012.686.03" fill="none" stroke="#223254" stroke-miterlimit="10"/><path data-name="Tracé 5698" d="M100.343 93.657c-.879.656-2.226.52-2.973 1.323a3.532 3.532 0 00-.647 1.335 12.981 12.981 0 01-9.156 8.744" fill="none" stroke="#223254" stroke-miterlimit="10"/><path data-name="Tracé 5699" d="M38.685 50.971a6.955 6.955 0 003.176 3.721 31.145 31.145 0 0015.454 5.269 10.092 10.092 0 005-.678 6.056 6.056 0 003.1-3.535" fill="none" stroke="#223254" stroke-miterlimit="10"/><path data-name="Tracé 5700" d="M68.641 47.585c5.022 5.107 3.489 8.074 5.183 8.616a2.607 2.607 0 00.944.066c4.4-.257 8.308-.543 12.325 1.614 3.215 1.726 5.733 4.728 5.733 8.52" fill="none" stroke="#223254" stroke-miterlimit="10"/><path data-name="Tracé 5701" d="M97.371 94.98a116.458 116.458 0 012.766 26.219 12.094 12.094 0 01-.468 3.743c-.633 1.856-2.086 3.33-2.811 5.152-.89 2.238-.6 4.742-.583 7.15a1.32 1.32 0 01-1.178 1.663 51.878 51.878 0 01-13.773 1.411c-3.828-.122-7.78-.654-11.4.6" fill="none" stroke="#223254" stroke-miterlimit="10"/><path data-name="Tracé 5702" d="M94.306 139.414q.987 4.985 1.848 9.994" fill="none" stroke="#223254" stroke-miterlimit="10"/><path data-name="Tracé 5703" d="M38.685 103.315q1.4 5.274 2.333 10.662" fill="none" stroke="#223254" stroke-miterlimit="10"/><path data-name="Tracé 5704" d="M122.841 102.806c-.4 1.513-2.088 4.206-2.492 5.718-.121.452-.143-.444 0 0a3.582 3.582 0 00.9 1.174c1.625 1.806 1.236 4.6.664 6.961a103.407 103.407 0 01-11.476 28.256c-1.009 1.707-2.186 4.432-5.523 4.546" fill="none" stroke="#223254" stroke-miterlimit="10"/><path data-name="Tracé 5705" d="M111.069 99.357c-3.827-1.427-8.213-3.375-11.936-4.96" fill="none" stroke="#223254" stroke-miterlimit="10"/><path data-name="Tracé 5706" d="M85.457 81.629c3.375-7.5 8.909-18.629 12.384-26.087a5.094 5.094 0 011.874-2.49c1.118-.618 2.5-.315 3.735 0 14.631 3.781 29.739 7.72 42.683 15.794a5.5 5.5 0 011.81 1.554c1.059 1.638.213 3.793-.646 5.544-4.246 8.656-8.542 17.286-12.759 25.956a6.556 6.556 0 01-1.271 1.969 4.03 4.03 0 01-3.766.687c-2.3-.456-5.157-1.348-7.423-1.966" fill="none" stroke="#223254" stroke-miterlimit="10"/><path data-name="Tracé 5707" d="M111.148 101.487a10.8 10.8 0 01.879-5.957 13.116 13.116 0 00.674-1.528 8.227 8.227 0 00-.286-4.429" fill="none" stroke="#223254" stroke-miterlimit="10"/><path data-name="Tracé 5708" d="M115.424 87.569a11.933 11.933 0 01.48 3.617" fill="none" stroke="#223254" stroke-miterlimit="10"/><path data-name="Tracé 5709" d="M118.482 86.342a9.9 9.9 0 01.5 4.225" fill="none" stroke="#223254" stroke-miterlimit="10"/><path data-name="Tracé 5710" d="M122.077 85.525c1.081 1.4 1.14 3.3 1.155 5.067a31.576 31.576 0 01-.139 4.007" fill="none" stroke="#223254" stroke-miterlimit="10"/><path data-name="Tracé 5711" d="M126.223 96.956a3.644 3.644 0 01-.889 1.679q-1.88 2.391-3.882 4.681" fill="none" stroke="#223254" stroke-miterlimit="10"/><path data-name="Tracé 5712" d="M54.336 67.88l.653-.289a.475.475 0 01-.393.479c.382.294.33.874.244 1.348a87.2 87.2 0 00-1.261 20.444" fill="none" stroke="#223254" stroke-miterlimit="10" stroke-width=".25"/><path data-name="Tracé 5713" d="M53.113 91.082a1.467 1.467 0 00.145.929" fill="none" stroke="#223254" stroke-miterlimit="10" stroke-width=".25"/><path data-name="Tracé 5714" d="M54.2 90.926a.941.941 0 00.135.776" fill="none" stroke="#223254" stroke-miterlimit="10" stroke-width=".25"/><path data-name="Tracé 5715" d="M55.56 90.621l.165.925" fill="none" stroke="#223254" stroke-miterlimit="10" stroke-width=".25"/><path data-name="Tracé 5716" d="M66.707 66.821a.458.458 0 01-.41.742c.02-.176.287-.218.42-.1a.743.743 0 01.185.487l2.411 19.756" fill="none" stroke="#223254" stroke-miterlimit="10" stroke-width=".25"/><path data-name="Tracé 5717" d="M68.728 89.539a2.12 2.12 0 00.12 1.243" fill="none" stroke="#223254" stroke-miterlimit="10" stroke-width=".25"/><path data-name="Tracé 5718" d="M70.114 89.536a3.491 3.491 0 00.138 1.547" fill="none" stroke="#223254" stroke-miterlimit="10" stroke-width=".25"/><path data-name="Tracé 5719" d="M71.359 89.387a1.375 1.375 0 00.286 1.241" fill="none" stroke="#223254" stroke-miterlimit="10" stroke-width=".25"/><path data-name="Tracé 5720" d="M71.946 98.625a30.493 30.493 0 0011.948 15.383" fill="none" stroke="#223254" stroke-miterlimit="10" stroke-width=".25"/><path data-name="Tracé 5721" d="M73.824 101.409a11.49 11.49 0 015.359-5.674" fill="none" stroke="#223254" stroke-miterlimit="10" stroke-width=".25"/><path data-name="Tracé 5722" d="M75.211 104.991a15.793 15.793 0 013.45-4.383 3.826 3.826 0 012.006-1.289" fill="none" stroke="#223254" stroke-miterlimit="10" stroke-width=".25"/><path data-name="Tracé 5723" d="M77.763 108.065l1.652-2.064c.413-.516.825-1.031 1.267-1.523a17.567 17.567 0 012.511-2.3" fill="none" stroke="#223254" stroke-miterlimit="10" stroke-width=".25"/><path data-name="Tracé 5724" d="M80.452 111.398c2.277-1.648 4.662-3.43 5.734-6.029" fill="none" stroke="#223254" stroke-miterlimit="10" stroke-width=".25"/><path data-name="Tracé 5725" d="M110.196 100.555a4.466 4.466 0 001.943 1.731 13.55 13.55 0 009.313 1.028" fill="none" stroke="#223254" stroke-miterlimit="10"/><path data-name="Tracé 5726" d="M102.837 108.545a11.789 11.789 0 011.164-2.741 3.962 3.962 0 012.3-1.79 2.993 2.993 0 001.369-.452 1.989 1.989 0 00.49-.985l.7-2.492c.151-.543.467-1.207 1.027-1.159" fill="none" stroke="#223254" stroke-miterlimit="10"/><path data-name="Tracé 5727" d="M108.959 105.269a6.64 6.64 0 003.694 3.05 14.8 14.8 0 004.826.735 4.353 4.353 0 002.723-.583" fill="none" stroke="#223254" stroke-miterlimit="10" stroke-width=".25"/><path data-name="Tracé 5728" d="M109.372 104.376a32.818 32.818 0 001.06-3.15" fill="none" stroke="#223254" stroke-miterlimit="10" stroke-width=".25"/><path data-name="Tracé 5729" d="M111.055 107.515l.833-2.7a8.332 8.332 0 01.7-1.766" fill="none" stroke="#223254" stroke-miterlimit="10" stroke-width=".25"/><path data-name="Tracé 5730" d="M114.299 108.491q.511-2.384 1.212-4.721c.018-.062.069-.139.127-.109" fill="none" stroke="#223254" stroke-miterlimit="10" stroke-width=".25"/><path data-name="Tracé 5731" d="M118.949 104.017a40.3 40.3 0 01-1.607 4.891" fill="none" stroke="#223254" stroke-miterlimit="10" stroke-width=".25"/><path data-name="Tracé 5732" d="M121.728 103.408q-.692 2.674-1.589 5.289a.3.3 0 01-.016-.358" fill="none" stroke="#223254" stroke-miterlimit="10" stroke-width=".25"/><path data-name="Tracé 5733" d="M108.158 102.607s.237.8-1.076 1.079c-2.052.435-4.164 3.576-4.245 6.319s-2.5 3.886-2.989 1.885a32.506 32.506 0 01-.544-5.542l-1.627-9.912s-.259-1.94.326-2.012 2.3.039 2.588.394 6.168 2.858 6.3 2.913 2.879.78 2.48 1.409a26.082 26.082 0 00-1.213 3.467z" fill="#223254"/><path data-name="Tracé 5734" d="M99.847 111.892s3.265 7.627 2.989 10.563-3.85 6.259-2.989 12.441 3.585 13.414 9.563 11.768c0 0-1.131 3.392-6.539 2.779s-6.852 1.412-6.954-1.4a38.292 38.292 0 00-1.345-7.125s-1.478-1.267.526-2.007 1.231-1.05 1.128-2.647-.663-4.856 1.395-7.657 2.2-4.229 2.517-7.4a65.76 65.76 0 00-.291-9.315z" fill="#223254"/><path data-name="Tracé 5735" d="M46.307 21.285s.719 2.142 0 11.551 5.694 16.71 17.439 18.159c0 0 6.182.522 7.573-5.583s1.859-21.645 1.573-25.129l-1.109.447s.85 13.47-2.164 13.628-6.514-6.251-14.913-3.887-6.491-9.322-6.336-12.8l-4.91.5a3.645 3.645 0 012.847 3.114z" fill="#1e96fc" stroke="#223254" stroke-miterlimit="10"/><path data-name="Tracé 5736" d="M72.322 15.1s-2.066 4.076-.322 7.005l.966.386s1.313-6.181 1.082-9.144" fill="#1e96fc" stroke="#223254" stroke-miterlimit="10"/><path data-name="Tracé 5737" d="M47.75 18.441s4.43-1.437 5.409-5.507c0 0 4.019 3.472 8.668 2.753s.631-4.041 1.094-4.041 6.491 7.495 11.978 2.318-1.623-12.75-14.527-10.973c0 0 5.855-.772 1.884-2.472s-11.235 1-13.243 4.636c0 0-8.887 2.936-10.277 9.195s3.308 21.532 3.308 21.532l.652-5.41s1.5-3.743.317-4.124-4.071-4.4-2.525-6.718a2.949 2.949 0 013.932-.98" fill="#1e96fc" stroke="#223254" stroke-miterlimit="10"/><g data-name="Groupe 5255" fill="none" stroke="#223254" stroke-miterlimit="10"><path data-name="Tracé 5738" d="M56.016 24.103a.551.551 0 00-.311.427.852.852 0 00.116.528c.043.075.129.158.208.119s.056-.137.03-.212l-.166-.484"/><path data-name="Tracé 5739" d="M67.341 25.825a.55.55 0 00-.311.427.85.85 0 00.116.528c.043.075.129.158.207.119s.057-.137.031-.212l-.166-.484"/><path data-name="Tracé 5740" d="M44.797 27.274a7.628 7.628 0 01-4.647-4.683 4.452 4.452 0 01-.193-2.2 2.771 2.771 0 011.2-1.822 3.25 3.25 0 013.259.081 4.237 4.237 0 011.887 2.635"/><path data-name="Tracé 5741" d="M42.207 20.91a.886.886 0 011.017-.035 1.994 1.994 0 01.689.8 6.616 6.616 0 01.8 2.7" stroke-width=".25"/><path data-name="Tracé 5742" d="M43.274 22.449a.473.473 0 01.6-.188.984.984 0 01.484.472" stroke-width=".25"/><path data-name="Tracé 5743" d="M43.016 27.551c-.805 7.864-2.216 17.341-3.022 25.205"/><path data-name="Tracé 5744" d="M62.18 24.437a29.666 29.666 0 01-.181 6.038"/><path data-name="Tracé 5745" d="M54.319 18.769a3.8 3.8 0 012.472-.212"/><path data-name="Tracé 5746" d="M66.168 20.286a3.794 3.794 0 012.472-.212"/></g><g data-name="Groupe 5256"><path data-name="Tracé 5747" d="M57.223 31.82a.353.353 0 00-.25.014.262.262 0 00-.1.139 1.942 1.942 0 00.684 2.014 3.287 3.287 0 002.9.784 2.521 2.521 0 001.7-1.374.388.388 0 00-.269-.537c-1.561-.345-3.461-.812-4.665-1.04z" fill="#fff" stroke="#223254" stroke-miterlimit="10"/></g></g></svg>