<svg xmlns="http://www.w3.org/2000/svg" width="108.71" height="80"><g data-name="Groupe 53801"><g data-name="Groupe 53789"><g data-name="Groupe 53796"><path d="M0 0h31.564v1.303H0z" data-name="Rectangle 22692" style="fill:#fff" transform="translate(75.451 73.37)"/><path d="M2127.054 1693.856h-31.564a.11.11 0 0 1-.11-.11v-1.3a.11.11 0 0 1 .11-.11h31.564a.11.11 0 0 1 .11.11v1.3a.11.11 0 0 1-.11.11m-31.454-.221h31.344v-1.083H2095.6z" data-name="Tracé 104611" style="fill:#c1c7d2" transform="translate(-2020.039 -1619.073)"/><path d="M2119.1 1225.236h-18.12a1.111 1.111 0 0 1-1.111-1.111v-1.18a1.111 1.111 0 0 1 1.111-1.111h18.12z" data-name="Tracé 104622" style="fill:#fff" transform="translate(-2024.305 -1172.174)"/><path d="M2117.014 1223.258h-18.12a1.223 1.223 0 0 1-1.222-1.222v-1.18a1.223 1.223 0 0 1 1.222-1.222h18.12a.11.11 0 0 1 .11.11v3.4a.11.11 0 0 1-.11.11m-18.12-3.4a1 1 0 0 0-1 1v1.18a1 1 0 0 0 1 1h18.01v-3.182z" data-name="Tracé 104623" style="fill:#c1c7d2" transform="translate(-2022.217 -1170.086)"/><path d="M2291.565 1232.343h-9.49a.634.634 0 0 1-.634-.634v-1.343a.634.634 0 0 1 .634-.634h9.49a.11.11 0 1 1 0 .221h-9.49a.414.414 0 0 0-.413.413v1.343a.414.414 0 0 0 .413.413h9.49a.11.11 0 1 1 0 .221" data-name="Tracé 104624" style="fill:#c1c7d2" transform="translate(-2196.767 -1179.678)"/><path d="M2300.292 1245.538h-2.9a.11.11 0 1 1 0-.221h2.9a.11.11 0 0 1 0 .221" data-name="Tracé 104625" style="fill:#c1c7d2" transform="translate(-2211.819 -1194.479)"/><path d="M2319.277 1263.185h-4.086a.11.11 0 0 1 0-.221h4.086a.11.11 0 0 1 0 .221" data-name="Tracé 104626" style="fill:#c1c7d2" transform="translate(-2228.72 -1211.242)"/><path d="M2119.1 1163.047h-18.12a1.111 1.111 0 0 1-1.111-1.111v-.882a1.111 1.111 0 0 1 1.111-1.111h18.12z" data-name="Tracé 104627" style="fill:#fff" transform="translate(-2024.305 -1113.388)"/><path d="M2117.014 1161.069h-18.12a1.223 1.223 0 0 1-1.222-1.222v-.882a1.223 1.223 0 0 1 1.222-1.222h18.12a.11.11 0 0 1 .11.11v3.1a.11.11 0 0 1-.11.11m-18.12-3.1a1 1 0 0 0-1 1v.882a1 1 0 0 0 1 1h18.01v-2.884z" data-name="Tracé 104628" style="fill:#c1c7d2" transform="translate(-2022.217 -1111.299)"/><path d="M2288.319 1169.43h-9.653a.644.644 0 0 1-.643-.643v-1.108a.644.644 0 0 1 .643-.643h9.653a.11.11 0 1 1 0 .221h-9.653a.422.422 0 0 0-.422.422v1.108a.422.422 0 0 0 .422.422h9.653a.11.11 0 1 1 0 .221" data-name="Tracé 104629" style="fill:#c1c7d2" transform="translate(-2193.522 -1120.126)"/><path d="M0 0h6.531v1.766H0z" data-name="Rectangle 22698" style="fill:#e2eaff" transform="translate(76.716 47.224)"/><path d="M2556.953 920.739a25.759 25.759 0 0 1-1.233-14.558s4.483 3.756 2.866 14.558z" data-name="Tracé 104630" style="fill:#fff" transform="translate(-2456.801 -872.355)"/><path d="M2556.584 918.761h-1.633a.109.109 0 0 1-.1-.065 26.1 26.1 0 0 1-1.241-14.626.11.11 0 0 1 .179-.063 8.588 8.588 0 0 1 2.071 3.272c.843 2.1 1.672 5.783.834 11.387a.111.111 0 0 1-.109.094m-1.561-.221h1.466c.806-5.491 0-9.1-.828-11.161a9.32 9.32 0 0 0-1.875-3.068 26 26 0 0 0 1.236 14.229" data-name="Tracé 104631" style="fill:#c1c7d2" transform="translate(-2454.799 -870.266)"/><path d="M2571.244 938.615h-.007a.11.11 0 0 1-.1-.116c.221-4.05-1.606-12.7-1.625-12.785a.11.11 0 0 1 .216-.046c.019.087 1.851 8.764 1.629 12.843a.11.11 0 0 1-.11.1" data-name="Tracé 104632" style="fill:#c1c7d2" transform="translate(-2470.384 -890.781)"/><path d="M2613.764 968.849a10.659 10.659 0 0 0-1.748 2.418 12.021 12.021 0 0 0-.85 8.336h1.2a24.265 24.265 0 0 0 .934-3.179 24.621 24.621 0 0 0 .465-7.574" data-name="Tracé 104633" style="fill:#fff" transform="translate(-2509.589 -931.879)"/><path d="M2610.326 977.624h-1.2a.111.111 0 0 1-.107-.084 12.127 12.127 0 0 1 .86-8.413 10.78 10.78 0 0 1 1.766-2.443.11.11 0 0 1 .189.066 24.467 24.467 0 0 1-1.406 10.8.11.11 0 0 1-.1.072m-1.112-.221h1.035a24.213 24.213 0 0 0 .9-3.093 24.477 24.477 0 0 0 .484-7.3 10.54 10.54 0 0 0-1.562 2.214 11.879 11.879 0 0 0-.861 8.174" data-name="Tracé 104634" style="fill:#c1c7d2" transform="translate(-2507.549 -929.79)"/><path d="M2626.831 1034.838a.111.111 0 0 1-.11-.1 24.853 24.853 0 0 1 1.181-9.016.11.11 0 0 1 .21.068 24.619 24.619 0 0 0-1.17 8.936.11.11 0 0 1-.1.116h-.006" data-name="Tracé 104635" style="fill:#c1c7d2" transform="translate(-2524.694 -985.823)"/><path d="M2506.2 1040.968s3.174 1.083 4.324 7.5h-1.249a18.037 18.037 0 0 1-3.076-7.5" data-name="Tracé 104636" style="fill:#fff" transform="translate(-2410.253 -1000.381)"/><path d="M2508.434 1046.484h-1.249a.11.11 0 0 1-.089-.045 18.3 18.3 0 0 1-3.1-7.548.11.11 0 0 1 .145-.117c.132.045 3.249 1.178 4.4 7.58a.112.112 0 0 1-.024.09.11.11 0 0 1-.084.04m-1.192-.221h1.06c-.988-5.318-3.4-6.872-4.058-7.2a18.157 18.157 0 0 0 3 7.2" data-name="Tracé 104637" style="fill:#c1c7d2" transform="translate(-2408.163 -998.291)"/><path d="M2528.377 1075.074a.111.111 0 0 1-.109-.092 16.35 16.35 0 0 0-2.533-5.749.11.11 0 1 1 .179-.129 16.592 16.592 0 0 1 2.572 5.842.11.11 0 0 1-.091.127h-.018" data-name="Tracé 104638" style="fill:#c1c7d2" transform="translate(-2428.788 -1027.062)"/><path d="M2530.555 1180.247h7.832l.175 3.7a1.593 1.593 0 0 1-1.591 1.668h-4.471a1.947 1.947 0 0 1-1.947-1.949z" data-name="Tracé 104639" style="fill:#eaeef4" transform="translate(-2433.383 -1132.673)"/><path d="M2589.8 1203.453h-3.783a.11.11 0 1 1 0-.221h3.783a.11.11 0 0 1 0 .221" data-name="Tracé 104640" style="fill:#fff" transform="translate(-2485.962 -1154.505)"/><path d="M0 0h1.303v26.772H0z" data-name="Rectangle 22699" style="fill:#fff" transform="translate(74.662 53.062)"/><path d="M2081.07 1314.461h-1.3a.11.11 0 0 1-.11-.11v-26.772a.11.11 0 0 1 .11-.11h1.3a.11.11 0 0 1 .111.11v26.772a.11.11 0 0 1-.111.11m-1.193-.221h1.083v-26.552h-1.083z" data-name="Tracé 104641" style="fill:#c1c7d2" transform="translate(-2005.105 -1234.516)"/><path d="M0 0h1.303v26.772H0z" data-name="Rectangle 22700" style="fill:#fff" transform="translate(106.364 53.062)"/><path d="M2713.073 1314.461h-1.3a.11.11 0 0 1-.111-.11v-26.772a.11.11 0 0 1 .111-.11h1.3a.11.11 0 0 1 .11.11v26.772a.11.11 0 0 1-.11.11m-1.193-.221h1.082v-26.552h-1.082z" data-name="Tracé 104642" style="fill:#c1c7d2" transform="translate(-2605.406 -1234.516)"/><path d="M0 0h33.004v1.303H0z" data-name="Rectangle 22701" style="fill:#fff" transform="translate(74.662 53.062)"/><path d="M2112.772 1288.992h-33a.11.11 0 0 1-.11-.11v-1.3a.11.11 0 0 1 .11-.11h33a.11.11 0 0 1 .111.11v1.3a.11.11 0 0 1-.111.11m-32.894-.221h32.784v-1.083h-32.784z" data-name="Tracé 104643" style="fill:#c1c7d2" transform="translate(-2005.105 -1234.516)"/></g><path d="M0 0h47.133v46.246H0z" data-name="Rectangle 22668" style="fill:#fff" transform="translate(29 2.266)"/><path d="M957.543 362.419H910.41a.113.113 0 0 1-.113-.113v-46.247a.113.113 0 0 1 .113-.113h47.133a.113.113 0 0 1 .113.113v46.246a.113.113 0 0 1-.113.113m-47.019-.227h46.906v-46.02h-46.906z" data-name="Tracé 104525" style="fill:#c1c7d2" transform="translate(-881.411 -313.793)"/><path d="M943.531 570.136h-.058v-4.091h-1.653v-3.258h-10.093v3.258h-1.653v3.71h-5.71v2.3l-3.278.017-.02-6.646h-6.108v3.148l-.246.074h-11.9v3.568l-.526 14.371h48.007V570.1z" data-name="Tracé 104526" style="fill:#fff" transform="translate(-873.809 -547.914)"/><path d="M76.481 34.337a.114.114 0 0 1-.114-.113V22.3h-5.911a.114.114 0 0 1 0-.227h6.024a.113.113 0 0 1 .113.113v12.038a.113.113 0 0 1-.113.113" data-name="Tracé 104527"/><path d="M1159.615 792.593a.113.113 0 0 1-.113-.113v-9.626a.113.113 0 1 1 .227 0v9.626a.113.113 0 0 1-.113.113" data-name="Tracé 104528" style="fill:#c1c7d2" transform="translate(-1117.775 -756.534)"/><path d="M909.71 681.244a.114.114 0 0 1-.113-.114l.036-6.671a.113.113 0 0 1 .113-.113h10.736a.113.113 0 1 1 0 .227h-10.623l-.035 6.558a.113.113 0 0 1-.113.113" data-name="Tracé 104529" style="fill:#c1c7d2" transform="translate(-880.747 -653.725)"/><path d="M0 0h1.468v1.868H0z" data-name="Rectangle 22669" style="fill:#e2eaff" transform="translate(29.723 23.01)"/><path d="M0 0h1.468v1.868H0z" data-name="Rectangle 22670" style="fill:#e2eaff" transform="translate(34.729 23.01)"/><path d="M0 0h1.468v1.868H0z" data-name="Rectangle 22671" style="fill:#eaeef4" transform="translate(37.233 23.01)"/><path d="M0 0h1.468v1.868H0z" data-name="Rectangle 22672" style="fill:#eaeef4" transform="translate(39.736 23.01)"/><path d="M0 0h1.468v1.868H0z" data-name="Rectangle 22673" style="fill:#e2eaff" transform="translate(29.723 25.399)"/><path d="M0 0h1.468v1.868H0z" data-name="Rectangle 22674" style="fill:#e2eaff" transform="translate(32.226 25.399)"/><path d="M0 0h1.468v1.868H0z" data-name="Rectangle 22675" style="fill:#eaeef4" transform="translate(34.729 25.399)"/><path d="M0 0h1.468v1.868H0z" data-name="Rectangle 22676" style="fill:#eaeef4" transform="translate(37.233 25.399)"/><path d="M0 0h1.468v1.868H0z" data-name="Rectangle 22677" style="fill:#e2eaff" transform="translate(29.723 27.789)"/><path d="M0 0h1.468v1.868H0z" data-name="Rectangle 22678" style="fill:#eaeef4" transform="translate(32.226 27.789)"/><path d="M0 0h1.468v1.868H0z" data-name="Rectangle 22679" style="fill:#eaeef4" transform="translate(37.233 27.789)"/><path d="M0 0h1.468v1.868H0z" data-name="Rectangle 22680" style="fill:#eaeef4" transform="translate(39.736 27.789)"/><path d="M0 0h1.468v1.868H0z" data-name="Rectangle 22681" style="fill:#e2eaff" transform="translate(29.723 30.178)"/><path d="M0 0h1.468v1.868H0z" data-name="Rectangle 22682" style="fill:#eaeef4" transform="translate(34.729 30.178)"/><path d="M0 0h1.468v1.868H0z" data-name="Rectangle 22683" style="fill:#eaeef4" transform="translate(37.233 30.178)"/><path d="M0 0h1.468v1.868H0z" data-name="Rectangle 22684" style="fill:#eaeef4" transform="translate(39.736 30.178)"/><path d="M0 0h1.468v1.868H0z" data-name="Rectangle 22685" style="fill:#e2eaff" transform="translate(32.226 32.567)"/><path d="M0 0h1.468v1.868H0z" data-name="Rectangle 22686" style="fill:#e2eaff" transform="translate(34.729 32.567)"/><path d="M0 0h1.468v1.868H0z" data-name="Rectangle 22687" style="fill:#eaeef4" transform="translate(37.233 32.567)"/><path d="M0 0h1.468v1.868H0z" data-name="Rectangle 22688" style="fill:#eaeef4" transform="translate(39.736 32.567)"/><path d="M0 0h1.468v1.868H0z" data-name="Rectangle 22689" style="fill:#e2eaff" transform="translate(32.226 34.956)"/><path d="M0 0h1.468v1.868H0z" data-name="Rectangle 22690" style="fill:#e2eaff" transform="translate(34.729 34.956)"/><path d="M1454.578 675.756h-1.533a.113.113 0 0 1 0-.227h1.42v-3.922h-1.42a.113.113 0 0 1 0-.227h1.533a.113.113 0 0 1 .113.113v4.148a.113.113 0 0 1-.113.113" data-name="Tracé 104530" style="fill:#c1c7d2" transform="translate(-1396.084 -650.913)"/><path d="M1505.31 675.756h-1.533a.113.113 0 0 1-.113-.113v-4.148a.113.113 0 1 1 .227 0v4.035h1.306v-1.508a.113.113 0 1 1 .227 0v1.621a.113.113 0 0 1-.113.113" data-name="Tracé 104531" style="fill:#c1c7d2" transform="translate(-1444.202 -650.913)"/><path d="M1555.109 675.756h-.6a.113.113 0 0 1-.113-.113v-4.148a.113.113 0 0 1 .113-.113h1.533a.113.113 0 1 1 0 .227h-1.419v3.922h.486a.113.113 0 1 1 0 .227" data-name="Tracé 104532" style="fill:#c1c7d2" transform="translate(-1492.321 -650.913)"/><path d="M1608.864 676.7v1.025h-1.533v-4.148h.549z" data-name="Tracé 104533" style="fill:#fff" transform="translate(-1542.528 -653)"/><path d="M66.336 24.843h-1.533a.113.113 0 0 1-.113-.113v-4.148a.113.113 0 0 1 .113-.113h.549a.114.114 0 0 1 0 .227h-.436v3.922h1.307v-.911a.113.113 0 1 1 .226 0v1.025a.113.113 0 0 1-.113.113" data-name="Tracé 104534"/><path d="M1659.6 673.581v4.148h-1.533v-1.883z" data-name="Tracé 104535" style="fill:#fff" transform="translate(-1590.646 -653)"/><path d="M68.95 24.843h-1.533a.113.113 0 0 1-.113-.113v-1.883a.114.114 0 0 1 .227 0v1.769h1.306v-4.035a.113.113 0 1 1 .226 0v4.148a.113.113 0 0 1-.113.113" data-name="Tracé 104536"/><path d="M1454.578 778.718h-1.533a.113.113 0 0 1-.113-.113v-4.148a.113.113 0 1 1 .227 0v4.035h1.306v-2.076a.113.113 0 1 1 .227 0v2.184a.113.113 0 0 1-.113.113" data-name="Tracé 104537" style="fill:#c1c7d2" transform="translate(-1396.084 -748.57)"/><path d="M1504.454 778.718h-.677a.113.113 0 0 1-.113-.113v-4.148a.113.113 0 0 1 .113-.113h1.533a.113.113 0 0 1 0 .227h-1.42v3.922h.564a.113.113 0 0 1 0 .227" data-name="Tracé 104538" style="fill:#c1c7d2" transform="translate(-1444.202 -748.57)"/><path d="M1505.31 880.239a.113.113 0 0 1-.113-.113v-4.113h-1.306v1.993a.113.113 0 1 1-.227 0V875.9a.113.113 0 0 1 .113-.114h1.533a.113.113 0 0 1 .113.114v4.226a.113.113 0 0 1-.113.113" data-name="Tracé 104539" style="fill:#c1c7d2" transform="translate(-1444.202 -844.785)"/><path d="M1556.043 830.915h-1.533a.113.113 0 0 1 0-.227h1.42v-1.2a.113.113 0 0 1 .227 0v1.312a.113.113 0 0 1-.114.113" data-name="Tracé 104540" style="fill:#c1c7d2" transform="translate(-1492.321 -800.767)"/><path d="M1454.578 932.1h-1.533a.113.113 0 0 1 0-.227h1.42v-1.2a.113.113 0 1 1 .227 0v1.313a.113.113 0 0 1-.113.113" data-name="Tracé 104541" style="fill:#c1c7d2" transform="translate(-1396.084 -896.741)"/><path d="M1607.331 778.5v-1.959h1.367z" data-name="Tracé 104542" style="fill:#fff" transform="translate(-1542.527 -750.656)"/><path d="M64.803 27.959a.113.113 0 0 1-.113-.113v-1.959a.113.113 0 0 1 .113-.113h1.367a.114.114 0 0 1 0 .227h-1.254v1.846a.113.113 0 0 1-.113.113" data-name="Tracé 104543"/><path d="M1658.646 793.836h-.582V790.4z" data-name="Tracé 104544" style="fill:#fff" transform="translate(-1590.646 -763.801)"/><path d="M67.999 30.148h-.582a.113.113 0 0 1-.113-.113v-3.434a.114.114 0 1 1 .227 0v3.321H68a.114.114 0 0 1 0 .227" data-name="Tracé 104545"/><path d="M1554.51 881.589a.113.113 0 0 1-.113-.114v-4.057a.113.113 0 0 1 .113-.113h1.533a.113.113 0 1 1 0 .227h-1.419v3.943a.114.114 0 0 1-.114.114" data-name="Tracé 104546" style="fill:#c1c7d2" transform="translate(-1492.321 -846.226)"/><path d="M0 0h1.533v4.148H0z" data-name="Rectangle 22691" style="fill:#fff" transform="translate(64.803 31.192)"/><path d="M66.336 35.454h-1.533a.113.113 0 0 1-.113-.113v-4.148a.113.113 0 0 1 .113-.113h1.533a.113.113 0 0 1 .113.113v4.148a.113.113 0 0 1-.113.113m-1.42-.227h1.307v-3.922h-1.307z" data-name="Tracé 104547"/><path d="M1658.516 883.652h-.452V879.5h1.031z" data-name="Tracé 104548" style="fill:#fff" transform="translate(-1590.646 -848.312)"/><path d="M67.869 35.454h-.452a.113.113 0 0 1-.113-.113v-4.148a.113.113 0 0 1 .113-.113h1.031a.114.114 0 1 1 0 .227h-.918v3.922h.339a.114.114 0 1 1 0 .227" data-name="Tracé 104549"/><path d="M1439.539 580.325a.113.113 0 0 1-.113-.113v-16.255a.113.113 0 0 1 .113-.113h1.54V560.7a.113.113 0 0 1 .113-.113h10.093a.113.113 0 0 1 .113.113v3.145h1.54a.113.113 0 0 1 .113.113v7.048a.113.113 0 1 1-.227 0v-6.935h-1.54a.114.114 0 0 1-.114-.113v-3.145h-9.866v3.145a.113.113 0 0 1-.114.113h-1.54v16.141a.113.113 0 0 1-.113.113" data-name="Tracé 104550" style="fill:#c1c7d2" transform="translate(-1383.275 -545.827)"/><path d="M1328.723 706.381a.113.113 0 0 1-.113-.113v-10.349a.113.113 0 0 1 .113-.113h4.948a.113.113 0 0 1 0 .227h-4.834v10.235a.113.113 0 0 1-.113.113" data-name="Tracé 104551" style="fill:#c1c7d2" transform="translate(-1278.169 -674.079)"/><path d="M1155.088 618.7h-2.81a.113.113 0 0 1-.113-.113v-6.527h-5.881v2.5a.113.113 0 1 1-.227 0v-2.611a.113.113 0 0 1 .113-.113h6.108a.113.113 0 0 1 .114.113v6.527h2.7a.113.113 0 0 1 0 .227" data-name="Tracé 104552" style="fill:#c1c7d2" transform="translate(-1105.022 -594.431)"/><path d="M1250.486 628.594a.113.113 0 0 1-.113-.113v-1.094a.113.113 0 1 1 .227 0v1.094a.113.113 0 0 1-.113.113" data-name="Tracé 104553" style="fill:#c1c7d2" transform="translate(-1203.963 -609.078)"/><path d="M1250.486 673.036a.113.113 0 0 1-.113-.113v-1.094a.113.113 0 1 1 .227 0v1.094a.113.113 0 0 1-.113.113" data-name="Tracé 104554" style="fill:#c1c7d2" transform="translate(-1203.963 -651.23)"/><path d="M1250.486 717.478a.113.113 0 0 1-.113-.113v-1.095a.113.113 0 1 1 .227 0v1.094a.113.113 0 0 1-.113.113" data-name="Tracé 104555" style="fill:#c1c7d2" transform="translate(-1203.963 -693.382)"/><path d="M1232.293 673.036a.113.113 0 0 1-.113-.113v-1.094a.113.113 0 1 1 .227 0v1.094a.113.113 0 0 1-.114.113" data-name="Tracé 104556" style="fill:#c1c7d2" transform="translate(-1186.708 -651.23)"/><path d="M1232.293 717.478a.113.113 0 0 1-.113-.113v-1.095a.113.113 0 1 1 .227 0v1.094a.113.113 0 0 1-.114.113" data-name="Tracé 104557" style="fill:#c1c7d2" transform="translate(-1186.708 -693.382)"/><path d="M1232.293 761.921a.113.113 0 0 1-.113-.113v-1.094a.113.113 0 0 1 .227 0v1.094a.113.113 0 0 1-.114.113" data-name="Tracé 104558" style="fill:#c1c7d2" transform="translate(-1186.708 -735.535)"/><path d="M1214.1 717.478a.113.113 0 0 1-.113-.113v-1.095a.113.113 0 1 1 .227 0v1.094a.113.113 0 0 1-.113.113" data-name="Tracé 104559" style="fill:#c1c7d2" transform="translate(-1169.452 -693.382)"/><path d="M1214.1 761.921a.113.113 0 0 1-.113-.113v-1.094a.113.113 0 0 1 .227 0v1.094a.113.113 0 0 1-.113.113" data-name="Tracé 104560" style="fill:#c1c7d2" transform="translate(-1169.452 -735.535)"/><path d="M1195.91 673.036a.113.113 0 0 1-.113-.113v-1.094a.113.113 0 1 1 .227 0v1.094a.113.113 0 0 1-.113.113" data-name="Tracé 104561" style="fill:#c1c7d2" transform="translate(-1152.199 -651.23)"/><path d="M1195.91 717.478a.113.113 0 0 1-.113-.113v-1.095a.113.113 0 1 1 .227 0v1.094a.113.113 0 0 1-.113.113" data-name="Tracé 104562" style="fill:#c1c7d2" transform="translate(-1152.199 -693.382)"/><path d="M1250.486 803.2a.113.113 0 0 1-.113-.113v-1.094a.113.113 0 0 1 .227 0v1.094a.113.113 0 0 1-.113.113" data-name="Tracé 104563" style="fill:#c1c7d2" transform="translate(-1203.963 -774.688)"/><path d="M1232.293 803.2a.113.113 0 0 1-.113-.113v-1.094a.113.113 0 0 1 .227 0v1.094a.113.113 0 0 1-.114.113" data-name="Tracé 104564" style="fill:#c1c7d2" transform="translate(-1186.708 -774.688)"/><path d="M1232.293 847.643a.113.113 0 0 1-.113-.113v-1.094a.113.113 0 0 1 .227 0v1.094a.113.113 0 0 1-.114.113" data-name="Tracé 104565" style="fill:#c1c7d2" transform="translate(-1186.708 -816.84)"/><path d="M1214.1 848.319a.113.113 0 0 1-.113-.113v-1.094a.113.113 0 1 1 .227 0v1.094a.113.113 0 0 1-.113.113" data-name="Tracé 104566" style="fill:#c1c7d2" transform="translate(-1169.452 -817.481)"/><path d="M1195.91 848.319a.113.113 0 0 1-.113-.113v-1.094a.113.113 0 1 1 .227 0v1.094a.113.113 0 0 1-.113.113" data-name="Tracé 104567" style="fill:#c1c7d2" transform="translate(-1152.199 -817.481)"/><path d="M1195.91 803.2a.113.113 0 0 1-.113-.113v-1.094a.113.113 0 0 1 .227 0v1.094a.113.113 0 0 1-.113.113" data-name="Tracé 104568" style="fill:#c1c7d2" transform="translate(-1152.199 -774.688)"/><path d="M1195.91 892.085a.113.113 0 0 1-.113-.113v-1.094a.113.113 0 1 1 .227 0v1.094a.113.113 0 0 1-.113.113" data-name="Tracé 104569" style="fill:#c1c7d2" transform="translate(-1152.199 -858.992)"/><path d="M1504.19 1024.392h-19.276a.113.113 0 1 1 0-.226h19.276a.113.113 0 1 1 0 .226" data-name="Tracé 104570" style="fill:#5479f7" transform="translate(-1426.312 -985.519)"/><path d="M1367.762 362.428a.114.114 0 0 1-.114-.113v-46.261a.113.113 0 0 1 .227 0v46.261a.113.113 0 0 1-.113.113" data-name="Tracé 104571" style="fill:#c1c7d2" transform="translate(-1315.196 -313.788)"/><path d="M1618.64 282.89a4.216 4.216 0 0 1-2.259.691 4.138 4.138 0 0 1-2.258-.69 4.218 4.218 0 0 1-2.258.69 4.139 4.139 0 0 1-2.259-.69 4.218 4.218 0 0 1-2.259.69 4.14 4.14 0 0 1-2.258-.69 4.218 4.218 0 0 1-2.258.69 4.137 4.137 0 0 1-2.259-.691c-.01.1-.027.94-.027 1.031v47.706c0 .951 1.024 1.721 2.286 1.721a2.482 2.482 0 0 1 4.518 0 2.481 2.481 0 0 1 4.518 0 2.481 2.481 0 0 1 4.517 0c1.263 0 2.286-.771 2.286-1.721v-47.706c0-.09-.009-.944-.027-1.031" data-name="Tracé 104572" style="fill:#eaeef4" transform="translate(-1536.089 -282.44)"/><path d="M1865.069 362.581a.113.113 0 0 1-.113-.113v-42.536a.113.113 0 0 1 .227 0v42.535a.113.113 0 0 1-.114.113" data-name="Tracé 104573" style="fill:#fff" transform="translate(-1786.878 -317.466)"/><path d="M1776.25 436.109a.113.113 0 0 1-.114-.113v-41.77a.113.113 0 1 1 .227 0V436a.113.113 0 0 1-.113.113" data-name="Tracé 104574" style="fill:#fff" transform="translate(-1702.635 -387.932)"/><path d="M1685.454 365.644a.113.113 0 0 1-.113-.113v-45.6a.113.113 0 0 1 .227 0v45.6a.113.113 0 0 1-.113.113" data-name="Tracé 104575" style="fill:#fff" transform="translate(-1616.518 -317.466)"/><path d="M898.721 1587.043a.777.777 0 0 1-.548-.92l2.681-11.8 2.636.739-3.824 11.475a.776.776 0 0 1-.945.5" data-name="Tracé 104576" style="fill:#fff" transform="translate(-869.893 -1507.332)"/><path d="M29.038 79.853a.891.891 0 0 1-.868-1.088l2.681-11.8a.113.113 0 0 1 .141-.084l2.636.739a.113.113 0 0 1 .077.145L29.881 79.24a.889.889 0 0 1-.843.609m2.007-12.718-2.654 11.68a.663.663 0 0 0 1.275.357l3.786-11.362z" data-name="Tracé 104577"/><path d="M1758.628 1587.043a.776.776 0 0 0 .547-.92l-2.68-11.8-2.636.739 3.823 11.475a.776.776 0 0 0 .946.5" data-name="Tracé 104578" style="fill:#fff" transform="translate(-1681.506 -1507.332)"/><path d="M1756.333 1585.1a.889.889 0 0 1-.843-.609l-3.824-11.475a.114.114 0 0 1 .007-.089.113.113 0 0 1 .07-.056l2.636-.739a.113.113 0 0 1 .141.084l2.681 11.8a.891.891 0 0 1-.868 1.088m-4.414-12.043 3.786 11.362a.663.663 0 0 0 1.275-.357l-2.654-11.68z" data-name="Tracé 104579" style="fill:#081f4d" transform="translate(-1679.42 -1505.246)"/><path d="M731.38 1148.032h-25.717a22.214 22.214 0 0 1-22.14-20.562l-.284-3.779a2.765 2.765 0 0 1 2.755-2.974h65.054a2.765 2.765 0 0 1 2.755 2.974l-.284 3.779a22.214 22.214 0 0 1-22.14 20.563" data-name="Tracé 104580" style="fill:#fff" transform="translate(-666.045 -1077.095)"/><path d="M729.3 1146.06h-25.719a22.327 22.327 0 0 1-22.253-20.667l-.284-3.779a2.891 2.891 0 0 1 .761-2.176 2.846 2.846 0 0 1 2.108-.92h65.055a2.845 2.845 0 0 1 2.107.92 2.89 2.89 0 0 1 .761 2.176l-.284 3.779a22.327 22.327 0 0 1-22.252 20.667m-45.386-27.315a2.652 2.652 0 0 0-2.642 2.852l.284 3.779a22.2 22.2 0 0 0 22.027 20.457H729.3a22.2 22.2 0 0 0 22.027-20.457l.284-3.779a2.652 2.652 0 0 0-2.642-2.852z" data-name="Tracé 104581" style="fill:#081f4d" transform="translate(-663.963 -1075.01)"/><path d="M802.22 1184.584h-22.966a19.95 19.95 0 0 1-19.884-18.467.113.113 0 1 1 .226-.017 19.808 19.808 0 0 0 19.658 18.257h22.966a19.808 19.808 0 0 0 19.658-18.257.113.113 0 1 1 .226.017 19.95 19.95 0 0 1-19.884 18.467" data-name="Tracé 104582" style="fill:#081f4d" transform="translate(-738.261 -1120.04)"/><path d="M469.6 1822.528h-15.241a.113.113 0 0 1 0-.227H469.6a.113.113 0 0 1 0 .227" data-name="Tracé 104583" style="fill:#081f4d" transform="translate(-448.859 -1742.528)"/><path d="M374.541 988.814s-11.249-4.351-18.359 2.472-7.553 36.47 16.361 39.293h35.548z" data-name="Tracé 104584" style="fill:#fff" transform="translate(-351.807 -950.692)"/><path d="M405.982 1028.63h-35.561a22.608 22.608 0 0 1-12.649-5.391 23.11 23.11 0 0 1-6.5-10.129 31.9 31.9 0 0 1-1.307-14.062c.583-4.4 2.051-8.009 4.027-9.906 3.7-3.553 8.532-4.041 11.931-3.825a24.572 24.572 0 0 1 6.547 1.33.115.115 0 0 1 .047.035l33.551 41.765a.113.113 0 0 1-.088.184m-35.541-.227h35.3l-33.383-41.556a24.477 24.477 0 0 0-6.458-1.305c-3.352-.212-8.112.269-11.753 3.763-3.8 3.648-5.83 14.291-2.663 23.732 2.957 8.814 9.687 14.271 18.952 15.367" data-name="Tracé 104585" style="fill:#081f4d" transform="translate(-349.698 -948.631)"/><path d="M488.682 1263.918a.112.112 0 0 1-.07-.025 10.946 10.946 0 0 1-3.713-5.6.113.113 0 1 1 .218-.061 10.719 10.719 0 0 0 3.635 5.488.113.113 0 0 1-.071.2" data-name="Tracé 104586" style="fill:#081f4d" transform="translate(-477.929 -1207.441)"/><path d="M580.956 884.361a18.426 18.426 0 0 1-7.21-3.393s-.267-12.315 4.772-21.461a7.181 7.181 0 0 1 1.871-2.193 16.716 16.716 0 0 1 10.817-3.257s7.148 1.187 8.924 4.3c1.79 3.132 4.774 11.926 4.774 11.926z" data-name="Tracé 104587" style="stroke-width:.3px;stroke:#081f4d;fill:#ffc300" transform="translate(-562.199 -824.172)"/><path d="M1000.32 1042.285a.122.122 0 0 1-.031 0 .114.114 0 0 1-.078-.141l1.971-6.818a.113.113 0 0 1 .218.063l-1.971 6.818a.113.113 0 0 1-.109.082" data-name="Tracé 104588" style="fill:#081f4d" transform="translate(-966.688 -996.023)"/><path d="M640.583 1265.735s2.744-8.116 14.253-8.206c7.309-.057 16.384.049 22.036.135a8.662 8.662 0 0 1 7.68 4.915l9.777 20.385 3.363 2.639a.63.63 0 0 1-.389 1.126h-19.546a3.748 3.748 0 0 1-1.84-.484 80.36 80.36 0 0 1-18.55-14.74c-5.268-3.475-10.688-3.23-16.784-5.771" data-name="Tracé 104589" style="fill:#fff" transform="translate(-625.708 -1206.843)"/><path d="M695.215 1284.753h-19.546a3.868 3.868 0 0 1-1.9-.5 81.055 81.055 0 0 1-18.568-14.751c-3.081-2.029-6.21-2.779-9.522-3.574a45.855 45.855 0 0 1-7.232-2.179.113.113 0 0 1 .087-.209 45.684 45.684 0 0 0 7.2 2.168c3.336.8 6.487 1.556 9.606 3.613a.116.116 0 0 1 .021.017 80.8 80.8 0 0 0 18.522 14.718 3.64 3.64 0 0 0 1.784.469h19.546a.517.517 0 0 0 .319-.923l-3.363-2.639a.112.112 0 0 1-.032-.04l-9.777-20.385a8.5 8.5 0 0 0-7.579-4.851c-6.109-.092-14.89-.19-22.033-.134a.113.113 0 0 1 0-.227c7.146-.056 15.929.042 22.038.135a8.726 8.726 0 0 1 7.78 4.979l9.765 20.362 3.342 2.623a.743.743 0 0 1-.459 1.328" data-name="Tracé 104590" style="fill:#081f4d" transform="translate(-623.507 -1204.753)"/><path d="M950.742 1311.492h-.982a.113.113 0 1 1 0-.227h.982a.713.713 0 0 0 .363-1.326l-2.655-1.572a.113.113 0 0 1-.021-.016l-21.06-20.314a15.233 15.233 0 0 0-10.4-4.283l-1.861-.026a.113.113 0 0 1-.112-.115.115.115 0 0 1 .115-.112l1.861.026a15.46 15.46 0 0 1 10.553 4.347l21.05 20.3 2.644 1.565a.939.939 0 0 1-.479 1.748" data-name="Tracé 104591" style="fill:#081f4d" transform="translate(-885.869 -1231.493)"/><path d="M1249.983 1374.1a.114.114 0 0 1-.108-.078l-2.18-6.53a.113.113 0 0 1 .215-.072l2.181 6.53a.113.113 0 0 1-.072.143.111.111 0 0 1-.036.006" data-name="Tracé 104592" style="fill:#081f4d" transform="translate(-1201.418 -1311.017)"/><path d="M883.223 1437.38a.114.114 0 0 1-.077-.03 30.945 30.945 0 0 1-4-4.458.113.113 0 0 1 .183-.134 30.7 30.7 0 0 0 3.967 4.425.113.113 0 0 1-.077.2" data-name="Tracé 104593" style="fill:#081f4d" transform="translate(-851.848 -1373.014)"/><path d="M1263.809 1762.941a.113.113 0 0 1-.005-.226l15.429-.743h.006a.113.113 0 0 1 .005.226l-15.429.743h-.006" data-name="Tracé 104594" style="fill:#081f4d" transform="translate(-1216.599 -1685.307)"/><path d="M1561.6 1749.469h-6.515a.113.113 0 1 1 0-.227h6.515a.113.113 0 1 1 0 .227" data-name="Tracé 104595" style="fill:#081f4d" transform="translate(-1492.865 -1673.234)"/><path d="m684.606 975.391 3.806 9.334s12.176.167 13.326 2.11a1.744 1.744 0 0 1-.7 2.713s-14.043 2.089-17.937.63-6.317-10.23-6.846-13.509 8.353-1.277 8.353-1.277" data-name="Tracé 104596" style="fill:#ffc300" transform="translate(-659.405 -938.684)"/><path d="M698.574 1095.342a.108.108 0 0 1-.04-.007c-3.063-1.148-5.063-6.535-5.983-9.644a.113.113 0 0 1 .217-.064c.731 2.47 2.763 8.341 5.845 9.5a.113.113 0 0 1-.04.22" data-name="Tracé 104597" style="fill:#081f4d" transform="translate(-674.881 -1043.736)"/><path d="M861.166 1013.984a.113.113 0 0 1-.1-.056c-1.1-1.867-13.109-2.052-13.23-2.054a.113.113 0 0 1-.1-.071l-3.407-8.356a.113.113 0 1 1 .21-.085l3.379 8.287c1.122.018 12.213.248 13.346 2.164a.113.113 0 0 1-.1.171" data-name="Tracé 104598" style="fill:#081f4d" transform="translate(-818.833 -965.721)"/><path d="M917.072 1255.328h-22.6a1.017 1.017 0 0 1 0-2.033h24.349z" data-name="Tracé 104599" style="stroke:#223254;fill:#1e96fc;stroke-width:.3px" transform="translate(-865.433 -1202.842)"/><path d="M1046.988 1018.449H1030.6l5.743-14.073a1.373 1.373 0 0 1 1.26-.827h15.3a1.082 1.082 0 0 1 1 1.505l-5.248 12.354a1.713 1.713 0 0 1-1.666 1.041" data-name="Tracé 104600" style="stroke:#223254;fill:#1e96fc;stroke-width:.3px" transform="translate(-995.349 -965.965)"/><path d="M29.954 31.902a.113.113 0 0 1-.087-.186c.13-.155.311-.366.5-.591.3-.345.632-.736.843-1a.113.113 0 1 1 .177.142c-.213.266-.55.658-.848 1-.192.224-.372.433-.5.588a.113.113 0 0 1-.087.041" data-name="Tracé 104601"/><path d="m842.486 787.419-1.662 2.476a2.123 2.123 0 0 1-.939.774l-1.1.463s2.133 4.781 5.826 3.885c0 0 2.408-.735.121-3.678l.748-.969z" data-name="Tracé 104602" style="fill:#fff" transform="translate(-813.584 -760.972)"/><path d="M836.7 789.159a.113.113 0 0 1-.044-.218l1.1-.463c.362-.153.491.039.088.209l-1.1.463a.113.113 0 0 1-.044.009" data-name="Tracé 104603" style="fill:#081f4d" transform="translate(-811.495 -758.886)"/><g data-name="Groupe 53798"><g data-name="Groupe 53797"><path d="M2266.418 12.894a6.3 6.3 0 0 1-12.593 0c0-3.473 2.292-3.822 5.769-3.822s6.824.35 6.824 3.822" data-name="Tracé 104651" style="fill:#1e96fc" transform="translate(-2159.378 -8.676)"/></g><path d="M2271.372 133.044a6.075 6.075 0 0 1-5.727-4.342.1.1 0 1 1 .183-.059 5.757 5.757 0 0 0 11.109-.07.1.1 0 1 1 .184.056 6.068 6.068 0 0 1-5.749 4.414" data-name="Tracé 104652" style="fill:#fff" transform="translate(-2170.676 -122.879)"/><path d="M2239.926 13.028h-11.907a.513.513 0 0 1-.516-.364l-.931-4.046h15.1l-1.137 4a.616.616 0 0 1-.609.411" data-name="Tracé 104653" style="fill:#a8d7ff" transform="translate(-2133.319 -8.241)"/><path d="M2233.45 1.093h-15.185a.325.325 0 0 1-.325-.325V.325a.325.325 0 0 1 .325-.325h15.185a.325.325 0 0 1 .325.325v.443a.325.325 0 0 1-.325.325" data-name="Tracé 104654" style="fill:#1e96fc" transform="translate(-2125.065 -.001)"/><path d="M2368.454 128.152a.99.99 0 1 1 .991-.99.992.992 0 0 1-.991.99m0-1.788a.8.8 0 1 0 .8.8.8.8 0 0 0-.8-.8" data-name="Tracé 104655" style="fill:#fff" transform="translate(-2268.04 -120.647)"/><path d="M2388.087 138.949a.288.288 0 1 1-.288-.288.288.288 0 0 1 .288.288" data-name="Tracé 104656" style="fill:#fff" transform="translate(-2287.208 -132.589)"/></g></g><g data-name="Groupe 53800"><path d="m1.162 15.778.764-7.187-.888-1.053L.67 6.063l1.952-2.68L8 1.855l1.913 1.827.01 1.894-.035 3.466-.312 1.814-.841 1.572-1.68 1.406.045 3.145z" data-name="Tracé 104657" style="fill:#fff" transform="rotate(14 -43.606 124.889)"/><path d="M.622 9.524a17.154 17.154 0 0 1-.293-3.74 17.9 17.9 0 0 1 .1-2.5 3.72 3.72 0 0 1 .975-2.2A2.775 2.775 0 0 1 3.647.336a3.663 3.663 0 0 1 2.517 1.308c.126.157.346-.066.223-.223a3.757 3.757 0 0 0-4.8-.9C.03 1.6.012 3.626.012 5.331A19.777 19.777 0 0 0 .328 9.6c.044.195.346.113.314-.085z" style="fill:#223254" transform="scale(-1) rotate(18.05 76.428 -125.02)"/><path d="M.28.594A.332.332 0 0 0 .417.418V.39a.487.487 0 0 0 0-.069.541.541 0 0 0 0-.073V.214A.511.511 0 0 0 .373.119.348.348 0 0 0 .332.066.087.087 0 0 0 .307.044.1.1 0 0 0 .276.025.166.166 0 0 0 .181 0a.181.181 0 0 0-.125.05.2.2 0 0 0-.05.188.745.745 0 0 0 .044.106l.041.084A.156.156 0 0 0 .186.5.144.144 0 0 0 .3.484.151.151 0 0 0 .377.393V.349A.141.141 0 0 0 .355.27C.336.226.314.181.3.135v.038a.041.041 0 0 1 0-.022v.107L.27.289.239.314.2.33H.119L.082.314H.1L.066.292v.016L.041.276a.355.355 0 0 1 .035.057L.06.3a.29.29 0 0 1 0 .054V.308a.258.258 0 0 1 0 .044L.076.314.057.349.082.314l-.028.03.031-.023a.156.156 0 0 0-.057.213.155.155 0 0 0 .095.073.169.169 0 0 0 .123-.016z" style="fill:#223254" transform="rotate(-161.99 18.055 9.095)"/><path d="M.28.6A.334.334 0 0 0 .417.422V.393a.4.4 0 0 0 0-.142V.217A.515.515 0 0 0 .373.123a.371.371 0 0 0-.04-.054.086.086 0 0 0-.026-.022L.276.025A.2.2 0 0 0 .181 0a.187.187 0 0 0-.124.054.2.2 0 0 0-.05.188.755.755 0 0 0 .044.105l.04.084A.16.16 0 0 0 .186.5.145.145 0 0 0 .3.487.157.157 0 0 0 .378.393V.352A.143.143 0 0 0 .355.273C.337.23.315.184.3.138v.038a.066.066 0 0 1 0-.022v.06L.28.252.258.288.227.312H.091L.06.288V.3L.035.27a.232.232 0 0 1 .034.06V.292a.362.362 0 0 1 0 .055V.306a.228.228 0 0 1 0 .047V.312a.17.17 0 0 1 0 .041V.314a.126.126 0 0 1-.018.035L.076.317l-.028.03.031-.026a.177.177 0 0 0-.073.094.167.167 0 0 0 .016.123.156.156 0 0 0 .095.072.167.167 0 0 0 .121-.016z" style="fill:#223254" transform="rotate(-161.99 19.642 9.433)"/><path d="M.673 1.007A.22.22 0 0 1 .405.975a.7.7 0 0 1-.17-.261A1.733 1.733 0 0 1 .079.038c0-.05-.082-.05-.079 0a1.889 1.889 0 0 0 .2.8.524.524 0 0 0 .23.252.28.28 0 0 0 .3-.025c.038-.035 0-.089-.057-.057z" style="fill:#223254" transform="rotate(-161.99 16.405 8.585)"/><path d="M.274.139H.258a.105.105 0 0 1-.069 0A.093.093 0 0 1 .154.12.091.091 0 0 1 .123.092.308.308 0 0 1 .069.016.038.038 0 0 0 .016.007.039.039 0 0 0 0 .054a.288.288 0 0 0 .177.164.163.163 0 0 0 .191-.072.038.038 0 0 0-.013-.052A.038.038 0 0 0 .3.107z" style="fill:#223254" transform="rotate(-161.99 16.383 8.36)"/><path d="M.328 7.994C.268 5.934.349 3.861.482 1.8Q.533.979.613.15c.019-.2-.3-.2-.315 0C.095 2.245.013 4.359 0 6.459v1.535a.157.157 0 1 0 .315 0z" style="fill:#223254" transform="rotate(-161.99 15.684 12.976)"/><path d="M.315 3.6C.359 2.457.46 1.3.412.157a.157.157 0 0 0-.312 0C.145 1.3.044 2.457 0 3.6a.157.157 0 0 0 .315 0z" style="fill:#223254" transform="matrix(-.951 -.31 .31 -.951 32.007 32.34)"/><path d="M.428 1.8A8.038 8.038 0 0 1 .318.157a.157.157 0 0 0-.318 0 8.835 8.835 0 0 0 .12 1.731.163.163 0 0 0 .318-.088z" style="fill:#223254" transform="rotate(-161.99 18.852 9.891)"/><path d="M.748.034.672.075a.107.107 0 0 1-.044.016.887.887 0 0 1-.154.044H.2a.184.184 0 0 0-.122.016.176.176 0 0 0-.073.094.16.16 0 0 0 .11.2A1.24 1.24 0 0 0 .92.3.157.157 0 1 0 .769.019L.76.025z" style="fill:#223254" transform="matrix(-.951 -.31 .31 -.951 32.973 21.7)"/><path d="M.741.053.666.091H.622a.94.94 0 0 1-.154.044H.2a.187.187 0 0 0-.123.016.167.167 0 0 0-.071.1.16.16 0 0 0 .109.189A1.257 1.257 0 0 0 .92.3.157.157 0 0 0 .768.019L.759.025z" style="fill:#223254" transform="rotate(-161.99 19.85 8.67)"/><path d="M3.932 3.947S2.026.975.1 0L.025 1.474 0 3.01l.89-.182a4.174 4.174 0 0 1 3.042 1.119z" style="fill:#223254" transform="matrix(-.951 -.31 .31 -.951 32.04 31.73)"/><path d="M.958.32A1.884 1.884 0 0 0 .206.006.163.163 0 1 0 .12.32a1.361 1.361 0 0 1 .369.1h.019l.048.026.075.041A1.418 1.418 0 0 1 .8.591a.158.158 0 0 0 .214-.056A.16.16 0 0 0 .958.32z" style="fill:#223254" transform="rotate(-161.99 18.538 10.374)"/><path d="M.112 2.928A4.551 4.551 0 0 1 .426 0a14.239 14.239 0 0 0 .507 3.12" style="stroke:#223254;fill:#1e96fc;stroke-width:.3px" transform="rotate(-161.99 20.498 8.7)"/><path d="M.613.31a2.026 2.026 0 0 1 .834.648 1.511 1.511 0 0 1 .345 1.07.629.629 0 0 1-.709.537.6.6 0 0 1-.074-.015.969.969 0 0 1-.692-.775c-.044-.2-.346-.115-.314.083a1.342 1.342 0 0 0 .6.871 1.05 1.05 0 0 0 1.069.019c.712-.459.415-1.465 0-2.008A2.425 2.425 0 0 0 .695 0 .16.16 0 0 0 .5.115.163.163 0 0 0 .61.31z" style="fill:#1e96fc" transform="rotate(-161.99 16.635 9.1)"/><path d="M1.3 9.4s-1.173-.1-.739.8 6.25 1.049 7.329-.872c0 0 2.432-.484 2.715-2.331S9.689 1.488 9.563.966c-.232-.944-.7-1.019-.7-.944l-.025 2.054s.044 1.022.5 1.277.981 1.066.629 1.573-.522.944-1.258.437l-.5-.912s-.484.016-.465.1-.057 1.475-.057 1.475A1.888 1.888 0 0 0 6.522 7.4S3.911 5.973 2.373 6.256c-1.375.252-.421.965-.2 1.117a1.512 1.512 0 0 0-1.85.027c-.834.772.112 1.824.977 2z" style="stroke:#223254;fill:#1e96fc;stroke-width:.3px" transform="matrix(-.951 -.31 .31 -.951 36.43 28.036)"/></g><path d="m0 9 98-9" data-name="Ligne 3546" style="fill:none;stroke:#1e96fc;stroke-linecap:round;stroke-width:.5px;stroke-dasharray:3 3" transform="translate(.855 6.482)"/><path d="M0 73 19 0" data-name="Ligne 3547" style="fill:none;stroke:#1e96fc;stroke-linecap:round;stroke-width:.5px;stroke-dasharray:3 3" transform="translate(83.855 6.482)"/></g></svg>