<svg xmlns="http://www.w3.org/2000/svg" width="89.999" height="60"><defs><clipPath id="a"><path data-name="Rectangle 8165" style="fill:none" d="M0 0h89.999v36.929H0z"/></clipPath><clipPath id="b"><path data-name="Rectangle 8164" style="fill:none" d="M0 0h43.125v6.184H0z"/></clipPath><clipPath id="c"><path data-name="Tracé 33007" d="M73.709 92.882c-.15.371.052 1.2.465 1.337a6.151 6.151 0 0 0 .985.235.747.747 0 0 0 .291.244.3.3 0 0 0 .3-.141c.122-.174-.178-.4-.178-.4-.174-.361-.15-.981-.408-1.145a2.289 2.289 0 0 0-1.051-.287c-.2 0-.357.045-.4.156" transform="translate(-73.66 -92.726)" style="fill:none"/></clipPath><clipPath id="d"><path data-name="Rectangle 8166" style="fill:none" d="M0 0h2.412v2.581H0z"/></clipPath><clipPath id="e"><path data-name="Tracé 33027" d="M59.716 48.018c-3.557.15-8.357.347-11.318.751-3.036.413-6.738 2.8-10.117 5.879-.169.038-.953 0-1.1.052-4.5 1.685-4.814 3.876-5.1 5.1a7.277 7.277 0 0 0 .633 4.279c.526 1.145 1.272 1.2 2.318 1.328s9.441.4 11.205.4a33.233 33.233 0 0 0 5.678-.422c.333-3.819.976-7.188 2.778-7.282 1.947-.1 2.346 4.472 2.149 6.729 0 0 2.149-.573 3.477-.774s2.9-.474 4.195-.671c.6-.094.765-1.741 1.014-2.834.291-1.3.69-2.473 1.642-2.524 1.156-.063 1.23 2.771 1.23 2.771l-.009.76c.432-.436.671-4.364.46-4.744-.169-.3-1.1-4.26-1.1-4.26s-.516-.375-1.229-.939c-1.955-2.318-4.229-3.609-6.544-3.609-.085 0-.17 0-.255.005" transform="translate(-31.982 -48.013)" style="fill:none"/></clipPath><clipPath id="f"><path data-name="Rectangle 8168" style="fill:none" d="M0 0h18.705v2.813H0z"/></clipPath><clipPath id="g"><path data-name="Rectangle 8169" style="fill:none" d="M0 0h5.416v8.831H0z"/></clipPath><clipPath id="h"><path data-name="Rectangle 8170" style="fill:none" d="M0 0h3.736v6.311H0z"/></clipPath><clipPath id="i"><path data-name="Rectangle 8171" style="fill:none" d="M0 0h15.073v3.785H0z"/></clipPath><clipPath id="j"><path data-name="Rectangle 8172" style="fill:none" d="M0 0h6.765v1.396H0z"/></clipPath><clipPath id="k"><path data-name="Rectangle 8173" style="fill:none" d="M0 0h11.748v7.23H0z"/></clipPath><clipPath id="l"><path data-name="Rectangle 8174" style="fill:none" d="M0 0h5.922v5.741H0z"/></clipPath><clipPath id="m"><path data-name="Rectangle 8175" style="fill:none" d="M0 0h12.823v2.719H0z"/></clipPath><clipPath id="n"><path data-name="Tracé 33046" d="M92.433 48.663c-2.473.258-7.2 2.886-10.694 6.114 3.651.061 12.43-.174 15.17-.474 1.727-2.75 3.627-5.79 6.879-6.2-4.753.075-8.85.3-11.355.563" transform="translate(-81.739 -48.1)" style="fill:none"/></clipPath><clipPath id="o"><path data-name="Tracé 33050" d="M233.582 53.857c-3.9.418-5.973 5.781-5.973 5.781a90.069 90.069 0 0 0 11.674-1.952c.305-.089.319-.263.446-.788a8.529 8.529 0 0 0-5.84-3.056 2.89 2.89 0 0 0-.307.015" transform="translate(-227.609 -53.842)" style="fill:none"/></clipPath><clipPath id="p"><path data-name="Tracé 33061" d="M234.421 90.336a3.684 3.684 0 0 0-1.121 1.159s-.455.244-.272.432a.553.553 0 0 0 .46.155 1.121 1.121 0 0 0 .441-.263 12.841 12.841 0 0 0 1.511-.253c.633-.15.92-1.032.915-1.473 0-.1-.129-.14-.325-.14a4.934 4.934 0 0 0-1.609.384" transform="translate(-232.984 -89.952)" style="fill:none"/></clipPath><clipPath id="q"><path data-name="Rectangle 8179" style="fill:none" d="M0 0h3.688v2.792H0z"/></clipPath><clipPath id="r"><path data-name="Rectangle 8180" style="fill:none" d="M0 0h72.383v10.38H0z"/></clipPath><clipPath id="s"><path data-name="Tracé 33076" d="M278.027 77.373c-.252.622.087 2.008.78 2.245a10.274 10.274 0 0 0 1.654.394 1.253 1.253 0 0 0 .488.41.507.507 0 0 0 .5-.236c.2-.291-.3-.669-.3-.669-.291-.606-.252-1.646-.685-1.922a3.841 3.841 0 0 0-1.764-.482c-.335 0-.6.075-.677.262" transform="translate(-277.944 -77.111)" style="fill:none"/></clipPath><clipPath id="t"><path data-name="Rectangle 8182" style="fill:none" d="M0 0h4.048v4.332H0z"/></clipPath><clipPath id="u"><path data-name="Tracé 33096" d="M254.539 2.071c-5.97.252-14.027.583-19 1.26-5.1.693-11.309 4.7-16.98 9.868-.284.063-1.6-.008-1.851.087-7.553 2.827-8.08 6.505-8.561 8.561a12.213 12.213 0 0 0 1.063 7.183c.882 1.922 2.134 2.016 3.891 2.229s15.846.669 18.807.669c2.772 0 8.852-.331 9.53-.709C242 24.808 243.08 19.153 246.1 19c3.268-.165 3.938 7.506 3.607 11.294 0 0 3.607-.961 5.836-1.3 2.253-.347 4.867-.8 7.041-1.126 1.008-.158 1.284-2.922 1.7-4.757.488-2.182 1.158-4.151 2.757-4.237 1.945-.1 2.063 4.662 2.063 4.662l-.016 1.276c.724-.732 1.126-7.324.772-7.962-.283-.5-1.851-7.151-1.851-7.151s-.866-.63-2.063-1.575c-3.282-3.89-7.1-6.057-10.984-6.057q-.214 0-.427.009" transform="translate(-207.99 -2.062)" style="fill:none"/></clipPath><clipPath id="v"><path data-name="Rectangle 8184" style="fill:none" d="M0 0h31.395v4.721H0z"/></clipPath><clipPath id="w"><path data-name="Rectangle 8185" style="fill:none" d="M0 0h9.09v14.822H0z"/></clipPath><clipPath id="x"><path data-name="Rectangle 8186" style="fill:none" d="M0 0h6.27v10.593H0z"/></clipPath><clipPath id="y"><path data-name="Rectangle 8187" style="fill:none" d="M0 0h25.3v6.352H0z"/></clipPath><clipPath id="z"><path data-name="Rectangle 8188" style="fill:none" d="M0 0h11.355v2.344H0z"/></clipPath><clipPath id="A"><path data-name="Rectangle 8189" style="fill:none" d="M0 0h19.719v12.135H0z"/></clipPath><clipPath id="B"><path data-name="Rectangle 8190" style="fill:none" d="M0 0h9.939v9.636H0z"/></clipPath><clipPath id="C"><path data-name="Rectangle 8191" style="fill:none" d="M0 0h21.523v4.564H0z"/></clipPath><clipPath id="D"><path data-name="Tracé 33115" d="M309.453 3.153C305.3 3.586 297.364 8 291.5 13.415c6.127.1 20.863-.291 25.462-.8C319.864 8 323.054 2.9 328.512 2.208c-7.978.126-14.853.5-19.059.945" transform="translate(-291.504 -2.208)" style="fill:none"/></clipPath><clipPath id="E"><path data-name="Tracé 33119" d="M546.366 11.872c-6.552.7-10.026 9.7-10.026 9.7a151.225 151.225 0 0 0 19.595-3.272c.512-.15.535-.441.748-1.323-2.934-3.521-7.318-5.129-9.8-5.129a4.821 4.821 0 0 0-.516.026" transform="translate(-536.34 -11.846)" style="fill:none"/></clipPath><clipPath id="F"><path data-name="Tracé 33130" d="M547.772 73.1a6.186 6.186 0 0 0-1.882 1.945s-.764.409-.457.725a.93.93 0 0 0 .772.26 1.886 1.886 0 0 0 .74-.441 21.537 21.537 0 0 0 2.536-.425c1.063-.252 1.544-1.733 1.536-2.473 0-.167-.216-.234-.545-.234a8.284 8.284 0 0 0-2.7.644" transform="translate(-545.36 -72.454)" style="fill:none"/></clipPath><clipPath id="G"><path data-name="Rectangle 8195" style="fill:none" d="M0 0h6.19v4.686H0z"/></clipPath></defs><g data-name="Groupe 49821"><g data-name="Groupe 49812"><path data-name="Rectangle 3510" transform="translate(12.704 14.524)" style="fill:#fff" d="M0 0h23.133v31.686H0z"/><path data-name="Tracé 12886" d="M737.6 667.485h23.133a.149.149 0 0 0 .149-.149v-31.687a.149.149 0 0 0-.149-.149H737.6a.149.149 0 0 0-.149.149v31.686a.149.149 0 0 0 .149.15zm22.98-.3h-22.835V635.8h22.831z" transform="translate(-724.891 -621.126)" style="fill-rule:evenodd;fill:#c1c7d2"/><path data-name="Rectangle 3511" transform="translate(12.073 12.905)" style="fill:#fff" d="M0 0h24.394v1.618H0z"/><path data-name="Tracé 12887" d="M731.255 621.157h24.394a.149.149 0 0 0 .149-.149v-1.618a.149.149 0 0 0-.149-.149h-24.394a.149.149 0 0 0-.149.149v1.618a.149.149 0 0 0 .149.149zm24.245-.3h-24.1v-1.32h24.1z" transform="translate(-719.182 -606.484)" style="fill-rule:evenodd;fill:#c1c7d2"/><path data-name="Tracé 12888" d="M766.537 656.61h1.692a.247.247 0 0 1 .247.247v3.843h-2.189v-3.847a.247.247 0 0 1 .251-.247z" transform="translate(-750.861 -640.134)" style="fill:#fff"/><path data-name="Tracé 12889" d="M764.975 659.484h2.189a.149.149 0 0 0 .149-.149v-3.847a.4.4 0 0 0-.4-.4h-1.692a.4.4 0 0 0-.4.4v3.847a.149.149 0 0 0 .154.149zm2.04-.3h-1.891v-3.7a.1.1 0 0 1 .1-.1h1.692a.1.1 0 0 1 .1.1z" transform="translate(-749.546 -638.766)" style="fill-rule:evenodd;fill:#c1c7d2"/><path data-name="Tracé 12890" d="M763.193 696.539h-3.117a.149.149 0 1 1 0-.3h3.117a.149.149 0 0 1 0 .3z" transform="translate(-745.135 -675.821)" style="fill:#c1c7d2"/><path data-name="Tracé 12891" d="M817.957 656.61h1.692a.247.247 0 0 1 .247.247v3.843h-2.19v-3.847a.247.247 0 0 1 .251-.247z" transform="translate(-797.163 -640.134)" style="fill:#fff"/><path data-name="Tracé 12892" d="M816.385 659.484h2.19a.149.149 0 0 0 .149-.149v-3.847a.4.4 0 0 0-.4-.4h-1.692a.4.4 0 0 0-.4.4v3.847a.149.149 0 0 0 .153.149zm2.04-.3h-1.891v-3.7a.1.1 0 0 1 .1-.1h1.692a.1.1 0 0 1 .1.1z" transform="translate(-795.839 -638.766)" style="fill-rule:evenodd;fill:#c1c7d2"/><path data-name="Tracé 12893" d="M814.613 696.539H811.5a.149.149 0 0 1 0-.3h3.118a.149.149 0 0 1 0 .3z" transform="translate(-791.437 -675.821)" style="fill:#c1c7d2"/><path data-name="Tracé 12894" d="M871.277 656.61h1.692a.247.247 0 0 1 .247.247v3.843h-2.189v-3.847a.247.247 0 0 1 .247-.247z" transform="translate(-845.177 -640.135)" style="fill:#fff"/><path data-name="Tracé 12895" d="M869.715 659.484h2.185a.149.149 0 0 0 .149-.149v-3.847a.4.4 0 0 0-.4-.4h-1.692a.4.4 0 0 0-.4.4v3.847a.149.149 0 0 0 .158.149zm2.04-.3h-1.891v-3.7a.1.1 0 0 1 .1-.1h1.692a.1.1 0 0 1 .1.1z" transform="translate(-843.862 -638.766)" style="fill-rule:evenodd;fill:#c1c7d2"/><path data-name="Tracé 12896" d="M867.932 696.539h-3.117a.149.149 0 0 1 0-.3h3.117a.149.149 0 0 1 0 .3z" transform="translate(-839.45 -675.821)" style="fill:#c1c7d2"/><path data-name="Tracé 12897" d="M922.7 656.61h1.692a.247.247 0 0 1 .247.247v3.843h-2.189v-3.847a.247.247 0 0 1 .251-.247z" transform="translate(-891.479 -640.134)" style="fill:#fff"/><path data-name="Tracé 12898" d="M921.126 659.484h2.19a.149.149 0 0 0 .149-.149v-3.847a.4.4 0 0 0-.4-.4h-1.692a.4.4 0 0 0-.4.4v3.847a.149.149 0 0 0 .153.149zm2.04-.3h-1.891v-3.7a.1.1 0 0 1 .1-.1h1.692a.1.1 0 0 1 .1.1z" transform="translate(-890.156 -638.766)" style="fill-rule:evenodd;fill:#c1c7d2"/><path data-name="Tracé 12899" d="M919.343 696.539h-3.118a.149.149 0 0 1 0-.3h3.118a.149.149 0 0 1 0 .3z" transform="translate(-885.743 -675.821)" style="fill:#c1c7d2"/><path data-name="Tracé 12900" d="M766.537 755.851h1.692a.247.247 0 0 1 .247.247v3.849h-2.189V756.1a.247.247 0 0 1 .247-.247z" transform="translate(-750.861 -729.499)" style="fill:#fff"/><path data-name="Tracé 12901" d="M764.975 758.724h2.189a.149.149 0 0 0 .149-.149v-3.847a.4.4 0 0 0-.4-.4h-1.692a.4.4 0 0 0-.4.4v3.847a.149.149 0 0 0 .154.149zm2.04-.3h-1.891v-3.7a.1.1 0 0 1 .1-.1h1.692a.1.1 0 0 1 .1.1z" transform="translate(-749.546 -728.129)" style="fill-rule:evenodd;fill:#c1c7d2"/><path data-name="Tracé 12902" d="M763.193 795.779h-3.117a.149.149 0 1 1 0-.3h3.117a.149.149 0 0 1 0 .3z" transform="translate(-745.135 -765.184)" style="fill:#c1c7d2"/><path data-name="Tracé 12903" d="M817.957 755.85h1.692a.247.247 0 0 1 .247.247v3.849h-2.19V756.1a.247.247 0 0 1 .251-.249z" transform="translate(-797.163 -729.498)" style="fill:#fff"/><path data-name="Tracé 12904" d="M816.385 758.724h2.19a.149.149 0 0 0 .149-.149v-3.847a.4.4 0 0 0-.4-.4h-1.692a.4.4 0 0 0-.4.4v3.847a.149.149 0 0 0 .153.149zm2.04-.3h-1.891v-3.7a.1.1 0 0 1 .1-.1h1.692a.1.1 0 0 1 .1.1z" transform="translate(-795.839 -728.129)" style="fill-rule:evenodd;fill:#c1c7d2"/><path data-name="Tracé 12905" d="M814.613 795.779H811.5a.149.149 0 0 1 0-.3h3.118a.149.149 0 0 1 0 .3z" transform="translate(-791.437 -765.184)" style="fill:#c1c7d2"/><path data-name="Tracé 12906" d="M871.277 755.851h1.692a.247.247 0 0 1 .247.247v3.849h-2.189V756.1a.247.247 0 0 1 .247-.247z" transform="translate(-845.177 -729.499)" style="fill:#fff"/><path data-name="Tracé 12907" d="M869.715 758.724h2.185a.149.149 0 0 0 .149-.149v-3.847a.4.4 0 0 0-.4-.4h-1.692a.4.4 0 0 0-.4.4v3.847a.149.149 0 0 0 .158.149zm2.04-.3h-1.891v-3.7a.1.1 0 0 1 .1-.1h1.692a.1.1 0 0 1 .1.1z" transform="translate(-843.862 -728.129)" style="fill-rule:evenodd;fill:#c1c7d2"/><path data-name="Tracé 12908" d="M867.932 795.779h-3.117a.149.149 0 0 1 0-.3h3.117a.149.149 0 0 1 0 .3z" transform="translate(-839.45 -765.184)" style="fill:#c1c7d2"/><path data-name="Tracé 12909" d="M922.7 755.851h1.692a.247.247 0 0 1 .247.247v3.849h-2.189V756.1a.247.247 0 0 1 .247-.247z" transform="translate(-891.479 -729.499)" style="fill:#fff"/><path data-name="Tracé 12910" d="M921.126 758.724h2.19a.149.149 0 0 0 .149-.149v-3.847a.4.4 0 0 0-.4-.4h-1.692a.4.4 0 0 0-.4.4v3.847a.149.149 0 0 0 .153.149zm2.04-.3h-1.891v-3.7a.1.1 0 0 1 .1-.1h1.692a.1.1 0 0 1 .1.1z" transform="translate(-890.156 -728.129)" style="fill-rule:evenodd;fill:#c1c7d2"/><path data-name="Tracé 12911" d="M919.343 795.779h-3.118a.149.149 0 0 1 0-.3h3.118a.149.149 0 0 1 0 .3z" transform="translate(-885.743 -765.184)" style="fill:#c1c7d2"/><path data-name="Rectangle 3512" transform="translate(12.073 22.758)" style="fill:#fff" d="M0 0h24.394v1.618H0z"/><path data-name="Tracé 12912" d="M731.255 720.157h24.394a.149.149 0 0 0 .149-.149v-1.618a.149.149 0 0 0-.149-.149h-24.394a.149.149 0 0 0-.149.149v1.618a.149.149 0 0 0 .149.149zm24.245-.3h-24.1v-1.32h24.1z" transform="translate(-719.182 -695.631)" style="fill-rule:evenodd;fill:#c1c7d2"/><path data-name="Rectangle 3513" transform="translate(12.073 32.349)" style="fill:#fff" d="M0 0h24.394v1.618H0z"/><path data-name="Tracé 12913" d="M731.255 816.487h24.394a.149.149 0 0 0 .149-.149v-1.618a.149.149 0 0 0-.149-.149h-24.394a.149.149 0 0 0-.149.149v1.618a.149.149 0 0 0 .149.149zm24.245-.3h-24.1v-1.32h24.1z" transform="translate(-719.182 -782.374)" style="fill-rule:evenodd;fill:#c1c7d2"/><path data-name="Tracé 12914" d="M778.261 853.15h1.619a.236.236 0 0 1 .236.236v3.672h-2.09v-3.672a.236.236 0 0 1 .235-.236z" transform="translate(-761.433 -817.115)" style="fill:#fff"/><path data-name="Tracé 12915" d="M776.675 855.857h2.09a.149.149 0 0 0 .15-.149v-3.672a.385.385 0 0 0-.385-.385h-1.619a.385.385 0 0 0-.385.385v3.672a.149.149 0 0 0 .149.149zm1.94-.3h-1.791v-3.523a.087.087 0 0 1 .087-.087h1.619a.087.087 0 0 1 .087.087z" transform="translate(-760.082 -815.764)" style="fill-rule:evenodd;fill:#c1c7d2"/><path data-name="Tracé 12916" d="M774.962 891.219h-2.977a.149.149 0 1 1 0-.3h2.977a.149.149 0 1 1 0 .3z" transform="translate(-755.858 -851.126)" style="fill:#c1c7d2"/><path data-name="Tracé 12917" d="M827.351 853.15h1.619a.236.236 0 0 1 .236.236v3.672h-2.09v-3.672a.236.236 0 0 1 .235-.236z" transform="translate(-805.637 -817.115)" style="fill:#fff"/><path data-name="Tracé 12918" d="M825.765 855.857h2.09a.149.149 0 0 0 .15-.149v-3.672a.385.385 0 0 0-.385-.385H826a.385.385 0 0 0-.385.385v3.672a.149.149 0 0 0 .15.149zm1.94-.3h-1.791v-3.523a.087.087 0 0 1 .087-.087h1.619a.087.087 0 0 1 .087.087z" transform="translate(-804.286 -815.764)" style="fill-rule:evenodd;fill:#c1c7d2"/><path data-name="Tracé 12919" d="M824.053 891.219h-2.977a.149.149 0 1 1 0-.3h2.977a.149.149 0 0 1 0 .3z" transform="translate(-800.064 -851.126)" style="fill:#c1c7d2"/><path data-name="Tracé 12920" d="M752.969 912H737.6a.149.149 0 1 1 0-.3h15.374a.149.149 0 1 1 0 .3z" transform="translate(-724.891 -869.838)" style="fill:#c1c7d2"/><path data-name="Tracé 12921" d="M893.45 845.52h6.1a.033.033 0 0 1 .033.033v10.895h-6.164v-10.894a.032.032 0 0 1 .01-.024.033.033 0 0 1 .021-.01z" transform="translate(-865.338 -810.244)" style="fill:#fff"/><path data-name="Tracé 12922" d="M892.076 855.229h6.163a.149.149 0 0 0 .148-.149v-10.9a.182.182 0 0 0-.181-.182h-6.1a.182.182 0 0 0-.182.182v10.9a.149.149 0 0 0 .152.149zm6.013-.3h-5.864V844.3h5.865z" transform="translate(-863.998 -808.875)" style="fill-rule:evenodd;fill:#c1c7d2"/><path data-name="Rectangle 3514" transform="translate(29.327 36.585)" style="fill:#fff" d="M0 0h3.642v7.997H0z"/><path data-name="Tracé 12923" d="M904.626 865.465h3.641a.149.149 0 0 0 .149-.149v-8a.149.149 0 0 0-.149-.149h-3.641a.149.149 0 0 0-.149.149v8a.149.149 0 0 0 .149.149zm3.492-.3h-3.343v-7.7h3.343z" transform="translate(-875.299 -820.734)" style="fill-rule:evenodd;fill:#c1c7d2"/><path data-name="Tracé 12924" d="M898.24 937.82h-6.163a.149.149 0 1 1 0-.3h6.163a.149.149 0 0 1 0 .3z" transform="translate(-863.998 -893.088)" style="fill:#c1c7d2"/><path data-name="Rectangle 3515" transform="translate(16.144 44.058)" style="fill:#fff" d="M0 0h7.783v2.152H0z"/><path data-name="Tracé 12925" d="M772.145 934.71h7.783a.15.15 0 0 0 .149-.149v-2.152a.149.149 0 0 0-.149-.149h-7.783a.149.149 0 0 0-.149.149v2.152a.149.149 0 0 0 .149.149zm7.633-.3h-7.484v-1.853h7.484z" transform="translate(-756.003 -888.352)" style="fill-rule:evenodd;fill:#c1c7d2"/><path data-name="Tracé 12926" d="M792.251 945.469H787.5a.149.149 0 0 1 0-.3h4.759a.149.149 0 1 1 0 .3z" transform="translate(-769.826 -899.976)" style="fill:#c1c7d2"/></g><path data-name="Tracé 13039" d="M1380.939 622.114a.149.149 0 0 1-.149-.149v-1.286a.149.149 0 1 1 .3 0v1.286a.151.151 0 0 1-.149.149z" transform="translate(-1304.208 -607.645)" style="fill:#c1c7d2"/><g data-name="Groupe 49814" transform="translate(63.715 12.885)"><path data-name="Rectangle 3571" transform="translate(1.095 3.48)" style="fill:#fff" d="M0 0h11.994v29.868H0z"/><path data-name="Tracé 13011" d="M1261.159 684.165h11.995a.15.15 0 0 0 .149-.149v-29.867a.15.15 0 0 0-.149-.149h-11.995a.149.149 0 0 0-.149.149v29.867a.149.149 0 0 0 .149.149zm11.847-.3h-11.7v-29.568h11.7z" transform="translate(-1260.064 -650.669)" style="fill-rule:evenodd;fill:#c1c7d2"/><rect data-name="Rectangle 3572" width="12.881" height="1.052" rx=".526" transform="translate(.209 16.763)" style="fill:#fff"/><path data-name="Tracé 13012" d="M1252.387 788.82h12.607a.288.288 0 0 0 .286-.288v-.776a.286.286 0 0 0-.286-.287h-12.607a.287.287 0 0 0-.287.287v.776a.287.287 0 0 0 .287.288zm12.594-.3H1252.4v-.753h12.583z" transform="translate(-1252.041 -770.856)" style="fill-rule:evenodd;fill:#c1c7d2"/><path data-name="Rectangle 3573" transform="translate(3.754 12.69)" style="fill:#fff" d="M0 0h1.857v2.737H0z"/><path data-name="Tracé 13013" d="M1287.829 749.575h1.858a.149.149 0 0 0 .149-.149v-2.737a.15.15 0 0 0-.149-.149h-1.858a.149.149 0 0 0-.149.149v2.737a.149.149 0 0 0 .149.149zm1.709-.3h-1.56v-2.438h1.56z" transform="translate(-1284.079 -733.999)" style="fill-rule:evenodd;fill:#c1c7d2"/><path data-name="Tracé 13014" d="M1286.177 774.338h-2.738a.149.149 0 1 1 0-.3h2.738a.149.149 0 1 1 0 .3z" transform="translate(-1280.127 -758.762)" style="fill:#c1c7d2"/><path data-name="Tracé 13015" d="M1289.687 757.639h-1.858a.149.149 0 1 1 0-.3h1.858a.149.149 0 1 1 0 .3z" transform="translate(-1284.079 -743.725)" style="fill:#c1c7d2"/><path data-name="Rectangle 3574" transform="translate(3.363 12.25)" style="fill:#fff" d="M0 0h2.639v.635H0z"/><path data-name="Tracé 13016" d="M1283.969 743.054h2.64a.15.15 0 0 0 .15-.149v-.635a.15.15 0 0 0-.15-.149h-2.64a.149.149 0 0 0-.15.149v.635a.149.149 0 0 0 .15.149zm2.494-.3h-2.342v-.336h2.342z" transform="translate(-1280.603 -730.019)" style="fill-rule:evenodd;fill:#c1c7d2"/><path data-name="Rectangle 3575" transform="translate(9.097 12.69)" style="fill:#fff" d="M0 0h1.857v2.737H0z"/><path data-name="Tracé 13017" d="M1341.559 749.575h1.858a.15.15 0 0 0 .149-.149v-2.737a.15.15 0 0 0-.149-.149h-1.858a.149.149 0 0 0-.149.149v2.737a.149.149 0 0 0 .149.149zm1.709-.3h-1.559v-2.438h1.559z" transform="translate(-1332.462 -733.999)" style="fill-rule:evenodd;fill:#c1c7d2"/><path data-name="Tracé 13018" d="M1339.877 774.338h-2.738a.149.149 0 1 1 0-.3h2.738a.149.149 0 1 1 0 .3z" transform="translate(-1328.482 -758.762)" style="fill:#c1c7d2"/><path data-name="Tracé 13019" d="M1343.417 757.639h-1.858a.149.149 0 0 1 0-.3h1.858a.149.149 0 1 1 0 .3z" transform="translate(-1332.462 -743.725)" style="fill:#c1c7d2"/><path data-name="Rectangle 3576" transform="translate(8.707 12.25)" style="fill:#fff" d="M0 0h2.639v.635H0z"/><path data-name="Tracé 13020" d="M1337.629 743.054h2.641a.15.15 0 0 0 .149-.149v-.635a.15.15 0 0 0-.149-.149h-2.641a.149.149 0 0 0-.149.149v.635a.149.149 0 0 0 .149.149zm2.494-.3h-2.342v-.336h2.342z" transform="translate(-1328.923 -730.019)" style="fill-rule:evenodd;fill:#c1c7d2"/><path data-name="Rectangle 3577" transform="translate(3.809 19.745)" style="fill:#fff" d="M0 0h1.857v2.737H0z"/><path data-name="Tracé 13021" d="M1288.429 820.466h1.857a.15.15 0 0 0 .149-.149v-2.738a.15.15 0 0 0-.149-.149h-1.857a.149.149 0 0 0-.149.149v2.738a.149.149 0 0 0 .149.149zm1.708-.3h-1.558v-2.439h1.558z" transform="translate(-1284.62 -797.834)" style="fill-rule:evenodd;fill:#c1c7d2"/><path data-name="Tracé 13022" d="M1286.736 845.239H1284a.149.149 0 0 1 0-.3h2.737a.149.149 0 0 1 0 .3z" transform="translate(-1280.631 -822.606)" style="fill:#c1c7d2"/><path data-name="Tracé 13023" d="M1290.286 828.539h-1.857a.149.149 0 0 1 0-.3h1.857a.149.149 0 1 1 0 .3z" transform="translate(-1284.62 -807.568)" style="fill:#c1c7d2"/><path data-name="Rectangle 3578" transform="translate(3.418 19.305)" style="fill:#fff" d="M0 0h2.639v.635H0z"/><path data-name="Tracé 13024" d="M1284.5 813.944h2.639a.149.149 0 0 0 .149-.149v-.636a.15.15 0 0 0-.149-.149h-2.639a.149.149 0 0 0-.149.149v.636a.149.149 0 0 0 .149.149zm2.488-.3h-2.337v-.337h2.339z" transform="translate(-1281.081 -793.854)" style="fill-rule:evenodd;fill:#c1c7d2"/><path data-name="Rectangle 3579" transform="translate(9.154 19.745)" style="fill:#fff" d="M0 0h1.857v2.737H0z"/><path data-name="Tracé 13025" d="M1342.129 820.466h1.857a.149.149 0 0 0 .149-.149v-2.738a.149.149 0 0 0-.149-.149h-1.857a.149.149 0 0 0-.149.149v2.738a.149.149 0 0 0 .149.149zm1.708-.3h-1.558v-2.439h1.558z" transform="translate(-1332.975 -797.834)" style="fill-rule:evenodd;fill:#c1c7d2"/><path data-name="Tracé 13026" d="M1340.446 845.239h-2.737a.149.149 0 1 1 0-.3h2.737a.149.149 0 1 1 0 .3z" transform="translate(-1328.995 -822.606)" style="fill:#c1c7d2"/><path data-name="Tracé 13027" d="M1343.986 828.539h-1.857a.149.149 0 0 1 0-.3h1.857a.149.149 0 0 1 0 .3z" transform="translate(-1332.975 -807.568)" style="fill:#c1c7d2"/><path data-name="Rectangle 3580" transform="translate(8.763 19.305)" style="fill:#fff" d="M0 0h2.639v.635H0z"/><path data-name="Tracé 13028" d="M1338.2 813.944h2.639a.15.15 0 0 0 .149-.149v-.636a.15.15 0 0 0-.149-.149h-2.639a.149.149 0 0 0-.149.149v.636a.149.149 0 0 0 .149.149zm2.492-.3h-2.341v-.337h2.343z" transform="translate(-1329.437 -793.854)" style="fill-rule:evenodd;fill:#c1c7d2"/><path data-name="Rectangle 3581" transform="translate(3.768 27.156)" style="fill:#fff" d="M0 0h1.857v2.737H0z"/><path data-name="Tracé 13029" d="M1288.009 894.926h1.858a.15.15 0 0 0 .149-.149v-2.737a.15.15 0 0 0-.149-.149h-1.858a.149.149 0 0 0-.149.149v2.737a.149.149 0 0 0 .149.149zm1.709-.3h-1.56v-2.436h1.561z" transform="translate(-1284.242 -864.884)" style="fill-rule:evenodd;fill:#c1c7d2"/><path data-name="Tracé 13030" d="M1286.327 919.69h-2.738a.149.149 0 0 1 0-.3h2.738a.149.149 0 0 1 0 .3z" transform="translate(-1280.261 -889.648)" style="fill:#c1c7d2"/><path data-name="Tracé 13031" d="M1289.867 902.989h-1.858a.149.149 0 0 1 0-.3h1.858a.149.149 0 1 1 0 .3z" transform="translate(-1284.242 -874.609)" style="fill:#c1c7d2"/><path data-name="Rectangle 3582" transform="translate(3.378 26.716)" style="fill:#fff" d="M0 0h2.639v.635H0z"/><path data-name="Tracé 13032" d="M1284.079 888.384h2.639a.15.15 0 0 0 .149-.149v-.635a.15.15 0 0 0-.149-.149h-2.639a.149.149 0 0 0-.149.149v.635a.149.149 0 0 0 .149.149zm2.492-.3h-2.341v-.336h2.341z" transform="translate(-1280.703 -860.885)" style="fill-rule:evenodd;fill:#c1c7d2"/><path data-name="Rectangle 3583" transform="translate(9.112 27.156)" style="fill:#fff" d="M0 0h1.857v2.737H0z"/><path data-name="Tracé 13033" d="M1341.709 894.926h1.857a.149.149 0 0 0 .149-.149v-2.737a.149.149 0 0 0-.149-.149h-1.857a.149.149 0 0 0-.149.149v2.737a.149.149 0 0 0 .149.149zm1.708-.3h-1.558v-2.436h1.558z" transform="translate(-1332.597 -864.884)" style="fill-rule:evenodd;fill:#c1c7d2"/><path data-name="Tracé 13034" d="M1340.026 919.69h-2.737a.149.149 0 1 1 0-.3h2.737a.149.149 0 1 1 0 .3z" transform="translate(-1328.617 -889.648)" style="fill:#c1c7d2"/><path data-name="Tracé 13035" d="M1343.566 902.989h-1.857a.149.149 0 1 1 0-.3h1.857a.149.149 0 0 1 0 .3z" transform="translate(-1332.597 -874.609)" style="fill:#c1c7d2"/><path data-name="Rectangle 3584" transform="translate(8.721 26.716)" style="fill:#fff" d="M0 0h2.639v.635H0z"/><path data-name="Tracé 13036" d="M1337.779 888.384h2.639a.15.15 0 0 0 .149-.149v-.635a.15.15 0 0 0-.149-.149h-2.639a.149.149 0 0 0-.149.149v.635a.149.149 0 0 0 .149.149zm2.492-.3h-2.341v-.336h2.341z" transform="translate(-1329.058 -860.885)" style="fill-rule:evenodd;fill:#c1c7d2"/><rect data-name="Rectangle 3585" width="12.938" height="1.118" rx=".559" transform="translate(.152 1.435)" style="fill:#fff"/><path data-name="Tracé 13037" d="M1251.8 634.8h12.646a.3.3 0 0 0 .3-.3v-.825a.3.3 0 0 0-.3-.3H1251.8a.3.3 0 0 0-.3.3v.825a.3.3 0 0 0 .3.3zm.006-1.121h12.64v.821H1251.8z" transform="translate(-1251.5 -632.101)" style="fill-rule:evenodd;fill:#c1c7d2"/><path data-name="Rectangle 3586" transform="translate(11.346 .149)" style="fill:#fff" d="M0 0h1.67v1.285H0z"/><path data-name="Tracé 13038" d="M1364.159 622.114h1.67a.151.151 0 0 0 .149-.149v-1.286a.15.15 0 0 0-.149-.149h-1.67a.149.149 0 0 0-.149.149v1.286a.149.149 0 0 0 .149.149zm1.521-.3h-1.371v-.987h1.371z" transform="translate(-1352.813 -620.53)" style="fill-rule:evenodd;fill:#c1c7d2"/><path data-name="Tracé 13040" d="M1258.641 646.17h12.38v.754a.175.175 0 0 1-.174.174h-12.032a.174.174 0 0 1-.174-.174v-.754z" transform="translate(-1257.93 -643.619)" style="fill:#fff"/><path data-name="Tracé 13041" d="M1257.464 645.9h12.031a.325.325 0 0 0 .323-.323v-.754a.149.149 0 0 0-.149-.149h-12.38a.149.149 0 0 0-.149.149v.754a.324.324 0 0 0 .324.323zm-.025-.323v-.6h12.081v.6a.025.025 0 0 1-.025.025h-12.031a.025.025 0 0 1-.025-.028z" transform="translate(-1256.579 -642.268)" style="fill-rule:evenodd;fill:#c1c7d2"/><rect data-name="Rectangle 3587" width="12.938" height="1.052" rx=".526" transform="translate(.152 23.974)" style="fill:#fff"/><path data-name="Tracé 13042" d="M1251.817 861.287h12.663a.287.287 0 0 0 .287-.284v-.776a.288.288 0 0 0-.287-.288h-12.663a.288.288 0 0 0-.287.288V861a.287.287 0 0 0 .287.287zm12.651-.3h-12.64v-.753h12.64z" transform="translate(-1251.527 -836.114)" style="fill-rule:evenodd;fill:#c1c7d2"/><path data-name="Rectangle 3588" transform="translate(3.768 5.351)" style="fill:#fff" d="M0 0h1.857v2.737H0z"/><path data-name="Tracé 13043" d="M1288.009 675.836h1.858a.151.151 0 0 0 .149-.147v-2.74a.15.15 0 0 0-.149-.149h-1.858a.149.149 0 0 0-.149.149v2.738a.149.149 0 0 0 .149.149zm1.709-.3h-1.56V673.1h1.561z" transform="translate(-1284.242 -667.598)" style="fill-rule:evenodd;fill:#c1c7d2"/><path data-name="Tracé 13044" d="M1286.327 700.609h-2.738a.149.149 0 0 1 0-.3h2.738a.149.149 0 0 1 0 .3z" transform="translate(-1280.261 -692.371)" style="fill:#c1c7d2"/><path data-name="Tracé 13045" d="M1289.867 683.909h-1.858a.149.149 0 0 1 0-.3h1.858a.149.149 0 1 1 0 .3z" transform="translate(-1284.242 -677.332)" style="fill:#c1c7d2"/><path data-name="Rectangle 3589" transform="translate(3.378 4.911)" style="fill:#fff" d="M0 0h2.639v.635H0z"/><path data-name="Tracé 13046" d="M1284.079 669.315h2.639a.149.149 0 0 0 .149-.149v-.636a.15.15 0 0 0-.149-.149h-2.639a.149.149 0 0 0-.149.149v.636a.149.149 0 0 0 .149.149zm2.492-.3h-2.341v-.337h2.341z" transform="translate(-1280.703 -663.618)" style="fill-rule:evenodd;fill:#c1c7d2"/><path data-name="Rectangle 3590" transform="translate(9.112 5.351)" style="fill:#fff" d="M0 0h1.857v2.737H0z"/><path data-name="Tracé 13047" d="M1341.709 675.836h1.857a.149.149 0 0 0 .149-.147v-2.74a.149.149 0 0 0-.149-.149h-1.857a.149.149 0 0 0-.149.149v2.738a.149.149 0 0 0 .149.149zm1.708-.3h-1.558V673.1h1.558z" transform="translate(-1332.597 -667.598)" style="fill-rule:evenodd;fill:#c1c7d2"/><path data-name="Tracé 13048" d="M1340.026 700.609h-2.737a.149.149 0 1 1 0-.3h2.737a.149.149 0 1 1 0 .3z" transform="translate(-1328.617 -692.371)" style="fill:#c1c7d2"/><path data-name="Tracé 13049" d="M1343.566 683.909h-1.857a.149.149 0 1 1 0-.3h1.857a.149.149 0 0 1 0 .3z" transform="translate(-1332.597 -677.332)" style="fill:#c1c7d2"/><path data-name="Rectangle 3591" transform="translate(8.721 4.911)" style="fill:#fff" d="M0 0h2.639v.635H0z"/><path data-name="Tracé 13050" d="M1337.779 669.315h2.639a.15.15 0 0 0 .149-.149v-.636a.15.15 0 0 0-.149-.149h-2.639a.149.149 0 0 0-.149.149v.636a.149.149 0 0 0 .149.149zm2.492-.3h-2.341v-.337h2.341z" transform="translate(-1329.058 -663.618)" style="fill-rule:evenodd;fill:#c1c7d2"/><rect data-name="Rectangle 3592" width="12.881" height="1.052" rx=".526" transform="translate(.209 9.52)" style="fill:#fff"/><path data-name="Tracé 13051" d="M1252.387 716.04h12.607a.288.288 0 0 0 .286-.288v-.776a.287.287 0 0 0-.286-.287h-12.607a.287.287 0 0 0-.287.287v.776a.287.287 0 0 0 .287.288zm12.594-.3H1252.4v-.753h12.583z" transform="translate(-1252.041 -705.319)" style="fill-rule:evenodd;fill:#c1c7d2"/></g><g data-name="Groupe 49810"><path data-name="Tracé 13052" d="M685.366 386.844a.149.149 0 0 1-.149-.149 1.881 1.881 0 0 1 .967-1.641 2.393 2.393 0 0 1 2.17-3.4 2.369 2.369 0 0 1 1.81.83 2.315 2.315 0 0 1 3.392 2.048v.107a2.15 2.15 0 0 1 1.194 1.926v.123a.149.149 0 1 1-.3-.017v-.106a1.849 1.849 0 0 0-1.112-1.692.151.151 0 0 1-.089-.152c.006-.06.009-.121.009-.183a2.016 2.016 0 0 0-3.052-1.729.147.147 0 0 1-.2-.037 2.09 2.09 0 0 0-3.493 2.284.148.148 0 0 1-.07.208 1.58 1.58 0 0 0-.931 1.439.149.149 0 0 1-.146.141z" transform="translate(-662.716 -377.659)" style="fill:#c1c7d2"/><path data-name="Tracé 13053" d="M728.878 390.194a.146.146 0 0 1-.1-.041.149.149 0 0 1-.005-.211 2.3 2.3 0 0 1 .673-.49.149.149 0 0 1 .129.269 2.014 2.014 0 0 0-.586.427.148.148 0 0 1-.111.046z" transform="translate(-701.901 -384.674)" style="fill:#c1c7d2"/><path data-name="Tracé 13055" d="M758.264 409.79a.146.146 0 0 1-.058-.012 1.841 1.841 0 0 0-.8-.144.149.149 0 1 1-.012-.3 2.15 2.15 0 0 1 .921.168.149.149 0 0 1-.055.287z" transform="translate(-727.584 -402.587)" style="fill:#c1c7d2"/><path data-name="Tracé 13056" d="M720.974 431.129h-.568a.149.149 0 1 1 0-.3h.568a.149.149 0 1 1 0 .3z" transform="translate(-694.268 -421.944)" style="fill:#c1c7d2"/><path data-name="Tracé 13059" d="M765.356 431.129h-2.311a.149.149 0 1 1 0-.3h2.311a.149.149 0 0 1 0 .3z" transform="translate(-732.664 -421.944)" style="fill:#c1c7d2"/></g><g data-name="Groupe 49813"><path data-name="Rectangle 3593" transform="translate(40.484 12.82)" style="fill:#fff" d="M0 0h20.554v33.386H0z"/><path data-name="Tracé 13060" d="M1016.709 652.018h20.555a.151.151 0 0 0 .149-.149v-33.39a.149.149 0 0 0-.149-.149h-20.555a.149.149 0 0 0-.149.149v33.39a.15.15 0 0 0 .149.149zm20.41-.3h-20.257V618.63h20.261z" transform="translate(-976.227 -605.663)" style="fill-rule:evenodd;fill:#c1c7d2"/><path data-name="Rectangle 3594" transform="translate(39.922 11.381)" style="fill:#fff" d="M0 0h21.675v1.438H0z"/><path data-name="Tracé 13061" d="M1011.079 605.647h21.676a.149.149 0 0 0 .106-.045.154.154 0 0 0 .043-.107v-1.435a.149.149 0 0 0-.149-.149h-21.676a.149.149 0 0 0-.149.149v1.44a.149.149 0 0 0 .149.147zm21.527-.3h-21.378v-1.14h21.378z" transform="translate(-971.157 -592.678)" style="fill-rule:evenodd;fill:#c1c7d2"/><path data-name="Tracé 13062" d="M1042.709 637.29h1.327a.31.31 0 0 1 .309.31v3.328h-1.945V637.6a.309.309 0 0 1 .309-.31z" transform="translate(-999.495 -622.736)" style="fill:#fff"/><path data-name="Tracé 13063" d="M1041.039 639.725h1.946a.15.15 0 0 0 .107-.043.148.148 0 0 0 .045-.106v-3.327a.459.459 0 0 0-.459-.459h-1.329a.459.459 0 0 0-.459.459v3.327a.149.149 0 0 0 .149.149zm1.8-.3h-1.647v-3.174a.161.161 0 0 1 .16-.16h1.327a.161.161 0 0 1 .158.156z" transform="translate(-998.135 -621.385)" style="fill-rule:evenodd;fill:#c1c7d2"/><path data-name="Tracé 13064" d="M1039.439 672.629h-2.77a.149.149 0 1 1 0-.3h2.77a.149.149 0 1 1 0 .3z" transform="translate(-994.2 -654.289)" style="fill:#c1c7d2"/><path data-name="Tracé 13065" d="M1088.359 637.29h1.327a.31.31 0 0 1 .309.31v3.328h-1.946V637.6a.309.309 0 0 1 .31-.31z" transform="translate(-1040.602 -622.736)" style="fill:#fff"/><path data-name="Tracé 13066" d="M1086.729 639.725h1.945a.149.149 0 0 0 .149-.149v-3.327a.458.458 0 0 0-.459-.459h-1.326a.456.456 0 0 0-.459.459v3.327a.149.149 0 0 0 .15.149zm1.8-.3h-1.646v-3.178a.16.16 0 0 1 .16-.16h1.326a.16.16 0 0 1 .16.16z" transform="translate(-1039.278 -621.385)" style="fill-rule:evenodd;fill:#c1c7d2"/><path data-name="Tracé 13067" d="M1085.14 672.629h-2.771a.149.149 0 1 1 0-.3h2.771a.149.149 0 1 1 0 .3z" transform="translate(-1035.352 -654.289)" style="fill:#c1c7d2"/><path data-name="Tracé 13068" d="M1135.769 637.29h1.327a.31.31 0 0 1 .309.31v3.328h-1.946V637.6a.309.309 0 0 1 .31-.31z" transform="translate(-1083.293 -622.736)" style="fill:#fff"/><path data-name="Tracé 13069" d="M1134.109 639.725h1.946a.15.15 0 0 0 .149-.149v-3.327a.459.459 0 0 0-.459-.459h-1.327a.458.458 0 0 0-.459.459v3.327a.149.149 0 0 0 .15.149zm1.8-.3h-1.647v-3.178a.16.16 0 0 1 .16-.16h1.327a.16.16 0 0 1 .16.16z" transform="translate(-1081.942 -621.385)" style="fill-rule:evenodd;fill:#c1c7d2"/><path data-name="Tracé 13070" d="M1132.52 672.629h-2.771a.149.149 0 1 1 0-.3h2.771a.149.149 0 1 1 0 .3z" transform="translate(-1078.016 -654.289)" style="fill:#c1c7d2"/><path data-name="Tracé 13071" d="M1181.469 637.29h1.327a.31.31 0 0 1 .31.31v3.328h-1.945V637.6a.309.309 0 0 1 .308-.31z" transform="translate(-1124.445 -622.736)" style="fill:#fff"/><path data-name="Tracé 13072" d="M1179.789 639.725h1.946a.149.149 0 0 0 .149-.149v-3.327a.459.459 0 0 0-.459-.459h-1.325a.459.459 0 0 0-.459.459v3.327a.149.149 0 0 0 .148.149zm1.8-.3h-1.647v-3.178a.161.161 0 0 1 .16-.16h1.327a.16.16 0 0 1 .16.16z" transform="translate(-1123.076 -621.385)" style="fill-rule:evenodd;fill:#c1c7d2"/><path data-name="Tracé 13073" d="M1178.209 672.629h-2.77a.149.149 0 1 1 0-.3h2.77a.149.149 0 1 1 0 .3z" transform="translate(-1119.159 -654.289)" style="fill:#c1c7d2"/><path data-name="Tracé 13074" d="M1042.709 725.47h1.327a.31.31 0 0 1 .309.309v3.326h-1.945v-3.328a.309.309 0 0 1 .309-.307z" transform="translate(-999.495 -702.14)" style="fill:#fff"/><path data-name="Tracé 13075" d="M1041.039 727.9h1.946a.15.15 0 0 0 .107-.043.148.148 0 0 0 .045-.106v-3.331a.46.46 0 0 0-.459-.46h-1.329a.46.46 0 0 0-.459.46v3.327a.149.149 0 0 0 .149.153zm1.8-.3h-1.647v-3.18a.161.161 0 0 1 .16-.161h1.327a.161.161 0 0 1 .16.161z" transform="translate(-998.135 -700.78)" style="fill-rule:evenodd;fill:#c1c7d2"/><path data-name="Tracé 13076" d="M1039.439 760.809h-2.77a.149.149 0 1 1 0-.3h2.77a.149.149 0 1 1 0 .3z" transform="translate(-994.2 -733.693)" style="fill:#c1c7d2"/><path data-name="Tracé 13077" d="M1088.359 725.452h1.327a.31.31 0 0 1 .309.309v3.326h-1.946v-3.327a.309.309 0 0 1 .309-.309z" transform="translate(-1040.602 -702.122)" style="fill:#fff"/><path data-name="Tracé 13078" d="M1086.729 727.9h1.945a.149.149 0 0 0 .149-.149v-3.331a.459.459 0 0 0-.459-.46h-1.326a.458.458 0 0 0-.459.46v3.327a.149.149 0 0 0 .15.153zm1.8-.3h-1.646v-3.18a.161.161 0 0 1 .16-.161h1.326a.161.161 0 0 1 .16.161z" transform="translate(-1039.278 -700.78)" style="fill-rule:evenodd;fill:#c1c7d2"/><path data-name="Tracé 13079" d="M1085.14 760.809h-2.771a.149.149 0 1 1 0-.3h2.771a.149.149 0 1 1 0 .3z" transform="translate(-1035.352 -733.693)" style="fill:#c1c7d2"/><path data-name="Tracé 13080" d="M1135.769 725.47h1.327a.31.31 0 0 1 .309.309v3.326h-1.946v-3.328a.309.309 0 0 1 .31-.307z" transform="translate(-1083.293 -702.14)" style="fill:#fff"/><path data-name="Tracé 13081" d="M1134.109 727.9h1.946a.149.149 0 0 0 .149-.149v-3.331a.46.46 0 0 0-.459-.46h-1.327a.459.459 0 0 0-.459.46v3.327a.149.149 0 0 0 .15.153zm1.8-.3h-1.647v-3.18a.161.161 0 0 1 .16-.161h1.327a.161.161 0 0 1 .16.161z" transform="translate(-1081.942 -700.78)" style="fill-rule:evenodd;fill:#c1c7d2"/><path data-name="Tracé 13082" d="M1132.52 760.809h-2.771a.149.149 0 1 1 0-.3h2.771a.149.149 0 1 1 0 .3z" transform="translate(-1078.016 -733.693)" style="fill:#c1c7d2"/><path data-name="Tracé 13083" d="M1181.469 725.47h1.327a.31.31 0 0 1 .31.309v3.326h-1.945v-3.328a.309.309 0 0 1 .308-.307z" transform="translate(-1124.445 -702.14)" style="fill:#fff"/><path data-name="Tracé 13084" d="M1179.789 727.9h1.946a.149.149 0 0 0 .149-.149v-3.331a.46.46 0 0 0-.459-.46h-1.325a.46.46 0 0 0-.459.46v3.327a.149.149 0 0 0 .148.153zm1.8-.3h-1.647v-3.18a.161.161 0 0 1 .16-.161h1.327a.161.161 0 0 1 .16.161z" transform="translate(-1123.076 -700.78)" style="fill-rule:evenodd;fill:#c1c7d2"/><path data-name="Tracé 13085" d="M1178.209 760.809h-2.77a.149.149 0 1 1 0-.3h2.77a.149.149 0 1 1 0 .3z" transform="translate(-1119.159 -733.693)" style="fill:#c1c7d2"/><path data-name="Rectangle 3595" transform="translate(39.922 20.136)" style="fill:#fff" d="M0 0h21.675v1.438H0z"/><path data-name="Tracé 13086" d="M1011.079 693.617h21.676a.149.149 0 0 0 .149-.149v-1.438a.149.149 0 0 0-.149-.149h-21.676a.149.149 0 0 0-.149.149v1.438a.149.149 0 0 0 .149.149zm21.527-.3h-21.378v-1.14h21.378z" transform="translate(-971.157 -671.893)" style="fill-rule:evenodd;fill:#c1c7d2"/><path data-name="Rectangle 3596" transform="translate(39.922 28.658)" style="fill:#fff" d="M0 0h21.675v1.438H0z"/><path data-name="Tracé 13087" d="M1011.079 779.247h21.676a.15.15 0 0 0 .149-.149v-1.438a.149.149 0 0 0-.149-.149h-21.676a.149.149 0 0 0-.149.149v1.44a.149.149 0 0 0 .149.147zm21.527-.3h-21.378v-1.139h21.378z" transform="translate(-971.157 -749.001)" style="fill-rule:evenodd;fill:#c1c7d2"/><path data-name="Tracé 13088" d="M1053.1 811.92h1.266a.3.3 0 0 1 .3.3v3.18h-1.857v-3.177a.3.3 0 0 1 .291-.303z" transform="translate(-1008.869 -779.986)" style="fill:#fff"/><path data-name="Tracé 13089" d="M1051.429 814.191h1.858a.149.149 0 0 0 .149-.147v-3.179a.447.447 0 0 0-.445-.445h-1.267a.445.445 0 0 0-.445.445v3.177a.149.149 0 0 0 .15.149zm1.709-.3h-1.559v-3.027a.146.146 0 0 1 .146-.146h1.267a.146.146 0 0 1 .146.146z" transform="translate(-1007.491 -778.636)" style="fill-rule:evenodd;fill:#c1c7d2"/><path data-name="Tracé 13090" d="M1049.915 845.609h-2.645a.149.149 0 0 1 0-.3h2.645a.149.149 0 1 1 0 .3z" transform="translate(-1003.745 -810.054)" style="fill:#c1c7d2"/><path data-name="Tracé 13091" d="M1096.723 811.92h1.266a.3.3 0 0 1 .3.3v3.18h-1.857v-3.177a.3.3 0 0 1 .291-.303z" transform="translate(-1048.148 -779.986)" style="fill:#fff"/><path data-name="Tracé 13092" d="M1095.049 814.191h1.857a.149.149 0 0 0 .149-.147v-3.179a.445.445 0 0 0-.445-.445h-1.266a.445.445 0 0 0-.445.445v3.177a.149.149 0 0 0 .15.149zm1.708-.3h-1.557v-3.027a.146.146 0 0 1 .146-.146h1.266a.147.147 0 0 1 .146.146z" transform="translate(-1046.77 -778.636)" style="fill-rule:evenodd;fill:#c1c7d2"/><path data-name="Tracé 13093" d="M1093.565 845.609h-2.645a.149.149 0 1 1 0-.3h2.645a.149.149 0 0 1 0 .3z" transform="translate(-1043.051 -810.054)" style="fill:#c1c7d2"/><path data-name="Tracé 13094" d="M1030.371 864.129h-13.661a.149.149 0 1 1 0-.3h13.661a.149.149 0 0 1 0 .3z" transform="translate(-976.227 -826.73)" style="fill:#c1c7d2"/><path data-name="Tracé 13095" d="M1155.39 805.15h5.411a.033.033 0 0 1 .033.033V820.1h-5.474v-14.917a.033.033 0 0 1 .03-.033z" transform="translate(-1101.213 -773.89)" style="fill:#fff"/><path data-name="Tracé 13096" d="M1154.009 818.895h5.474a.151.151 0 0 0 .108-.043.153.153 0 0 0 .045-.107v-14.913a.182.182 0 0 0-.182-.182h-5.411a.182.182 0 0 0-.182.182v14.913a.149.149 0 0 0 .148.15zm5.322-.3h-5.175v-14.646h5.175z" transform="translate(-1099.862 -772.539)" style="fill-rule:evenodd;fill:#c1c7d2"/><path data-name="Rectangle 3597" transform="translate(55.254 32.422)" style="fill:#fff" d="M0 0h3.235v7.105H0z"/><path data-name="Tracé 13097" d="M1165.129 822.734h3.236a.15.15 0 0 0 .149-.149v-7.106a.15.15 0 0 0-.149-.149h-3.236a.149.149 0 0 0-.149.149v7.106a.149.149 0 0 0 .149.149zm3.087-.3h-2.937v-6.807h2.937z" transform="translate(-1109.875 -783.057)" style="fill-rule:evenodd;fill:#c1c7d2"/><path data-name="Tracé 13098" d="M1159.483 887.029h-5.474a.149.149 0 0 1 0-.3h5.474a.149.149 0 1 1 0 .3z" transform="translate(-1099.862 -847.351)" style="fill:#c1c7d2"/><path data-name="Tracé 13099" d="M1159.706 899.559h-5.437a.149.149 0 0 1 0-.3h5.437a.149.149 0 1 1 0 .3z" transform="translate(-1100.096 -858.634)" style="fill:#c1c7d2"/><path data-name="Tracé 13100" d="M1159.913 910.19h-5.413a.149.149 0 1 1 0-.3h5.416a.149.149 0 1 1 0 .3z" transform="translate(-1100.303 -868.207)" style="fill:#c1c7d2"/><path data-name="Tracé 13101" d="M1159.913 920.919h-5.413a.149.149 0 1 1 0-.3h5.416a.149.149 0 1 1 0 .3z" transform="translate(-1100.303 -877.868)" style="fill:#c1c7d2"/><path data-name="Tracé 13102" d="M1159.861 932.5h-5.361a.149.149 0 1 1 0-.3h5.363a.149.149 0 1 1 0 .3z" transform="translate(-1100.303 -888.296)" style="fill:#c1c7d2"/><path data-name="Tracé 13103" d="M1159.651 944.128h-5.432a.149.149 0 1 1 0-.3h5.432a.149.149 0 1 1 0 .3z" transform="translate(-1100.051 -898.768)" style="fill:#c1c7d2"/><path data-name="Rectangle 3598" transform="translate(43.539 39.062)" style="fill:#fff" d="M0 0h6.915v4.166H0z"/><path data-name="Tracé 13104" d="M1047.419 886.515h6.915a.149.149 0 0 0 .149-.149V882.2a.149.149 0 0 0-.149-.149h-6.915a.149.149 0 0 0-.149.149v4.166a.149.149 0 0 0 .149.149zm6.764-.3h-6.616v-3.867h6.616z" transform="translate(-1003.88 -843.136)" style="fill-rule:evenodd;fill:#c1c7d2"/><path data-name="Rectangle 3599" transform="translate(42.979 43.228)" style="fill:#fff" d="M0 0h8.035v1.374H0z"/><path data-name="Tracé 13105" d="M1041.759 925.583h8.036a.15.15 0 0 0 .149-.149v-1.374a.15.15 0 0 0-.149-.149h-8.036a.149.149 0 0 0-.149.149v1.374a.149.149 0 0 0 .149.149zm7.886-.3h-7.737v-1.076h7.737z" transform="translate(-998.783 -880.831)" style="fill-rule:evenodd;fill:#c1c7d2"/><path data-name="Tracé 13106" d="M1061.019 886.515a.149.149 0 0 1-.149-.149V882.2a.149.149 0 1 1 .3 0v4.166a.15.15 0 0 1-.149.149z" transform="translate(-1016.127 -843.136)" style="fill:#c1c7d2"/><path data-name="Tracé 13107" d="M1103.5 886.515a.149.149 0 0 1-.149-.149V882.2a.149.149 0 1 1 .3 0v4.166a.149.149 0 0 1-.151.149z" transform="translate(-1054.379 -843.136)" style="fill:#c1c7d2"/><path data-name="Tracé 13108" d="M1065.238 893.82h-4.229a.149.149 0 1 1 0-.3h4.229a.149.149 0 1 1 0 .3z" transform="translate(-1016.118 -853.466)" style="fill:#c1c7d2"/></g><g data-name="Groupe 49811"><path data-name="Tracé 13111" d="M1196.349 488.973a.149.149 0 0 1-.149-.149 1.878 1.878 0 0 1 .967-1.641 2.391 2.391 0 0 1 3.979-2.572 2.313 2.313 0 0 1 3.392 2.048v.106a2.15 2.15 0 0 1 1.194 1.926v.122a.15.15 0 1 1-.3-.017v-.105a1.852 1.852 0 0 0-1.111-1.7.15.15 0 0 1-.09-.151c.006-.061.009-.122.009-.183a2.015 2.015 0 0 0-3.052-1.729.149.149 0 0 1-.2-.037 2.09 2.09 0 0 0-3.493 2.284.149.149 0 0 1 .011.118.154.154 0 0 1-.081.09 1.576 1.576 0 0 0-.929 1.438.15.15 0 0 1-.148.149z" transform="translate(-1132.975 -483.78)" style="fill:#c1c7d2"/><path data-name="Tracé 13112" d="M1239.858 492.347a.149.149 0 0 1-.1-.253 2.333 2.333 0 0 1 .673-.49.15.15 0 0 1 .214.145.15.15 0 0 1-.084.124 2.02 2.02 0 0 0-.587.427.148.148 0 0 1-.112.047z" transform="translate(-1172.156 -490.812)" style="fill:#c1c7d2"/><path data-name="Tracé 13113" d="M1206.605 516.071a.149.149 0 0 1-.063-.285 1.87 1.87 0 0 1 .954-.165.15.15 0 1 1-.026.3 1.585 1.585 0 0 0-.8.139.144.144 0 0 1-.065.011z" transform="translate(-1142.21 -512.445)" style="fill:#c1c7d2"/><path data-name="Tracé 13114" d="M1269.238 511.979a.152.152 0 0 1-.058-.012 1.851 1.851 0 0 0-.8-.143.151.151 0 0 1-.155-.143.147.147 0 0 1 .039-.107.149.149 0 0 1 .1-.048 2.153 2.153 0 0 1 .922.167.149.149 0 0 1-.059.287z" transform="translate(-1197.835 -508.762)" style="fill:#c1c7d2"/><path data-name="Tracé 13115" d="M1231.947 533.259h-.568a.149.149 0 0 1 0-.3h.568a.149.149 0 0 1 0 .3z" transform="translate(-1164.518 -528.066)" style="fill:#c1c7d2"/><path data-name="Tracé 13116" d="M1194.027 533.259h-3.447a.149.149 0 0 1 0-.3h3.447a.149.149 0 1 1 0 .3z" transform="translate(-1127.779 -528.066)" style="fill:#c1c7d2"/><path data-name="Tracé 13117" d="M1181.974 533.259h-.475a.149.149 0 0 1 0-.3h.475a.149.149 0 0 1 0 .3z" transform="translate(-1119.603 -528.066)" style="fill:#c1c7d2"/><path data-name="Tracé 13118" d="M1276.33 533.259h-2.311a.149.149 0 0 1 0-.3h2.311a.149.149 0 1 1 0 .3z" transform="translate(-1202.915 -528.066)" style="fill:#c1c7d2"/></g></g><g data-name="Groupe 49820"><g data-name="Groupe 49819"><g data-name="Groupe 23738"><g data-name="Groupe 23737" style="clip-path:url(#a)" transform="translate(0 23.071)"><g data-name="Groupe 23736" style="isolation:isolate;opacity:.35"><g data-name="Groupe 23735"><g data-name="Groupe 23734" style="clip-path:url(#b)" transform="translate(0 21.159)"><path data-name="Tracé 32995" d="M43.045 186.409c.1.014.221.094-.413.263-3.383.91-12.5 3.036-15.963 3.815a44.424 44.424 0 0 1-10.731 1.037c-3.486 0-13.936-.938-15.522-1.206s1.586-1.243 5.72-1.886c4.378-.68 22.5-3.092 22.5-3.092s13.866 1 14.41 1.07" transform="translate(0 -185.339)" style="fill:#dae0e9"/></g></g></g><path data-name="Tracé 32996" d="M79.489 186.943c.08.009.183.08-.347.221-2.839.765-10.487 2.548-13.4 3.2a37.4 37.4 0 0 1-9.009.868c-2.928 0-12.289-.662-13.617-.887s1.9-1.384 5.4-1.713 18.884-2.595 18.884-2.595 11.627.849 12.087.906" transform="translate(-37.926 -164.799)" style="fill:#081f30"/><path data-name="Tracé 32997" d="M46.71 146.7c1.583 0 2.867 1.752 2.867 3.913s-1.284 3.913-2.867 3.913-2.867-1.752-2.867-3.913 1.284-3.913 2.867-3.913" transform="translate(-38.838 -129.955)" style="fill:#0c2635"/><path data-name="Tracé 32998" d="M68.709 146.7h1.717l-.2 7.953-1.52-.127z" transform="translate(-60.865 -129.955)" style="fill:#0c2635"/><path data-name="Tracé 32999" d="M61.028 146.95c1.524 0 2.759 1.773 2.759 3.96s-1.235 3.96-2.759 3.96-2.759-1.773-2.759-3.96 1.235-3.96 2.759-3.96" transform="translate(-51.617 -130.174)" style="fill:#0c2635"/><path data-name="Tracé 33000" d="M68.234 155.047c1.122 0 2.032 1.359 2.032 3.036s-.91 3.036-2.032 3.036-2.034-1.359-2.034-3.036.91-3.036 2.032-3.036" transform="translate(-58.644 -137.347)" style="fill:#f0f2f8"/><path data-name="Tracé 33001" d="M70.5 157.719c.987 0 1.788 1.223 1.788 2.731s-.8 2.731-1.788 2.731-1.788-1.223-1.788-2.731.8-2.731 1.788-2.731" transform="translate(-60.865 -139.714)" style="fill:#0c2635"/><path data-name="Tracé 33002" d="m69.071 155.655-.211 2.473 1.685-.9.141.521-1.755.943 1.389 1.68-.235.46-1.45-1.727-.779 2.116-.338-.38.746-2.154-1.445-.61.108-.619 1.412.624.2-2.463z" transform="translate(-59.19 -137.856)" style="fill:#f0f2f8"/><path data-name="Tracé 33003" d="M77.341 174.831c0 .483.263.877.587.877s.586-.394.586-.877-.263-.877-.586-.877-.587.394-.587.877" transform="translate(-68.512 -154.095)" style="fill:#a6b3c6"/><path data-name="Tracé 33004" d="M79.067 178.4c0 .23.127.418.282.418s.282-.188.282-.418-.127-.418-.282-.418-.282.188-.282.418" transform="translate(-70.041 -157.663)" style="fill:#f0f2f8"/><path data-name="Tracé 33005" d="M75.164 93.014c.258.164.235.784.408 1.145 0 0 .3.225.178.4a.3.3 0 0 1-.3.141.748.748 0 0 1-.291-.244 6.126 6.126 0 0 1-.985-.235c-.413-.141-.615-.967-.465-1.337.127-.3 1.06-.117 1.455.131" transform="translate(-65.25 -82.141)" style="fill:#ffc300"/></g></g><g data-name="Groupe 23743"><g data-name="Groupe 23742" style="clip-path:url(#c)" transform="translate(8.409 33.657)"><g data-name="Groupe 23741" style="opacity:.15;isolation:isolate"><g data-name="Groupe 23740"><g data-name="Groupe 23739" style="clip-path:url(#d)" transform="translate(-.316 -.496)"><path data-name="Tracé 33006" d="M72.755 89.05c.145.7.45 1.4-.511 1.1a1.378 1.378 0 0 1-.976-.816 3.18 3.18 0 0 1-.286-.957l-.094 2.037 2.182.544.23-.159-.192-.347.014-.3z" transform="translate(-70.887 -88.379)" style="fill:#231f20"/></g></g></g></g></g><g data-name="Groupe 23745"><path data-name="Tracé 33008" d="m142.283 132.386-3.566 1.713-8.169 1.548-5.795-.192-9.352-.469 2.726-7.024 23.785.615a16.689 16.689 0 0 0 .333 1.666 6.352 6.352 0 0 1 .038 2.144" transform="translate(-102.227 -90.281)" style="fill:#151717"/><path data-name="Tracé 33009" d="M193.084 152.23c0 2.37.854 4.293 1.91 4.293s1.91-1.924 1.91-4.293-.854-4.293-1.91-4.293-1.91 1.924-1.91 4.293" transform="translate(-171.041 -107.977)" style="fill:#0c2635"/><path data-name="Tracé 33010" d="M209.812 147.936h2.4l.042 8.695-2.445-.108z" transform="translate(-185.86 -107.977)" style="fill:#0c2635"/><path data-name="Tracé 33011" d="M213.84 152.282c0 2.4.887 4.345 1.985 4.345s1.985-1.947 1.985-4.345-.887-4.345-1.985-4.345-1.985 1.947-1.985 4.345" transform="translate(-189.428 -107.977)" style="fill:#0c2635"/><path data-name="Tracé 33012" d="M219.553 160.183c0 1.839.657 3.327 1.464 3.327s1.464-1.487 1.464-3.327-.657-3.327-1.464-3.327-1.464 1.492-1.464 3.327" transform="translate(-194.489 -115.879)" style="fill:#fff"/><path data-name="Tracé 33013" d="M221.362 162.768c0 1.656.577 2.994 1.286 2.994s1.286-1.342 1.286-2.994-.577-2.994-1.286-2.994-1.286 1.342-1.286 2.994" transform="translate(-196.091 -118.463)" style="fill:#d0d2d3"/><path data-name="Tracé 33014" d="m221.624 157.509-.258 2.707 1.323-.981.1.573-1.375 1.032 1.107 1.844-.169.5-1.154-1.9-.45 2.327-.244-.422.427-2.36-.929-.671.08-.676.9.685.258-2.7z" transform="translate(-194.89 -116.424)" style="fill:#fff"/><path data-name="Tracé 33015" d="M226.787 178.533c0 .53.188.962.422.962s.422-.432.422-.962-.188-.962-.422-.962-.422.432-.422.962" transform="translate(-200.897 -134.228)" style="fill:#a6b3c6"/><path data-name="Tracé 33016" d="M227.322 182.429c0 .253.089.46.2.46s.2-.206.2-.46-.089-.46-.2-.46-.2.206-.2.46" transform="translate(-201.371 -138.124)" style="fill:#0c2635"/><path data-name="Tracé 33017" d="M313.06 145.566c0 1.8.582 3.266 1.3 3.266s1.3-1.459 1.3-3.266-.582-3.261-1.3-3.261-1.3 1.459-1.3 3.261" transform="translate(-277.321 -102.989)" style="fill:#0c2635"/><path data-name="Tracé 33018" d="M324.445 142.305h1.633l.028 6.607-1.661-.08z" transform="translate(-287.406 -102.989)" style="fill:#0c2635"/><path data-name="Tracé 33019" d="M327.2 145.608c0 1.825.605 3.3 1.351 3.3s1.351-1.478 1.351-3.3-.605-3.3-1.351-3.3-1.351 1.478-1.351 3.3" transform="translate(-289.845 -102.989)" style="fill:#0c2635"/><path data-name="Tracé 33020" d="M331.063 151.616c0 1.4.446 2.529.995 2.529s.995-1.131.995-2.529-.446-2.529-.995-2.529-.995 1.131-.995 2.529" transform="translate(-293.269 -108.995)" style="fill:#fff"/><path data-name="Tracé 33021" d="M332.3 153.583c0 1.257.394 2.276.877 2.276s.877-1.018.877-2.276-.394-2.276-.877-2.276-.877 1.018-.877 2.276" transform="translate(-294.361 -110.962)" style="fill:#d0d2d3"/><path data-name="Tracé 33022" d="m332.453 149.567-.174 2.06.9-.746.07.436-.934.784.755 1.4-.117.385-.784-1.441-.305 1.764-.169-.314.291-1.8-.634-.511.056-.511.615.521.174-2.055z" transform="translate(-293.523 -109.397)" style="fill:#fff"/><path data-name="Tracé 33023" d="M335.954 165.561c0 .4.131.732.286.732s.286-.328.286-.732-.127-.732-.286-.732-.286.328-.286.732" transform="translate(-297.601 -122.942)" style="fill:#a6b3c6"/><path data-name="Tracé 33024" d="M336.324 168.546c0 .192.061.347.136.347s.136-.155.136-.347-.061-.347-.136-.347-.136.155-.136.347" transform="translate(-297.929 -125.926)" style="fill:#0c2635"/><path data-name="Tracé 33025" d="m68.387 61.565.009-.76s-.07-2.839-1.229-2.778c-.952.052-1.351 1.225-1.642 2.524-.249 1.093-.413 2.74-1.014 2.834-1.3.2-2.853.465-4.195.671s-3.477.774-3.477.774c.2-2.257-.2-6.827-2.149-6.729-1.8.094-2.445 3.463-2.778 7.282a33.234 33.234 0 0 1-5.678.422c-1.764 0-10.159-.272-11.205-.4s-1.792-.183-2.318-1.328a7.277 7.277 0 0 1-.633-4.279c.286-1.225.6-3.416 5.1-5.1.15-.056.934-.014 1.1-.052 3.378-3.078 7.081-5.466 10.117-5.879 2.961-.4 7.761-.6 11.318-.751 2.4-.1 4.772 1.2 6.8 3.6.713.563 1.229.938 1.229.938s.934 3.96 1.1 4.261c.211.38-.028 4.307-.46 4.744" transform="translate(-28.33 -19.461)" style="stroke-width:.5px;stroke-linejoin:bevel;stroke:#081f4d;fill:#ffc300"/><path data-name="Rectangle 8167" style="fill:none" d="M0 0h89.999v36.929H0z" transform="translate(0 23.071)"/></g><g data-name="Groupe 23750"><g data-name="Groupe 23749" style="clip-path:url(#e)" transform="translate(3.651 28.552)"><g data-name="Groupe 23748" style="opacity:.2;isolation:isolate"><g data-name="Groupe 23747"><g data-name="Groupe 23746" style="clip-path:url(#f)" transform="translate(2.15 6.208)"><path data-name="Tracé 33026" d="M53.084 102.6c-4.3 1.253-1.68 2.487 1.253 2.6 5.659.221 15.184-2.8 15.184-2.8z" transform="translate(-50.816 -102.396)" style="fill:#fff"/></g></g></g></g></g><g data-name="Groupe 23755"><g data-name="Groupe 23754" style="clip-path:url(#e)" transform="translate(3.651 28.552)"><g data-name="Groupe 23753" style="opacity:.1;isolation:isolate"><g data-name="Groupe 23752"><g data-name="Groupe 23751" style="clip-path:url(#g)" transform="translate(19.698 9.361)"><path data-name="Tracé 33028" d="M204.533 138.846a24.44 24.44 0 0 1 .624-6.03c.521-1.689 1.3-2.782 2.553-2.8 1.553-.023 2.825 3.876 1.952 7.531-.286 1.187-5.129 1.3-5.129 1.3" transform="translate(-204.53 -130.015)" style="fill:#0c1b24"/></g></g></g></g></g><g data-name="Groupe 23760"><g data-name="Groupe 23759" style="clip-path:url(#e)" transform="translate(3.651 28.552)"><g data-name="Groupe 23758" style="opacity:.1;isolation:isolate"><g data-name="Groupe 23757"><g data-name="Groupe 23756" style="clip-path:url(#h)" transform="translate(32.82 9.498)"><path data-name="Tracé 33030" d="M319.472 137.518a26.957 26.957 0 0 1 .666-4.373c.375-1.145 1-1.924 1.816-1.938 1.009-.019 1.6 2.848 1.032 5.466-.183.849-3.514.845-3.514.845" transform="translate(-319.472 -131.207)" style="fill:#0c1b24"/></g></g></g></g></g><g data-name="Groupe 23765"><g data-name="Groupe 23764" style="clip-path:url(#e)" transform="translate(3.651 28.552)"><g data-name="Groupe 23763" style="opacity:.2;isolation:isolate"><g data-name="Groupe 23762"><g data-name="Groupe 23761" style="clip-path:url(#i)" transform="translate(20.736 3.646)"><path data-name="Tracé 33032" d="m215.215 82.769 11.485-2.346.751-.469 1.239.863a2.806 2.806 0 0 1-1.107.732c-2.553.732-8.39 1.628-10.506 1.933l-.493-.5-.718.084.526.5c-2.027.253-4.434.371-1.178-.8" transform="translate(-213.618 -79.954)" style="fill:#fff"/></g></g></g></g></g><g data-name="Groupe 23779"><g data-name="Groupe 23778" style="clip-path:url(#a)" transform="translate(0 23.071)"><g data-name="Groupe 23768" style="opacity:.2;isolation:isolate"><g data-name="Groupe 23767"><g data-name="Groupe 23766" style="clip-path:url(#j)" transform="translate(29.514 19.412)"><path data-name="Tracé 33034" d="M262.079 170.472c-1.661.282-3.974.751-3.477.929s2.51-.286 3.824-.558c3.139-.657 4.6-1.215-.347-.371" transform="translate(-258.533 -170.044)" style="fill:#fff"/></g></g></g><path data-name="Tracé 33035" d="M58.742 183.806a.883.883 0 0 0 .427-.662s-3.9.479-4.246.253a9.2 9.2 0 0 0-5.232-2.182c-1.323-.042-8.352-.3-9.178-.263s.019 2.736.807 2.834c1.98.244 8.981.577 10.731.525 1.717-.052 6.691-.507 6.691-.507" transform="translate(-35.587 -160.292)" style="fill:#0c2635"/><path data-name="Tracé 33036" d="m326.34 97.141-.99.282.061-.258.995-.277z" transform="translate(-288.208 -85.827)" style="fill:#0c2635;fill-rule:evenodd"/><path data-name="Tracé 33037" d="m326.262 96.776-.995.277.061-.258.995-.277z" transform="translate(-288.134 -85.499)" style="fill:#f0f2f8;fill-rule:evenodd"/><path data-name="Tracé 33038" d="m286.244 106.175-1.38.253.094-.286 1.38-.253z" transform="translate(-252.344 -93.801)" style="fill:#0c2635;fill-rule:evenodd"/><path data-name="Tracé 33039" d="m286.2 105.728-1.38.253.094-.286 1.38-.258z" transform="translate(-252.307 -93.4)" style="fill:#f0f2f8;fill-rule:evenodd"/><path data-name="Tracé 33040" d="M77.384 130.028a.351.351 0 1 1 .084-.554.4.4 0 0 1-.084.554" transform="translate(-67.987 -114.622)" style="fill:#fff"/><g data-name="Groupe 23771" style="opacity:.1;isolation:isolate"><g data-name="Groupe 23770"><g data-name="Groupe 23769" style="clip-path:url(#k)" transform="translate(28.467 12.879)"><path data-name="Tracé 33041" d="M249.367 114.772c.441 1.91.708 5.368 1.408 5.274.845-.113 5.11-.906 5.659-1.056s1.234-2.994 1.694-4.157c.427-1.074 1.9-3.425 2.853 2.2.117.694.16-1.422.1-2.177-.127-1.6-.558-2.327-4.814-1.933-1.548.141-7.156.741-6.9 1.849" transform="translate(-249.359 -112.817)" style="fill:#0c1b24"/></g></g></g><g data-name="Groupe 23774" style="opacity:.1;isolation:isolate"><g data-name="Groupe 23773"><g data-name="Groupe 23772" style="clip-path:url(#l)" transform="translate(17.453 15.917)"><path data-name="Tracé 33042" d="M158.736 139.91c.352-.76-.727-.755-3.21.976-1.52 1.065-3.294 2.215-2.412 2.937a5.753 5.753 0 0 0 3.153 1.342c1.014-.047 1.164-.577 1.267-1.051a39.208 39.208 0 0 1 1.2-4.2" transform="translate(-152.88 -139.427)" style="fill:#0c1b24"/></g></g></g><g data-name="Groupe 23777" style="opacity:.1;isolation:isolate"><g data-name="Groupe 23776"><g data-name="Groupe 23775" style="clip-path:url(#m)" transform="translate(3.708 16.596)"><path data-name="Tracé 33043" d="M35.164 145.382c1.272-.038 3.777.028 5.279.052a7.087 7.087 0 0 1 4.753 1.7c.676.577-2.027.948-4.889.957-1.863 0-4.092-.056-5.363-.131s-2.726 0-2.426-.751a2.864 2.864 0 0 1 2.646-1.825" transform="translate(-32.477 -145.371)" style="fill:#0c1b24"/></g></g></g><path data-name="Tracé 33044" d="M81.739 54.777c3.65.061 12.43-.174 15.17-.474 1.727-2.75 3.627-5.79 6.879-6.2-4.753.075-8.849.3-11.355.563-2.473.258-7.2 2.886-10.694 6.114" transform="translate(-72.408 -42.609)" style="fill:#0c2635"/></g></g><g data-name="Groupe 23781"><g data-name="Groupe 23780" style="clip-path:url(#n)" transform="translate(9.332 28.563)"><path data-name="Tracé 33045" d="M83.711 54.562c7.02-5.03 18.886-6.231 21.838-6.832-4.753.075-7.32.211-9.83.45-3.773.361-8.516 3.153-12.007 6.381" transform="translate(-83.486 -47.772)" style="stroke-width:.25px;stroke-linecap:round;fill:#6c8094;stroke:#081f4d"/></g></g><g data-name="Groupe 23783"><g data-name="Groupe 23782" style="clip-path:url(#a)" transform="translate(0 23.071)"><path data-name="Tracé 33047" d="M256.447 174.94s-2.088.488-4.017.887c-1.8.375-2.75.638-4.246 1.014a3.652 3.652 0 0 1-.207.39l-.024.155s3.881-.849 5.082-1.018c2.276-.324 2.919-.371 3.1-.549a2.654 2.654 0 0 0 .314-.877" transform="translate(-219.647 -154.969)" style="fill:#0c2635"/><path data-name="Tracé 33048" d="M227.609 59.638a90.116 90.116 0 0 0 11.674-1.952c.3-.089.319-.263.446-.788a8.243 8.243 0 0 0-6.147-3.041c-3.9.418-5.973 5.781-5.973 5.781" transform="translate(-201.625 -47.695)" style="fill:#0c2635"/></g></g><g data-name="Groupe 23785"><g data-name="Groupe 23784" style="clip-path:url(#o)" transform="translate(25.984 29.217)"><path data-name="Tracé 33049" d="M228.431 53.086s2.754-3.4 6.78-3.5a12.61 12.61 0 0 1 5.246.906 3.847 3.847 0 0 0-3.923-3.707c-3.754 0-6.4.849-7.052 2.051a17.842 17.842 0 0 0-1.051 4.251" transform="translate(-228.337 -47.59)" style="fill:#6c8094"/></g></g><g data-name="Groupe 23787"><g data-name="Groupe 23786" style="clip-path:url(#a)" transform="translate(0 23.071)"><path data-name="Tracé 33051" d="M233.892 53.854q-.162 0-.31.014c-3.9.418-5.973 5.776-5.973 5.776a90.086 90.086 0 0 0 11.674-1.952c.3-.089.319-.263.446-.788a8.532 8.532 0 0 0-5.837-3.05m5.405 3.5c-.009.019-.019.033-.094.056-.361.1-2.008.479-4.19.882-1.783.329-4.387.76-6.926 1.014a14 14 0 0 1 1.286-2.21 8.947 8.947 0 0 1 1.807-1.905 4.9 4.9 0 0 1 2.431-1.018 2.544 2.544 0 0 1 .277-.014 6.671 6.671 0 0 1 2.693.713 8.712 8.712 0 0 1 2.82 2.121 1.793 1.793 0 0 1-.1.361" transform="translate(-201.625 -47.706)" style="fill:#0c2635"/><path data-name="Tracé 33052" d="m282.727 53.977 1.15 4.716.816.732a34.266 34.266 0 0 1-.281 7.663c-.094.441.375.77.375.77s-.038 1.089-.751 1.3" transform="translate(-250.451 -47.815)" style="stroke-linejoin:round;stroke-width:.25px;stroke-linecap:round;stroke:#081f4d;fill:none"/><path data-name="Tracé 33053" d="m324.322 71.281.633 1.853.694.732a22.385 22.385 0 0 1 .028 2.374 4.057 4.057 0 0 0 .178 1.281 4.92 4.92 0 0 1 .024 1.159" transform="translate(-287.297 -63.143)" style="stroke:#404041;stroke-width:.374px;stroke-linejoin:round;fill:none"/><path data-name="Tracé 33054" d="m236.939 103.67.8.816a40.206 40.206 0 0 1 1.483 7.442 3.021 3.021 0 0 0 .263.812s.1 1.056-.582 1.37" transform="translate(-209.89 -91.835)" style="stroke-linejoin:round;stroke-width:.25px;stroke-linecap:round;stroke:#081f4d;fill:none"/><path data-name="Tracé 33055" d="M186.178 105.944s3.21-.995 4.73-1.37" transform="translate(-164.924 -92.636)" style="stroke-linejoin:round;stroke-width:.25px;stroke-linecap:round;stroke:#081f4d;fill:none"/><path data-name="Tracé 33056" d="M214.621 102.4a1.007 1.007 0 0 1 .352.549" transform="translate(-190.12 -90.705)" style="stroke-linejoin:round;stroke-width:.25px;stroke-linecap:round;stroke:#081f4d;fill:none"/><path data-name="Tracé 33057" d="M55.419 137.59s-4.584.211-6.208.188-3.848-.239-3.848-.239" transform="translate(-40.185 -121.837)" style="stroke-linejoin:round;stroke-width:.25px;stroke-linecap:round;stroke:#081f4d;fill:none"/><path data-name="Tracé 33058" d="M183.178 128.436a6.98 6.98 0 0 1 2.581.389 6.9 6.9 0 0 1 1.3.8l.38.394" transform="translate(-162.266 -113.772)" style="stroke-linejoin:round;stroke-width:.25px;stroke-linecap:round;stroke:#081f4d;fill:none"/><path data-name="Tracé 33059" d="M234.421 90.336a3.685 3.685 0 0 0-1.121 1.159s-.455.244-.272.432a.554.554 0 0 0 .46.155 1.123 1.123 0 0 0 .441-.263 12.837 12.837 0 0 0 1.511-.253c.633-.15.92-1.032.915-1.473 0-.319-1.328-.028-1.933.244" transform="translate(-206.386 -79.683)" style="fill:#ffc300"/></g></g><g data-name="Groupe 23792"><g data-name="Groupe 23791" style="clip-path:url(#p)" transform="translate(26.598 33.339)"><g data-name="Groupe 23790" style="opacity:.15;isolation:isolate"><g data-name="Groupe 23789"><g data-name="Groupe 23788" style="clip-path:url(#q)" transform="translate(.043 -.55)"><path data-name="Tracé 33060" d="M234.579 86.038c-.568.788-1.074 1.342.394 1.014a2.093 2.093 0 0 0 1.5-.882 2.74 2.74 0 0 0 .436-1.037l.145 2.2-3.341.591-.347-.174.3-.375-.019-.319z" transform="translate(-233.364 -85.132)" style="fill:#231f20"/></g></g></g></g></g><g data-name="Groupe 23797"><g data-name="Groupe 23796" style="clip-path:url(#a)" transform="translate(0 23.071)"><path data-name="Tracé 33062" d="M130.49 118.971a.36.36 0 0 1-.183-.68 7.762 7.762 0 0 1 1.6-.605c1.262-.328 3.439-.868 4.608-1.154a.361.361 0 0 1 .38.558 3.552 3.552 0 0 1-2.285 1.483 37.571 37.571 0 0 1-4.12.4" transform="translate(-115.256 -103.217)" style="fill:#fff"/><path data-name="Tracé 33063" d="M41.045 123.029a.4.4 0 0 1-.479.418c-.319-.07-.648-.221-.61-.54.075-.6 1.126-1.276 1.126-1.276a7.379 7.379 0 0 0-.038 1.4" transform="translate(-35.392 -107.745)" style="fill:#fff"/><g data-name="Groupe 23795" style="isolation:isolate;opacity:.35"><g data-name="Groupe 23794"><g data-name="Groupe 23793" style="clip-path:url(#r)" transform="translate(17.616 26.549)"><path data-name="Tracé 33064" d="M226.56 234.352c.165.024.37.158-.693.441-5.678 1.528-20.973 5.1-26.793 6.4a74.561 74.561 0 0 1-18.012 1.741c-5.852 0-23.391-1.575-26.053-2.024s2.662-2.087 9.6-3.166c7.348-1.142 37.764-5.19 37.764-5.19s23.273 1.677 24.186 1.8" transform="translate(-154.311 -232.556)" style="fill:#dae0e9"/></g></g></g><path data-name="Tracé 33065" d="M287.727 235.248c.134.016.307.134-.583.37-4.765 1.284-17.6 4.276-22.485 5.371a62.781 62.781 0 0 1-15.121 1.457c-4.914 0-20.626-1.11-22.855-1.488s3.19-2.323 9.057-2.875 31.7-4.355 31.7-4.355 19.516 1.426 20.288 1.52" transform="translate(-200.351 -207.045)" style="fill:#081f30"/><path data-name="Tracé 33066" d="M232.71 167.708c2.658 0 4.812 2.941 4.812 6.568s-2.154 6.568-4.812 6.568-4.812-2.941-4.812-6.568 2.154-6.568 4.812-6.568" transform="translate(-201.881 -148.562)" style="fill:#0c2635"/><path data-name="Tracé 33067" d="M269.635 167.708h2.882l-.331 13.349-2.552-.213z" transform="translate(-238.853 -148.562)" style="fill:#0c2635"/><path data-name="Tracé 33068" d="M256.744 168.122c2.558 0 4.631 2.976 4.631 6.647s-2.073 6.647-4.631 6.647-4.631-2.976-4.631-6.647 2.073-6.647 4.631-6.647" transform="translate(-223.331 -148.929)" style="fill:#0c2635"/><path data-name="Tracé 33069" d="M268.837 181.712c1.883 0 3.41 2.281 3.41 5.1s-1.527 5.1-3.41 5.1-3.41-2.281-3.41-5.1 1.527-5.1 3.41-5.1" transform="translate(-235.126 -160.968)" style="fill:#f0f2f8"/><path data-name="Tracé 33070" d="M272.636 186.2c1.657 0 3 2.052 3 4.584s-1.343 4.584-3 4.584-3-2.052-3-4.584 1.343-4.584 3-4.584" transform="translate(-238.853 -164.941)" style="fill:#0c2635"/><path data-name="Tracé 33071" d="m270.242 182.733-.354 4.15 2.827-1.5.236.874-2.946 1.583 2.331 2.819-.394.772-2.434-2.9-1.307 3.552-.567-.638 1.252-3.615-2.426-1.024.181-1.04 2.371 1.047.331-4.135z" transform="translate(-236.042 -161.823)" style="fill:#f0f2f8"/><path data-name="Tracé 33072" d="M284.122 214.919c0 .811.441 1.473.984 1.473s.984-.662.984-1.473-.441-1.473-.984-1.473-.984.662-.984 1.473" transform="translate(-251.686 -189.079)" style="fill:#a6b3c6"/><path data-name="Tracé 33073" d="M287.02 220.908c0 .386.213.7.473.7s.473-.315.473-.7-.213-.7-.473-.7-.473.315-.473.7" transform="translate(-254.253 -195.068)" style="fill:#f0f2f8"/><path data-name="Tracé 33074" d="M280.469 77.593c.433.276.394 1.315.685 1.922 0 0 .5.378.3.669a.507.507 0 0 1-.5.236 1.253 1.253 0 0 1-.488-.41 10.286 10.286 0 0 1-1.654-.394c-.693-.236-1.032-1.622-.78-2.245.213-.5 1.78-.2 2.441.221" transform="translate(-246.214 -68.308)" style="fill:#1e96fc"/></g></g><g data-name="Groupe 23802"><g data-name="Groupe 23801" style="clip-path:url(#s)" transform="translate(31.73 31.875)"><g data-name="Groupe 23800" style="opacity:.15;isolation:isolate"><g data-name="Groupe 23799"><g data-name="Groupe 23798" style="clip-path:url(#t)" transform="translate(-.531 -.833)"><path data-name="Tracé 33075" d="M276.426 70.941c.244 1.173.756 2.355-.858 1.851a2.313 2.313 0 0 1-1.638-1.37 5.34 5.34 0 0 1-.48-1.607l-.158 3.418 3.662.914.386-.268-.323-.583.024-.5z" transform="translate(-273.291 -69.815)" style="fill:#231f20"/></g></g></g></g></g><g data-name="Groupe 23804"><g data-name="Groupe 23803" style="clip-path:url(#a)" transform="translate(0 23.071)"><path data-name="Tracé 33077" d="m393.125 143.677-5.985 2.875-13.712 2.6-9.726-.323-15.7-.788 4.576-11.79 39.922 1.032a28.051 28.051 0 0 0 .559 2.8 10.661 10.661 0 0 1 .063 3.6" transform="translate(-308.276 -120.696)" style="fill:#151717"/><path data-name="Tracé 33078" d="M478.39 176.984c0 3.977 1.433 7.206 3.205 7.206s3.206-3.229 3.206-7.206-1.433-7.206-3.206-7.206-3.205 3.229-3.205 7.206" transform="translate(-423.776 -150.396)" style="fill:#0c2635"/><path data-name="Tracé 33079" d="M506.468 169.778h4.032l.071 14.594-4.1-.181z" transform="translate(-448.649 -150.396)" style="fill:#0c2635"/><path data-name="Tracé 33080" d="M513.229 177.071c0 4.024 1.488 7.293 3.331 7.293s3.331-3.268 3.331-7.293-1.488-7.293-3.331-7.293-3.331 3.268-3.331 7.293" transform="translate(-454.638 -150.396)" style="fill:#0c2635"/><path data-name="Tracé 33081" d="M522.818 190.332c0 3.087 1.1 5.584 2.457 5.584s2.457-2.5 2.457-5.584-1.1-5.584-2.457-5.584-2.457 2.5-2.457 5.584" transform="translate(-463.132 -163.657)" style="fill:#fff"/><path data-name="Tracé 33082" d="M525.854 194.671c0 2.78.969 5.025 2.158 5.025s2.158-2.252 2.158-5.025-.969-5.025-2.158-5.025-2.158 2.252-2.158 5.025" transform="translate(-465.822 -167.996)" style="fill:#d0d2d3"/><path data-name="Tracé 33083" d="m526.294 185.846-.433 4.544 2.221-1.646.173.961-2.308 1.733 1.859 3.1-.284.843-1.937-3.182-.756 3.906-.41-.709.717-3.961-1.559-1.126.134-1.134 1.512 1.15.433-4.536z" transform="translate(-463.804 -164.573)" style="fill:#fff"/><path data-name="Tracé 33084" d="M534.96 221.132c0 .89.315 1.614.709 1.614s.709-.724.709-1.614-.315-1.614-.709-1.614-.709.724-.709 1.614" transform="translate(-473.888 -194.458)" style="fill:#a6b3c6"/><path data-name="Tracé 33085" d="M535.857 227.671c0 .425.15.772.339.772s.339-.347.339-.772-.15-.772-.339-.772-.339.347-.339.772" transform="translate(-474.683 -200.996)" style="fill:#0c2635"/><path data-name="Tracé 33086" d="M679.764 165.8c0 3.024.977 5.481 2.181 5.481s2.182-2.449 2.182-5.481-.977-5.474-2.182-5.474-2.181 2.449-2.181 5.474" transform="translate(-602.161 -142.023)" style="fill:#0c2635"/><path data-name="Tracé 33087" d="M698.873 160.326h2.741l.047 11.089-2.788-.134z" transform="translate(-619.089 -142.023)" style="fill:#0c2635"/><path data-name="Tracé 33088" d="M703.495 165.87c0 3.064 1.016 5.544 2.268 5.544s2.268-2.481 2.268-5.544-1.016-5.544-2.268-5.544-2.268 2.481-2.268 5.544" transform="translate(-623.183 -142.023)" style="fill:#0c2635"/><path data-name="Tracé 33089" d="M709.98 175.954c0 2.347.748 4.245 1.67 4.245s1.67-1.9 1.67-4.245-.748-4.245-1.67-4.245-1.67 1.9-1.67 4.245" transform="translate(-628.928 -152.106)" style="fill:#fff"/><path data-name="Tracé 33090" d="M712.05 179.254c0 2.111.661 3.82 1.473 3.82s1.473-1.709 1.473-3.82-.662-3.82-1.473-3.82-1.473 1.709-1.473 3.82" transform="translate(-630.762 -155.406)" style="fill:#d0d2d3"/><path data-name="Tracé 33091" d="m712.314 172.515-.291 3.457 1.5-1.252.118.732-1.567 1.315 1.268 2.347-.2.646-1.315-2.418-.512 2.961-.284-.528.488-3.016-1.063-.859.095-.858 1.032.874.291-3.449z" transform="translate(-629.356 -152.779)" style="fill:#fff"/><path data-name="Tracé 33092" d="M718.19 199.36c0 .677.221 1.229.48 1.229s.48-.551.48-1.229-.213-1.229-.48-1.229-.48.551-.48 1.229" transform="translate(-636.201 -175.512)" style="fill:#a6b3c6"/><path data-name="Tracé 33093" d="M718.811 204.369c0 .323.1.583.228.583s.228-.26.228-.583-.1-.583-.228-.583-.228.26-.228.583" transform="translate(-636.751 -180.522)" style="fill:#0c2635"/><path data-name="Tracé 33094" d="m269.094 24.808.016-1.276s-.118-4.765-2.063-4.662c-1.6.087-2.268 2.055-2.756 4.237-.418 1.835-.693 4.6-1.7 4.757-2.174.331-4.789.78-7.041 1.126-2.229.339-5.836 1.3-5.836 1.3.329-3.79-.341-11.46-3.614-11.29-3.024.157-4.1 5.812-4.662 12.223-.677.378-6.757.709-9.529.709-2.961 0-17.051-.457-18.807-.669s-3.009-.307-3.891-2.229a12.213 12.213 0 0 1-1.063-7.183c.48-2.056 1.008-5.734 8.561-8.561.252-.095 1.567-.024 1.851-.087 5.671-5.166 11.884-9.175 16.98-9.868 4.97-.677 13.026-1.008 19-1.26 4.032-.165 8.01 2.016 11.412 6.048 1.2.945 2.063 1.575 2.063 1.575s1.567 6.647 1.851 7.151c.354.638-.047 7.23-.772 7.962" transform="translate(-184.246 -1.827)" style="fill:#1e96fc;stroke-width:.5px;stroke:#081f4d"/></g></g><g data-name="Groupe 23809"><g data-name="Groupe 23808" style="clip-path:url(#u)" transform="translate(23.744 23.307)"><g data-name="Groupe 23807" style="opacity:.2;isolation:isolate"><g data-name="Groupe 23806"><g data-name="Groupe 23805" style="clip-path:url(#v)" transform="translate(3.609 10.42)"><path data-name="Tracé 33095" d="M243.409 93.679c-7.222 2.1-2.82 4.174 2.1 4.363 9.5.37 25.486-4.7 25.486-4.7z" transform="translate(-239.602 -93.34)" style="fill:#fff"/></g></g></g></g></g><g data-name="Groupe 23814"><g data-name="Groupe 23813" style="clip-path:url(#u)" transform="translate(23.744 23.307)"><g data-name="Groupe 23812" style="opacity:.1;isolation:isolate"><g data-name="Groupe 23811"><g data-name="Groupe 23810" style="clip-path:url(#w)" transform="translate(33.063 15.713)"><path data-name="Tracé 33097" d="M497.607 154.52s-.126-6.3 1.047-10.12c.874-2.835 2.174-4.67 4.284-4.7 2.607-.039 4.741 6.505 3.276 12.641-.48 1.992-8.608 2.181-8.608 2.181" transform="translate(-497.603 -139.697)" style="fill:#0c1b24"/></g></g></g></g></g><g data-name="Groupe 23819"><g data-name="Groupe 23818" style="clip-path:url(#u)" transform="translate(23.744 23.307)"><g data-name="Groupe 23817" style="opacity:.1;isolation:isolate"><g data-name="Groupe 23816"><g data-name="Groupe 23815" style="clip-path:url(#x)" transform="translate(55.087 15.941)"><path data-name="Tracé 33099" d="M690.526 152.291a45.242 45.242 0 0 1 1.118-7.34c.63-1.922 1.678-3.229 3.048-3.253 1.693-.032 2.686 4.781 1.733 9.175-.307 1.426-5.9 1.418-5.9 1.418" transform="translate(-690.526 -141.698)" style="fill:#0c1b24"/></g></g></g></g></g><g data-name="Groupe 23824"><g data-name="Groupe 23823" style="clip-path:url(#u)" transform="translate(23.744 23.307)"><g data-name="Groupe 23822" style="opacity:.2;isolation:isolate"><g data-name="Groupe 23821"><g data-name="Groupe 23820" style="clip-path:url(#y)" transform="translate(34.804 6.12)"><path data-name="Tracé 33101" d="m515.537 60.4 19.28-3.938 1.26-.787 2.079 1.449a4.707 4.707 0 0 1-1.859 1.229c-4.284 1.229-14.082 2.733-17.634 3.245l-.827-.835-1.2.142.882.843c-3.4.425-7.443.622-1.977-1.347" transform="translate(-512.856 -55.673)" style="fill:#fff"/></g></g></g></g></g><g data-name="Groupe 23838"><g data-name="Groupe 23837" style="clip-path:url(#a)" transform="translate(0 23.071)"><g data-name="Groupe 23827" style="opacity:.2;isolation:isolate"><g data-name="Groupe 23826"><g data-name="Groupe 23825" style="clip-path:url(#z)" transform="translate(67.155 23.618)"><path data-name="Tracé 33103" d="M594.194 207.6c-2.788.473-6.671 1.26-5.836 1.559s4.214-.48 6.419-.937c5.269-1.1 7.718-2.04-.583-.622" transform="translate(-588.243 -206.884)" style="fill:#fff"/></g></g></g><path data-name="Tracé 33104" d="M252.9 229.983a1.482 1.482 0 0 0 .717-1.11s-6.553.8-7.128.425c-1.843-1.2-4.4-3.52-8.781-3.662-2.221-.071-14.019-.5-15.4-.441s.032 4.591 1.355 4.757c3.323.409 15.074.969 18.012.882 2.883-.087 11.231-.851 11.231-.851" transform="translate(-196.425 -199.481)" style="fill:#0c2635"/><path data-name="Tracé 33105" d="m702.053 84.521-1.662.473.1-.433 1.67-.465z" transform="translate(-620.434 -74.495)" style="fill:#0c2635;fill-rule:evenodd"/><path data-name="Tracé 33106" d="m701.923 83.908-1.67.465.1-.433 1.67-.465z" transform="translate(-620.312 -73.945)" style="fill:#f0f2f8;fill-rule:evenodd"/><path data-name="Tracé 33107" d="m634.754 99.684-2.315.425.158-.48 2.315-.425z" transform="translate(-560.239 -87.879)" style="fill:#0c2635;fill-rule:evenodd"/><path data-name="Tracé 33108" d="m634.685 98.933-2.315.425.158-.48 2.315-.433z" transform="translate(-560.178 -87.206)" style="fill:#f0f2f8;fill-rule:evenodd"/><path data-name="Tracé 33109" d="M284.195 139.72a.589.589 0 1 1 .142-.929.674.674 0 0 1-.142.929" transform="translate(-250.806 -122.826)" style="fill:#fff"/><g data-name="Groupe 23830" style="opacity:.1;isolation:isolate"><g data-name="Groupe 23829"><g data-name="Groupe 23828" style="clip-path:url(#A)" transform="translate(65.397 12.653)"><path data-name="Tracé 33110" d="M572.86 114.112c.74 3.205 1.189 9.01 2.363 8.852 1.418-.189 8.576-1.52 9.5-1.772s2.071-5.025 2.843-6.978c.717-1.8 3.19-5.749 4.788 3.694.2 1.166.268-2.386.165-3.654-.213-2.686-.937-3.906-8.08-3.245-2.6.236-12.01 1.244-11.577 3.1" transform="translate(-572.845 -110.832)" style="fill:#0c1b24"/></g></g></g><g data-name="Groupe 23833" style="opacity:.1;isolation:isolate"><g data-name="Groupe 23832"><g data-name="Groupe 23831" style="clip-path:url(#B)" transform="translate(46.91 17.751)"><path data-name="Tracé 33111" d="M420.741 156.306c.591-1.276-1.221-1.268-5.387 1.638-2.552 1.788-5.529 3.717-4.048 4.93 1.2.977 3.591 2.331 5.293 2.253s1.953-.969 2.126-1.764a65.828 65.828 0 0 1 2.016-7.057" transform="translate(-410.91 -155.494)" style="fill:#0c1b24"/></g></g></g><g data-name="Groupe 23836" style="opacity:.1;isolation:isolate"><g data-name="Groupe 23835"><g data-name="Groupe 23834" style="clip-path:url(#C)" transform="translate(23.839 18.89)"><path data-name="Tracé 33112" d="M213.331 165.49c2.134-.063 6.34.047 8.86.087a11.9 11.9 0 0 1 7.978 2.851c1.134.969-3.4 1.591-8.206 1.607-3.127.008-6.868-.095-9-.221s-4.576-.008-4.072-1.26a4.808 4.808 0 0 1 4.442-3.064" transform="translate(-208.822 -165.471)" style="fill:#0c1b24"/></g></g></g><path data-name="Tracé 33113" d="M291.5 13.414c6.127.1 20.863-.291 25.462-.8C319.864 8 323.054 2.9 328.512 2.207c-7.978.126-14.853.5-19.059.945C305.3 3.585 297.363 8 291.5 13.414" transform="translate(-258.226 -1.955)" style="fill:#0c2635"/></g></g><g data-name="Groupe 23840"><g data-name="Groupe 23839" style="clip-path:url(#D)" transform="translate(33.279 23.323)"><path data-name="Tracé 33114" d="M294.815 13.054C306.6 4.611 326.515 2.6 331.468 1.587c-7.978.126-12.286.354-16.5.756-6.332.606-14.294 5.293-20.154 10.711" transform="translate(-294.437 -1.658)" style="fill:#6c8094"/></g></g><g data-name="Groupe 23842"><g data-name="Groupe 23841" style="clip-path:url(#a)" transform="translate(0 23.071)"><path data-name="Tracé 33116" d="M584.743 215.1s-3.5.819-6.742 1.489c-3.024.63-4.615 1.071-7.127 1.7a6.132 6.132 0 0 1-.347.654l-.039.26s6.513-1.425 8.529-1.709c3.82-.543 4.9-.622 5.2-.921a4.456 4.456 0 0 0 .528-1.473" transform="translate(-505.36 -190.546)" style="fill:#0c2635"/><path data-name="Tracé 33117" d="M536.339 21.574a151.2 151.2 0 0 0 19.595-3.274c.512-.15.535-.441.748-1.323-3.15-3.78-7.97-5.355-10.317-5.1-6.553.7-10.026 9.7-10.026 9.7" transform="translate(-475.11 -10.493)" style="fill:#0c2635"/></g></g><g data-name="Groupe 23844"><g data-name="Groupe 23843" style="clip-path:url(#E)" transform="translate(61.229 24.423)"><path data-name="Tracé 33118" d="M537.719 10.577s4.623-5.71 11.38-5.875a21.167 21.167 0 0 1 8.805 1.52S557.621 0 551.32 0s-10.75 1.426-11.837 3.442-1.764 7.135-1.764 7.135" transform="translate(-537.562 -1.352)" style="fill:#6c8094"/></g></g><g data-name="Groupe 23846"><g data-name="Groupe 23845" style="clip-path:url(#a)" transform="translate(0 23.071)"><path data-name="Tracé 33120" d="M546.886 11.866q-.272 0-.52.024c-6.553.7-10.026 9.7-10.026 9.7a151.221 151.221 0 0 0 19.595-3.276c.512-.15.536-.441.748-1.323-2.93-3.513-7.316-5.119-9.8-5.119m9.073 5.867c-.016.032-.031.055-.158.095-.606.173-3.371.8-7.033 1.481-2.993.551-7.364 1.276-11.624 1.7A23.466 23.466 0 0 1 539.3 17.3a15.02 15.02 0 0 1 3.032-3.2 8.225 8.225 0 0 1 4.08-1.709 4.257 4.257 0 0 1 .465-.024 11.2 11.2 0 0 1 4.521 1.2 14.625 14.625 0 0 1 4.733 3.56 3.02 3.02 0 0 1-.173.606" transform="translate(-475.111 -10.511)" style="fill:#0c2635"/><path data-name="Tracé 33121" d="m628.851 12.073 1.93 7.915 1.37 1.229c.22 4.788.2 9.656-.473 12.861-.157.74.63 1.292.63 1.292s-.063 1.827-1.26 2.174" transform="translate(-557.061 -10.695)" style="stroke-linejoin:round;stroke-width:.25px;stroke:#081f4d;fill:none"/><path data-name="Tracé 33122" d="m698.666 41.116 1.063 3.111 1.166 1.229a37.572 37.572 0 0 1 .047 3.985 6.8 6.8 0 0 0 .3 2.15 8.257 8.257 0 0 1 .039 1.945" transform="translate(-618.906 -36.422)" style="stroke-linejoin:round;stroke-width:.25px;stroke:#081f4d;fill:none"/><path data-name="Tracé 33123" d="m552 95.478 1.339 1.37c1.638 4.442 2.276 11.262 2.489 12.491a5.077 5.077 0 0 0 .441 1.363s.173 1.772-.977 2.3" transform="translate(-488.983 -84.578)" style="stroke-linejoin:round;stroke-width:.25px;stroke:#081f4d;fill:none"/><path data-name="Tracé 33124" d="M466.8 99.3s5.387-1.67 7.939-2.3" transform="translate(-413.51 -85.923)" style="stroke-linejoin:round;stroke-width:.25px;stroke:#081f4d;fill:none"/><path data-name="Tracé 33125" d="M514.54 93.34a1.688 1.688 0 0 1 .591.921" transform="translate(-455.799 -82.684)" style="stroke-linejoin:round;stroke-width:.25px;stroke:#081f4d;fill:none"/><path data-name="Tracé 33126" d="M247.329 152.411s-7.694.354-10.419.315-6.458-.4-6.458-.4" transform="translate(-204.142 -134.935)" style="stroke-linejoin:round;stroke-width:.25px;stroke:#081f4d;fill:none"/><path data-name="Tracé 33127" d="M461.764 137.048a11.714 11.714 0 0 1 4.332.654 11.587 11.587 0 0 1 2.189 1.339l.638.662" transform="translate(-409.049 -121.399)" style="stroke-linejoin:round;stroke-width:.25px;stroke:#081f4d;fill:none"/><path data-name="Tracé 33128" d="M547.772 73.1a6.187 6.187 0 0 0-1.882 1.945s-.764.409-.457.725a.93.93 0 0 0 .772.26 1.885 1.885 0 0 0 .74-.441 21.563 21.563 0 0 0 2.536-.425c1.063-.252 1.544-1.733 1.536-2.473 0-.536-2.229-.047-3.245.41" transform="translate(-483.101 -64.183)" style="fill:#1e96fc"/></g></g><g data-name="Groupe 23851"><g data-name="Groupe 23850" style="clip-path:url(#F)" transform="translate(62.259 31.343)"><g data-name="Groupe 23849" style="opacity:.15;isolation:isolate"><g data-name="Groupe 23848"><g data-name="Groupe 23847" style="clip-path:url(#G)" transform="translate(.073 -.923)"><path data-name="Tracé 33129" d="M548.037 65.885c-.953 1.323-1.8 2.252.661 1.7a3.512 3.512 0 0 0 2.512-1.481 4.6 4.6 0 0 0 .732-1.741l.244 3.694-5.608.992-.578-.289.5-.63-.031-.536z" transform="translate(-545.997 -64.365)" style="fill:#231f20"/></g></g></g></g></g><g data-name="Groupe 23853"><g data-name="Groupe 23852" style="clip-path:url(#a)" transform="translate(0 23.071)"><path data-name="Tracé 33131" d="M373.33 121.16a.6.6 0 0 1-.307-1.142 13.005 13.005 0 0 1 2.686-1.018 694.844 694.844 0 0 1 7.734-1.937.605.605 0 0 1 .638.937 5.962 5.962 0 0 1-3.835 2.489 63.075 63.075 0 0 1-6.915.669" transform="translate(-330.144 -103.684)" style="fill:#fff"/><path data-name="Tracé 33132" d="M223.2 127.973a.667.667 0 0 1-.8.7c-.536-.118-1.087-.37-1.024-.906.126-1.008 1.89-2.142 1.89-2.142a12.381 12.381 0 0 0-.063 2.347" transform="translate(-196.098 -111.284)" style="fill:#fff"/></g></g><path data-name="Rectangle 8197" style="fill:none" d="M0 0h89.999v36.929H0z" transform="translate(0 23.071)"/></g></g></svg>