<svg xmlns="http://www.w3.org/2000/svg" width="180" height="126"><defs><clipPath id="a"><path d="M0 0h180v126H0z"/></clipPath></defs><g clip-path="url(#a)"><path fill="#fff" d="M0 0h180v126H0z"/><g data-name="Groupe 23124"><g data-name="Groupe 22654"><g data-name="Groupe 22232"><path data-name="Tracé 22181" d="M97.202 83.181L41.963 63.909l63.582-15.535 3.707.9 3.908.852 7.7 1.919z" fill="#624b00"/><path d="M34.253 64.327a.162.162 0 010 .1c0 .416-.084 1.162-.937.945a.408.408 0 01-.1-.066s-.5-.793-1.2-1.889l-9.412-11.203A163.12 163.12 0 0111.84 32.876l-1.166-2.777c-.366-.945-.762-1.842-1.1-2.777-.19-.463-.35-.945-.526-1.417l-.69-1.891c-.853-1.294.617-1 1.31-1.237l1.257-.217 10.074-1.793 20.514-3.653 40.286-7.171 9.462-1.672a10.994 10.994 0 012.438-.141 4.754 4.754 0 012.476.841 5.251 5.251 0 011.752 2.39 24.893 24.893 0 01.823 2.711 318.6 318.6 0 014.609 20c.609 3.126 1.15 6.139 1.63 9.011.122.718.236 1.436.35 2.135s.206 1.436.343 1.936a1.175 1.175 0 00.762.888l.168.066a4.593 4.593 0 00.518.123l.5.094 1.1.293 2.118.5c2.286.425 1.387.756-.076.878-.564.035-69.085 15.376-76.519 14.331z" fill="#ffc300" stroke="#223254" stroke-width=".5"/><path data-name="Path" d="M113.936 57.974a.183.183 0 01-.061.112c-.286.381-.971.9-1.594-.179a.564.564 0 010-.157l.337-3.1 2.565-23.714.644-5.934.163-1.512a3 3 0 01.868-1.928 1.765 1.765 0 011.175-.426 2.833 2.833 0 01.92.2l1.308.517 10.214 4.064 20.478 8.084 5.113 2.035 2.565 1.008a12.144 12.144 0 011.4.627 2.417 2.417 0 01.8.806 2.234 2.234 0 01.266 1.31 2.909 2.909 0 01-.112.571 1.642 1.642 0 01-.184.481l-.123.246-.245.425c-.153.269-.317.537-.48.795 0 0-.429.593-1.073 1.31a14.969 14.969 0 01-2.313 2.121c-1.318.985-1.839 1.12-1.788.829.322-.614-24.754 8.103-40.843 11.409z" fill="#ffc300" stroke="#223254" stroke-width=".5"/></g><g data-name="Groupe 20595"><g data-name="Groupe 18187"><path data-name="Tracé 17971" d="M111.002 82.622h-4.065l-.63 2.248s-1.346 1.766-1.745 1.862a17.278 17.278 0 00-1.91.942h-6.35l-1.266-.942V84.87l.422-1.332.844-.916-6.164-.411-.571-1.508.571-1.556.734-1.529 1.736-1.27-1.736-3.882-2.1-5.67-.335-1.756 1.132-3.973 1.3-1.291 2.85-1.675-1.114-2.956-.515-4.507v-3.885l1.151-3.512 2.215-3.729h29.949l2.564 3.729.759 2.179.359 2.652-.359 3.767-.428 3.31-1.2 3.289 1.629.357 1.743.985.851 1.292.989 2.931v2.248l1.24-.559 2.227-1.689 1.244-2.443.961-2.765.579-2.325.371-2.757.932 1.909.776 3.173v3.801l-.776 4.2-1.881 3.285-1.6 2.385-2.292 2.059-2.769 1.823-1.681.5.83 1.274.851 1.435v2.168l-.851.9h-5.794l1.317 1.344v1.777l-.586 1.547-2.087.385h-4.828l-2.179-.942-1.625-1.862-1.293-2.248z" fill="#fff"/><path data-name="Tracé 11400" d="M107.537 82.72h6.425V63.742s-3.467 3.73-6.848 0z" fill="#dae0e9"/><path data-name="Tracé 11392" d="M128.372 76.504l1.09.839.873-.477s3.793-1.975 4.193-2.3a40.226 40.226 0 003.775-4.518 38.444 38.444 0 002.156-5.677 44.08 44.08 0 00.331-5.761c-.163-.449-1.061 5.618-2.842 8.27s-6.742 6.129-7.617 6.712a9.881 9.881 0 00-1.959 2.912z" fill="#dae0e9"/><path data-name="Tracé 11391" d="M121.989 80.029s.966-8.429 1.4-11.278 3.161-8.724 3.737-10.049 2.521 1.15 2.521 1.15l-1.668 1.58a10.647 10.647 0 00-1.551 4.039c-.2 2.107-1.039 6.244-1.135 8.438s.312 2.133 1.135 2.7-2.132.878-1.563 2.645.315 2.4 1.563 3.175-1.563 0-1.563 0z" fill="#dae0e9"/><path data-name="Tracé 11368" d="M98.787 80.029s-.966-8.429-1.4-11.278-3.161-8.724-3.737-10.049-2.521 1.15-2.521 1.15l1.668 1.58a10.674 10.674 0 011.551 4.039c.2 2.107 1.039 6.244 1.135 8.438s-.312 2.133-1.135 2.7 2.132.878 1.563 2.645-.315 2.4-1.563 3.175 1.563 0 1.563 0z" fill="#dae0e9"/><path data-name="Tracé 11382" d="M98.787 80.028s-.965-8.429-1.4-11.278a26.5 26.5 0 00-2.138-6.645c-.579-1.326-1.565-4.357-2.266-5.8s-1.045-6.944-.933-9.073a10.335 10.335 0 01.933-3.751l3.184-4.741" fill="none" stroke="#253251" stroke-linecap="round" stroke-width=".5"/><path data-name="Tracé 11383" d="M107.118 63.215v19.3s-.5 2.481-1.459 3.4a5.811 5.811 0 01-3.493 1.8h-5.239a2.087 2.087 0 01-1.983-1.8c-.207-1.722 1.458-3.65 1.983-4.156a21.338 21.338 0 012.207-1.564 5.66 5.66 0 013.032 0" fill="none" stroke="#253251" stroke-linecap="round" stroke-width=".5"/><path data-name="Tracé 11384" d="M93.934 58.28s-3.155 1.372-3.874 2.553a12.282 12.282 0 00-1.432 4.758 43.067 43.067 0 002.257 7.19c.39.719 1.781 3.723 1.781 3.723" fill="none" stroke="#253251" stroke-linecap="round" stroke-width=".5"/><path data-name="Tracé 11385" d="M95.405 76.503s-1.644-.783-2.662 0-2.732 1.955-2.795 3.032-.363 2.8.539 3a57.246 57.246 0 005.758 0" fill="none" stroke="#253251" stroke-linecap="round" stroke-width=".5"/><path data-name="Tracé 11387" d="M113.949 63.215v19.3s.5 2.481 1.459 3.4a5.806 5.806 0 003.493 1.8h5.239a2.089 2.089 0 001.984-1.8c.207-1.722-1.458-3.65-1.984-4.156a21.383 21.383 0 00-2.207-1.564 5.66 5.66 0 00-3.032 0" fill="none" stroke="#253251" stroke-linecap="round" stroke-width=".5"/><path data-name="Tracé 11388" d="M127.134 58.28s3.155 1.372 3.874 2.553a12.311 12.311 0 011.432 4.758 43.248 43.248 0 01-2.257 7.19c-.39.719-1.781 3.723-1.781 3.723" fill="none" stroke="#253251" stroke-linecap="round" stroke-width=".5"/><path data-name="Tracé 11389" d="M125.662 76.503s1.644-.783 2.662 0 2.732 1.955 2.795 3.032.363 2.8-.539 3a57.241 57.241 0 01-5.758 0" fill="none" stroke="#253251" stroke-linecap="round" stroke-width=".5"/><path data-name="Ligne 326" fill="none" stroke="#253251" stroke-width=".5" d="M107.472 82.72h6.331"/><path data-name="Tracé 11390" d="M131.997 66.893s3.775-2.25 4.674-4.256 2.634-7.872 1.959-9.113 1.9 3.394 1.982 4.978.05 6.215-.933 8.392-2.7 5.85-5.433 7.656a25.405 25.405 0 01-4.9 2.577" fill="none" stroke="#253251" stroke-linecap="round" stroke-width=".5"/><path data-name="Tracé 17968" d="M122.282 80.026s.966-8.429 1.405-11.278a26.436 26.436 0 012.138-6.645c.579-1.327 1.565-4.358 2.266-5.8s1.044-6.943.933-9.073a10.392 10.392 0 00-.93-3.755l-3.185-4.741" fill="none" stroke="#253251" stroke-linecap="round" stroke-width=".5"/></g><g data-name="Groupe 20594"><path data-name="Tracé 17967" d="M101.4 6.446l-1.877-2.259-1.1-.878h-3.022l-14.144 9.752-1.229 1.26-.828 1.723v1.726l.378 2.346.8 2.429 3.555 5.746 1.27 1.2 1.327.551h1.149l1.726-.551.919-.32v3.845l.428 2.922s1.027 2.721 1.054 2.946a23.329 23.329 0 001.046 2.141l1.508 1.6a20.287 20.287 0 002.777 1.327 27.512 27.512 0 013.036 1.2l2.214 1.33 1.468 1.2 1.091.868 1.926.883h6.407l2.093-1.4 2.189-1.553 1.818-1.33 3.081-1.2 2.826-1.327 1.833-2.217 1.289-2.839.785-3.3.369-3.932v-1.616l1.535 1.317h1.821l2.613-.551 1.474-1.837 3.45-5.741.662-2.352.289-3.2-.952-2.045-1.345-1.558-12.697-8.565-1.893-.878-1.68-.307-1.416.681-2.045 2.472-.614.287-1.2-.765-2.189-.59-2.747-.526h-4.509l-3.171.526-2.139.59z" fill="#fff"/><g data-name="Groupe 18265"><path data-name="Tracé 11509" d="M83.46 11.595s-.694 3.926 0 5.386.822 2.985 1.733 3.094 1.551.138 2.019-.943a25.066 25.066 0 013.061-5.443c1.254-1.422 2.283-3.148 4.2-4.242s2.689-.824 2.689-.824l-3.248 3.462-1.541 2.722-1.219 3.458-.534 4.237-.628 4.132v2.506l-1.283.731h-2.9l-2.068-1.761-2.127-3.517-1.515-2.722-.63-3.027v-2.875l1.1-2.284z" fill="#dae0e9"/><path data-name="Tracé 11496" d="M124.91 11.982s2.005 6.275 2.119 8.787-.264 9.792-.976 11.7-1.844 5.555-3.443 6.4a60.2 60.2 0 01-6.1 2.326 6.831 6.831 0 01-1.878.351H103.13a6.738 6.738 0 01-4.289-.351 23.425 23.425 0 01-5.18-3.562c-1.343-1.295-2.536-3.688-3.081-4.314s0 2.216 0 2.216l1.687 4.22 1.74 2.634 2.745 1.478 3.037 1.223 2.061 1.2 2.2 1.572 1.738 1.317 2.735.5h3.424l2.686-1.024 2.84-2.363 2.976-1.566 3.453-1.416 2.147-1.382 1.765-3.056 1.2-3.832.527-4.785v-4.591l-.527-4.89-1.2-4.911-1.431-2.9z" fill="#dae0e9"/><path data-name="Tracé 11497" d="M90.164 28.816c-.512 1.079-2.882 1.721-4.684.856s-4.432-6.146-5.084-7.2-1.024-3.646-1.141-5.619 1.976-3.782 1.976-3.782 10.847-7.6 12.414-8.676a7.789 7.789 0 013.561-1.28c1.229-.3 2.4 1.28 2.4 1.28l1.661 1.91a24.727 24.727 0 018.752-1.91 27.146 27.146 0 019.018 1.91" fill="none" stroke="#223254" stroke-linecap="round" stroke-width=".5"/><path data-name="Tracé 11498" d="M97.279 8.408s-3.858 3.823-4.918 6.072-2.362 10-2.293 11.541.094 8.356.78 10.121 1.537 5.371 4 6.666 4.948 2.207 5.955 2.763a37.212 37.212 0 014.169 3.04c1.342 1.095 4.494 1.016 4.494 1.016" fill="none" stroke="#223254" stroke-linecap="round" stroke-width=".5"/><g data-name="Groupe 18262" transform="translate(94.621 20.468)"><path data-name="Tracé 11530" d="M26.103 0a4.187 4.187 0 11-4.187 4.187A4.187 4.187 0 0126.103 0z" fill="#223254"/><circle data-name="Ellipse 533" cx="1.142" cy="1.142" transform="translate(23.971 1.675)" fill="#fff" r="1.142"/><circle data-name="Ellipse 534" cx="4.187" cy="4.187" fill="#223254" r="4.187"/><circle data-name="Ellipse 535" cx="1.142" cy="1.142" transform="translate(4.035 1.675)" fill="#fff" r="1.142"/></g><path data-name="Union 8" d="M110.176 36.507c-.476.008-.64 0-1.2-.022a.143.143 0 01-.115-.076 8.333 8.333 0 01-3.583-3.044c-.673-1.106.977-2.971 1.7-3.591.575-.494 2.458-.457 3.2-.421.733-.036 2.622-.074 3.2.421.719.62 2.37 2.485 1.695 3.591a8.333 8.333 0 01-3.582 3.045.145.145 0 01-.115.076c-.42.015-.615.025-.893.025z" fill="#223254"/><g data-name="Groupe 18274"><path data-name="Tracé 11532" d="M137.051 11.591s.694 3.926 0 5.386-.822 2.985-1.733 3.094-1.552.138-2.02-.943a25.02 25.02 0 00-3.061-5.443c-1.254-1.422-1.152-1.885-3.062-2.978a10.137 10.137 0 00-3.637-1.263l2.354 2.623 1.541 2.722 1.219 3.457.534 4.237.628 4.132v2.506l1.992.746h2.9l2.067-1.756 2.127-3.517 1.515-2.722.63-3.027V15.97l-1.1-2.283z" fill="#dae0e9"/><path data-name="Tracé 11533" d="M129.614 28.921c.512 1.078 3.618 1.614 5.419.748s4.43-6.146 5.083-7.2 1.025-3.646 1.141-5.619-1.976-3.782-1.976-3.782-10.847-7.6-12.414-8.676a7.791 7.791 0 00-3.561-1.28c-1.229-.3-2.4 1.28-2.4 1.28l-1.661 1.911" fill="none" stroke="#223254" stroke-linecap="round" stroke-width=".5"/></g><path data-name="Tracé 11500" d="M109.363 49.626h.737s3.152.079 4.494-1.016a37.129 37.129 0 014.171-3.04c1.007-.555 3.492-1.467 5.954-2.763s3.315-4.9 4-6.666.712-8.576.78-10.121-1.229-9.292-2.294-11.541a23.1 23.1 0 00-3.806-4.983" fill="none" stroke="#223254" stroke-linecap="round" stroke-width=".5"/><g data-name="Groupe 20594-2"><path data-name="Tracé 11511" d="M110.216 39.978l-5.524 1.6a5 5 0 005.524 4.278c2.125-.139 1.6 0 1.6 0l1.288-.6 1.1-.73.711-.761.631-1.519v-.671z" fill="#223254" stroke="#707070" stroke-width=".5"/><path data-name="Tracé 11512" d="M100.963 34.518s-.519 6.273 3.411 7.281" fill="none" stroke="#223254" stroke-linecap="round" stroke-width=".5"/><path data-name="Tracé 11513" d="M104.555 42.174a5.755 5.755 0 005.481 3.706 6.23 6.23 0 005.648-3.646l-5.648-1.345z" fill="#ff6f85"/><path data-name="Tracé 11514" d="M106.513 41.51c.051.049.867 1.8 3.687 1.779a4.283 4.283 0 003.8-1.751l-3.8-1.283z" fill="#df455c"/><path data-name="Tracé 11515" d="M110.155 39.978l5.523 1.6a5 5 0 01-5.523 4.278" fill="none" stroke="#223254" stroke-linecap="round" stroke-width=".5"/><path data-name="Tracé 11516" d="M118.922 34.518s.519 6.273-3.411 7.281" fill="none" stroke="#223254" stroke-linecap="round" stroke-width=".5"/><path data-name="Tracé 11517" d="M110.216 39.978l-5.524 1.6a5 5 0 005.524 4.278" fill="none" stroke="#223254" stroke-linecap="round" stroke-width=".5"/></g></g></g></g><g data-name="Groupe 22655"><g data-name="Illu chat maladie"><g data-name="Groupe 17781"><g data-name="Groupe 18216"><g data-name="Groupe 18218"><path data-name="Tracé 11423" d="M50.741 84.4l-1.154-.689s-.2.154-.716-1.05-.849-3.521-1.2-4.228a13.468 13.468 0 00-4.195-4.6 12.148 12.148 0 00-5.02-1.736c-1.024.036-3.374-.066-3.823 1.97s.369 3.6 1.736 4.038 3.01-.155 4.44 1.6 2.184 4.755 2.667 6.123 1.644 4.116 2.895 5.1a10.007 10.007 0 004.927 2.173c2.041.259 3.613.232 4.1-.543S50.741 84.4 50.741 84.4z" fill="#fafbfc"/><path data-name="Tracé 11446" d="M38.894 78.453l.831.4.881.648.74.9a10.281 10.281 0 011.8-2.772 10.17 10.17 0 012.591-1.84l-1.3-1.309-1.926-1.171-1.166-.482a11.045 11.045 0 00-2.452 2.532c-.83 1.344-1.208 2.644-.867 2.836a2.829 2.829 0 00.868.258z" fill="#dae0e9"/><path data-name="Tracé 11447" d="M43.145 84.797a20 20 0 012.3-3.276 9.6 9.6 0 012.675-1.39l.957 2.936.475.756a8.64 8.64 0 00-2.114 2.536 26.43 26.43 0 00-1.388 4.117c.025.182-1.835-2.8-1.835-2.8z" fill="#dae0e9"/><path data-name="Tracé 11448" d="M50.741 84.4l-1.154-.689s-.2.154-.716-1.05-.849-3.521-1.2-4.228a13.468 13.468 0 00-4.195-4.6 12.148 12.148 0 00-5.02-1.736c-1.024.036-3.374-.066-3.823 1.97s.369 3.6 1.736 4.038 3.01-.155 4.44 1.6 2.184 4.755 2.667 6.123 1.644 4.116 2.895 5.1a10.007 10.007 0 004.927 2.173c2.041.259 3.613.232 4.1-.543S50.741 84.4 50.741 84.4z" fill="none" stroke="#223254" stroke-width=".5"/></g><g data-name="Groupe 18220"><path data-name="Tracé 11450" d="M61.293 93.659h-5.645a7.975 7.975 0 01-1.623-.424 4.933 4.933 0 01-2.021-1.663 6.37 6.37 0 01-1.591-4.516c.084-2.148.534-4.957 1.121-5.933a10.254 10.254 0 013.025-3.013c.797-.338 6.734 15.549 6.734 15.549z" fill="#fafbfc"/><path data-name="Tracé 11451" d="M54.639 86.716s-1.533.428-2.172 0-2.035-1.525-2.035-1.525l.7-3.069.687-1.418 1.254-1.525.42 2.941.63 2.766z" fill="#dae0e9"/><path data-name="Tracé 11452" d="M61.293 93.659h-5.645a7.975 7.975 0 01-1.623-.424 4.933 4.933 0 01-2.021-1.663 6.37 6.37 0 01-1.591-4.516c.084-2.148.534-4.957 1.121-5.933a10.254 10.254 0 013.025-3.013c.797-.338 6.734 15.549 6.734 15.549z" fill="none" stroke="#223254" stroke-width=".5"/></g><g data-name="Groupe 18219"><path data-name="Tracé 11450-2" d="M75.697 93.659h5.645a7.954 7.954 0 001.623-.424 4.934 4.934 0 002.021-1.663 6.369 6.369 0 001.591-4.516c-.084-2.148-.534-4.957-1.121-5.933a10.261 10.261 0 00-3.025-3.013c-.797-.338-6.734 15.549-6.734 15.549z" fill="#fafbfc"/><path data-name="Tracé 11451-2" d="M82.352 86.716s1.533.428 2.172 0 2.035-1.525 2.035-1.525l-.7-3.069-.687-1.418-1.255-1.525-.42 2.941-.63 2.766z" fill="#dae0e9"/><path data-name="Tracé 11452-2" d="M75.697 93.659h5.645a7.954 7.954 0 001.623-.424 4.934 4.934 0 002.021-1.663 6.369 6.369 0 001.591-4.516c-.084-2.148-.534-4.957-1.121-5.933a10.261 10.261 0 00-3.025-3.013c-.797-.338-6.734 15.549-6.734 15.549z" fill="none" stroke="#223254" stroke-width=".5"/></g><path data-name="Tracé 18292" d="M60.299 69.931l1.889 14.14h14.51l.53-23.09H59.906z" fill="#dae0e9" style="isolation:isolate"/><path data-name="Union 5" d="M59.245 93.663v-.228a5.229 5.229 0 01-.363-.1c-1.435-.451-2.061-2.306-3.455-5.108s-2.209-7.887-2.529-10.709a21.26 21.26 0 011.073-8.318 26.671 26.671 0 012.288-5.4c.414-.728 2.22-3.342 2.986-4.444v-.495H77.51v-.005s2.805 4.008 3.329 4.938a26.641 26.641 0 012.291 5.4 21.252 21.252 0 011.071 8.318c-.318 2.826-1.132 7.912-2.527 10.714s-2.017 4.656-3.455 5.108a5.876 5.876 0 01-.71.172v.155z" fill="none"/><path data-name="Tracé 11445" d="M65.112 91.578l-.919 2.031h7.719V81.795a9.757 9.757 0 01-7.015 0z" fill="#dae0e9"/><path data-name="Tracé 11453" d="M77.511 58.865s2.8 4.009 3.33 4.938a26.633 26.633 0 012.29 5.4 21.256 21.256 0 011.072 8.311c-.318 2.827-1.132 7.913-2.528 10.715s-2.016 4.656-3.457 5.108a12.106 12.106 0 01-3.773.295 2.269 2.269 0 01-2.449-2.042c-.483-2.066 0-10.446 0-10.446" fill="#fff"/><path data-name="Tracé 11454" d="M59.591 58.865s-2.8 4.009-3.33 4.938a26.633 26.633 0 00-2.289 5.4 21.272 21.272 0 00-1.072 8.311c.318 2.827 1.132 7.913 2.527 10.715s2.017 4.656 3.457 5.108a12.109 12.109 0 003.774.295 2.268 2.268 0 002.448-2.042c.483-2.066 0-10.446 0-10.446" fill="#fff"/><path data-name="Ligne 330" fill="none" stroke="#223254" stroke-linecap="round" stroke-width=".5" d="M60.299 89.862v3.512"/><path data-name="Ligne 331" fill="none" stroke="#223254" stroke-linecap="round" stroke-width=".5" d="M62.407 89.862v3.512"/><path data-name="Ligne 332" fill="none" stroke="#223254" stroke-linecap="round" stroke-width=".5" d="M75.017 90.231v3.361"/><path data-name="Ligne 333" fill="none" stroke="#223254" stroke-linecap="round" stroke-width=".5" d="M76.698 90.231v3.361"/><g data-name="Groupe 18222"><g data-name="Groupe 18221" fill="#dae0e9"><path data-name="Tracé 11455" d="M75.965 62.635a10.53 10.53 0 011.97 3.559 26.925 26.925 0 01.964 5.332 4.03 4.03 0 00.865 2.188 9.877 9.877 0 002.555 2.338 5.966 5.966 0 002.023 1.037v-2.275l-.681-3.791-1.6-4.825-1.708-3.288-1.449-1.571z"/><path data-name="Tracé 11456" d="M61.156 62.635a10.54 10.54 0 00-1.97 3.559 26.97 26.97 0 00-.965 5.332 4.027 4.027 0 01-.864 2.185 9.861 9.861 0 01-2.555 2.338 5.965 5.965 0 01-2.024 1.037v-2.272l.681-3.791 1.6-4.825 1.708-3.288 1.449-1.571z"/></g><path data-name="Tracé 11457" d="M77.511 58.866s2.8 4.009 3.33 4.938a26.632 26.632 0 012.29 5.4 21.256 21.256 0 011.072 8.311c-.318 2.827-1.132 7.913-2.528 10.714s-2.016 4.656-3.457 5.108a12.1 12.1 0 01-3.773.295 2.269 2.269 0 01-2.449-2.042c-.483-2.066 0-10.446 0-10.446" fill="none" stroke="#253251" stroke-linecap="round" stroke-width=".5"/><path data-name="Tracé 11458" d="M59.591 58.866s-2.8 4.009-3.33 4.938a26.631 26.631 0 00-2.289 5.4 21.272 21.272 0 00-1.072 8.311c.318 2.827 1.132 7.913 2.527 10.714s2.017 4.656 3.457 5.108a12.106 12.106 0 003.774.295 2.268 2.268 0 002.448-2.042c.483-2.066 0-10.446 0-10.446" fill="none" stroke="#253251" stroke-linecap="round" stroke-width=".5"/></g><g data-name="Groupe 18223" stroke="#253251"><path data-name="Tracé 11444" d="M57.916 61.427a26.779 26.779 0 0021.308 0l-2.082-3.1H59.867z" fill="#1e96fc"/><g data-name="Groupe 20327"><path data-name="Ligne 329" fill="none" stroke-linecap="round" d="M68.759 63.64v2.75"/><g data-name="Ellipse 536" transform="translate(55.102 62.567)" stroke-width=".5"><circle data-name="Ellipse 698" cx="2.8" cy="2.8" r="2.8" transform="translate(10.815 8.376)" fill="#ffc300"/><path data-name="Tracé 11444" d="M-.001 4.378a30.842 30.842 0 0027.038 0L24.395 0H2.475z" fill="#1e96fc"/></g></g></g><g data-name="Groupe 20679"><path data-name="Tracé 18062" d="M86.447 27.041l.468.659.7 1.38.84 2.359.448 1.714.276 2.536.18 3.005v2.711l-.159 1.61-.234 1.278-.37 1.182-39.876.024-.235-.373-.369-1.769-.157-1.187-.067-1.619v-2.045l.182-2.728.136-1.775.243-1.41.36-1.306.524-1.443.6-1.351.454-.893.389-.544.336-.168h.344l.265.168 11.5 5.345h10.774l3.872-1.765 3.934-1.848 3.3-1.561.387-.19.4-.19.336.071z" fill="#fff"/><path data-name="Tracé 18063" d="M68.568 31.64c11.854 0 21.463 12.067 21.463 20.427s-9.609 15.137-21.463 15.137-21.462-6.777-21.462-15.137 9.61-20.427 21.462-20.427z" fill="#fff" stroke="#223254" stroke-width=".5"/><g data-name="Groupe 20676"><g data-name="Groupe 20658"><path data-name="Tracé 18021" d="M48.593 45.527s-.091.588-.523-2a40.014 40.014 0 010-8.676 17.035 17.035 0 012.676-7.663.726.726 0 01.955 0l5.565 8.2-1.087.8-1.023.831-.891.793-.825.807-.768.821-.734.85-.659.823-.654.925-.667.972-.458.8-.42.773z" fill="#fff"/><path data-name="Tracé 18022" d="M50.275 36.186c.194-3.3 1.373-6.764 1.867-7.178s.805 0 .805 0l4.316 6.376-1.087.8-1.023.831-.891.793-.825.807-.768.821-.734.851-.659.823-.653.925a24.307 24.307 0 01-.348-5.849z" fill="#dae0e9"/></g><path data-name="Tracé 18034" d="M57.229 35.48c.193-.156-5.7-8.395-5.7-8.395" fill="none" stroke="#223254" stroke-linecap="round" stroke-linejoin="round" stroke-width=".5"/><g data-name="Groupe 20667" fill="none" stroke="#223254" stroke-linecap="round" stroke-width=".5"><g data-name="Groupe 20665"><path data-name="Tracé 18048" d="M77.942 55.862s7.694.927 12.928 3.845"/><path data-name="Tracé 18049" d="M77.669 57.614s5.7.815 9.194 4.038" stroke-miterlimit="4.002"/><path data-name="Tracé 18050" d="M78.2 54.331s6.444-.447 11.177 1.746" stroke-miterlimit="4.001"/></g><g data-name="Groupe 20666"><path data-name="Tracé 18048-2" d="M59.197 55.862s-7.695.928-12.929 3.846"/><path data-name="Tracé 18049-2" d="M59.47 57.613s-5.7.818-9.194 4.038" stroke-miterlimit="4.002"/><path data-name="Tracé 18050-2" d="M58.938 54.331s-6.443-.447-11.176 1.745" stroke-miterlimit="4.001"/></g></g><path data-name="Tracé 18029" d="M69.122 31.726s-.4 8 4.044 11.5 7.415 4.531 10.335 4.453a14.525 14.525 0 005.423-1.06c.314-.157-.985-2.269-2.225-4.285a32.109 32.109 0 00-1.988-2.6 29.325 29.325 0 00-3.148-3.031 12.8 12.8 0 00-1.6-1.19c-.347-.218 5.545-8.251 5.545-8.251l-.672.318-10.748 4.933-2.836-.682z" fill="#dae0e9" opacity=".25" style="isolation:isolate"/><path data-name="Tracé 18028" d="M68.205 31.728s.4 8-4.044 11.5-7.416 4.53-10.335 4.453a14.524 14.524 0 01-5.423-1.06c-.314-.158.985-2.269 2.225-4.285a32.348 32.348 0 011.988-2.6 29.255 29.255 0 013.148-3.031c.977-.816 1.344-1.16 1.513-1.26.347-.218-5.568-8.211-5.568-8.211l.789.35 10.747 4.933 2.836-.682z" fill="#dae0e9" opacity=".25" style="isolation:isolate"/><g data-name="Groupe 20663"><g data-name="Groupe 20664"><path data-name="Tracé 18036" d="M71.223 57.621a2.8 2.8 0 01-5.552 0" fill="#ff6f85" stroke="#223254" stroke-linecap="round" stroke-miterlimit="10" stroke-width=".5"/><path data-name="Tracé 18037" d="M69.633 57.212a1.203 1.203 0 11-2.375.391 1.234 1.234 0 010-.391" fill="#df455c"/><path data-name="Tracé 19590" d="M66.504 57.734l-.218.824-.48-.705z" fill="#fff" stroke="#fff" stroke-linejoin="round" stroke-width=".5"/><path data-name="Tracé 19591" d="M71.038 57.864l-.49.7-.206-.828z" fill="#fff" stroke="#fff" stroke-linejoin="round" stroke-width=".5"/></g><g data-name="Groupe 20651" transform="translate(55.26 45.169)"><path data-name="Tracé 17992" d="M13.309 7.391c2.158 0 2.229.57 2.229 1.273s-1.618 1.274-2.229 1.274-2.229-.57-2.229-1.274.07-1.273 2.229-1.273z" fill="#223254"/><circle data-name="Ellipse 782" cx="4.183" cy="4.183" r="4.183" transform="translate(18.252)" fill="#223254"/><circle data-name="Ellipse 783" cx="1.141" cy="1.141" r="1.141" transform="translate(20.931 1.267)" fill="#fff"/><circle data-name="Ellipse 784" cx="4.183" cy="4.183" r="4.183" fill="#223254"/><circle data-name="Ellipse 785" cx="1.141" cy="1.141" r="1.141" transform="translate(3.807 1.483)" fill="#fff"/></g><g data-name="Groupe 20656" fill="none" stroke="#223254" stroke-linecap="round" stroke-width=".5"><path data-name="Ligne 327" d="M68.487 54.929v1.951"/><path data-name="Tracé 18020" d="M63.553 56.193a3.405 3.405 0 002.026 1.4 5.96 5.96 0 002.884-.661 5.413 5.413 0 002.711.661 3.023 3.023 0 001.828-1.4"/></g></g><g data-name="Tracé 18064" fill="none"><path data-name="Tracé 18298" d="M68.57 31.64c11.854 0 21.462 12.067 21.462 20.427S80.423 67.204 68.57 67.204s-21.463-6.777-21.463-15.137S56.717 31.64 68.57 31.64z"/><path data-name="Tracé 18299" d="M68.57 32.481a18.01 18.01 0 00-7.984 1.929 23.789 23.789 0 00-6.585 4.889c-3.734 3.9-6.054 8.8-6.054 12.767a10.514 10.514 0 001.567 5.46 15.232 15.232 0 004.363 4.556 22.538 22.538 0 006.578 3.126 29.094 29.094 0 0016.229 0 22.562 22.562 0 006.578-3.126 15.23 15.23 0 004.363-4.556 10.51 10.51 0 001.567-5.46c0-3.97-2.32-8.863-6.054-12.767a23.784 23.784 0 00-6.585-4.889 18.008 18.008 0 00-7.984-1.929m0-.84c11.854 0 21.463 12.066 21.463 20.426s-9.61 15.137-21.463 15.137-21.463-6.777-21.463-15.137 9.611-20.426 21.464-20.426z"/></g><g data-name="Groupe 20677"><path data-name="Tracé 18021-2" d="M88.533 45.527s.091.588.524-2a39.945 39.945 0 000-8.676 17.04 17.04 0 00-2.676-7.663.727.727 0 00-.956 0l-5.565 8.2 1.087.8 1.024.831.891.793.825.807.768.821.734.85.659.823.654.925.667.972.458.8.42.773z" fill="#fff"/><path data-name="Tracé 18022-2" d="M86.85 36.186c-.194-3.3-1.373-6.764-1.867-7.178s-.806 0-.806 0l-4.316 6.376 1.087.8 1.023.831.891.793.825.807.768.821.734.851.659.823.654.925a24.326 24.326 0 00.348-5.849z" fill="#dae0e9"/></g><path data-name="Tracé 18035" d="M79.938 35.48c-.193-.156 5.7-8.395 5.7-8.395" fill="none" stroke="#223254" stroke-linecap="round" stroke-linejoin="round" stroke-width=".5"/><path data-name="Tracé 18063-2" d="M48.664 45.645l-.235-.372-.37-1.77-.156-1.186-.067-1.619v-2.043l.182-2.728.137-1.775.243-1.411.359-1.306.524-1.443.605-1.351.453-.893.389-.544.336-.168h.344l.265.168 11.5 5.344a24.847 24.847 0 015.435-.714 23.424 23.424 0 015.34.714l3.872-1.764 3.932-1.848 3.3-1.562.386-.189.4-.19.336.071.215.12.468.659.7 1.381.84 2.358.449 1.715.275 2.535.18 3.006v2.711l-.159 1.609-.234 1.279-.37 1.182" fill="none" stroke="#223254" stroke-width=".5"/></g></g></g></g></g></g><path data-name="Path" d="M97.844 76.849l-.069.054c-.3.14-.914.225-1.013-.652a.316.316 0 010-.116l1.051-1.676 1.79-2.925c.907-1.513 1.836-3.1 2.8-4.655 1.912-3.22 3.931-6.6 6.163-10.016.571-.861 1.112-1.7 1.745-2.576a6.073 6.073 0 011.185-1.247 5.119 5.119 0 011.569-.776c1.067-.326 2.042-.512 3.047-.776l3.047-.722 12.398-2.91 24.339-5.726 11.222-2.6 3.253-.774 1.28-.295h.16c.046 0 .13-.047.069 0l-.153.295-.32.584-.625 1.148-.3.535-.168.287c-.876 1.552-1.79 2.956-2.727 4.29s-1.874 2.568-2.826 3.708c-.48.566-.945 1.117-1.417 1.629-.229.264-.465.52-.7.776l-.114.124-.411.434-.366.38a12.46 12.46 0 01-2.814 1.637c-1.941 1.352-48.21 17-61.095 22.561z" fill="#ffc300" stroke="#223254" stroke-width=".5"/><path data-name="Path" d="M96.77 76.135l.076.054c.236.241 1.257 45.561 1.935 45.677 2.286.334 1.387.605-.061.722.076 0-.762.054-1.668.093s-1.783.047-1.783.047h-.508l-2.08-.1a163.055 163.055 0 01-16.189-1.769 167.611 167.611 0 01-18.831-4.216c-3.291-.97-6.658-2.017-10.041-3.251-1.707-.59-3.4-1.272-5.112-1.932l-2.571-1.054a20.39 20.39 0 01-2.636-1.211 3.562 3.562 0 01-1.188-1.226 4.464 4.464 0 01-.5-1.59c-.13-1.024-.168-1.932-.259-2.909-.145-1.916-1-1.652-1.249-5.635-.5-7.96-.9-4.067-1.211-12.175-.156-4.057-.285-8.125-.392-12.165l-.141-6.06v-1.551a5.327 5.327 0 01.217-1.706 2.31 2.31 0 011.349-1.459 3.571 3.571 0 011.782-.124l11.428 2.591 11.161 2.444 21.209 4.57 9.854 2.242 5.5 1.265z" fill="#ffc300" stroke="#223254" stroke-width=".5"/><path data-name="Path" d="M158.554 81.938v2.789l.061.838.427 5.8.1 1.342a3.947 3.947 0 01-.152 1.552 2.7 2.7 0 01-1.074 1.319c-.427.295-.8.481-1.188.706a156.015 156.015 0 01-4.624 2.576c-6.9 3.763-13.949 7.238-21.019 10.637l-10.615 5.045c-3.527 1.691-7.089 3.418-10.765 4.833a116.015 116.015 0 01-5.546 2l-2.8.908-1.943.605-.35.109h-.095v-.272l-.053-.776-.084-1.04c-.32-3.972-.609-7.944-.8-11.924-.427-7.96-.564-3.928-.625-11.88-.06-7.562-.076-3.111-.411-10.645-.069-1.878-.2-3.763-.3-5.64l-.21-2.816-.053-.776-.054-.713v-.178a.055.055 0 01.046-.054h.084l.328-.116 1.524-.551 10.513-3.708 42.075-14.828 4.822-1.707 1.208-.426 1.055-.365c.366-.093.975-.528.8.155z" fill="#ffc300" stroke="#223254" stroke-width=".5"/></g></g></g></svg>