<svg xmlns="http://www.w3.org/2000/svg" width="120" height="80"><defs><clipPath id="a"><path data-name="Rectangle 21194" fill="#fff" stroke="#707070" d="M0 0h120v80H0z"/></clipPath></defs><g data-name="Groupe de masques 153" clip-path="url(#a)"><g data-name="Groupe 50463"><g data-name="Groupe 50460" transform="translate(17.648 20)" stroke="#c1c7d2" stroke-width=".5"><path data-name="Rectangle 21174" fill="#fff" stroke-linecap="round" stroke-linejoin="round" d="M30.101 1.793h21.58v57.619h-21.58z"/><path data-name="Rectangle 21175" fill="#fff" stroke-linecap="round" stroke-linejoin="round" d="M37.33 21.992h14.354v37.423H37.33z"/><path data-name="Tracé 104500" d="m37.33 29.327 14.352-9.294h-21.58l-14.518 9.294Z" fill="#fff" stroke-linecap="round" stroke-linejoin="round"/><path data-name="Rectangle 21176" fill="#fff" stroke-linecap="round" stroke-linejoin="round" d="M15.584 29.327H37.33v1.809H15.584z"/><path data-name="Tracé 104501" d="M37.329 29.327v1.809l14.352-9.145v-1.958Z" fill="#fff" stroke-linecap="round" stroke-linejoin="round"/><path data-name="Tracé 104502" d="M2.489 59.547a4.512 4.512 0 0 1 6.345-6.085 5.7 5.7 0 0 1 10.275 1.58 4.13 4.13 0 0 1 5.412 3.921 4.23 4.23 0 0 1-.043.584Z" fill="none"/><path data-name="Tracé 104503" d="M51.682 27.75V1.793l31.513 21.224v36.4H51.682Z" fill="#fff" stroke-linecap="round" stroke-linejoin="round"/><path data-name="Rectangle 21177" fill="#fff" stroke-linecap="round" stroke-linejoin="round" d="M16.726 31.136h20.603v28.276H16.726z"/><path data-name="Rectangle 21178" fill="#fff" stroke-linecap="round" stroke-linejoin="round" d="M16.726 53.798h66.468v5.614H16.726z"/><path data-name="Rectangle 21179" fill="#fff" stroke-linecap="round" stroke-linejoin="round" d="M16.726 53.798h34.957v5.614H16.726z"/><path data-name="Tracé 104504" d="M103.701 59.505a5.621 5.621 0 0 0-9.885-2.09 5.243 5.243 0 0 0-9.958 2.09Z" fill="#fff"/><path data-name="Rectangle 21180" fill="#fff" stroke-linecap="round" stroke-linejoin="round" d="M16.726 53.798h20.603v5.614H16.726z"/><path data-name="Rectangle 21181" fill="#fff" stroke-linecap="round" stroke-linejoin="round" d="M29.039.001h22.643V1.79H29.039z"/><path data-name="Tracé 104505" d="M83.195 23.015 51.682 1.792V0l31.513 21.409Z" fill="#fff" stroke-linecap="round" stroke-linejoin="round"/><path data-name="Tracé 104506" d="M82.023 56.605v-2.807h-15.54v5.614h18.114v-2.807Z" fill="#fff" stroke-linecap="round" stroke-linejoin="round"/><path data-name="Rectangle 21182" fill="#fff" stroke-linecap="round" stroke-linejoin="round" d="M69.054 53.798h15.54v2.807h-15.54z"/><path data-name="Rectangle 21183" fill="#fff" stroke-linecap="round" stroke-linejoin="round" d="M71.628 56.605h15.54v2.807h-15.54z"/><path data-name="Rectangle 21184" fill="#fff" stroke-linecap="round" stroke-linejoin="round" d="M33.159 5.373h6.304v11.076h-6.304z"/><path data-name="Rectangle 21185" fill="#fff" stroke-linecap="round" stroke-linejoin="round" d="M42.161 5.373h6.304v11.076h-6.304z"/><path data-name="Rectangle 21186" fill="#fff" stroke-linecap="round" stroke-linejoin="round" d="M69.862 33.529h10.02v20.168h-10.02z"/><circle data-name="Ellipse 1338" cx=".9" cy=".9" transform="translate(76.503 43.027)" fill="#fff" stroke-linecap="round" stroke-linejoin="round" r=".9"/><path data-name="Rectangle 21187" fill="#fff" stroke-linecap="round" stroke-linejoin="round" d="M69.862 31.761h10.02v1.765h-10.02z"/><path data-name="Rectangle 21188" fill="#fff" stroke-linecap="round" stroke-linejoin="round" d="M55.217 31.761h10.746v10.746H55.217z"/><path data-name="Rectangle 21189" fill="#fff" stroke-linecap="round" stroke-linejoin="round" d="M22.109 36.647h9.835v9.835h-9.835z"/><path data-name="Rectangle 21190" fill="#fff" stroke-linecap="round" stroke-linejoin="round" d="M55.217 31.761h10.746v3.882H55.217z"/><path data-name="Rectangle 21191" fill="#fff" stroke-linecap="round" stroke-linejoin="round" d="M55.217 16.332h10.746v10.746H55.217z"/><path data-name="Rectangle 21192" fill="#fff" stroke-linecap="round" stroke-linejoin="round" d="M55.217 16.332h10.746v6.453H55.217z"/><ellipse data-name="Ellipse 1339" cx="8.259" cy="8.26" rx="8.259" ry="8.26" transform="translate(88.791 25.734)" fill="#fff"/><circle data-name="Ellipse 1340" cx="4.51" cy="4.51" transform="translate(87.141 35.699)" fill="#fff" r="4.51"/><path data-name="Ligne 3508" fill="none" stroke-linecap="round" stroke-linejoin="round" d="M97.05 59.282v-22.97"/><path data-name="Ligne 3509" fill="none" stroke-linecap="round" stroke-linejoin="round" d="m97.051 46.597-4.101-5.01"/><rect data-name="Rectangle 21193" width="8.327" height="17.625" rx="4.163" transform="translate(0 32.645)" fill="none"/><path data-name="Ligne 3510" fill="none" stroke-linecap="round" stroke-linejoin="round" d="M4.164 59.404v-16.62"/><path data-name="Tracé 104507" d="M84.509 51.148h-2.631l.387 2.549h1.857Z" fill="#fff" stroke-linecap="round" stroke-linejoin="round"/><path data-name="Ligne 3511" fill="none" stroke-linecap="round" stroke-linejoin="round" d="M83.195 51.147v-1.876"/><circle data-name="Ellipse 1341" cx="2.624" cy="2.624" transform="translate(80.57 44.996)" fill="#fff" r="2.624"/></g><g data-name="Groupe 50462"><path data-name="Tracé 104508" d="m43.059 46.041.681 11.971-8.117 21.3-15.751 7.537-11.044-3.172-2.278-4.773-2.169-3.141-1.437-3.3-.867-3.146-.667-3.568v-3.723l8.482-14.2 22.378-6.039Z" fill="#fff"/><path data-name="Tracé 104509" d="m47.332 42.2 3.31 1.785 3.705-.473L57.123 49l3.414 7.285 1.784 4.033.855 3.469.427 3.105v4.123l-.671 3.75-.935 3.846-2 2.689-2.262 1.336-2.115.426-2.464-.426-2.1-1.031-1.631-2.1-1.169-2.463-1.385-4.848-1.353-4.145-2.759-10.844L41.036 49l3.249-8.973Z" fill="#fff"/><path data-name="Tracé 104510" d="m31.643 7.092 4.107 2.594 2.862 1.379 5.064 2.113v2.049l.487 3.7.281 2.992-.281 2.6-.947 1.957-1.021 1.424-2.012 1.6s-2.03.908-2.174.955a1.958 1.958 0 0 0-.438.338l-.225 2.229 1.963.326.672 2.313v2.211l-.393 1.129-1.322 1.848-1.745 1.059-7.878 1.248-3.82-3.658-2.563-5.9v-1.113l3.808-.318.325-3v-1.795l-2.8-3.389-3.151-5.92 4.724-9.1Z" fill="#fff"/><path data-name="Tracé 104511" d="m6.823 79.465-.93 1.449-.474 1 .306.67 2.235 1.234 5.159 2.137 4.211 1.1 4.222.826 4.285.508 2.777.322 3.849.27 3 .2 3.1-.328 2.492-.838 1.935-.955 1.052-1.1.435-1.314-.134-2.318V79.99l.346-3.961.738-3.75.771-2.545 1.048-2.877 1.106-3.66.146-.635.811-.453h.854l.794-5.709-1.166.395h-1.92l-.5-.225-.378.525-.329.838-.469.486-.63-.307-.142-1.543.142-1.482-3.149-.283-.457 1.428-1.039.863-.74.635-1.021.689-.9 1.18-.729 1.639-1.518 3.865-1.854 4.445-1.139 2.73-1.189 2.51-1.1 2.293-1.125 1.932-1.318 1.725-2.04 2.049-1.958 1.268-1.54.762-1.8.568-1.486.189h-1.769l-2.082-.379-2.094-.684-1.623-.832-1.743-1.09-1.59-1.271L7.545 80.3Z" fill="#ffc300"/><path data-name="Tracé 104512" d="m53.839 41.564-.876 2.9-.271 1.176 1.622 1.211 1.252 1.564 1.3 2.1 1.165 2.1 1.477 2.492 1.917 3-1.917-5.242-1.091-3.02-1.4-3.146-2.23-3.8Z" fill="#ffc300"/><path data-name="Tracé 104513" d="m39.014 33.211.774 2.354.209.795v1.205l-.512 1.395-.683 1.088-1.188.973-1.059.5-1.675.328-1.43-.162-1.781-.457-1.464-.521-1.3-.807-1.395-.945-1.317-1.221-1.119-1.652-.844-1.65-.9-2.162-2.565.637-2.312.705-2.347.82-2.293 1.129-1.944 1.348-1.724 1.623-1.509 1.727-1.808 2.252-1.206 2.23-1.149 2.277-.972 2.328s-.971 3.016-1.012 3.125-.508 2.264-.508 2.264l-.514 3.424-.132 3.055.132 1.242 1.367-1.066 1.484-.588 1.7-.693 2.036-.24 2.092-.166 2.626-.254h2.192l1.864-.223v1.576a16.648 16.648 0 0 1 .555 1.654c0 .205.454 1.66.454 1.66l.616 1.8 2.313-2.715 6.394-7.244.7-1.223.233-.912.365-2.01.826-2.467.728-.889 1.019-1.094 1.143-.676 1.434-.332h1.877l2.325.2 1.688.3 3.636-12.775-1.268-.465-1.418-.246Z" fill="#ffc300"/><path data-name="Tracé 104514" d="M44.058 24.459h1.388l1.36-.193.869-.568.712-.6.476-.674.372-.461.671-.453.825-.42.829-.613.536-.666.4-.578.214-.693.08-.668-.08-.746-.5-.793-.957-.945-1.345-1.242-1.439-1.7-1.38-1.613-1.093-1.191-1.525-1.689-1.483-1.4-1.311-1.131-1.107-.812-1.279-.723-1.431-.713-1.533-.52-1.578-.293s-1.385-.168-1.437-.162l-1.536.162-1.423.209-1.893.826-1.048.789-1.056.424-1.155-1-.171 1.184-.9.516-1.105.5-1.208.924-.891 1.129-.771 1.238-.7 1.367-.61 1.586-.585 1.6-.764 1.707-.652 1.293-.951 1.332-.845.91-.69.906-.372.838.187 1.029.738 1.1 1.142 1.035 1.444 1.188 1.9 1.088 1.759.756 1.285.479s1.493.379 1.553.373 1.494.109 1.494.109l.859-.109v-1.328l-.137-1.73-.37-3.574-.542-.24-.9-.256-.591-.6-.454-.752v-.83l.225-.832.418-.615.672-.395.633-.215.912.215.554.529.119.113.716.172V16.32l-.074-1.5.182-.471.659-.707.77-1.029 1.061-1.7.593-1.521.7-2.668 1.357 1.227 1.319.814 1.307.785 1.448.768 1.519.736 2.068.789 1.9.7 1.383.588-.116 1.91.116 1.49.28 1.516.273 1.682.138 1.539v1.4Z" fill="#1e96fc"/><g data-name="Groupe 50461"><path d="M2.984 94.461a1.194 1.194 0 0 0-.254.384.046.046 0 0 0 0 .016.705.705 0 0 1 .178.181.722.722 0 0 1 .1.23l.14.134c.1.118.21.1.272 0a1.536 1.536 0 0 0 .062-.245 1.175 1.175 0 0 0-.367-.615c-.085-.052-.128-.085-.131-.085Z" fill="#fff"/><path data-name="Path" d="M31.435 6.619h-.033c-.128 0-.358.049-.269.371a.089.089 0 0 0 .02.039l.66.469a41.338 41.338 0 0 0 5.99 3.521 31.752 31.752 0 0 0 3.238 1.28 31.57 31.57 0 0 1 1.614.591l.279.115.217.092.407.148c.233.092.525.2.768.305.8.374.574.1.121-.243a4.593 4.593 0 0 0-.548-.351c-.3-.177-.61-.328-.61-.328l-.22-.1-.423-.171c-.531-.207-1.073-.394-1.608-.581a28.684 28.684 0 0 1-3.13-1.253 40.426 40.426 0 0 1-5.82-3.428ZM27.501 17.022a.02.02 0 0 0-.023 0 .728.728 0 0 0-.187.072c-.062.046-.141.131-.046.328a.19.19 0 0 0 .036.043.81.81 0 0 0 .351.092l.256-.253-.023-.554-.042-1.063a3.36 3.36 0 0 1 .02-.961 5.148 5.148 0 0 1 .584-.794c.223-.279.446-.554.656-.84a12.191 12.191 0 0 0 1.2-1.811 6.053 6.053 0 0 0 .436-1.014l.033-.089v-.059l.056-.125.043-.144v-.039h.02l.055.033c.151.092.328.18.463.253.41.2.554.2.535.144a1.768 1.768 0 0 0-.4-.384s-.092-.072-.237-.194l-.279-.239-.472-.43c-.1.387-.164.682-.164.682l-.071.25a2.953 2.953 0 0 1-.1.305 6.073 6.073 0 0 1-.417.919 12.293 12.293 0 0 1-1.148 1.7l-.656.817-.328.41a1.378 1.378 0 0 0-.367 1.128l.02.522.043 1.05.023.551.256-.253a.4.4 0 0 1-.126-.053Z" fill="#081f4d"/><path data-name="Path" d="M27.229 4.001a.066.066 0 0 0-.02.03c-.043.125-.043.351.3.354h.038l.574-.456.03-.023.239-.151.427-.266c.144-.092.305-.151.459-.23a8.55 8.55 0 0 1 2.025-.656 11.155 11.155 0 0 1 4.589.201 13.93 13.93 0 0 1 4.518 2 24.258 24.258 0 0 1 3.9 3.346c2.4 2.49 4.514 5.285 6.909 7.529a3.853 3.853 0 0 1 1.257 1.834 2.625 2.625 0 0 1-.44 1.995 4.432 4.432 0 0 1-1.48 1.4c-.285.171-.6.328-.905.5a2.985 2.985 0 0 0-.823.692c-.22.266-.384.535-.577.751a3.73 3.73 0 0 1-.627.581 3.937 3.937 0 0 1-.7.423c-.118.059-.243.1-.361.154l-.059.02-.2.066-.18.049s-.167.056-.4.115a5.5 5.5 0 0 1-.794.128c-.433.026-.577.033-.538.1a1.207 1.207 0 0 0 .545.177 3.12 3.12 0 0 0 .656.033 4.593 4.593 0 0 0 .709-.092l.2-.052.1-.036.056-.02h.034l.049-.02.1-.036.187-.079a4.544 4.544 0 0 0 1.427-.984c.456-.449.705-1.027 1.178-1.345a19.681 19.681 0 0 0 1.705-1.051 4.541 4.541 0 0 0 1.4-1.749 3.077 3.077 0 0 0 .269-1.175 2.687 2.687 0 0 0-.266-1.22 7.041 7.041 0 0 0-1.567-1.856c-2.3-2.215-4.37-4.957-6.791-7.428a23.343 23.343 0 0 0-3.976-3.307 13.56 13.56 0 0 0-2.264-1.191 13.717 13.717 0 0 0-2.379-.761 11.929 11.929 0 0 0-2.408-.313 10.918 10.918 0 0 0-1.184.034 4.871 4.871 0 0 0-.58.072 4.662 4.662 0 0 0-.568.1 7.841 7.841 0 0 0-1.086.304c-.174.066-.354.115-.522.19l-.492.236-.246.115c-.079.043-.151.092-.226.138L28 3.45l-.148.1-.032.021ZM25.523 3.591a.062.062 0 0 0 0-.033c-.082-.1-.279-.23-.459.046a.092.092 0 0 0 0 .039 1.968 1.968 0 0 1-.026.715.62.62 0 0 1-.233.358 1.739 1.739 0 0 1-.469.217c-.19.062-.384.148-.577.223a3.612 3.612 0 0 0-.549.281 7.638 7.638 0 0 0-1.88 1.578 14.832 14.832 0 0 0-2.408 4.191c-.6 1.48-1.1 2.986-1.8 4.39a11.483 11.483 0 0 1-1.224 1.985 10.115 10.115 0 0 1-.768.876 7.992 7.992 0 0 0-.8.932 2.3 2.3 0 0 0-.217 2.492 6.726 6.726 0 0 0 1.578 1.89 16.919 16.919 0 0 0 8.552 4.144l.469.072.243.03h.446a1.457 1.457 0 0 0 .886-.266.446.446 0 0 0 .2-.466c-.039-.089-.069-.1-.085-.072s-.03.092-.066.154a.426.426 0 0 1-.21.157.961.961 0 0 1-.144.046 1.411 1.411 0 0 1-.4.039 3.61 3.61 0 0 1-.433-.066l-.207-.036-.23-.026-.115-.02-.256-.039a8.988 8.988 0 0 1-.568-.1 16.483 16.483 0 0 1-4.33-1.523 16.312 16.312 0 0 1-3.726-2.662 4.616 4.616 0 0 1-1.312-1.774 1.716 1.716 0 0 1-.036-1.01 2.461 2.461 0 0 1 .518-.925c.233-.289.509-.561.781-.85a10.931 10.931 0 0 0 .768-.925 13.5 13.5 0 0 0 1.207-2.058c.686-1.427 1.181-2.92 1.768-4.354a13.924 13.924 0 0 1 2.317-3.956 7.047 7.047 0 0 1 1.732-1.437c.164-.092.328-.174.5-.253a4.483 4.483 0 0 1 .525-.207 2.018 2.018 0 0 0 .6-.285 1.132 1.132 0 0 0 .4-.61 2.421 2.421 0 0 0 .036-.9Z" fill="#081f4d"/><path data-name="Path" d="M51.786 16.911c.052.023.108.079 0 0l-.305-.272a13.56 13.56 0 0 0-2.381-1.595 13.386 13.386 0 0 0-1.317-.61c-.22-.092-.446-.174-.656-.253l-.249-.085-.62-.17c-.427-.122-.25-.086 0 .029 0 0 .141.056.3.128l.303.144.285.128.634.295c.42.2.837.41 1.247.63.82.436 1.621.915 2.408 1.417ZM49.476 17.699c.056 0 .112.072 0-.016s-.21-.18-.328-.266a7.9 7.9 0 0 0-1.536-.919l-.209-.092s-.358-.121-.611-.2a1.314 1.314 0 0 1-.252-.091 2.766 2.766 0 0 1 .242.137l.561.348.171.095c.515.289 1.033.571 1.565.837ZM41.431 9.205c.049.026.108.079 0 0h-.016l-.312-.262a28.9 28.9 0 0 0-2.739-1.969c-.476-.31-.958-.601-1.449-.876-.244-.141-.49-.276-.74-.41l-.242-.124-.578-.277c-.4-.2-.233-.131 0 .026-.023-.019.551.368.551.368l5.161 3.33ZM30.234 6.432s.056-.075.052-.092-.03 0-.03 0l-.065.049h-.015a.092.092 0 0 1 0 .023l-.05.066v.026a.374.374 0 0 0 .108-.072ZM30.71 7.374v-.02c0-.02-.016-.1-.049-.115a.066.066 0 0 0-.075 0l-.064.069h-.019a.131.131 0 0 1 0 .03l.019.085s.03.043.069.033a.231.231 0 0 0 .119-.082ZM30.074 7.046c.02 0 0 0 0-.016a.226.226 0 0 0-.112-.174.279.279 0 0 0-.128-.03.213.213 0 0 0-.059 0 .551.551 0 0 0-.092.086c-.026.026-.033.026-.033.023a.131.131 0 0 1 .04.019.6.6 0 0 1 .082.076.292.292 0 0 0 .115.036.915.915 0 0 0 .187-.02ZM26.707 10.425c.016-.052.056-.121 0 0a2.854 2.854 0 0 1-.207.348 3.609 3.609 0 0 1-.873.9 3.855 3.855 0 0 1-1.106.558 3.337 3.337 0 0 1-1.217.148 1.424 1.424 0 0 0-.692.043.5.5 0 0 0-.233.328 1.368 1.368 0 0 1-.1.276 3.068 3.068 0 0 1-.82.9c-.328.269-.656.528-1 .778s-.692.489-1.043.722l-.249.161s-.308.207-.535.328c-.387.22-.236.125 0 0l.594-.292.364-.2c.364-.207.722-.43 1.07-.656s.686-.486 1.014-.745a2.716 2.716 0 0 0 .85-.984c.049-.1.075-.226.1-.3a.2.2 0 0 1 .138-.135 2.3 2.3 0 0 1 .581 0 3.409 3.409 0 0 0 1.27-.21 3.832 3.832 0 0 0 1.11-.643 3.422 3.422 0 0 0 .807-.984 2.756 2.756 0 0 0 .177-.341ZM22.606 16.353c.039-.036.112-.069 0 0h-.02a3.169 3.169 0 0 0-.358.2 8.927 8.927 0 0 0-1.226.96 10.915 10.915 0 0 1-1.188.958 10.58 10.58 0 0 1-1.312.755c-.23.115-.463.223-.7.328l-.246.112s-.322.158-.57.267c-.41.174-.253.092 0 .02l.633-.19.312-.1c.239-.085.476-.18.712-.282a8.054 8.054 0 0 0 1.351-.741 8.327 8.327 0 0 0 1.168-.984c.365-.358.716-.715 1.109-1.034a4.147 4.147 0 0 1 .335-.269ZM22.046 21.869c.023-.056.1-.085-.02-.026s-.243.127-.357.193a5.365 5.365 0 0 1-.715.328l-.204.085a5.19 5.19 0 0 1-.581.246 1.457 1.457 0 0 1-.259.063h.279a1.968 1.968 0 0 0 .328-.027 2.729 2.729 0 0 0 .328-.065c.065-.023.128-.043.19-.069a2.572 2.572 0 0 0 .716-.433 2.3 2.3 0 0 0 .3-.3ZM23.591 23.591c0-.03.033-.049-.02 0a.688.688 0 0 1-.141.1 3.369 3.369 0 0 1-.286.179 3.281 3.281 0 0 1-.43.2 1.312 1.312 0 0 1-.259.105.344.344 0 0 1-.121 0l.125.033a1.1 1.1 0 0 0 .148.03 1.617 1.617 0 0 0 .167 0 .774.774 0 0 0 .167-.034.955.955 0 0 0 .328-.167.938.938 0 0 0 .249-.285.728.728 0 0 0 .073-.161ZM37.879 30.759c-.023-.029 0-.063 0-.082a.046.046 0 0 0 0-.036.505.505 0 0 1-.03-.092.19.19 0 0 0-.216-.153.151.151 0 0 0-.072.029.5.5 0 0 0-.156.328l-.033.2-.067.403-.121.709-.079.449s-.076.745-.092 1.273c-.046.9.121.564.272.03 0 .059.328-1.283.328-1.283l.066-.384.126-.712.069-.4.031-.2ZM62.96 64.131a.046.046 0 0 0 .02.03c.085.1.289.223.456-.062a.131.131 0 0 0 0-.043l-.141-.814a19.058 19.058 0 0 0-1.273-4.117 31.217 31.217 0 0 0-2.018-3.789c-.741-1.22-1.5-2.421-2.208-3.648a35.947 35.947 0 0 0-2.231-3.665 9.9 9.9 0 0 0-3.218-2.904 24.212 24.212 0 0 0-6.178-1.929 3.428 3.428 0 0 0-1.139.049 1.916 1.916 0 0 0-1.05.6l-.088.125c-.03.04-.066.115-.059.1v.032l-.033.062a.754.754 0 0 0-.053.128 1.853 1.853 0 0 0-.079.262 1.693 1.693 0 0 0 0 .5 1.27 1.27 0 0 0 .417.833.682.682 0 0 0 .462.17c.089 0 .112-.03.092-.056a1.136 1.136 0 0 1-.373-.331 1.145 1.145 0 0 1-.174-.5 1.391 1.391 0 0 1 .03-.4 1.8 1.8 0 0 1 .045-.173.729.729 0 0 1 .066-.19l.046-.085v-.023a.22.22 0 0 1 .03-.046l.059-.089a1.04 1.04 0 0 1 .328-.266 2.844 2.844 0 0 1 1.886-.154c.656.131 1.348.328 2.018.489a14.839 14.839 0 0 1 3.832 1.493 9.787 9.787 0 0 1 2.926 2.821c.8 1.115 1.427 2.362 2.142 3.576s1.453 2.4 2.175 3.589a30.281 30.281 0 0 1 1.946 3.674 18.543 18.543 0 0 1 1.211 3.953Z" fill="#081f4d"/><path data-name="Path" d="M46.022 47.934a.062.062 0 0 0 .023-.026c.055-.11.124-.344-.207-.41h-.046a5.449 5.449 0 0 0-.719.459c-.112.082-.217.171-.328.259a2.583 2.583 0 0 0-.328.328s-.128.154-.279.368a4.1 4.1 0 0 0-.41.758c-.177.423-.164.574-.108.548a1.808 1.808 0 0 0 .351-.427c0 .026.167-.243.384-.486a5.886 5.886 0 0 1 .459-.466c.085-.089.177-.171.269-.256a3.4 3.4 0 0 1 .292-.235 4.859 4.859 0 0 1 .647-.414ZM44.647 52.459a.587.587 0 0 0 .328.329h.023l.174-.154a4.888 4.888 0 0 1 .384-.31 7.109 7.109 0 0 1 .6-.39 3.31 3.31 0 0 0 .289-.3c.202-.215.062-.268-.128-.238a.745.745 0 0 0-.21.052l-.22.072a7.428 7.428 0 0 0-.63.414 7.719 7.719 0 0 0-.41.328ZM45.818 55.296a.039.039 0 0 0 0-.033c-.036-.117-.151-.328-.437-.147a.135.135 0 0 0-.032.03 4.921 4.921 0 0 0-.184.84 4.839 4.839 0 0 0 .062 1.567 4.393 4.393 0 0 0 .223.768.863.863 0 0 0 .138.22.492.492 0 0 0 .656.1 1.25 1.25 0 0 0 .19-.138 2.858 2.858 0 0 0 .9-1.339 1.781 1.781 0 0 1 .1-.312c.046-.069.043-.059.075-.066a1.929 1.929 0 0 1 .292.079c.125.039.249.072.377.1a5.3 5.3 0 0 0 1.558.115 5.508 5.508 0 0 0 .774-.118l.1-.023-.248 1.356c-.092.5-.167.984-.236 1.489a31.732 31.732 0 0 0-.199 6.037c.072 1 .171 2.008.328 3l.1.614s.036.187.108.433.157.551.246.8c.269.856.308.479.262-.069 0 .026-.03-.3-.069-.633s-.072-.676-.072-.676l-.131-.84c-.069-.476-.115-.951-.171-1.43s-.082-.955-.112-1.434a31.128 31.128 0 0 1 .2-5.745c.069-.489.144-.984.233-1.463l.292-1.591.062-.371a.656.656 0 0 0 0-.171l-.18.059-.354.1-.174.049a.942.942 0 0 1-.1.026 4.593 4.593 0 0 1-.7.1 4.659 4.659 0 0 1-1.414-.1 2.784 2.784 0 0 1-.328-.092 1.6 1.6 0 0 0-.433-.1.522.522 0 0 0-.328.1.614.614 0 0 0-.194.226 2.165 2.165 0 0 0-.141.394 2.382 2.382 0 0 1-.747 1.124.594.594 0 0 1-.115.085h-.02a.453.453 0 0 1-.056-.1 3.937 3.937 0 0 1-.192-.651 4.314 4.314 0 0 1-.05-1.408 4.442 4.442 0 0 1 .141-.761Z" fill="#081f4d"/><path data-name="Path" d="M52.678 45.703c1.168-4.6 2.625-7.736 3.658-10.83a1.82 1.82 0 0 0-.174-1.729 2.056 2.056 0 0 0-1.365-.541q-4.842-.623-9.714-.951a1.2 1.2 0 0 0-1.542 1.2c-1.447 6.351-4.117 13.091-5.577 19.442a1.77 1.77 0 0 0 .1 1.46 1.194 1.194 0 0 0 .774.486c1.86.233 4.531.656 6.6.82-1.506-.656-.84-1.952-.42-2.625a1.733 1.733 0 0 1-1.263-2.44 5.115 5.115 0 0 1 2-2.507 3.69 3.69 0 0 1-1.7-3.241c.266-1.391 1.161-1.5 2.526-1.106s3.373 1.27 4.724 1.7" fill="#dae0e9"/><path data-name="Path" d="M52.485 45.471a.049.049 0 0 0 0 .036c.039.121.174.328.446.118a.124.124 0 0 0 .026-.03l.135-.515.069-.256.118-.419.2-.7c.138-.469.285-.935.436-1.4.3-.928.627-1.85.965-2.769l1.039-2.76c.171-.463.328-.922.5-1.388a7.07 7.07 0 0 0 .23-.728 2.493 2.493 0 0 0 .052-.814 1.64 1.64 0 0 0-.305-.8 1.545 1.545 0 0 0-.7-.5 7.874 7.874 0 0 0-1.5-.269 90.192 90.192 0 0 0-2.93-.328q-2.931-.327-5.871-.514a7.093 7.093 0 0 0-.764-.03 1.263 1.263 0 0 0-.83.328 1.64 1.64 0 0 0-.413.748c-.075.256-.121.489-.18.725-.22.951-.469 1.9-.732 2.841-1.044 3.774-2.317 7.485-3.426 11.258a95.023 95.023 0 0 0-1.152 4.275 7.874 7.874 0 0 0-.279 1.492 1.4 1.4 0 0 0 .249.843 1.512 1.512 0 0 0 .689.525.984.984 0 0 0 .223.056l.187.026.364.046.728.1 2.917.394c.489.062.984.118 1.467.171l.656.062.718.066.656.056h.217l-.082-.043-.768-.39-.19-.1a1.4 1.4 0 0 1-.121-.075l-.223-.141-.226-.138a.482.482 0 0 1-.072-.069l-.039-.049a.833.833 0 0 1-.141-.253 1.115 1.115 0 0 1-.023-.591 2.661 2.661 0 0 1 .236-.627l.039-.075c.02-.039.059-.1.089-.151l.194-.328.049-.079.023-.039c0-.016-.023 0-.03 0l-.18-.033-.177-.03a1.6 1.6 0 0 1-.194-.03 1.565 1.565 0 0 1-.82-2.133 4.774 4.774 0 0 1 .685-1.213 4.993 4.993 0 0 1 .466-.522c.082-.082.171-.157.259-.236l.138-.108.187-.141.305-.21.075-.052.039-.026q.03 0 0-.03l-.148-.112-.292-.23-.157-.135a5.85 5.85 0 0 1-.482-.505 3.871 3.871 0 0 1-.682-1.191 2.382 2.382 0 0 1-.118-.656 2.037 2.037 0 0 1 .1-.656.984.984 0 0 1 .8-.8 3.222 3.222 0 0 1 1.339.161c.459.135.919.3 1.375.466l1.266.489.354.135s.718.22 1.243.328c.883.18.568-.033.072-.262.03 0-.272-.128-.581-.262l-.62-.279-.184-.072-.758-.289c-.443-.167-.905-.328-1.391-.505a7.733 7.733 0 0 0-1.558-.4 2.182 2.182 0 0 0-.909.072 1.4 1.4 0 0 0-.748.636 2.51 2.51 0 0 0-.223 1.85 4.186 4.186 0 0 0 .919 1.64c.1.121.217.236.328.348.059.056.118.112.18.164l.049.043a4.882 4.882 0 0 0-.381.308 5.249 5.249 0 0 0-1.22 1.6 5.837 5.837 0 0 0-.207.469 2.346 2.346 0 0 0-.036 1.64 1.86 1.86 0 0 0 .689.919 1.158 1.158 0 0 0 .266.144.741.741 0 0 0 .141.056h.023v.03l-.033.059-.059.125a2.6 2.6 0 0 0-.253.82 1.486 1.486 0 0 0 .052.62 1.286 1.286 0 0 0 .131.292 1.079 1.079 0 0 0 .121.167l-.5-.052c-.712-.086-1.434-.175-2.159-.275l-2.2-.3-.554-.075-.279-.036a.62.62 0 0 1-.207-.052 1.024 1.024 0 0 1-.364-.266.781.781 0 0 1-.194-.381 2.582 2.582 0 0 1 .1-1.024c.085-.367.174-.735.262-1.106.187-.738.381-1.476.587-2.218.831-2.952 1.813-5.942 2.738-8.942.463-1.5.912-3.008 1.312-4.524.2-.758.394-1.516.571-2.277a3.4 3.4 0 0 1 .328-1.014.837.837 0 0 1 .817-.308c3.064.194 6.109.489 9.032.853l1.089.141a1.87 1.87 0 0 1 .892.328 1.1 1.1 0 0 1 .351.784 2.3 2.3 0 0 1-.167.955c-.459 1.342-.984 2.625-1.444 3.917s-.922 2.526-1.312 3.756c-.194.614-.377 1.22-.541 1.821q-.043.164-.089.328Z" fill="#081f4d"/><path data-name="Path" d="M37.587 32.672a.046.046 0 0 0-.033 0c-.118.059-.292.216-.062.459a.141.141 0 0 0 .032.023l.807.1a23.074 23.074 0 0 1 4.676 1.018c.141.049.279.1.417.154 0 0 .7.223 1.191.407.817.328.574.079.112-.246a5.351 5.351 0 0 0-.561-.328 9.897 9.897 0 0 0-.623-.308l-.225-.079-.262-.092c-.213-.081-.433-.144-.656-.208-.44-.129-.88-.241-1.313-.333a32.748 32.748 0 0 0-2.68-.443ZM53.981 41.025a.043.043 0 0 0-.026-.02c-.118-.056-.351-.1-.4.233a.249.249 0 0 0 0 .046l.4.64 1.076 1.785c.558.935 1.112 1.909 1.64 2.93s1.027 2.09 1.476 3.209.879 2.277 1.312 3.458.879 2.379 1.312 3.589.9 2.434 1.286 3.684a25.482 25.482 0 0 1 1.266 7.769 29.088 29.088 0 0 1-1.02 7.8 12.654 12.654 0 0 1-1.447 3.524 6.529 6.529 0 0 1-1.188 1.4 6.67 6.67 0 0 1-1.516.984 6.476 6.476 0 0 1-3.442.614 6.617 6.617 0 0 1-4.327-2.3 7.119 7.119 0 0 1-.861-1.302 21.909 21.909 0 0 1-1.138-2.853 57.854 57.854 0 0 1-.889-2.7c-.128-.43-.233-.853-.328-1.27-.053-.246-.109-.477-.163-.705a8.213 8.213 0 0 1-.049-.22c-.03-.121-.043-.194-.043-.194s-.214-.718-.408-1.21c-.328-.843-.328-.469-.262.079-.02-.052.21 1.312.21 1.312l.046.187c.043.194.1.427.157.7a44.666 44.666 0 0 0 1.608 5.141 12.707 12.707 0 0 0 1.332 2.821 7.044 7.044 0 0 0 2.507 2.251 6.936 6.936 0 0 0 3.461.82 7.093 7.093 0 0 0 3.547-1.1 6.955 6.955 0 0 0 1.467-1.243 8.258 8.258 0 0 0 1.1-1.6 16.292 16.292 0 0 0 1.289-3.674 28.927 28.927 0 0 0 .873-7.864 25.023 25.023 0 0 0-.42-3.937 30.21 30.21 0 0 0-.984-3.819c-.4-1.24-.856-2.451-1.312-3.648L59.804 52.8c-.43-1.165-.853-2.313-1.312-3.422s-.984-2.178-1.5-3.192-1.098-1.969-1.646-2.91l-.984-1.608ZM40.024 35.29a.043.043 0 0 0-.03-.03c-.1-.1-.312-.177-.443.125v.039a4.921 4.921 0 0 1 .151.758 4.849 4.849 0 0 1-.453 2.657 4.793 4.793 0 0 1-1.833 1.969 4.947 4.947 0 0 1-2.625.686 8.291 8.291 0 0 1-1.391-.115l-.689-.131-.679-.18a11.965 11.965 0 0 1-4.816-2.812 11.568 11.568 0 0 1-1.792-2.165.538.538 0 0 1-.046-.072l-.033-.056v-.027l-.021-.049-.059-.1-.118-.2-.069-.1a2.6 2.6 0 0 1-.167-.259c-.133-.22-.313-.482-.435-.712-.433-.774-.4-.42-.246.125a4.14 4.14 0 0 0 .23.607 6.111 6.111 0 0 0 .289.633l.121.207.062.1v.026l.03.049a.492.492 0 0 0 .049.075l.2.3a12.506 12.506 0 0 0 1.883 2.176 12.3 12.3 0 0 0 4.99 2.775 9.99 9.99 0 0 0 2.861.394 5.413 5.413 0 0 0 2.805-.8 5.292 5.292 0 0 0 1.968-2.175 5.358 5.358 0 0 0 .479-2.884 5.679 5.679 0 0 0-.174-.83Z" fill="#081f4d"/><path data-name="Path" d="M42.291 56.041a.059.059 0 0 0 0-.036c0-.135-.072-.351-.384-.253l-.036.02a5.42 5.42 0 0 1-.43.584l-.026.033-.036.043a5.45 5.45 0 0 1-.469.486 5.948 5.948 0 0 1-1.1.8 4.17 4.17 0 0 0-1.168.984 6.158 6.158 0 0 0-.826 1.281 13.291 13.291 0 0 0-.558 1.414q-.515 1.407-1.093 2.838c-.764 1.9-1.617 3.829-2.5 5.8s-1.706 4.026-2.7 6.02a20.462 20.462 0 0 1-3.8 5.528 12.191 12.191 0 0 1-5.84 3.4 11.049 11.049 0 0 1-3.432.262 13.973 13.973 0 0 1-3.409-.686 16.4 16.4 0 0 1-3.163-1.5c-.246-.161-.505-.3-.738-.479l-.712-.515-.679-.558c-.23-.184-.433-.4-.656-.594a8.53 8.53 0 0 1-.614-.627 7.873 7.873 0 0 1-.581-.656l-.558-.682c-.18-.23-.328-.476-.515-.715a22.965 22.965 0 0 1-1.788-3.025 28.484 28.484 0 0 1-2.201-6.625 36.128 36.128 0 0 1-.033-13.55 33.792 33.792 0 0 1 4.5-11.811 26.085 26.085 0 0 1 3.65-4.589c.348-.328.673-.656 1.03-.965s.7-.607 1.063-.883a15.092 15.092 0 0 1 2.264-1.414 30.393 30.393 0 0 1 4.708-1.824c.771-.236 1.529-.469 2.257-.676.367-.1.728-.194 1.086-.269l.118-.026.22-.039.19-.033.42-.1c.243-.052.551-.1.807-.144.436-.052.577-.085.531-.138a1.253 1.253 0 0 0-.551-.129 5.663 5.663 0 0 0-.656 0 5.761 5.761 0 0 0-.7.052l-.2.033-.1.02h-.089l-.383.085-.518.128c-.7.184-1.4.4-2.119.623s-1.47.459-2.228.725a21.033 21.033 0 0 0-4.593 2.178 25.066 25.066 0 0 0-7.464 8.53 35.38 35.38 0 0 0-3.978 12.021 36.049 36.049 0 0 0 .545 13.534 27.135 27.135 0 0 0 2.516 6.542c.131.262.289.515.443.764l.463.755.512.725a7.294 7.294 0 0 0 .531.712 17.06 17.06 0 0 0 2.46 2.575 15.915 15.915 0 0 0 2.953 2 15.748 15.748 0 0 0 3.307 1.312 12.447 12.447 0 0 0 7.024-.082 13.287 13.287 0 0 0 5.761-3.842 22.811 22.811 0 0 0 3.652-5.7c.955-2.008 1.755-4.026 2.644-5.961s1.706-3.861 2.461-5.754c.377-.948.732-1.886 1.066-2.821a6.171 6.171 0 0 1 1.4-2.408 3.52 3.52 0 0 1 .518-.423c.174-.118.4-.233.6-.371a6.256 6.256 0 0 0 1.122-.928 6.24 6.24 0 0 0 .243-.266l.03-.033v-.016l.026-.033a6.332 6.332 0 0 0 .5-.623Z" fill="#081f4d"/><path data-name="Path" d="M38.919 46.907h.033c.112-.049.312-.187.1-.449a.079.079 0 0 0-.039-.043s-.33-.069-.768-.123l-.3-.021c-.3-.026-.607-.043-.915-.059l-1.909-.1a8.655 8.655 0 0 0-2.064.092 4.993 4.993 0 0 0-2 .889 6.434 6.434 0 0 0-1.542 1.624 8.681 8.681 0 0 0-.984 2.05 13.96 13.96 0 0 0-.544 2.225 6.279 6.279 0 0 1-.542 2.1 11.256 11.256 0 0 1-1.345 1.749c-.492.564-.984 1.122-1.486 1.673l-2.952 3.222a83.937 83.937 0 0 0-2.677 3.084 36.431 36.431 0 0 0-2.231 2.913 9.937 9.937 0 0 0-.787 1.459c-.1.243-.2.479-.279.712-.043.118-.085.233-.121.348l-.022.057c-.03.085-.052.157-.072.22-.039.121-.059.19-.059.19s-.169.738-.228 1.263c-.128.889.069.571.269.056 0 .026.1-.282.217-.6l.233-.636.059-.184.154-.453a9.865 9.865 0 0 1 1.362-2.625 71.685 71.685 0 0 1 4.855-5.814l2.9-3.173q.738-.817 1.467-1.663a7.677 7.677 0 0 0 1.312-1.877 10 10 0 0 0 .489-2.231 13.169 13.169 0 0 1 .554-2.1 6.591 6.591 0 0 1 2.457-3.284 4.429 4.429 0 0 1 1.805-.717 9.281 9.281 0 0 1 1.932-.046l1.88.1c.3.016.6.033.886.059l.187.02a6.7 6.7 0 0 1 .715.1Z" fill="#081f4d"/><path data-name="Path" d="M36.773 49.968v-.029c-.089-.1-.289-.217-.453.072a.112.112 0 0 0 0 .039 5.833 5.833 0 0 1 .089.779 1.693 1.693 0 0 1-.364 1.217c-.141.171-.328.344-.492.509a2.067 2.067 0 0 1-.531.39 1.506 1.506 0 0 1-.62.121 4.265 4.265 0 0 1-.69-.037.656.656 0 0 1-.246-.089.128.128 0 0 1-.066-.111.256.256 0 0 1 .138-.19.42.42 0 0 1 .108-.059 1.729 1.729 0 0 1 .382-.089l-.016-.387a5.033 5.033 0 0 1-.63.036c-.433-.02-.577-.03-.545.033a1.1 1.1 0 0 0 .522.239 2.93 2.93 0 0 0 .656.089l-.02-.407a1.968 1.968 0 0 0-.522.052.853.853 0 0 0-.266.125.761.761 0 0 0-.22.256.6.6 0 0 0-.062.443.656.656 0 0 0 .354.43 1.43 1.43 0 0 0 .427.121c.141.02.262.02.387.026a3.73 3.73 0 0 0 .384 0 1.919 1.919 0 0 0 .8-.19 2.838 2.838 0 0 0 .636-.479 6.417 6.417 0 0 0 .515-.549 2 2 0 0 0 .381-.732 2.844 2.844 0 0 0 .085-.789 5.81 5.81 0 0 0-.121-.84ZM1.465 61.943l-.02.031c-.046.121-.049.348.289.358h.042l.63-.472A10.863 10.863 0 0 1 5.9 60.474a27 27 0 0 1 3.783-.542c1.28-.109 2.562-.158 3.848-.227a43.563 43.563 0 0 0 1.936-.131l.328-.02.239-.023.436-.085a7.1 7.1 0 0 0 .82-.2c.866-.239.489-.292-.059-.266.026 0-.3.03-.633.036l-.675.033-.712.059c-.627.049-1.257.082-1.89.115-1.26.069-2.529.118-3.8.23a26.528 26.528 0 0 0-3.789.561 11.187 11.187 0 0 0-3.582 1.433ZM48.639 57.813a.039.039 0 0 0-.02-.03c-.1-.089-.308-.171-.44.141a.128.128 0 0 0 0 .043s.023.079.056.2a3.068 3.068 0 0 1 .125.5l.079.5c.03.279.036.568.052.856a5.243 5.243 0 0 1-.033.876 18.077 18.077 0 0 1-.724 3.604c-.354 1.22-.807 2.447-1.276 3.7a34.668 34.668 0 0 0-1.239 3.94 37.729 37.729 0 0 0-1.129 8.53c0 .732 0 1.47.033 2.2a8.091 8.091 0 0 1-.03 2.133 2.953 2.953 0 0 1-1.174 1.629 7.927 7.927 0 0 1-1.824 1.132 10.108 10.108 0 0 1-2.05.686 14.724 14.724 0 0 1-2.146.328 30.561 30.561 0 0 1-4.35 0c-2.894-.184-5.738-.43-8.468-.787a51.278 51.278 0 0 1-14.483-3.791 35.941 35.941 0 0 1-2.805-1.411c-.423-.243-.928-.466-1.056-.755a.538.538 0 0 1 .056-.472l.036-.072.1-.194.1-.167s.075-.161.194-.377.285-.5.394-.745c.19-.417.194-.561.131-.541a1.775 1.775 0 0 0-.377.41c0-.026-.18.23-.394.492s-.41.571-.41.571l-.1.174c0 .03-.033.062-.049.1l-.03.052v.03l-.039.085a1.371 1.371 0 0 0-.069.174.958.958 0 0 0-.052.43 1.089 1.089 0 0 0 .456.712 4.681 4.681 0 0 0 .62.377c.413.226.837.469 1.28.7l1.375.676 1.473.656a44.241 44.241 0 0 0 6.726 2.146 70.68 70.68 0 0 0 7.749 1.339c2.716.328 5.522.558 8.392.718a25.892 25.892 0 0 0 4.36-.118 13 13 0 0 0 2.172-.436 9.514 9.514 0 0 0 2.067-.843 8.9 8.9 0 0 0 .951-.6 9.561 9.561 0 0 0 .866-.725 3.356 3.356 0 0 0 .689-.948 3.094 3.094 0 0 0 .262-1.145 9.629 9.629 0 0 0-.023-1.115c0-.361-.036-.718-.043-1.079q-.03-1.076 0-2.149a37.142 37.142 0 0 1 1.2-8.291c.171-.656.367-1.312.568-1.946s.443-1.257.673-1.877c.463-1.24.9-2.467 1.25-3.694a16.824 16.824 0 0 0 .673-3.668 8.894 8.894 0 0 0-.072-1.8l-.056-.329a3.53 3.53 0 0 0-.131-.535c-.04-.11-.063-.194-.066-.2Z" fill="#081f4d"/><path data-name="Path" d="M49.903 62.452a.705.705 0 0 0 .085-.453.049.049 0 0 0 0-.023 1.5 1.5 0 0 0-.229-.024 1.519 1.519 0 0 0-.5.066 2.4 2.4 0 0 0-.43.177l-.17.096a1.611 1.611 0 0 0-.233.275c-.151.204-.023.256.138.233a3.008 3.008 0 0 0 .348-.088 2.362 2.362 0 0 1 .5-.223 1.1 1.1 0 0 1 .323-.046.984.984 0 0 1 .168.01ZM16.928 59.411a.043.043 0 0 0 0-.03.256.256 0 0 0-.456-.053.092.092 0 0 0-.027.04 3.241 3.241 0 0 0 .052.876 13.655 13.655 0 0 0 .545 1.767c.171.554.328 1.161.505 1.739l.125.44s.253.705.469 1.188c.328.827.351.453.256-.1.026.052-.272-1.293-.272-1.293l-.108-.374c-.171-.587-.328-1.152-.509-1.759a13.671 13.671 0 0 1-.528-1.697 2.723 2.723 0 0 1-.052-.744Z" fill="#081f4d"/><path data-name="Path" d="M20.947 87.753a107.138 107.138 0 0 0 10.955 1.22c3.937.266 8.336.3 11.329-2.3.066-.056.128-.118.19-.177-.328 5.732 1.709 11.335 3.579 16.785A300.556 300.556 0 0 1 63.243 200.2c0 3.081-2.625 2.431-2.3 5.5.43 4.042-9.5 6.037-16.059 3.517-2.3-1.827-1.007-3.8-3.4-5.485-4.016-2.838-3.937-6.719-4.921-10.587l-7.26-29.163c-1.562-6.276-3.133-12.604-3.427-19.064a34.275 34.275 0 0 0-.44-5.476 31.591 31.591 0 0 0-2.182-5.876 66.984 66.984 0 0 1-3.61-41.584 31.633 31.633 0 0 1 1.3-4.229Z" fill="#1e96fc"/><path data-name="Path" d="M21.16 87.55h-.033c-.118.049-.305.2-.085.453l.036.026.581.1.144.023h.072l.883.135 1.549.213c1.03.131 2.067.246 3.1.348 2.073.2 4.14.367 6.233.459a19.534 19.534 0 0 0 6.249-.591 9.754 9.754 0 0 0 2.878-1.36c.108-.079.21-.164.328-.246l.079-.062v1.532a31 31 0 0 0 .922 6.2c.735 3.008 1.778 5.905 2.769 8.819s1.968 5.827 2.838 8.77c.932 2.93 1.742 5.905 2.589 8.858.784 2.972 1.594 5.935 2.3 8.927.748 2.982 1.375 5.991 2.041 8.989.6 3.012 1.227 6.02 1.739 9.052.568 3.018 1.007 6.06 1.489 9.094.407 3.045.856 6.086 1.181 9.14.377 3.048.633 6.112.928 9.186.22 3.064.482 6.125.617 9.186.19 3.068.256 6.138.364 9.209l.056 4.593v1.155a6.138 6.138 0 0 1-.049 1.109 2.736 2.736 0 0 1-.344.984 4.229 4.229 0 0 1-.7.833 5.394 5.394 0 0 0-.791.912 2.716 2.716 0 0 0-.4 1.188 3.458 3.458 0 0 0 0 .61v.564a2.119 2.119 0 0 1-.256.984 4.072 4.072 0 0 1-1.555 1.48 9.892 9.892 0 0 1-2.057.889 17.933 17.933 0 0 1-4.478.741 20.611 20.611 0 0 1-4.537-.3 16.367 16.367 0 0 1-2.2-.551l-.535-.187-.066-.023-.094-.075-.2-.18c-.131-.128-.249-.266-.367-.4a4.092 4.092 0 0 1-.3-.446 10.213 10.213 0 0 1-.761-2.119 4.13 4.13 0 0 0-1.342-1.995l-.912-.709c-.151-.112-.279-.249-.42-.371a5.045 5.045 0 0 1-.4-.39 8.4 8.4 0 0 1-1.312-1.8 14.8 14.8 0 0 1-1.414-4.291c-.154-.751-.3-1.506-.459-2.264s-.361-1.5-.545-2.247l-1.124-4.488-2.228-8.953-4.452-17.9c-.718-2.986-1.384-5.984-1.863-9.012a60.798 60.798 0 0 1-.554-4.56c-.069-.761-.108-1.526-.144-2.3s-.046-1.535-.092-2.3a19.868 19.868 0 0 0-.246-2.32 14.928 14.928 0 0 0-.585-2.255c-.5-1.476-1.165-2.871-1.758-4.265a65.044 65.044 0 0 1-2.992-8.681 65.734 65.734 0 0 1-2.3-18.179 66.76 66.76 0 0 1 .728-9.153l.386-2.269c.128-.758.328-1.5.469-2.251s.331-1.492.542-2.23l.177-.633.125-.413s.167-.726.287-1.238c.217-.866 0-.577-.262-.075a5.1 5.1 0 0 0-.259.587c-.128.315-.249.656-.249.656l-.062.207-.033.1v.052l-.235.845c-.2.732-.371 1.47-.525 2.211a66.521 66.521 0 0 0-1.475 18.045 68.034 68.034 0 0 0 3.4 17.8l.768 2.139c.256.712.561 1.4.84 2.11.561 1.411 1.23 2.766 1.745 4.167a16.3 16.3 0 0 1 .656 2.133 15.827 15.827 0 0 1 .328 2.2c.125 1.486.112 3 .223 4.518a102.358 102.358 0 0 0 3.311 17.817l4.377 17.572 2.188 8.786c.354 1.463.755 2.926 1.06 4.39a36.745 36.745 0 0 0 1.014 4.429 10.965 10.965 0 0 0 .984 2.1 9.055 9.055 0 0 0 1.444 1.811 9.158 9.158 0 0 0 .883.755l.449.351a3.771 3.771 0 0 1 .41.328 3.537 3.537 0 0 1 .656.827 5.739 5.739 0 0 1 .4 1c.1.351.2.722.328 1.093a5.266 5.266 0 0 0 .512 1.073 4.594 4.594 0 0 0 .791.9l.108.1.056.049c.026 0 .052.062.1.072l.292.1c.18.062.361.131.545.184a18.825 18.825 0 0 0 4.5.8 21.283 21.283 0 0 0 4.567-.217 13.025 13.025 0 0 0 4.367-1.421 4.737 4.737 0 0 0 1.745-1.591 2.726 2.726 0 0 0 .381-1.175 2.47 2.47 0 0 0 0-.328v-.288a3.2 3.2 0 0 1 0-.532 2.237 2.237 0 0 1 .253-.984 3.179 3.179 0 0 1 .656-.823 6.971 6.971 0 0 0 .784-.869 3.248 3.248 0 0 0 .5-1.112 5.593 5.593 0 0 0 .108-1.181v-1.132l-.03-2.264-.026-2.267c0-.755-.046-1.509-.066-2.264l-.154-4.527-.239-4.524c-.066-1.509-.2-3.015-.308-4.521s-.207-3.012-.364-4.514l-.427-4.511-.515-4.5c-.735-5.994-1.594-11.978-2.7-17.916l-.4-2.231-.443-2.221c-.3-1.48-.577-2.953-.9-4.439l-.984-4.426c-.328-1.476-.7-2.936-1.05-4.406l-.535-2.2c-.18-.735-.381-1.463-.571-2.192l-1.165-4.38c-.833-2.9-1.64-5.814-2.559-8.691-.863-2.9-1.85-5.751-2.8-8.619s-1.988-5.7-2.7-8.615a30.78 30.78 0 0 1-.893-6.101v-1.582l.026-.778v-.193a.364.364 0 0 0 0-.085l-.075.069-.3.279a2.9 2.9 0 0 1-.328.279l-.229.173c-.1.079-.2.161-.3.233a9.229 9.229 0 0 1-2.73 1.289 19.365 19.365 0 0 1-6.092.564c-2.057-.072-4.134-.262-6.194-.456-1.03-.1-2.06-.213-3.087-.348l-1.539-.21-.876-.135h-.07l-.144-.023Z" fill="#081f4d"/><path data-name="Path" d="M-31.995 179.313a103.544 103.544 0 0 1 12.613-24.606c4.7-6.89 9.993-14.157 17.578-18.044.63-.328-1.28-10.331-1.368-11.253-1.24-12.618-1.6-28.028 7.123-38.293a20.393 20.393 0 0 0 2.793-4.062c5.906 3.3 12.654 4.714 19.458 5.449l2.529 1.312c-4.167 3.609-4.816 9.744-4.892 15.252-.2 14.606 4.993 23.517.63 37.46-5.19 16.6-21.771 42.716-35.2 53.769-2.779 2.3-6.148 4.665-9.659 3.871a2.505 2.505 0 0 0-1.6-.072c-.492.236-.715.807-1.083 1.214-1.355 1.506-3.809.259-5.377-1.024a26.538 26.538 0 0 1-5.043-5.18 5.357 5.357 0 0 1-.289-5.33 20.389 20.389 0 0 1-.784-3.861c.328-1.752 1.421-3.218 2-4.921Z" fill="#1e96fc"/><path data-name="Path" d="M-32.182 179.07a.046.046 0 0 0 0 .036c.03.125.148.328.433.157l.033-.033.486-1.365q1.525-4.162 3.437-8.171t4.153-7.838q2.244-3.829 4.767-7.483c1.673-2.444 3.392-4.856 5.249-7.159a48.057 48.057 0 0 1 6.109-6.384c.551-.492 1.142-.928 1.719-1.384.3-.22.6-.427.9-.64l.453-.328.466-.3.942-.558.965-.531.243-.131.148-.082a.413.413 0 0 0 .171-.21 1.283 1.283 0 0 0 .069-.351v-.3c0-.387-.03-.761-.062-1.132-.305-2.972-.846-5.905-1.312-8.812l-.085-.545c-.026-.167-.036-.358-.056-.541l-.1-1.106-.184-2.211q-.171-2.215-.259-4.432a77.719 77.719 0 0 1 .18-9.655 46.827 46.827 0 0 1 1.739-9.468 31.017 31.017 0 0 1 4.075-8.668c.456-.656.935-1.312 1.447-1.916s1.04-1.247 1.519-1.909a17.828 17.828 0 0 0 1.304-2.07l.075-.141v-.015l.476.253c.354.2.722.374 1.089.551a43.378 43.378 0 0 0 9.187 3.155c1.581.364 3.179.656 4.78.905q1.2.182 2.408.328l1.207.138.125.016.075.039.269.138.538.279 1.076.561.223.115-.2.19a11.811 11.811 0 0 0-1.585 1.9 15.8 15.8 0 0 0-1.968 4.5 26.748 26.748 0 0 0-.8 4.816 48.232 48.232 0 0 0-.167 4.865 81.741 81.741 0 0 0 .942 11.4c.525 3.77 1.175 7.523 1.362 11.306a38.283 38.283 0 0 1-1.022 11.245l-.377 1.368c-.135.453-.236.915-.4 1.362l-.922 2.687c-.7 1.765-1.365 3.54-2.159 5.266-.741 1.749-1.6 3.445-2.418 5.154-.42.853-.876 1.686-1.312 2.533s-.873 1.686-1.345 2.51l-1.39 2.486c-.466.827-.965 1.64-1.447 2.454-.951 1.64-1.985 3.238-2.992 4.849-.5.81-1.047 1.585-1.568 2.379s-1.04 1.591-1.591 2.362c-1.1 1.549-2.172 3.12-3.33 4.623-2.251 3.064-4.675 5.991-7.195 8.825a71.667 71.667 0 0 1-8.2 7.854 17.185 17.185 0 0 1-4.819 2.848 7.31 7.31 0 0 1-2.713.41 4.266 4.266 0 0 1-.679-.075 6.825 6.825 0 0 1-.686-.135 3.564 3.564 0 0 0-.751-.118 1.447 1.447 0 0 0-.817.207 4.971 4.971 0 0 0-.984 1.135 1.873 1.873 0 0 1-1.06.633 2.884 2.884 0 0 1-1.312-.089 6.133 6.133 0 0 1-1.263-.528 12.345 12.345 0 0 1-2.254-1.64 38.642 38.642 0 0 1-2.08-1.923 17.059 17.059 0 0 1-1.859-2.112 6.234 6.234 0 0 1-1.04-2.513 4.5 4.5 0 0 1 .292-2.648.926.926 0 0 1 .075-.151l.1-.187c-.046-.056-.262-.151-.213-.164-.043 0 .22-.056.23-.082l-.02-.069-.046-.171-.178-.685a28.996 28.996 0 0 1-.328-1.378c-.046-.23-.1-.459-.131-.689a3.669 3.669 0 0 1-.062-.656v-.066l.02-.082.036-.167c.023-.112.056-.223.085-.328.062-.22.138-.436.22-.656.328-.866.8-1.7 1.2-2.572l.279-.656.049-.128.1-.253s.194-.725.3-1.243c.19-.876-.03-.577-.262-.072 0-.03-.125.276-.256.587l-.262.627-.085.233-.046.115-.059.141q-.128.308-.276.62l-.6 1.243c-.2.417-.4.843-.564 1.286a8.397 8.397 0 0 0-.22.679c-.03.115-.059.233-.082.351l-.056.173v.22a8.33 8.33 0 0 0 .213 1.416c.1.456.207.909.328 1.355l.177.656.062.23-.043.075-.089.164a4.459 4.459 0 0 0-.4 1.4 6.717 6.717 0 0 0 1.9 5.23 35.641 35.641 0 0 0 4.035 3.835 9.281 9.281 0 0 0 2.421 1.47 4.416 4.416 0 0 0 1.424.328 2.415 2.415 0 0 0 1.457-.384c.056-.036.112-.069.161-.108l.141-.131a1.753 1.753 0 0 0 .262-.279c.154-.2.276-.394.407-.568a1.48 1.48 0 0 1 .417-.417.984.984 0 0 1 .531-.125 12.013 12.013 0 0 1 1.312.243l.354.056.358.026a4.736 4.736 0 0 0 .715 0 8.386 8.386 0 0 0 2.766-.63 14.488 14.488 0 0 0 2.484-1.312c.781-.505 1.526-1.066 2.251-1.64s1.407-1.207 2.11-1.811l1.043-.915.984-.984.984-.984.984-.984 1.886-2.031c.328-.328.623-.686.922-1.037l.968-1.06a149.847 149.847 0 0 0 13.01-17.924 145.447 145.447 0 0 0 10.39-19.56c.374-.843.689-1.713 1.04-2.569l.492-1.286.453-1.312.449-1.312c.072-.22.154-.436.223-.656l.187-.656c.236-.9.525-1.778.686-2.7a39.3 39.3 0 0 0 .771-11.082c-.253-3.7-.866-7.349-1.378-11a80.1 80.1 0 0 1-.889-10.984 48.226 48.226 0 0 1 .167-4.823 26.381 26.381 0 0 1 .787-4.731 15.2 15.2 0 0 1 1.893-4.354 11.483 11.483 0 0 1 1.516-1.818l.678-.651c.016 0 0-.016 0-.02l-.033-.02-.067-.032-.135-.072-.265-.138-.332-.168-1.076-.558-.538-.279-.269-.141-.066-.036c-.03 0-.082-.056-.131-.049l-.177-.02-1.2-.141c-.8-.1-1.6-.207-2.392-.328a62.344 62.344 0 0 1-4.744-.9 42.9 42.9 0 0 1-9.1-3.123 20.68 20.68 0 0 1-1.075-.536l-.6-.328-.259-.145-.036-.016h-.023l-.03.062-.066.121-.2.4a17.716 17.716 0 0 1-1.286 2.017c-.469.656-.984 1.257-1.5 1.883s-1.01 1.28-1.473 1.952a31.453 31.453 0 0 0-4.144 8.806 47.509 47.509 0 0 0-1.755 9.567 77.492 77.492 0 0 0-.18 9.718q.085 2.231.259 4.449l.184 2.221.1 1.106c.02.187.03.367.059.564l.1.581c.482 2.926 1.024 5.846 1.312 8.776.033.364.062.732.062 1.086v.259a1.286 1.286 0 0 1-.03.194l-.328.187-.984.541-.951.594-.472.3-.459.328c-.305.217-.617.426-.912.656-.587.459-1.188.905-1.745 1.4a48.4 48.4 0 0 0-6.171 6.45c-1.867 2.32-3.589 4.741-5.249 7.188s-3.281 4.954-4.787 7.516-2.887 5.194-4.173 7.878-2.431 5.423-3.454 8.2ZM52.911 55.791c0-.026.036-.026 0-.016s-.21.039-.377.062-.328.032-.328.032a1.066 1.066 0 0 1-.216.021.7.7 0 0 1-.089-.021.889.889 0 0 1 .075.064.528.528 0 0 0 .1.072.955.955 0 0 0 .11.064.538.538 0 0 0 .132.024.715.715 0 0 0 .292-.029.656.656 0 0 0 .252-.154.7.7 0 0 0 .049-.119ZM53.032 57.131l.066-.033h-.088a5.516 5.516 0 0 0-.407-.033h-.138l-.22-.02h-.627a.984.984 0 0 1-.262-.046l.253.122a1.762 1.762 0 0 0 .308.115 1.9 1.9 0 0 0 .344.068h.2l.148-.016a1.444 1.444 0 0 0 .423-.157ZM35.224 57.796c0-.02.026 0 0-.023a.5.5 0 0 0-.239-.1.568.568 0 0 0-.233 0l-.132.08a.121.121 0 0 1-.052.02l.056.026.121.1a.587.587 0 0 0 .23 0 .535.535 0 0 0 .249-.1ZM34.637 59.233c.02-.016.033 0 0-.023a1.437 1.437 0 0 0-.255-.187 1.558 1.558 0 0 0-.254-.118.564.564 0 0 1-.177-.029.305.305 0 0 1-.069-.03.266.266 0 0 1 .039.066.922.922 0 0 0 .046.085c.027.043.056.082.056.082a.7.7 0 0 0 .276.161.584.584 0 0 0 .22.023.82.82 0 0 0 .118-.03Z" fill="#081f4d"/><path data-name="Path" d="M42.12 56.192v.023s.026.089.056.1a.053.053 0 0 0 .056-.015l.029-.082v-.02a.157.157 0 0 1 0-.026l-.032-.076a.032.032 0 0 0-.052 0 .409.409 0 0 0-.056.1ZM7.954 83.232c-.016-.056 0-.134-.023 0v.02a3.382 3.382 0 0 0-.082.406 5.669 5.669 0 0 0-.032 1.392l.026.226s.082.374.154.627c.1.436.039.266.046 0v-.845c-.016-.461-.03-.917-.056-1.376-.01-.174-.026-.312-.033-.45ZM-27.193 204.367c.052-.023.131 0 0-.02h-.02l-.41-.023a42.04 42.04 0 0 1-2.297-.171l-.23-.023s-.37-.016-.629-.049a1.749 1.749 0 0 1-.266-.044c.02.007.131.039.266.082 0 0 .141.049.305.1l.324.098.2.04a7.382 7.382 0 0 0 2.34.08c.148-.03.282-.046.417-.075Z" fill="#191919"/><path data-name="Path" d="M-28.682 202.514c-.026-.049-.023-.128-.02 0v.431c.033.764.049 1.522.03 2.3v.863a2.546 2.546 0 0 1-.023.266c0-.023.03-.135.062-.269 0 0 .039-.148.075-.312l.072-.328.026-.2a7.027 7.027 0 0 0-.121-2.298 2.466 2.466 0 0 0-.1-.453ZM-29.644 208.346c.043-.036.121-.049 0-.02l-.4.1a14.17 14.17 0 0 1-2.054.34h-.223s-.368.052-.633.059a1.212 1.212 0 0 1-.266 0c.023 0 .134.023.272.046 0 0 .148.033.328.052s.328.04.328.04h.2a5.184 5.184 0 0 0 2.084-.437 2.085 2.085 0 0 0 .364-.18Z" fill="#191919"/><path data-name="Path" d="M-31.484 207.237c-.04-.04-.056-.122-.02 0v.02l.115.393c.174.607.328 1.211.443 1.831l.043.22s.089.361.128.623a2.392 2.392 0 0 1 .023.266 2 2 0 0 1 .02-.276s0-.151.016-.328a2.1 2.1 0 0 0 0-.348l-.016-.2a5.285 5.285 0 0 0-.542-1.844 3.884 3.884 0 0 0-.21-.357ZM-30.335 195.238c.02.052.033.131 0 0v-.02a.571.571 0 0 0-.26-.328.883.883 0 0 0-.754-.062 1.486 1.486 0 0 0-.6.489c-.3.413-.531.853-.8 1.273-.522.85-1.053 1.69-1.6 2.52s-1.117 1.64-1.692 2.466l-1.053 1.464s-.21.308-.367.518c-.269.354-.167.207 0 0l.436-.5.289-.328q.466-.571.915-1.155c.6-.781 1.165-1.585 1.709-2.4s1.06-1.64 1.549-2.51c.253-.42.463-.876.728-1.27a1.312 1.312 0 0 1 .519-.459.827.827 0 0 1 .682 0 .564.564 0 0 1 .3.3ZM-38.288 204.721c.03 0 .03.043.02 0a.657.657 0 0 0-.03-.148c-.03-.085-.049-.19-.079-.292-.062-.203-.128-.407-.128-.407s-.072-.131-.111-.231a.39.39 0 0 1-.023-.1.364.364 0 0 1-.02.108 1.64 1.64 0 0 0-.046.269 1.214 1.214 0 0 0 .112.45.984.984 0 0 0 .18.266.728.728 0 0 0 .125.085Z" fill="#191919"/><g data-name="Group" fill="#fff"><path data-name="Path" d="M25.7 139.387a.039.039 0 0 0 0 .033c.033.125.151.328.433.157a.1.1 0 0 0 .033-.033l.256-.774a74.169 74.169 0 0 0 3.691-22.713c0-1.283-.02-2.566-.079-3.848l-.02-.42v-.239s-.098-.745-.214-1.263c-.164-.883-.249-.515-.269.036-.016-.056 0 1.312 0 1.312l.026 1.053c.033.627.049 1.25.052 1.88s0 1.253 0 1.88a73.591 73.591 0 0 1-3.653 22.159ZM10.714 95.359a.036.036 0 0 0 0-.033c.029-.13 0-.357-.333-.33h-.035c-.187.2-.38.383-.574.564a15.777 15.777 0 0 1-2.874 2.112c-.128.075-.262.141-.394.217l-.367.226-.709.43c-.778.436-.413.407.125.243a5.741 5.741 0 0 0 .607-.223c.328-.128.633-.276.633-.276.115-.066.233-.125.348-.194a16.03 16.03 0 0 0 2.953-2.175 4.833 4.833 0 0 0 .62-.561ZM41.247 97.249a.043.043 0 0 0 .033 0c.131 0 .361-.023.3-.351a.125.125 0 0 0-.016-.039c-.21-.171-.413-.328-.617-.518q-.792-.689-1.519-1.441l-.31-.327-.928-.864c-.656-.62-.509-.279-.2.187a6.289 6.289 0 0 0 .381.522c.207.269.43.535.43.535l.272.285c.492.512 1.007 1 1.542 1.47.21.19.417.367.63.541ZM3.683 140.375a.433.433 0 0 0 .328-.328.069.069 0 0 0 0-.026l-1.47-1.48a4.9 4.9 0 0 0-.489-.328c-.358-.21-.328-.02-.19.2-.023-.003.351.482.351.482ZM2.265 141.703h.02a.469.469 0 0 0 .23-.4v-.019l-.249-.157a3.914 3.914 0 0 1-.486-.381 4.393 4.393 0 0 1-.6-.656s-.207-.204-.371-.351c-.263-.266-.299-.099-.237.137a3.409 3.409 0 0 0 .23.527 5.171 5.171 0 0 0 .656.728 4.636 4.636 0 0 0 .538.417c.148.092.269.154.269.157ZM41.549 142.872a.043.043 0 0 0 .02-.026c.049-.122.079-.354-.253-.384h-.038l-.68.463-.686.469-.374.256s-.591.463-.984.82c-.676.591-.328.479.167.217-.039.039 1.142-.656 1.142-.656l.328-.22.687-.47ZM39.666 147.22a.456.456 0 0 0-.144-.437h-.016c-.02 0-.115.039-.285.075a2.831 2.831 0 0 1-.628.073 3.123 3.123 0 0 1-.62-.052 3.087 3.087 0 0 1-.275-.066l-.522-.063c-.37-.075-.308.081-.111.246a1.22 1.22 0 0 0 .241.161c.139.074.284.135.284.135a3.865 3.865 0 0 0 1.023.131 3.445 3.445 0 0 0 .715-.085 2.953 2.953 0 0 0 .338-.118Z"/></g><path data-name="Path" d="M33.334 16.084a.466.466 0 0 0-.459.177.43.43 0 0 0 0 .486.394.394 0 0 0 .456.141.515.515 0 0 0 .169-.118.505.505 0 0 0 .153-.354.328.328 0 0 0-.213-.3" fill="#081f4d"/><path data-name="Path" d="M33.259 16.321s.036-.095.056-.17a.364.364 0 0 0-.023-.289l-.023-.025a1.053 1.053 0 0 0-.126 0 .725.725 0 0 0-.289.1.7.7 0 0 0-.274.358.676.676 0 0 0 .023.5.656.656 0 0 0 .846.305.817.817 0 0 0 .294-.263.676.676 0 0 0 .077-.23.492.492 0 0 0-.138-.43.243.243 0 0 0-.213-.085.051.051 0 0 0-.052.059 1.153 1.153 0 0 1 .039.177.308.308 0 0 1-.023.124.377.377 0 0 1-.1.115.328.328 0 0 1-.107.092.151.151 0 0 1-.177-.075.174.174 0 0 1 0-.135.161.161 0 0 1 .076-.092.226.226 0 0 1 .134-.036ZM31.773 17.997h-.016c-.049.033-.131.02 0 .027h1.8a6.208 6.208 0 0 1 .636 0 1.526 1.526 0 0 1 .264.023l-.266-.076a2.953 2.953 0 0 0-.311-.084 8.874 8.874 0 0 0-.329-.073l-.2-.02a4.36 4.36 0 0 0-1.165.072 3.281 3.281 0 0 0-.413.131ZM40.601 16.156a.472.472 0 0 0-.44.22.433.433 0 0 0 .034.487.4.4 0 0 0 .469.1.545.545 0 0 0 .276-.5.328.328 0 0 0-.239-.279" fill="#081f4d"/><path data-name="Path" d="M40.549 16.402s.023-.095.04-.179a.361.361 0 0 0-.053-.28.02.02 0 0 0-.023-.02.518.518 0 0 0-.128.02.709.709 0 0 0-.275.131.7.7 0 0 0-.243.374.682.682 0 0 0 .072.5.656.656 0 0 0 .869.226.771.771 0 0 0 .27-.293.676.676 0 0 0 .055-.236.5.5 0 0 0-.177-.417.246.246 0 0 0-.219-.062.051.051 0 0 0-.05.062 1.483 1.483 0 0 1 .056.171.266.266 0 0 1 0 .124.364.364 0 0 1-.088.128.3.3 0 0 1-.1.1.148.148 0 0 1-.183-.057.19.19 0 0 1 0-.135.187.187 0 0 1 .066-.1.213.213 0 0 1 .111-.057ZM39.221 18.202c-.046.036-.128.032 0 .026h.02l.411-.03 1.137-.091h.223s.367-.056.633-.072a1.8 1.8 0 0 1 .266 0c-.023-.001-.135-.024-.273-.045a2.917 2.917 0 0 0-.328-.061 5.367 5.367 0 0 0-.328-.039h-.2a4.308 4.308 0 0 0-1.155.18 3.281 3.281 0 0 0-.406.132Z" fill="#081f4d"/><path data-name="Path" d="M38.61 21.066a.059.059 0 0 0 0 .026.394.394 0 0 0-.026.213c.016.079.072.167.259.184a.118.118 0 0 0 .046 0 1.67 1.67 0 0 0 .623-.709 1.64 1.64 0 0 0-.243-1.749c-.21-.232-.384-.36-.433-.537a4.17 4.17 0 0 1-.1-.725l-.034-.45s-.105-.728-.148-1.246c-.028-.44-.052-.581-.108-.542a1.224 1.224 0 0 0-.164.545 4.088 4.088 0 0 0-.056.656v.7l.033.39a3.783 3.783 0 0 0 .121.84 1.129 1.129 0 0 0 .256.42c.1.112.2.2.266.279a1.165 1.165 0 0 1 .17 1.219 1.178 1.178 0 0 1-.463.486ZM35.401 21.705a.512.512 0 0 0-.387.249v.023l.164.243a3.609 3.609 0 0 0 .417.492 2.044 2.044 0 0 0 .548.39 1.444 1.444 0 0 0 .3.108 1.01 1.01 0 0 0 .2 0 .984.984 0 0 0 .358-.089c.177-.082.2-.161.164-.2a.466.466 0 0 0-.207-.072.553.553 0 0 1-.2-.046 1.207 1.207 0 0 1-.2-.079 1.253 1.253 0 0 1-.21-.082 1.565 1.565 0 0 1-.41-.3 3.192 3.192 0 0 1-.36-.417ZM31.917 13.507l-.021.026a.682.682 0 0 1-.1.108.361.361 0 0 1 .138-.036h.039c.131-.039.266-.062.394-.092s.256-.059.384-.075.174-.026.259-.039c.141-.02.286-.036.423-.046 0 0 .171-.03.41-.049a4.167 4.167 0 0 1 .81 0 1.86 1.86 0 0 1 .518.121c-.045-.016-.232-.152-.491-.272a2.51 2.51 0 0 0-.633-.217 2.352 2.352 0 0 0-.492-.063 1.64 1.64 0 0 0-.23 0 2.467 2.467 0 0 0-.407.075 2.195 2.195 0 0 0-.282.1 2.513 2.513 0 0 0-.384.2 1.293 1.293 0 0 0-.174.125 1.456 1.456 0 0 0-.161.134ZM39.843 13.359a.148.148 0 0 1-.039.049h.059a2.556 2.556 0 0 1 .308 0h.289a1.441 1.441 0 0 1 .312.023 4.957 4.957 0 0 1 .832.148 1.04 1.04 0 0 1 .171.026 1.575 1.575 0 0 1 .329.089.712.712 0 0 1 .187.112s-.069-.093-.141-.188c0 0 0-.023-.046-.066a1.605 1.605 0 0 1-.131-.15 2.694 2.694 0 0 0-.23-.207 1.617 1.617 0 0 0-.289-.136 1.759 1.759 0 0 0-.689-.1 1.686 1.686 0 0 0-.37.072 1.407 1.407 0 0 0-.299.128 1.847 1.847 0 0 0-.192.141ZM26.806 17.501l.026.02c.1.036.328.128.4-.22a.249.249 0 0 0 0-.046 2.237 2.237 0 0 0-.61-.678 2.146 2.146 0 0 0-1.811-.326 2.218 2.218 0 0 0-1.414 1.172 3.031 3.031 0 0 0-.282.869 2.175 2.175 0 0 0 .465 1.772l.056.069.044.044.092.1a2.526 2.526 0 0 0 .2.177 2.428 2.428 0 0 0 .413.239 2.9 2.9 0 0 0 .846.236c.456.056.594 0 .554-.049a2.156 2.156 0 0 0-.5-.217 5.065 5.065 0 0 1-.551-.256 2.447 2.447 0 0 1-.5-.371c-.052-.046-.1-.1-.154-.148a2.106 2.106 0 0 1-.171-.2 1.749 1.749 0 0 1-.3-.656 2.218 2.218 0 0 1 .251-1.432 1.693 1.693 0 0 1 1.1-.879 1.64 1.64 0 0 1 1.373.262 1.68 1.68 0 0 1 .472.518Z" fill="#081f4d"/><path data-name="Path" d="M25.936 18.995a.4.4 0 0 0-.062-.111.131.131 0 0 0-.19 0 .1.1 0 0 0-.036.046.328.328 0 0 0 .03.223.348.348 0 0 0 .147.142.289.289 0 0 0 .157.036.381.381 0 0 0 .141-.036.43.43 0 0 0 .21-.371.633.633 0 0 0-.088-.329.833.833 0 0 0-.441-.351.9.9 0 0 0-.222-.049.951.951 0 0 0-.135.026.984.984 0 0 0-.223.1c-.213.133-.105.228.033.274a1.483 1.483 0 0 0 .147.04.768.768 0 0 1 .135.049.718.718 0 0 1 .118.026.328.328 0 0 1 .164.135c.023.026 0 .05.033.072-.03 0 0 0 .039.016a.171.171 0 0 1 .066.053.364.364 0 0 0 0 .043c0-.02.023-.023 0-.02a.089.089 0 0 1-.023-.014ZM39.289 29.686s-.016 0-.023.026c-.062.108-.135.328.19.417h.046l.374-.187.361-.21a9.314 9.314 0 0 0 4.448-7.365 20.134 20.134 0 0 0-.373-4.387c-.115-.715-.23-1.43-.312-2.142l-.056-.561-.177-1.25c-.082-.883-.2-.545-.272.016 0-.03-.023.305-.039.656v.692l.023.236v.259l.033.27c.089.715.207 1.421.328 2.126a18.609 18.609 0 0 1 .327 4.204 8.829 8.829 0 0 1-4.173 6.83l-.328.2ZM26.081 21.081a.033.033 0 0 0 0-.03c-.079-.101-.269-.246-.462.027a.089.089 0 0 0 0 .043l.062.814c.071.806.147 1.613.238 2.417s.184 1.6.23 2.4a14.891 14.891 0 0 1-.036 2.387c-.039.4-.079.794-.138 1.191l-.036.275-.036.233s-.062.745-.084 1.273c-.056.892.115.564.269.03 0 .03.085-.292.161-.623l.15-.657.082-.594c.056-.4.1-.8.131-1.2a16.036 16.036 0 0 0 .023-2.415c-.053-.801-.148-1.591-.233-2.382s-.164-1.575-.23-2.366Z" fill="#081f4d"/><path data-name="Path" d="M39.667 30.057v-.019a.453.453 0 0 0-.244-.394h-.018s-.108.066-.266.151a5.479 5.479 0 0 1-.591.262 5.554 5.554 0 0 1-.905.237s-.3.1-.509.2c-.361.148-.2.239.043.269a1.535 1.535 0 0 0 .279 0h.3a5.853 5.853 0 0 0 .986-.253 5.315 5.315 0 0 0 .656-.285 2.574 2.574 0 0 0 .269-.168Z" fill="#081f4d"/><path data-name="Path" d="M58.678 208.092a.046.046 0 0 0-.018-.03c-.085-.1-.282-.23-.456.056a.108.108 0 0 0 0 .039s.043.328.1.748l.889 6.562c.2 1.391.328 2.831.689 4.295a8.773 8.773 0 0 0 .82 2.139 6.824 6.824 0 0 0 1.5 1.808 14.435 14.435 0 0 0 1.906 1.368l2 1.217 4.065 2.47a4.029 4.029 0 0 1 1.617 1.549 1.968 1.968 0 0 1 .187 1.043 1.263 1.263 0 0 1-.482.869 4.445 4.445 0 0 1-2.185.6c-.4.056-.8.089-1.2.115s-.8.046-1.2.056a74.077 74.077 0 0 1-9.623-.656c-1.588-.161-3.173-.3-4.744-.351-.39-.02-.784-.023-1.175-.023h-1.161a6.04 6.04 0 0 1-2.172-.289 2.3 2.3 0 0 1-1.395-1.41 5.489 5.489 0 0 1-.23-2.09c.036-.715.1-1.444.148-2.155s.079-1.421.1-2.116a77.09 77.09 0 0 0-.118-7.851 73.605 73.605 0 0 0-.3-3.475c-.065-.551-.125-1.089-.197-1.608a53.031 53.031 0 0 1-.118-.863 1.717 1.717 0 0 0-.033-.223c-.02-.125-.03-.2-.03-.2s-.16-.731-.327-1.237c-.25-.863-.299-.492-.266.063 0-.03.02.3.052.633l.059.679a.939.939 0 0 0 .03.194l.112.81a77.019 77.019 0 0 1 .469 16.236 13.914 13.914 0 0 0-.066 2.173 3.556 3.556 0 0 0 .814 2.152 2.844 2.844 0 0 0 .984.7 4.377 4.377 0 0 0 1.142.3 16.85 16.85 0 0 0 2.3.069c.755 0 1.516.023 2.3.062 1.532.079 3.081.233 4.646.4a61.532 61.532 0 0 0 9.56.541l1.207-.089 1.2-.144a4.885 4.885 0 0 0 1.22-.328 1.968 1.968 0 0 0 1-.886 2.05 2.05 0 0 0 .154-1.312 2.677 2.677 0 0 0-.558-1.171 7.027 7.027 0 0 0-1.942-1.493l-4.019-2.428a21.413 21.413 0 0 1-3.722-2.573 6.112 6.112 0 0 1-1.257-1.742 9.455 9.455 0 0 1-.656-2.031c-.154-.7-.256-1.4-.351-2.11l-.282-2.087-.846-6.25c-.1-.417-.125-.709-.141-.725Z" fill="#191919"/><path data-name="Path" d="M59.222 215.376c.026-.052.092-.1 0-.016h-.016l-.328.256c-.6.489-1.2.965-1.827 1.417l-.184.135s-.289.236-.505.387a1.246 1.246 0 0 1-.223.144c.02-.01.125-.059.249-.115 0 0 .141-.059.3-.131s.308-.148.308-.148l.171-.1a7.483 7.483 0 0 0 1.8-1.5 3.513 3.513 0 0 0 .255-.329Z" fill="#191919"/><path data-name="Path" d="M56.881 214.998c-.056-.02-.1-.082 0 0l.285.3a35.591 35.591 0 0 1 1.553 1.672l.148.171s.259.272.427.476a1.9 1.9 0 0 1 .157.213 2.423 2.423 0 0 0-.132-.243s-.069-.135-.151-.282-.174-.3-.174-.3l-.115-.163a7.05 7.05 0 0 0-1.641-1.64 3.47 3.47 0 0 1-.357-.204ZM60.063 219.969c0-.056.059-.118 0 0a5.466 5.466 0 0 1-.233.333 14.2 14.2 0 0 1-1.309 1.636l-.155.164s-.242.285-.436.466a2.625 2.625 0 0 1-.2.174 2.555 2.555 0 0 0 .236-.148s.131-.075.269-.174l.282-.2.151-.131a5.138 5.138 0 0 0 1.262-1.72c.039-.135.079-.259.135-.4Z" fill="#191919"/><path data-name="Path" d="M57.954 220.383c-.056 0-.121-.052 0 .02h.016l.328.217a18.055 18.055 0 0 1 1.555 1.063l.18.138s.305.21.512.377a1.588 1.588 0 0 1 .194.18 1.732 1.732 0 0 1-.171-.213s-.092-.121-.2-.253-.226-.259-.226-.259l-.148-.138a5.249 5.249 0 0 0-1.64-1.013ZM62.113 223.598c0-.056.02-.131-.02 0v.02c-.036.131-.075.262-.113.393-.166.624-.3 1.25-.425 1.88l-.039.223s-.036.289-.082.637c-.039.22-.059.282-.052.259s.046-.128.1-.256c0 0 .056-.141.115-.3s.116-.329.116-.329l.056-.187a9.9 9.9 0 0 0 .327-1.913c.01-.152.014-.289.017-.427Z" fill="#191919"/><path data-name="Path" d="M61.129 224.74c-.056 0-.121-.049 0 0 .118.069.242.128.364.19a6.867 6.867 0 0 0 1.473.509 7.684 7.684 0 0 0 .768.138c.131.02.259.033.39.039l.249.016h.909a1.464 1.464 0 0 1-.272-.026l-.328-.052-.328-.066-.256-.043-.371-.065a26.73 26.73 0 0 1-2.201-.519ZM50.785 210.695c.049.026.112.075 0 0h-.017a.558.558 0 0 0-.403-.062.886.886 0 0 0-.6.459 1.493 1.493 0 0 0-.121.761c.052.512.177.984.256 1.483q.274 1.473.491 2.953c.151.984.279 1.968.394 2.953l.2 1.791s.049.371.072.633c.039.443.016.266 0 0v-1.109c-.02-.489-.052-.984-.089-1.47-.082-.984-.197-1.968-.333-2.93s-.326-1.938-.526-2.9c-.092-.482-.24-.961-.305-1.43a1.312 1.312 0 0 1 .075-.692.814.814 0 0 1 .515-.447.545.545 0 0 1 .39.007ZM51.211 223.063c.026 0 .049 0 0-.023a.53.53 0 0 1-.124-.092l-.253-.164c-.18-.112-.367-.217-.367-.217s-.138-.049-.237-.098a.305.305 0 0 1-.085-.059s.03.046.059.1a1.932 1.932 0 0 0 .148.228 1.214 1.214 0 0 0 .38.259 1.148 1.148 0 0 0 .328.076.787.787 0 0 0 .151-.01ZM-22.728 198.582a.043.043 0 0 0 0-.033c0-.131-.056-.361-.377-.266l-.036.02s-.177.262-.427.623l-3.735 5.479c-.778 1.171-1.64 2.326-2.359 3.655a8.625 8.625 0 0 0-.82 2.139 6.85 6.85 0 0 0-.1 2.342 14.294 14.294 0 0 0 .505 2.3l.676 2.247q.686 2.254 1.381 4.554a4.066 4.066 0 0 1 .167 2.231 1.969 1.969 0 0 1-.561.9 1.25 1.25 0 0 1-.938.328 4.422 4.422 0 0 1-2.028-1.014c-.328-.223-.656-.469-.984-.718s-.63-.5-.935-.764a75.029 75.029 0 0 1-6.719-6.913c-1.076-1.184-2.159-2.346-3.281-3.435-.279-.276-.568-.541-.86-.8s-.581-.522-.866-.774a6.138 6.138 0 0 1-1.424-1.67 2.3 2.3 0 0 1-.092-1.968 5.5 5.5 0 0 1 1.238-1.711c.505-.505 1.043-1 1.552-1.5s1.007-1 1.493-1.506q2.722-2.824 5.155-5.908a88.293 88.293 0 0 0 2.1-2.789c.328-.453.633-.892.928-1.312l.489-.722.125-.19.108-.164s.374-.656.591-1.138c.394-.807.108-.561-.239-.131a6.146 6.146 0 0 0-.384.509l-.41.545-.108.161c-.125.19-.279.42-.456.682-1.089 1.6-2.382 3.36-3.884 5.207s-3.218 3.783-5.141 5.722c-.486.486-.984.984-1.486 1.453a14.245 14.245 0 0 0-1.5 1.571 3.553 3.553 0 0 0-.833 2.144 2.825 2.825 0 0 0 .262 1.171 4.386 4.386 0 0 0 .656.984 17.962 17.962 0 0 0 1.66 1.588 31.49 31.49 0 0 1 1.64 1.568c1.086 1.086 2.136 2.234 3.186 3.4a61.921 61.921 0 0 0 6.749 6.795l.958.741.984.7a4.888 4.888 0 0 0 1.119.584 1.968 1.968 0 0 0 1.339 0 2.031 2.031 0 0 0 .984-.883 2.694 2.694 0 0 0 .367-1.247 7.07 7.07 0 0 0-.443-2.408l-1.365-4.491a21.228 21.228 0 0 1-1.056-4.4 6.142 6.142 0 0 1 .233-2.136 9.288 9.288 0 0 1 .856-1.968c.351-.623.748-1.217 1.148-1.8l1.184-1.742c1.257-1.844 2.451-3.609 3.553-5.213.285-.371.453-.614.459-.627Z" fill="#191919"/><path data-name="Path" d="M-30.543 212.423c.03-.052.1-.085 0-.02h-.018a9.44 9.44 0 0 0-.348.217c-.543.347-1.061.725-1.573 1.116l-.179.137-.486.417a1.9 1.9 0 0 1-.214.157c.02 0 .118-.066.243-.128l.289-.144.305-.161.163-.101a9.59 9.59 0 0 0 1.533-1.191c.1-.115.2-.213.285-.3Z" fill="#191919"/><path data-name="Path" d="M-32.035 212.598c-.035-.042-.056-.118 0 0v.02c.043.131.1.256.144.384a7.011 7.011 0 0 0 .755 1.365 7.218 7.218 0 0 0 .479.617c.085.1.174.2.262.289l.177.177.167.144.328.269c.174.141.22.187.2.171s-.1-.1-.184-.2l-.2-.249-.207-.272-.161-.2-.23-.3c-.154-.2-.305-.4-.449-.6a45.88 45.88 0 0 1-.838-1.26Z" fill="#191919"/></g></g></g></g></svg>