<svg xmlns="http://www.w3.org/2000/svg" width="180" height="126"><defs><clipPath id="b"><path data-name="Rectangle 7801" fill="#fff" stroke="#f0f2f6" d="M0 0h177.383v119.907H0z"/></clipPath><clipPath id="a"><path d="M0 0h180v126H0z"/></clipPath><linearGradient id="c" x1=".5" x2=".5" y2="1" gradientUnits="objectBoundingBox"><stop offset="0" stop-color="#fff"/><stop offset="1" stop-color="#fff" stop-opacity="0"/></linearGradient></defs><g clip-path="url(#a)"><path fill="#fff" d="M0 0h180v126H0z"/><g data-name="Groupe 23125"><g data-name="Groupe de masques 53" transform="translate(1.309 3.094)" opacity=".5" clip-path="url(#b)"><g data-name="Groupe 22311" transform="translate(9.547 -7.22)"><path data-name="Tracé 22501" d="M3.31 105.211V3.353h152.243v101.858zm88.06-62.073h4.949v-.845a.058.058 0 00-.059-.057h-.463v-.713a.023.023 0 00-.022-.021h-3.861a.023.023 0 00-.022.021v.713h-.463a.058.058 0 00-.059.057z" fill="#fff" fill-rule="evenodd"/><path data-name="Rectangle 7705" fill="#fff" d="M71.994 65.181h29.229v40.036H71.994z"/><path data-name="Tracé 22502" d="M71.995 105.406h29.229a.189.189 0 00.189-.189V65.181a.189.189 0 00-.189-.189H71.995a.189.189 0 00-.189.189v40.036a.189.189 0 00.189.189zm29.036-.377H72.183v-39.66h28.847z" fill="#c1c7d2" fill-rule="evenodd"/><path data-name="Rectangle 7706" fill="#fff" d="M71.201 63.136h30.823v2.045H71.201z"/><path data-name="Tracé 22503" d="M71.202 65.369h30.823a.188.188 0 00.189-.189v-2.045a.188.188 0 00-.189-.189H71.202a.189.189 0 00-.189.189v2.045a.189.189 0 00.189.189zm30.634-.377H71.39v-1.667h30.446z" fill="#c1c7d2" fill-rule="evenodd"/><path data-name="Tracé 22504" d="M75.313 67.647h2.138a.312.312 0 01.312.312v4.86h-2.766v-4.86a.312.312 0 01.317-.312z" fill="#fff"/><path data-name="Tracé 22505" d="M75.004 73.008h2.766a.189.189 0 00.189-.189v-4.86a.5.5 0 00-.5-.5h-2.138a.5.5 0 00-.5.5v4.86a.189.189 0 00.183.189zm2.578-.377h-2.393v-4.672a.126.126 0 01.126-.126h2.138a.126.126 0 01.125.126z" fill="#c1c7d2" fill-rule="evenodd"/><path data-name="Tracé 22506" d="M78.324 73.007h-3.938a.189.189 0 110-.377h3.938a.189.189 0 010 .377z" fill="#c1c7d2"/><path data-name="Tracé 22507" d="M82.03 67.647h2.138a.312.312 0 01.312.312v4.86h-2.767v-4.86a.312.312 0 01.317-.312z" fill="#fff"/><path data-name="Tracé 22508" d="M81.718 73.008h2.766a.189.189 0 00.189-.189v-4.86a.5.5 0 00-.5-.5h-2.138a.5.5 0 00-.5.5v4.86a.189.189 0 00.183.189zm2.578-.377h-2.389v-4.672a.126.126 0 01.126-.126h2.138a.126.126 0 01.126.126z" fill="#c1c7d2" fill-rule="evenodd"/><path data-name="Tracé 22509" d="M85.041 73.007h-3.938a.189.189 0 010-.377h3.94a.189.189 0 010 .377z" fill="#c1c7d2"/><path data-name="Tracé 22510" d="M88.993 67.647h2.138a.312.312 0 01.312.312v4.86h-2.767v-4.86a.312.312 0 01.312-.312z" fill="#fff"/><path data-name="Tracé 22511" d="M88.683 73.008h2.767a.189.189 0 00.189-.189v-4.86a.5.5 0 00-.5-.5h-2.138a.5.5 0 00-.5.5v4.86a.189.189 0 00.182.189zm2.578-.377h-2.389v-4.672a.126.126 0 01.126-.126h2.138a.126.126 0 01.126.126z" fill="#c1c7d2" fill-rule="evenodd"/><path data-name="Tracé 22512" d="M92.006 73.007h-3.938a.189.189 0 010-.377h3.938a.189.189 0 010 .377z" fill="#c1c7d2"/><path data-name="Tracé 22513" d="M95.708 67.647h2.137a.312.312 0 01.312.312v4.86h-2.766v-4.86a.312.312 0 01.317-.312z" fill="#fff"/><path data-name="Tracé 22514" d="M95.397 73.008h2.766a.189.189 0 00.189-.189v-4.86a.5.5 0 00-.5-.5h-2.141a.5.5 0 00-.5.5v4.86a.189.189 0 00.186.189zm2.578-.377h-2.389v-4.672a.126.126 0 01.126-.126h2.138a.126.126 0 01.126.126z" fill="#c1c7d2" fill-rule="evenodd"/><path data-name="Tracé 22515" d="M98.719 73.007h-3.94a.189.189 0 110-.377h3.94a.189.189 0 110 .377z" fill="#c1c7d2"/><path data-name="Tracé 22516" d="M75.313 80.126h2.138a.312.312 0 01.312.312v4.863h-2.766v-4.86a.312.312 0 01.312-.312z" fill="#fff"/><path data-name="Tracé 22517" d="M75.004 85.487h2.766a.189.189 0 00.189-.189v-4.86a.5.5 0 00-.5-.5h-2.138a.5.5 0 00-.5.5v4.86a.189.189 0 00.183.189zm2.578-.377h-2.393v-4.672a.126.126 0 01.126-.126h2.138a.126.126 0 01.125.126z" fill="#c1c7d2" fill-rule="evenodd"/><path data-name="Tracé 22518" d="M78.324 85.487h-3.938a.189.189 0 110-.377h3.938a.189.189 0 110 .377z" fill="#c1c7d2"/><path data-name="Tracé 22519" d="M82.031 80.126h2.138a.312.312 0 01.312.312v4.863h-2.767v-4.86a.312.312 0 01.317-.314z" fill="#fff"/><path data-name="Tracé 22520" d="M81.718 85.487h2.766a.189.189 0 00.189-.189v-4.86a.5.5 0 00-.5-.5h-2.138a.5.5 0 00-.5.5v4.86a.189.189 0 00.183.189zm2.575-.382h-2.389v-4.672a.126.126 0 01.126-.126h2.138a.126.126 0 01.126.126z" fill="#c1c7d2" fill-rule="evenodd"/><path data-name="Tracé 22521" d="M85.041 85.487h-3.938a.189.189 0 110-.377h3.94a.189.189 0 110 .377z" fill="#c1c7d2"/><path data-name="Tracé 22522" d="M88.993 80.126h2.138a.312.312 0 01.312.312v4.863h-2.767v-4.86a.312.312 0 01.312-.312z" fill="#fff"/><path data-name="Tracé 22523" d="M88.683 85.487h2.767a.189.189 0 00.189-.189v-4.86a.5.5 0 00-.5-.5h-2.138a.5.5 0 00-.5.5v4.86a.189.189 0 00.182.189zm2.578-.377h-2.389v-4.672a.126.126 0 01.126-.126h2.138a.126.126 0 01.126.126z" fill="#c1c7d2" fill-rule="evenodd"/><path data-name="Tracé 22524" d="M92.006 85.487h-3.938a.189.189 0 010-.377h3.938a.189.189 0 110 .377z" fill="#c1c7d2"/><path data-name="Tracé 22525" d="M95.708 80.126h2.137a.312.312 0 01.312.312v4.863h-2.766v-4.86a.312.312 0 01.312-.312z" fill="#fff"/><path data-name="Tracé 22526" d="M95.397 85.487h2.766a.189.189 0 00.189-.189v-4.86a.5.5 0 00-.5-.5h-2.141a.5.5 0 00-.5.5v4.86a.188.188 0 00.186.189zm2.578-.377h-2.389v-4.672a.126.126 0 01.126-.126h2.138a.126.126 0 01.126.126z" fill="#c1c7d2" fill-rule="evenodd"/><path data-name="Tracé 22527" d="M98.719 85.487h-3.94a.189.189 0 110-.377h3.94a.189.189 0 110 .377z" fill="#c1c7d2"/><path data-name="Rectangle 7707" fill="#fff" d="M71.201 75.585h30.823v2.045H71.201z"/><path data-name="Tracé 22528" d="M71.202 77.819h30.823a.188.188 0 00.189-.188v-2.045a.189.189 0 00-.189-.189H71.202a.189.189 0 00-.189.189v2.045a.189.189 0 00.189.188zm30.634-.377H71.39v-1.667h30.446z" fill="#c1c7d2" fill-rule="evenodd"/><path data-name="Rectangle 7708" fill="#fff" d="M71.201 87.704h30.823v2.045H71.201z"/><path data-name="Tracé 22529" d="M71.202 89.932h30.823a.188.188 0 00.189-.189v-2.045a.189.189 0 00-.189-.189H71.202a.189.189 0 00-.189.189v2.042a.189.189 0 00.189.192zm30.634-.377H71.39v-1.667h30.446z" fill="#c1c7d2" fill-rule="evenodd"/><path data-name="Tracé 22530" d="M76.826 92.362h2.046a.3.3 0 01.3.3v4.64h-2.641v-4.64a.3.3 0 01.3-.3z" fill="#fff"/><path data-name="Tracé 22531" d="M76.53 97.488h2.641a.188.188 0 00.19-.188v-4.64a.487.487 0 00-.487-.487h-2.046a.487.487 0 00-.487.487v4.64a.189.189 0 00.189.188zm2.451-.377h-2.266v-4.452a.11.11 0 01.109-.109h2.046a.11.11 0 01.109.109z" fill="#c1c7d2" fill-rule="evenodd"/><path data-name="Tracé 22532" d="M79.699 97.491h-3.761a.189.189 0 010-.377h3.761a.189.189 0 010 .377z" fill="#c1c7d2"/><path data-name="Tracé 22533" d="M83.236 92.362h2.046a.3.3 0 01.3.3v4.64h-2.641v-4.64a.3.3 0 01.3-.3z" fill="#fff"/><path data-name="Tracé 22534" d="M82.935 97.488h2.641a.188.188 0 00.19-.188v-4.64a.487.487 0 00-.487-.487h-2.044a.487.487 0 00-.487.487v4.64a.189.189 0 00.187.188zm2.451-.377h-2.264v-4.452a.11.11 0 01.109-.109h2.046a.11.11 0 01.109.109z" fill="#c1c7d2" fill-rule="evenodd"/><path data-name="Tracé 22535" d="M86.112 97.491h-3.761a.189.189 0 110-.377h3.761a.189.189 0 110 .377z" fill="#c1c7d2"/><path data-name="Tracé 22536" d="M91.185 100.101H71.759a.189.189 0 110-.377h19.426a.189.189 0 110 .377z" fill="#c1c7d2"/><path data-name="Tracé 22537" d="M91.76 91.402h7.7a.041.041 0 01.042.042v13.766h-7.789V91.445a.042.042 0 01.043-.043z" fill="#fff"/><path data-name="Tracé 22538" d="M91.72 105.399h7.784a.188.188 0 00.187-.189V91.441a.23.23 0 00-.229-.23h-7.7a.23.23 0 00-.23.23v13.77a.189.189 0 00.188.188zm7.6-.377h-7.416V91.591h7.41z" fill="#c1c7d2" fill-rule="evenodd"/><path data-name="Rectangle 7709" fill="#fff" d="M93.283 93.056h4.601v10.104h-4.601z"/><path data-name="Tracé 22539" d="M93.285 103.348h4.6a.189.189 0 00.189-.189v-10.1a.189.189 0 00-.189-.189h-4.6a.189.189 0 00-.189.189v10.1a.189.189 0 00.189.189zm4.413-.377h-4.224v-9.727h4.224z" fill="#c1c7d2" fill-rule="evenodd"/><path data-name="Tracé 22540" d="M99.504 103.35h-7.788a.189.189 0 110-.377h7.788a.189.189 0 010 .377z" fill="#c1c7d2"/><path data-name="Rectangle 7710" fill="#fff" d="M76.08 102.498h9.834v2.719H76.08z"/><path data-name="Tracé 22541" d="M76.079 105.406h9.834a.189.189 0 00.189-.189v-2.719a.188.188 0 00-.189-.189h-9.834a.189.189 0 00-.188.189v2.719a.189.189 0 00.188.189zm9.645-.377h-9.456v-2.341h9.456z" fill="#c1c7d2" fill-rule="evenodd"/><path data-name="Tracé 22542" d="M84.017 104.31h-6.008a.189.189 0 110-.377h6.013a.189.189 0 010 .377z" fill="#c1c7d2"/><path data-name="Rectangle 7711" fill="#fff" d="M29.629 64.689h35.947v40.521H29.629z"/><path data-name="Tracé 22543" d="M29.624 105.4h35.945a.189.189 0 00.189-.189V64.69a.189.189 0 00-.189-.189H29.624a.189.189 0 00-.189.189v40.521a.189.189 0 00.189.189zm35.758-.377h-35.57V64.878h35.57z" fill="#c1c7d2" fill-rule="evenodd"/><path data-name="Rectangle 7712" fill="#fff" d="M28.616 72.655h37.921v2.247H28.616z"/><path data-name="Tracé 22544" d="M28.611 75.093h37.92a.189.189 0 00.189-.193v-2.247a.189.189 0 00-.189-.189h-37.92a.188.188 0 00-.189.189v2.251a.189.189 0 00.189.189zm37.731-.378H28.799v-1.874h37.543z" fill="#c1c7d2" fill-rule="evenodd"/><path data-name="Rectangle 7713" fill="#fff" d="M33.838 66.868h1.838v3.268h-1.838z"/><path data-name="Tracé 22545" d="M33.834 70.324h1.838a.189.189 0 00.189-.189v-3.27a.189.189 0 00-.189-.189h-1.838a.189.189 0 00-.189.189v3.27a.188.188 0 00.189.189zm1.65-.377h-1.461v-2.892h1.461z" fill="#c1c7d2" fill-rule="evenodd"/><path data-name="Rectangle 7714" fill="#fff" d="M39.033 66.868h1.838v3.268h-1.838z"/><path data-name="Tracé 22546" d="M39.03 70.324h1.838a.189.189 0 00.189-.189v-3.27a.189.189 0 00-.189-.189H39.03a.189.189 0 00-.189.189v3.27a.188.188 0 00.189.189zm1.65-.377h-1.466v-2.892h1.461z" fill="#c1c7d2" fill-rule="evenodd"/><path data-name="Rectangle 7715" fill="#fff" d="M44.192 66.868h1.838v3.268h-1.838z"/><path data-name="Tracé 22547" d="M44.189 70.324h1.839a.189.189 0 00.189-.189v-3.27a.189.189 0 00-.189-.189h-1.839a.189.189 0 00-.189.189v3.27a.189.189 0 00.189.189zm1.65-.377h-1.461v-2.892h1.461z" fill="#c1c7d2" fill-rule="evenodd"/><path data-name="Rectangle 7716" fill="#fff" d="M49.67 66.868h1.838v3.268H49.67z"/><path data-name="Tracé 22548" d="M49.668 70.324h1.838a.189.189 0 00.189-.189v-3.27a.189.189 0 00-.189-.189h-1.838a.189.189 0 00-.189.189v3.27a.189.189 0 00.189.189zm1.65-.377h-1.461v-2.892h1.461z" fill="#c1c7d2" fill-rule="evenodd"/><path data-name="Rectangle 7717" fill="#fff" d="M54.865 66.868h1.838v3.268h-1.838z"/><path data-name="Tracé 22549" d="M54.867 70.324h1.839a.189.189 0 00.189-.189v-3.27a.189.189 0 00-.189-.189h-1.839a.189.189 0 00-.189.189v3.27a.189.189 0 00.189.189zm1.65-.377h-1.466v-2.892h1.461z" fill="#c1c7d2" fill-rule="evenodd"/><path data-name="Rectangle 7718" fill="#fff" d="M60.026 66.868h1.838v3.268h-1.838z"/><path data-name="Tracé 22550" d="M60.023 70.324h1.839a.189.189 0 00.189-.189v-3.27a.189.189 0 00-.189-.189h-1.839a.189.189 0 00-.189.189v3.27a.189.189 0 00.189.189zm1.651-.377h-1.462v-2.892h1.461z" fill="#c1c7d2" fill-rule="evenodd"/><path data-name="Rectangle 7719" fill="#fff" d="M28.545 62.511h37.921v2.178H28.545z"/><path data-name="Tracé 22551" d="M28.54 64.878h37.92a.189.189 0 00.189-.189v-2.177a.189.189 0 00-.189-.189H28.54a.188.188 0 00-.189.189v2.178a.189.189 0 00.189.188zm37.731-.377H28.728v-1.8h37.543z" fill="#c1c7d2" fill-rule="evenodd"/><path data-name="Tracé 22552" d="M43.265 62.511v-2.2a.26.26 0 01.26-.26h1.909a.284.284 0 00.284-.284v-2.956a.221.221 0 01.221-.221h3.847a.221.221 0 01.221.221v1.923l3.252.03a.36.36 0 01.348.361v3.389z" fill="#fff"/><path data-name="Tracé 22553" d="M43.254 62.7h10.348a.189.189 0 00.2-.189v-3.389a.55.55 0 00-.542-.548l-3.066-.029V56.81a.41.41 0 00-.41-.41h-3.847a.41.41 0 00-.41.41v2.956a.1.1 0 01-.1.1h-1.914a.449.449 0 00-.449.449v2.2a.189.189 0 00.19.185zm10.159-.377h-9.971l.005-2.012a.072.072 0 01.072-.072h1.906a.474.474 0 00.473-.473V56.81a.033.033 0 01.033-.033h3.842a.033.033 0 01.033.033v1.92a.189.189 0 00.187.189l3.252.03a.171.171 0 01.169.171z" fill="#c1c7d2" fill-rule="evenodd"/><path data-name="Rectangle 7720" fill="#fff" d="M56.303 60.979h3.608v1.532h-3.608z"/><path data-name="Tracé 22554" d="M56.302 62.701h3.608a.189.189 0 00.189-.189V60.98a.189.189 0 00-.189-.189h-3.608a.189.189 0 00-.188.189v1.532a.189.189 0 00.188.189zm3.419-.377h-3.234V61.17h3.231z" fill="#c1c7d2" fill-rule="evenodd"/><path data-name="Tracé 22555" d="M28.413 76.161h5.226a1.1 1.1 0 00.361-.06l7.784-2.641a.546.546 0 01.353 0l7.732 2.655a.8.8 0 00.251.043h4.924a.252.252 0 01.252.251v1.871a.252.252 0 01-.252.251H28.413a.341.341 0 01-.341-.341v-1.7a.339.339 0 01.341-.329z" fill="#fff"/><path data-name="Tracé 22556" d="M28.408 78.734h26.636a.445.445 0 00.444-.449v-1.871a.445.445 0 00-.444-.444H50.12a.591.591 0 01-.194-.033l-7.732-2.655a.742.742 0 00-.475 0l-7.784 2.641a.936.936 0 01-.3.05h-5.226a.529.529 0 00-.529.528v1.7a.53.53 0 00.528.533zm-.152-2.231a.152.152 0 01.152-.151h5.226a1.309 1.309 0 00.422-.07l7.783-2.641a.364.364 0 01.231 0l7.734 2.655a.967.967 0 00.316.053h4.924a.067.067 0 01.067.067v1.871a.068.068 0 01-.067.068H28.408a.152.152 0 01-.152-.152z" fill="#c1c7d2" fill-rule="evenodd"/><path data-name="Rectangle 7721" fill="#fff" d="M32.436 80.451h3.336v1.701h-3.336z"/><path data-name="Tracé 22557" d="M32.428 82.341h3.336a.189.189 0 00.189-.189v-1.7a.188.188 0 00-.189-.188h-3.336a.189.189 0 00-.189.188v1.7a.189.189 0 00.189.189zm3.151-.377h-2.951v-1.323h2.959z" fill="#c1c7d2" fill-rule="evenodd"/><path data-name="Rectangle 7722" fill="#fff" d="M33.237 82.152h1.737v9.702h-1.737z"/><path data-name="Tracé 22558" d="M33.233 92.042h1.735a.189.189 0 00.189-.189v-9.7a.189.189 0 00-.189-.189h-1.735a.189.189 0 00-.189.189v9.7a.189.189 0 00.189.189zm1.548-.377h-1.359v-9.324h1.358z" fill="#c1c7d2" fill-rule="evenodd"/><path data-name="Tracé 22559" d="M35.769 92.042h-3.341a.189.189 0 010-.377h3.336a.189.189 0 110 .377z" fill="#c1c7d2"/><path data-name="Rectangle 7723" fill="#fff" d="M48.133 80.451h3.336v1.701h-3.336z"/><path data-name="Tracé 22560" d="M48.131 82.341h3.336a.189.189 0 00.189-.189v-1.7a.188.188 0 00-.189-.188h-3.336a.189.189 0 00-.189.188v1.7a.189.189 0 00.189.189zm3.151-.377h-2.959v-1.323h2.959z" fill="#c1c7d2" fill-rule="evenodd"/><path data-name="Rectangle 7724" fill="#fff" d="M48.928 82.152h1.737v9.702h-1.737z"/><path data-name="Tracé 22561" d="M48.924 92.042h1.737a.189.189 0 00.189-.189v-9.7a.189.189 0 00-.189-.189h-1.737a.189.189 0 00-.189.189v9.7a.189.189 0 00.189.189zm1.548-.377h-1.359v-9.324h1.359z" fill="#c1c7d2" fill-rule="evenodd"/><path data-name="Tracé 22562" d="M51.467 92.042h-3.336a.189.189 0 110-.377h3.336a.189.189 0 010 .377z" fill="#c1c7d2"/><path data-name="Rectangle 7725" fill="#fff" d="M39.262 80.451h5.344v1.701h-5.344z"/><path data-name="Tracé 22563" d="M39.253 82.341h5.344a.189.189 0 00.189-.189v-1.7a.188.188 0 00-.189-.188h-5.344a.189.189 0 00-.189.188v1.7a.189.189 0 00.189.189zm5.156-.377h-4.967v-1.323h4.967z" fill="#c1c7d2" fill-rule="evenodd"/><path data-name="Rectangle 7726" fill="#fff" d="M40.216 82.152h3.472v9.702h-3.472z"/><path data-name="Tracé 22564" d="M40.21 92.042h3.473a.189.189 0 00.187-.189v-9.7a.189.189 0 00-.189-.189h-3.472a.189.189 0 00-.189.189v9.7a.189.189 0 00.19.189zm3.285-.377H40.4v-9.324h3.095z" fill="#c1c7d2" fill-rule="evenodd"/><path data-name="Tracé 22565" d="M44.618 92.042H39.24a.189.189 0 010-.377h5.378a.189.189 0 110 .377z" fill="#c1c7d2"/><path data-name="Rectangle 7727" fill="#fff" d="M32.401 96.993h3.336v1.701h-3.336z"/><path data-name="Tracé 22566" d="M32.397 98.884h3.336a.188.188 0 00.189-.189v-1.7a.188.188 0 00-.189-.188h-3.336a.189.189 0 00-.189.188v1.7a.189.189 0 00.189.189zm3.151-.377h-2.959v-1.325h2.959z" fill="#c1c7d2" fill-rule="evenodd"/><path data-name="Rectangle 7728" fill="#fff" d="M33.202 98.696h1.737v6.515h-1.737z"/><path data-name="Tracé 22567" d="M33.196 105.399h1.737a.189.189 0 00.188-.189v-6.514a.189.189 0 00-.188-.189h-1.737a.189.189 0 00-.189.189v6.515a.19.19 0 00.189.188zm1.548-.377h-1.359v-6.136h1.359z" fill="#c1c7d2" fill-rule="evenodd"/><path data-name="Rectangle 7729" fill="#fff" d="M48.098 96.993h3.336v1.701h-3.336z"/><path data-name="Tracé 22568" d="M48.095 98.884h3.336a.189.189 0 00.189-.189v-1.7a.189.189 0 00-.189-.188h-3.336a.189.189 0 00-.189.188v1.7a.189.189 0 00.189.189zm3.151-.377h-2.959v-1.325h2.959z" fill="#c1c7d2" fill-rule="evenodd"/><path data-name="Rectangle 7730" fill="#fff" d="M48.892 98.696h1.737v6.521h-1.737z"/><path data-name="Tracé 22569" d="M48.889 105.406h1.737a.189.189 0 00.189-.189v-6.521a.189.189 0 00-.189-.189h-1.737a.189.189 0 00-.189.189v6.521a.189.189 0 00.189.189zm1.548-.377h-1.359v-6.143h1.359z" fill="#c1c7d2" fill-rule="evenodd"/><path data-name="Rectangle 7731" fill="#fff" d="M39.226 96.993h5.344v1.701h-5.344z"/><path data-name="Tracé 22570" d="M39.223 98.884h5.344a.188.188 0 00.189-.189v-1.7a.188.188 0 00-.189-.188h-5.344a.189.189 0 00-.189.188v1.7a.189.189 0 00.189.189zm5.156-.377h-4.967v-1.325h4.967z" fill="#c1c7d2" fill-rule="evenodd"/><path data-name="Rectangle 7732" fill="#fff" d="M40.179 98.696h3.472v6.515h-3.472z"/><path data-name="Tracé 22571" d="M40.176 105.399h3.472a.189.189 0 00.189-.189v-6.514a.189.189 0 00-.189-.189h-3.472a.189.189 0 00-.189.189v6.515a.189.189 0 00.189.188zm3.283-.377h-3.095v-6.136h3.095z" fill="#c1c7d2" fill-rule="evenodd"/><path data-name="Rectangle 7733" fill="#fff" d="M28.447 93.403h25.496v2.042H28.447z"/><path data-name="Tracé 22572" d="M28.443 95.634h25.5a.189.189 0 00.189-.189v-2.043a.188.188 0 00-.189-.189h-25.5a.189.189 0 00-.189.189v2.043a.189.189 0 00.189.189zm25.307-.377H28.631v-1.666h25.121z" fill="#c1c7d2" fill-rule="evenodd"/><path data-name="Tracé 22573" d="M54.693 105.4a.189.189 0 01-.189-.189V78.545a.189.189 0 11.377 0v26.667a.188.188 0 01-.188.188z" fill="#c1c7d2"/><path data-name="Rectangle 7734" fill="#fff" d="M58.419 75.989h4.391v1.704h-4.391z"/><path data-name="Tracé 22574" d="M58.418 77.881h4.391a.189.189 0 00.189-.189v-1.7a.189.189 0 00-.189-.189h-4.391a.189.189 0 00-.189.189v1.7a.189.189 0 00.189.189zm4.2-.377h-4.014v-1.327h4.014z" fill="#c1c7d2" fill-rule="evenodd"/><path data-name="Rectangle 7735" fill="#fff" d="M59.089 77.693h3.063v9.973h-3.063z"/><path data-name="Tracé 22575" d="M59.086 87.855h3.064a.189.189 0 00.189-.186v-9.976a.188.188 0 00-.189-.188h-3.064a.189.189 0 00-.189.188v9.973a.189.189 0 00.189.189zm2.876-.377h-2.687v-9.6h2.687z" fill="#c1c7d2" fill-rule="evenodd"/><path data-name="Tracé 22576" d="M62.907 87.855h-4.6a.189.189 0 110-.377h4.6a.189.189 0 010 .377z" fill="#c1c7d2"/><path data-name="Rectangle 7736" fill="#fff" d="M56.391 90.219h8.408v14.998h-8.408z"/><path data-name="Tracé 22577" d="M56.39 105.406h8.408a.189.189 0 00.189-.189v-15a.189.189 0 00-.189-.189H56.39a.189.189 0 00-.189.189v15a.189.189 0 00.189.189zm8.219-.377h-8.03V90.407h8.03z" fill="#c1c7d2" fill-rule="evenodd"/><path data-name="Rectangle 7737" fill="#fff" d="M57.992 91.854h5.446v11.692h-5.446z"/><path data-name="Tracé 22578" d="M57.99 103.734h5.446a.189.189 0 00.189-.189V91.851a.188.188 0 00-.189-.189H57.99a.189.189 0 00-.189.189v11.695a.189.189 0 00.189.188zm5.258-.377h-5.069V92.039h5.069z" fill="#c1c7d2" fill-rule="evenodd"/><path data-name="Tracé 22579" d="M64.797 105.555h-8.408a.189.189 0 110-.377h8.408a.189.189 0 110 .377z" fill="#c1c7d2"/><path data-name="Tracé 22580" d="M64.799 103.734h-8.3a.189.189 0 110-.377h8.3a.189.189 0 110 .377z" fill="#c1c7d2"/><path data-name="Tracé 22581" d="M12.35 68.954H7.886a.189.189 0 110-.377h4.464a.189.189 0 110 .377z" fill="#c1c7d2"/><path data-name="Tracé 22582" d="M13.471 68.954h-.5a.189.189 0 010-.377h.5a.189.189 0 110 .377z" fill="#c1c7d2"/><path data-name="Rectangle 7738" fill="#fff" d="M6.89 44.861h16.586v60.35H6.89z"/><path data-name="Tracé 22583" d="M6.889 105.399h16.584a.189.189 0 00.189-.189V44.862a.189.189 0 00-.189-.189H6.889a.189.189 0 00-.189.189v60.35a.188.188 0 00.189.187zm16.4-.377H7.073V45.049h16.209z" fill="#c1c7d2" fill-rule="evenodd"/><rect data-name="Rectangle 7739" width="18.587" height="1.915" rx=".958" transform="translate(5.889 42.946)" fill="#fff"/><path data-name="Tracé 22584" d="M6.104 45.05h18.153a.4.4 0 00.4-.4v-1.484a.4.4 0 00-.4-.4H6.104a.4.4 0 00-.4.4v1.484a.405.405 0 00.4.4zm-.022-1.908a.026.026 0 01.019-.008h18.156a.028.028 0 01.028.028v1.484a.028.028 0 01-.028.028H6.101a.027.027 0 01-.019-.008.027.027 0 01-.007-.019v-1.484a.027.027 0 01.007-.022z" fill="#c1c7d2" fill-rule="evenodd"/><path data-name="Rectangle 7740" fill="#fff" d="M10.187 64.587h2.823v5.825h-2.823z"/><path data-name="Tracé 22585" d="M10.187 70.6h2.823a.189.189 0 00.189-.189v-5.825a.189.189 0 00-.189-.189h-2.823a.189.189 0 00-.189.189v5.826a.189.189 0 00.189.188zm2.635-.377h-2.446v-5.449h2.446z" fill="#c1c7d2" fill-rule="evenodd"/><path data-name="Tracé 22586" d="M13.01 67.025h-2.823a.189.189 0 110-.377h2.823a.189.189 0 110 .377z" fill="#c1c7d2"/><path data-name="Rectangle 7741" fill="#fff" d="M17.355 64.587h2.823v5.825h-2.823z"/><path data-name="Tracé 22587" d="M17.355 70.6h2.823a.189.189 0 00.189-.189v-5.825a.189.189 0 00-.189-.189h-2.823a.189.189 0 00-.189.189v5.826a.189.189 0 00.189.188zm2.635-.377h-2.446v-5.449h2.446z" fill="#c1c7d2" fill-rule="evenodd"/><path data-name="Tracé 22588" d="M20.178 67.025h-2.823a.189.189 0 110-.377h2.823a.189.189 0 110 .377z" fill="#c1c7d2"/><path data-name="Rectangle 7742" fill="#fff" d="M10.167 73.275h2.823V79.1h-2.823z"/><path data-name="Tracé 22589" d="M10.174 79.288h2.817a.189.189 0 00.195-.189v-5.826a.189.189 0 00-.189-.189h-2.823a.189.189 0 00-.189.189v5.826a.189.189 0 00.189.189zm2.622-.377H10.35v-5.453h2.446z" fill="#c1c7d2" fill-rule="evenodd"/><path data-name="Tracé 22590" d="M12.99 75.715h-2.817a.189.189 0 110-.377h2.823a.189.189 0 110 .377z" fill="#c1c7d2"/><path data-name="Rectangle 7743" fill="#fff" d="M17.335 73.275h2.823V79.1h-2.823z"/><path data-name="Tracé 22591" d="M17.342 79.288h2.817a.189.189 0 00.195-.189v-5.826a.189.189 0 00-.189-.189h-2.823a.189.189 0 00-.189.189v5.826a.189.189 0 00.189.189zm2.622-.377h-2.446v-5.453h2.446z" fill="#c1c7d2" fill-rule="evenodd"/><path data-name="Tracé 22592" d="M20.158 75.715h-2.817a.189.189 0 110-.377h2.823a.189.189 0 110 .377z" fill="#c1c7d2"/><path data-name="Rectangle 7744" fill="#fff" d="M9.771 78.587h3.702v.79H9.771z"/><path data-name="Tracé 22593" d="M9.771 79.565h3.7a.189.189 0 00.189-.189v-.791a.188.188 0 00-.189-.189h-3.7a.189.189 0 00-.189.189v.791a.189.189 0 00.189.189zm3.514-.377H9.96v-.414h3.325z" fill="#c1c7d2" fill-rule="evenodd"/><path data-name="Rectangle 7745" fill="#fff" d="M16.839 78.587h3.702v.79h-3.702z"/><path data-name="Tracé 22594" d="M16.839 79.565h3.7a.189.189 0 00.187-.189v-.791a.189.189 0 00-.189-.189h-3.7a.189.189 0 00-.189.189v.791a.189.189 0 00.191.189zm3.521-.377h-3.331l.006-.414h3.325z" fill="#c1c7d2" fill-rule="evenodd"/><path data-name="Rectangle 7746" fill="#fff" d="M9.765 69.898h3.702v.79H9.765z"/><path data-name="Tracé 22595" d="M9.764 70.876h3.7a.189.189 0 00.189-.184v-.793a.19.19 0 00-.189-.189h-3.7a.189.189 0 00-.189.189v.79a.189.189 0 00.189.187zm3.508-.377H9.946v-.412h3.326z" fill="#c1c7d2" fill-rule="evenodd"/><path data-name="Rectangle 7747" fill="#fff" d="M16.833 69.898h3.702v.79h-3.702z"/><path data-name="Tracé 22596" d="M16.839 70.876h3.7a.189.189 0 00.194-.184v-.793a.189.189 0 00-.189-.189h-3.7a.188.188 0 00-.189.189v.79a.189.189 0 00.184.187zm3.508-.377h-3.325v-.412h3.325z" fill="#c1c7d2" fill-rule="evenodd"/><path data-name="Rectangle 7748" fill="#fff" d="M10.167 46.943h2.823v5.825h-2.823z"/><path data-name="Tracé 22597" d="M10.174 52.961h2.817a.189.189 0 00.195-.189v-5.823a.189.189 0 00-.189-.189h-2.823a.189.189 0 00-.189.189v5.825a.189.189 0 00.189.187zm2.622-.377H10.35v-5.448h2.446z" fill="#c1c7d2" fill-rule="evenodd"/><path data-name="Tracé 22598" d="M12.99 49.382h-2.817a.189.189 0 010-.377h2.823a.189.189 0 110 .377z" fill="#c1c7d2"/><path data-name="Rectangle 7749" fill="#fff" d="M17.335 46.943h2.823v5.825h-2.823z"/><path data-name="Tracé 22599" d="M17.342 52.961h2.817a.189.189 0 00.195-.189v-5.823a.189.189 0 00-.189-.189h-2.823a.189.189 0 00-.189.189v5.825a.189.189 0 00.189.187zm2.622-.377h-2.446v-5.448h2.446z" fill="#c1c7d2" fill-rule="evenodd"/><path data-name="Tracé 22600" d="M20.158 49.382h-2.817a.189.189 0 010-.377h2.823a.189.189 0 110 .377z" fill="#c1c7d2"/><path data-name="Rectangle 7750" fill="#fff" d="M10.167 55.8h2.823v5.825h-2.823z"/><path data-name="Tracé 22601" d="M10.174 61.811h2.817a.189.189 0 00.195-.189v-5.825a.189.189 0 00-.189-.189h-2.823a.189.189 0 00-.189.189v5.825a.189.189 0 00.189.189zm2.622-.377H10.35v-5.448h2.446z" fill="#c1c7d2" fill-rule="evenodd"/><path data-name="Tracé 22602" d="M12.99 58.243h-2.817a.189.189 0 110-.377h2.823a.189.189 0 110 .377z" fill="#c1c7d2"/><path data-name="Rectangle 7751" fill="#fff" d="M17.335 55.8h2.823v5.825h-2.823z"/><path data-name="Tracé 22603" d="M17.342 61.811h2.817a.189.189 0 00.195-.189v-5.825a.189.189 0 00-.189-.189h-2.823a.189.189 0 00-.189.189v5.825a.189.189 0 00.189.189zm2.622-.377h-2.446v-5.448h2.446z" fill="#c1c7d2" fill-rule="evenodd"/><path data-name="Tracé 22604" d="M20.158 58.243h-2.817a.189.189 0 110-.377h2.823a.189.189 0 110 .377z" fill="#c1c7d2"/><path data-name="Rectangle 7752" fill="#fff" d="M9.771 61.132h3.702v.79H9.771z"/><path data-name="Tracé 22605" d="M9.771 62.11h3.7a.189.189 0 00.189-.184v-.791a.189.189 0 00-.189-.189h-3.7a.189.189 0 00-.189.189v.786a.189.189 0 00.189.189zm3.514-.377H9.96v-.416h3.325z" fill="#c1c7d2" fill-rule="evenodd"/><path data-name="Rectangle 7753" fill="#fff" d="M16.839 61.132h3.702v.79h-3.702z"/><path data-name="Tracé 22606" d="M16.839 62.11h3.7a.189.189 0 00.187-.184v-.791a.189.189 0 00-.189-.189h-3.7a.189.189 0 00-.189.189v.786a.189.189 0 00.191.189zm3.521-.377h-3.331l.006-.414h3.325z" fill="#c1c7d2" fill-rule="evenodd"/><path data-name="Rectangle 7754" fill="#fff" d="M9.771 52.232h3.702v.79H9.771z"/><path data-name="Tracé 22607" d="M9.771 53.213h3.7a.189.189 0 00.189-.189v-.79a.188.188 0 00-.189-.189h-3.7a.189.189 0 00-.189.189v.79a.189.189 0 00.189.189zm3.514-.377H9.96v-.413h3.325z" fill="#c1c7d2" fill-rule="evenodd"/><path data-name="Rectangle 7755" fill="#fff" d="M16.839 52.232h3.702v.79h-3.702z"/><path data-name="Tracé 22608" d="M16.839 53.213h3.7a.189.189 0 00.187-.189v-.79a.189.189 0 00-.189-.189h-3.7a.189.189 0 00-.189.189v.79a.189.189 0 00.191.189zm3.521-.377h-3.331l.006-.413h3.325z" fill="#c1c7d2" fill-rule="evenodd"/><path data-name="Rectangle 7756" fill="#fff" d="M10.216 82.08h2.823v5.825h-2.823z"/><path data-name="Tracé 22609" d="M10.216 88.094h2.824a.189.189 0 00.189-.188v-5.825a.189.189 0 00-.189-.189h-2.824a.189.189 0 00-.189.189v5.82a.188.188 0 00.189.193zm2.631-.377H10.4v-5.448h2.447z" fill="#c1c7d2" fill-rule="evenodd"/><path data-name="Tracé 22610" d="M13.04 84.525h-2.824a.189.189 0 010-.377h2.824a.189.189 0 110 .377z" fill="#c1c7d2"/><path data-name="Rectangle 7757" fill="#fff" d="M17.384 82.08h2.823v5.825h-2.823z"/><path data-name="Tracé 22611" d="M17.384 88.094h2.824a.189.189 0 00.189-.188v-5.825a.189.189 0 00-.189-.189h-2.824a.189.189 0 00-.189.189v5.82a.188.188 0 00.189.193zm2.631-.377h-2.447v-5.448h2.447z" fill="#c1c7d2" fill-rule="evenodd"/><path data-name="Tracé 22612" d="M20.208 84.525h-2.824a.189.189 0 110-.377h2.824a.189.189 0 110 .377z" fill="#c1c7d2"/><path data-name="Rectangle 7758" fill="#fff" d="M9.793 87.392h3.702v.79H9.793z"/><path data-name="Tracé 22613" d="M9.796 88.373h3.7a.189.189 0 00.191-.189v-.79a.189.189 0 00-.189-.189h-3.7a.189.189 0 00-.189.189v.79a.189.189 0 00.187.189zm3.511-.377H9.982v-.412h3.325z" fill="#c1c7d2" fill-rule="evenodd"/><path data-name="Rectangle 7759" fill="#fff" d="M16.863 87.392h3.702v.79h-3.702z"/><path data-name="Tracé 22614" d="M16.862 88.373h3.7a.188.188 0 00.189-.189v-.79a.189.189 0 00-.189-.189h-3.7a.189.189 0 00-.189.189v.79a.189.189 0 00.189.189zm3.515-.377h-3.326v-.412h3.326z" fill="#c1c7d2" fill-rule="evenodd"/><path data-name="Rectangle 7760" fill="#fff" d="M10.22 91.356h2.823v5.825H10.22z"/><path data-name="Tracé 22615" d="M10.215 97.369h2.823a.189.189 0 00.189-.189v-5.825a.189.189 0 00-.189-.189h-2.823a.189.189 0 00-.189.189v5.825a.189.189 0 00.189.189zm2.628-.377h-2.446v-5.448h2.446z" fill="#c1c7d2" fill-rule="evenodd"/><path data-name="Tracé 22616" d="M13.043 93.795h-2.828a.189.189 0 110-.377h2.823a.189.189 0 010 .377z" fill="#c1c7d2"/><path data-name="Rectangle 7761" fill="#fff" d="M17.388 91.356h2.823v5.825h-2.823z"/><path data-name="Tracé 22617" d="M17.383 97.369h2.823a.189.189 0 00.189-.189v-5.825a.189.189 0 00-.189-.189h-2.823a.189.189 0 00-.189.189v5.825a.189.189 0 00.189.189zm2.628-.377h-2.446v-5.448h2.446z" fill="#c1c7d2" fill-rule="evenodd"/><path data-name="Tracé 22618" d="M20.211 93.795h-2.828a.189.189 0 010-.377h2.823a.189.189 0 010 .377z" fill="#c1c7d2"/><path data-name="Rectangle 7762" fill="#fff" d="M9.797 96.668h3.702v.79H9.797z"/><path data-name="Tracé 22619" d="M9.796 97.646h3.7a.189.189 0 00.187-.189v-.79a.189.189 0 00-.189-.189h-3.7a.189.189 0 00-.189.189v.79a.189.189 0 00.191.189zm3.521-.377H9.986l.006-.413h3.325z" fill="#c1c7d2" fill-rule="evenodd"/><path data-name="Rectangle 7763" fill="#fff" d="M16.866 96.668h3.702v.79h-3.702z"/><path data-name="Tracé 22620" d="M16.866 97.646h3.7a.189.189 0 00.189-.189v-.79a.189.189 0 00-.189-.189h-3.7a.189.189 0 00-.189.189v.79a.189.189 0 00.189.189zm3.513-.377h-3.325v-.413h3.325z" fill="#c1c7d2" fill-rule="evenodd"/><path data-name="Rectangle 7764" fill="#fff" d="M10.23 100.631h2.823v4.58H10.23z"/><path data-name="Tracé 22621" d="M10.23 105.399h2.823a.189.189 0 00.189-.188v-4.579a.189.189 0 00-.189-.189H10.23a.189.189 0 00-.189.189v4.58a.189.189 0 00.189.187zm2.628-.377h-2.446l.013-4.2h2.433z" fill="#c1c7d2" fill-rule="evenodd"/><path data-name="Tracé 22622" d="M13.053 103.071H10.23a.189.189 0 110-.377h2.823a.189.189 0 010 .377z" fill="#c1c7d2"/><path data-name="Rectangle 7765" fill="#fff" d="M17.398 100.631h2.823v4.58h-2.823z"/><path data-name="Tracé 22623" d="M17.398 105.399h2.823a.189.189 0 00.189-.188v-4.579a.189.189 0 00-.189-.189h-2.823a.189.189 0 00-.189.189v4.58a.189.189 0 00.189.187zm2.628-.377H17.58l.013-4.2h2.433z" fill="#c1c7d2" fill-rule="evenodd"/><path data-name="Tracé 22624" d="M20.221 103.071h-2.823a.189.189 0 010-.377h2.823a.189.189 0 110 .377z" fill="#c1c7d2"/><path data-name="Tracé 22625" d="M17.719 43.137a.189.189 0 01-.189-.189v-4.639a.189.189 0 01.377 0v4.639a.189.189 0 01-.189.189z" fill="#c1c7d2"/><path data-name="Tracé 22626" d="M20.94 40.412h-5.475a.189.189 0 010-.377h5.475a.189.189 0 010 .377z" fill="#c1c7d2"/><path data-name="Rectangle 7766" fill="#fff" d="M140.397 67.507h15.155v37.739h-15.155z"/><path data-name="Tracé 22627" d="M140.399 105.434h15.155a.189.189 0 00.189-.189V67.508a.19.19 0 00-.189-.189h-15.155a.189.189 0 00-.189.189v37.738a.189.189 0 00.189.188zm14.969-.377h-14.779v-37.36h14.781z" fill="#c1c7d2" fill-rule="evenodd"/><rect data-name="Rectangle 7767" width="16.276" height="1.329" rx=".665" transform="translate(139.277 84.291)" fill="#fff"/><path data-name="Tracé 22628" d="M139.45 85.808h15.929a.364.364 0 00.362-.363v-.981a.362.362 0 00-.362-.362H139.45a.362.362 0 00-.362.362v.981a.363.363 0 00.362.363zm15.914-.377h-15.9v-.952h15.9z" fill="#c1c7d2" fill-rule="evenodd"/><path data-name="Rectangle 7768" fill="#fff" d="M143.756 79.144h2.347v3.458h-2.347z"/><path data-name="Tracé 22629" d="M143.752 82.79h2.348a.189.189 0 00.189-.188v-3.458a.189.189 0 00-.189-.189h-2.348a.189.189 0 00-.189.189v3.458a.189.189 0 00.189.188zm2.159-.377h-1.97v-3.081h1.97z" fill="#c1c7d2" fill-rule="evenodd"/><path data-name="Tracé 22630" d="M146.658 82.791h-3.459a.189.189 0 010-.378h3.459a.189.189 0 110 .378z" fill="#c1c7d2"/><path data-name="Tracé 22631" d="M146.099 80.691h-2.348a.189.189 0 110-.377h2.348a.189.189 0 010 .377z" fill="#c1c7d2"/><path data-name="Rectangle 7769" fill="#fff" d="M143.262 78.588h3.335v.802h-3.335z"/><path data-name="Tracé 22632" d="M143.266 79.58h3.336a.189.189 0 00.188-.189v-.8a.189.189 0 00-.188-.189h-3.336a.189.189 0 00-.189.189v.8a.189.189 0 00.189.189zm3.151-.377h-2.96v-.423h2.959z" fill="#c1c7d2" fill-rule="evenodd"/><path data-name="Rectangle 7770" fill="#fff" d="M150.508 79.144h2.347v3.458h-2.347z"/><path data-name="Tracé 22633" d="M150.509 82.79h2.348a.189.189 0 00.189-.188v-3.458a.19.19 0 00-.189-.189h-2.348a.188.188 0 00-.189.189v3.458a.188.188 0 00.189.188zm2.159-.377h-1.97v-3.081h1.97z" fill="#c1c7d2" fill-rule="evenodd"/><path data-name="Tracé 22634" d="M153.411 82.791h-3.46a.189.189 0 010-.378h3.46a.189.189 0 010 .378z" fill="#c1c7d2"/><path data-name="Tracé 22635" d="M152.855 80.691h-2.346a.189.189 0 010-.377h2.348a.189.189 0 110 .377z" fill="#c1c7d2"/><path data-name="Rectangle 7771" fill="#fff" d="M150.015 78.588h3.335v.802h-3.335z"/><path data-name="Tracé 22636" d="M150.013 79.58h3.331a.189.189 0 00.189-.189v-.8a.189.189 0 00-.189-.189h-3.336a.189.189 0 00-.188.189v.8a.188.188 0 00.193.189zm3.151-.377h-2.959v-.423h2.959z" fill="#c1c7d2" fill-rule="evenodd"/><path data-name="Rectangle 7772" fill="#fff" d="M143.826 88.059h2.347v3.458h-2.347z"/><path data-name="Tracé 22637" d="M143.827 91.707h2.346a.19.19 0 00.189-.189v-3.459a.189.189 0 00-.189-.189h-2.346a.189.189 0 00-.189.189v3.459a.189.189 0 00.189.189zm2.158-.377h-1.969v-3.082h1.969z" fill="#c1c7d2" fill-rule="evenodd"/><path data-name="Tracé 22638" d="M146.731 91.706h-3.458a.189.189 0 110-.377h3.458a.189.189 0 110 .377z" fill="#c1c7d2"/><path data-name="Tracé 22639" d="M146.173 89.606h-2.346a.189.189 0 110-.377h2.346a.189.189 0 110 .377z" fill="#c1c7d2"/><path data-name="Rectangle 7773" fill="#fff" d="M143.332 87.503h3.335v.802h-3.335z"/><path data-name="Tracé 22640" d="M143.333 88.495h3.334a.188.188 0 00.189-.188v-.8a.189.189 0 00-.189-.189h-3.334a.189.189 0 00-.189.189v.8a.189.189 0 00.189.188zm3.144-.377h-2.953v-.426h2.955z" fill="#c1c7d2" fill-rule="evenodd"/><path data-name="Rectangle 7774" fill="#fff" d="M150.579 88.059h2.347v3.458h-2.347z"/><path data-name="Tracé 22641" d="M150.58 91.707h2.346a.189.189 0 00.189-.189v-3.459a.189.189 0 00-.189-.189h-2.346a.189.189 0 00-.189.189v3.459a.189.189 0 00.189.189zm2.158-.377h-1.969v-3.082h1.969z" fill="#c1c7d2" fill-rule="evenodd"/><path data-name="Tracé 22642" d="M153.482 91.706h-3.458a.189.189 0 010-.377h3.458a.189.189 0 010 .377z" fill="#c1c7d2"/><path data-name="Tracé 22643" d="M152.926 89.606h-2.346a.189.189 0 110-.377h2.346a.189.189 0 110 .377z" fill="#c1c7d2"/><path data-name="Rectangle 7775" fill="#fff" d="M150.085 87.503h3.335v.802h-3.335z"/><path data-name="Tracé 22644" d="M150.085 88.495h3.335a.188.188 0 00.188-.188v-.8a.189.189 0 00-.188-.189h-3.335a.188.188 0 00-.188.189v.8a.188.188 0 00.188.188zm3.149-.377h-2.958v-.426h2.96z" fill="#c1c7d2" fill-rule="evenodd"/><path data-name="Rectangle 7776" fill="#fff" d="M143.774 97.422h2.347v3.458h-2.347z"/><path data-name="Tracé 22645" d="M143.774 101.07h2.348a.189.189 0 00.189-.189v-3.458a.189.189 0 00-.189-.189h-2.348a.189.189 0 00-.189.189v3.458a.189.189 0 00.189.189zm2.159-.377h-1.971v-3.081h1.972z" fill="#c1c7d2" fill-rule="evenodd"/><path data-name="Tracé 22646" d="M146.677 101.069h-3.459a.189.189 0 110-.377h3.459a.189.189 0 010 .377z" fill="#c1c7d2"/><path data-name="Tracé 22647" d="M146.125 98.968h-2.348a.189.189 0 110-.377h2.348a.189.189 0 110 .377z" fill="#c1c7d2"/><path data-name="Rectangle 7777" fill="#fff" d="M143.281 96.866h3.335v.802h-3.335z"/><path data-name="Tracé 22648" d="M143.28 97.855h3.335a.189.189 0 00.189-.189v-.8a.189.189 0 00-.189-.189h-3.335a.189.189 0 00-.189.189v.8a.188.188 0 00.189.189zm3.149-.377h-2.958v-.425h2.958z" fill="#c1c7d2" fill-rule="evenodd"/><path data-name="Rectangle 7778" fill="#fff" d="M150.526 97.422h2.347v3.458h-2.347z"/><path data-name="Tracé 22649" d="M150.527 101.07h2.346a.189.189 0 00.189-.189v-3.458a.189.189 0 00-.189-.189h-2.346a.189.189 0 00-.189.189v3.458a.189.189 0 00.189.189zm2.158-.377h-1.969v-3.081h1.969z" fill="#c1c7d2" fill-rule="evenodd"/><path data-name="Tracé 22650" d="M153.429 101.069h-3.458a.189.189 0 010-.377h3.458a.189.189 0 010 .377z" fill="#c1c7d2"/><path data-name="Tracé 22651" d="M152.878 98.968h-2.346a.189.189 0 110-.377h2.346a.189.189 0 110 .377z" fill="#c1c7d2"/><path data-name="Rectangle 7779" fill="#fff" d="M150.032 96.866h3.335v.802h-3.335z"/><path data-name="Tracé 22652" d="M150.033 97.855h3.335a.189.189 0 00.189-.189v-.8a.19.19 0 00-.189-.189h-3.335a.189.189 0 00-.189.189v.8a.189.189 0 00.189.189zm3.149-.377h-2.958v-.425h2.958z" fill="#c1c7d2" fill-rule="evenodd"/><rect data-name="Rectangle 7780" width="16.348" height="1.412" rx=".706" transform="translate(139.205 64.923)" fill="#fff"/><path data-name="Tracé 22653" d="M139.391 66.523h15.978a.378.378 0 00.377-.377v-1.043a.378.378 0 00-.377-.377h-15.978a.377.377 0 00-.378.377v1.043a.377.377 0 00.378.377zm.007-1.416h15.97v1.039h-15.97z" fill="#c1c7d2" fill-rule="evenodd"/><path data-name="Rectangle 7781" fill="#fff" d="M153.35 63.298h2.11v1.623h-2.11z"/><path data-name="Tracé 22654" d="M153.351 65.112h2.11a.191.191 0 00.188-.189v-1.625a.189.189 0 00-.188-.189h-2.11a.189.189 0 00-.189.189v1.625a.188.188 0 00.189.189zm1.921-.377h-1.733v-1.247h1.733z" fill="#c1c7d2" fill-rule="evenodd"/><path data-name="Tracé 22655" d="M155.46 65.112a.189.189 0 01-.189-.189v-1.625a.189.189 0 11.377 0v1.625a.191.191 0 01-.188.189z" fill="#c1c7d2"/><path data-name="Tracé 22656" d="M139.912 66.334h15.642v.953a.221.221 0 01-.22.22h-15.2a.22.22 0 01-.22-.22v-.953z" fill="#fff"/><path data-name="Tracé 22657" d="M140.131 67.696h15.2a.411.411 0 00.409-.409v-.953a.188.188 0 00-.188-.189H139.91a.188.188 0 00-.189.189v.953a.409.409 0 00.41.409zm-.031-.409v-.765h15.265v.765a.032.032 0 01-.031.031h-15.2a.031.031 0 01-.035-.031z" fill="#c1c7d2" fill-rule="evenodd"/><rect data-name="Rectangle 7782" width="16.348" height="1.329" rx=".665" transform="translate(139.205 93.402)" fill="#fff"/><path data-name="Tracé 22658" d="M139.379 94.919h16a.363.363 0 00.362-.359v-.984a.364.364 0 00-.362-.363h-16a.364.364 0 00-.362.363v.977a.363.363 0 00.362.366zm15.985-.377h-15.97v-.952h15.97z" fill="#c1c7d2" fill-rule="evenodd"/><path data-name="Rectangle 7783" fill="#fff" d="M143.774 69.871h2.347v3.458h-2.347z"/><path data-name="Tracé 22659" d="M143.774 73.52h2.348a.191.191 0 00.189-.186v-3.462a.189.189 0 00-.189-.189h-2.348a.188.188 0 00-.189.189v3.459a.189.189 0 00.189.189zm2.159-.377h-1.971v-3.078h1.972z" fill="#c1c7d2" fill-rule="evenodd"/><path data-name="Tracé 22660" d="M146.677 73.519h-3.459a.189.189 0 110-.377h3.459a.189.189 0 110 .377z" fill="#c1c7d2"/><path data-name="Tracé 22661" d="M146.125 71.419h-2.348a.189.189 0 110-.377h2.348a.189.189 0 110 .377z" fill="#c1c7d2"/><path data-name="Rectangle 7784" fill="#fff" d="M143.281 69.315h3.335v.802h-3.335z"/><path data-name="Tracé 22662" d="M143.28 70.308h3.335a.189.189 0 00.189-.189v-.8a.189.189 0 00-.189-.189h-3.335a.188.188 0 00-.189.189v.8a.188.188 0 00.189.189zm3.149-.377h-2.958v-.426h2.958z" fill="#c1c7d2" fill-rule="evenodd"/><path data-name="Rectangle 7785" fill="#fff" d="M150.526 69.871h2.347v3.458h-2.347z"/><path data-name="Tracé 22663" d="M150.527 73.52h2.346a.189.189 0 00.189-.186v-3.462a.188.188 0 00-.189-.189h-2.346a.188.188 0 00-.189.189v3.459a.189.189 0 00.189.189zm2.158-.377h-1.969v-3.078h1.969z" fill="#c1c7d2" fill-rule="evenodd"/><path data-name="Tracé 22664" d="M153.429 73.519h-3.458a.189.189 0 110-.377h3.458a.189.189 0 010 .377z" fill="#c1c7d2"/><path data-name="Tracé 22665" d="M152.878 71.419h-2.346a.189.189 0 010-.377h2.346a.189.189 0 110 .377z" fill="#c1c7d2"/><path data-name="Rectangle 7786" fill="#fff" d="M150.032 69.315h3.335v.802h-3.335z"/><path data-name="Tracé 22666" d="M150.033 70.308h3.335a.189.189 0 00.189-.189v-.8a.189.189 0 00-.189-.189h-3.335a.189.189 0 00-.189.189v.8a.189.189 0 00.189.189zm3.149-.377h-2.958v-.426h2.958z" fill="#c1c7d2" fill-rule="evenodd"/><rect data-name="Rectangle 7787" width="16.276" height="1.329" rx=".665" transform="translate(139.277 75.139)" fill="#fff"/><path data-name="Tracé 22667" d="M139.45 76.66h15.929a.364.364 0 00.362-.363v-.981a.362.362 0 00-.362-.362H139.45a.362.362 0 00-.362.362v.981a.363.363 0 00.362.363zm15.914-.377h-15.9v-.952h15.9z" fill="#c1c7d2" fill-rule="evenodd"/><path data-name="Tracé 22668" d="M64.758 39.633a.189.189 0 01-.189-.189 2.376 2.376 0 011.221-2.074 3.024 3.024 0 012.741-4.3 2.993 2.993 0 012.287 1.049 2.925 2.925 0 014.285 2.588v.135a2.717 2.717 0 011.509 2.433v.156a.189.189 0 01-.377-.021v-.135a2.336 2.336 0 00-1.4-2.138.191.191 0 01-.112-.192c.008-.076.011-.153.011-.231a2.548 2.548 0 00-3.857-2.184.186.186 0 01-.252-.047 2.641 2.641 0 00-4.414 2.886.188.188 0 01-.088.263 2 2 0 00-1.176 1.818.188.188 0 01-.189.183z" fill="#c1c7d2"/><path data-name="Tracé 22669" d="M70.252 35.002a.185.185 0 01-.126-.052.189.189 0 01-.006-.267 2.9 2.9 0 01.85-.619.189.189 0 01.164.34 2.544 2.544 0 00-.741.539.186.186 0 01-.141.059z" fill="#c1c7d2"/><path data-name="Tracé 22670" d="M65.922 37.645a.189.189 0 01-.079-.36 2.339 2.339 0 011-.219 1.658 1.658 0 01.21.009.19.19 0 11-.034.377 2 2 0 00-1.014.176.2.2 0 01-.079.016z" fill="#c1c7d2"/><path data-name="Tracé 22671" d="M75.071 37.128a.185.185 0 01-.073-.015 2.323 2.323 0 00-1.006-.182.189.189 0 01-.015-.377 2.713 2.713 0 011.163.213.188.188 0 01-.069.362z" fill="#c1c7d2"/><path data-name="Tracé 22672" d="M69.867 39.632h-.718a.189.189 0 110-.377h.718a.189.189 0 010 .377z" fill="#c1c7d2"/><path data-name="Tracé 22673" d="M68.235 39.632h-4.356a.189.189 0 010-.377h4.356a.189.189 0 010 .377z" fill="#c1c7d2"/><path data-name="Tracé 22674" d="M63.236 39.632h-.6a.189.189 0 010-.377h.6a.189.189 0 110 .377z" fill="#c1c7d2"/><path data-name="Tracé 22675" d="M77.67 39.632h-2.92a.189.189 0 010-.377h2.92a.189.189 0 010 .377z" fill="#c1c7d2"/><path data-name="Rectangle 7788" fill="#fff" d="M108.607 63.025h25.971v42.184h-25.971z"/><path data-name="Tracé 22676" d="M108.611 105.403h25.972a.191.191 0 00.189-.189V63.022a.189.189 0 00-.189-.189h-25.972a.189.189 0 00-.189.189v42.189a.189.189 0 00.189.192zm25.789-.377h-25.6V63.218h25.6z" fill="#c1c7d2" fill-rule="evenodd"/><path data-name="Rectangle 7789" fill="#fff" d="M108.95 61.208h27.387v1.817H108.95z"/><path data-name="Tracé 22677" d="M108.95 63.21h27.388a.189.189 0 00.135-.057.194.194 0 00.054-.136V61.21a.188.188 0 00-.188-.189h-27.388a.189.189 0 00-.189.189v1.817a.188.188 0 00.188.183zm27.2-.377h-27.011v-1.44h27.011z" fill="#c1c7d2" fill-rule="evenodd"/><path data-name="Tracé 22678" d="M111.437 65.217h1.676a.392.392 0 01.391.391v4.205h-2.458v-4.205a.391.391 0 01.391-.391z" fill="#fff"/><path data-name="Tracé 22679" d="M111.048 70.001h2.458a.188.188 0 00.135-.054.186.186 0 00.057-.134v-4.2a.579.579 0 00-.58-.58h-1.678a.58.58 0 00-.58.58v4.2a.189.189 0 00.188.188zm2.27-.377h-2.081v-4.01a.2.2 0 01.2-.2h1.676a.2.2 0 01.2.2z" fill="#c1c7d2" fill-rule="evenodd"/><path data-name="Tracé 22680" d="M114.005 70h-3.5a.189.189 0 110-.377h3.5a.189.189 0 110 .377z" fill="#c1c7d2"/><path data-name="Tracé 22681" d="M117.398 65.217h1.676a.391.391 0 01.391.391v4.205h-2.458v-4.205a.391.391 0 01.391-.391z" fill="#fff"/><path data-name="Tracé 22682" d="M117.014 70.001h2.457a.189.189 0 00.189-.189v-4.2a.579.579 0 00-.579-.58h-1.675a.577.577 0 00-.58.58v4.2a.188.188 0 00.188.189zm2.274-.377h-2.08v-4.015a.2.2 0 01.2-.2h1.675a.2.2 0 01.2.2z" fill="#c1c7d2" fill-rule="evenodd"/><path data-name="Tracé 22683" d="M119.976 70h-3.5a.189.189 0 110-.377h3.5a.189.189 0 010 .377z" fill="#c1c7d2"/><path data-name="Tracé 22684" d="M123.588 65.217h1.676a.392.392 0 01.391.391v4.205h-2.458v-4.205a.391.391 0 01.391-.391z" fill="#fff"/><path data-name="Tracé 22685" d="M123.202 70.001h2.458a.189.189 0 00.189-.189v-4.2a.58.58 0 00-.58-.58h-1.676a.579.579 0 00-.58.58v4.2a.188.188 0 00.189.189zm2.276-.377h-2.081v-4.015a.2.2 0 01.2-.2h1.676a.2.2 0 01.2.2z" fill="#c1c7d2" fill-rule="evenodd"/><path data-name="Tracé 22686" d="M126.165 70h-3.5a.189.189 0 010-.377h3.5a.189.189 0 010 .377z" fill="#c1c7d2"/><path data-name="Tracé 22687" d="M130.558 65.217h1.676a.392.392 0 01.391.391v4.205h-2.457v-4.205a.391.391 0 01.39-.391z" fill="#fff"/><path data-name="Tracé 22688" d="M130.165 70.001h2.458a.188.188 0 00.189-.189v-4.2a.58.58 0 00-.58-.58h-1.676a.58.58 0 00-.58.58v4.2a.189.189 0 00.189.189zm2.27-.377h-2.081v-4.015a.2.2 0 01.2-.2h1.676a.2.2 0 01.2.2z" fill="#c1c7d2" fill-rule="evenodd"/><path data-name="Tracé 22689" d="M133.118 70h-3.5a.189.189 0 110-.377h3.5a.189.189 0 010 .377z" fill="#c1c7d2"/><path data-name="Tracé 22690" d="M111.437 76.306h1.676a.392.392 0 01.391.391v4.2h-2.458v-4.2a.391.391 0 01.391-.391z" fill="#fff"/><path data-name="Tracé 22691" d="M111.048 81.09h2.458a.188.188 0 00.135-.054.187.187 0 00.057-.134v-4.2a.581.581 0 00-.58-.581h-1.678a.581.581 0 00-.58.581v4.2a.189.189 0 00.188.188zm2.27-.377h-2.081v-4.015a.2.2 0 01.2-.2h1.676a.2.2 0 01.2.2z" fill="#c1c7d2" fill-rule="evenodd"/><path data-name="Tracé 22692" d="M114.005 81.089h-3.5a.189.189 0 110-.377h3.5a.189.189 0 110 .377z" fill="#c1c7d2"/><path data-name="Tracé 22693" d="M117.398 76.306h1.676a.391.391 0 01.391.391v4.2h-2.458v-4.205a.391.391 0 01.391-.391z" fill="#fff"/><path data-name="Tracé 22694" d="M117.014 81.09h2.457a.189.189 0 00.189-.189v-4.2a.58.58 0 00-.579-.581h-1.675a.578.578 0 00-.58.581v4.2a.188.188 0 00.188.189zm2.274-.377h-2.08v-4.015a.2.2 0 01.2-.2h1.675a.2.2 0 01.2.2z" fill="#c1c7d2" fill-rule="evenodd"/><path data-name="Tracé 22695" d="M119.976 81.089h-3.5a.189.189 0 110-.377h3.5a.189.189 0 010 .377z" fill="#c1c7d2"/><path data-name="Tracé 22696" d="M123.588 76.306h1.676a.392.392 0 01.391.391v4.2h-2.458v-4.2a.391.391 0 01.391-.391z" fill="#fff"/><path data-name="Tracé 22697" d="M123.202 81.09h2.458a.189.189 0 00.189-.189v-4.2a.582.582 0 00-.58-.581h-1.676a.581.581 0 00-.58.581v4.2a.188.188 0 00.189.189zm2.276-.377h-2.081v-4.015a.2.2 0 01.2-.2h1.676a.2.2 0 01.2.2z" fill="#c1c7d2" fill-rule="evenodd"/><path data-name="Tracé 22698" d="M126.165 81.089h-3.5a.189.189 0 010-.377h3.5a.189.189 0 010 .377z" fill="#c1c7d2"/><path data-name="Tracé 22699" d="M130.558 76.306h1.676a.391.391 0 01.391.391v4.2h-2.457v-4.2a.391.391 0 01.39-.391z" fill="#fff"/><path data-name="Tracé 22700" d="M130.165 81.09h2.458a.189.189 0 00.189-.189v-4.2a.582.582 0 00-.58-.581h-1.676a.581.581 0 00-.58.581v4.2a.189.189 0 00.189.189zm2.27-.377h-2.081v-4.015a.2.2 0 01.2-.2h1.676a.2.2 0 01.2.2z" fill="#c1c7d2" fill-rule="evenodd"/><path data-name="Tracé 22701" d="M133.118 81.089h-3.5a.189.189 0 110-.377h3.5a.189.189 0 010 .377z" fill="#c1c7d2"/><path data-name="Rectangle 7790" fill="#fff" d="M108.95 72.271h27.387v1.817H108.95z"/><path data-name="Tracé 22702" d="M108.95 74.276h27.388a.188.188 0 00.188-.189V72.27a.188.188 0 00-.188-.189H108.95a.189.189 0 00-.189.189v1.817a.189.189 0 00.189.189zm27.2-.377h-27.011v-1.44h27.011z" fill="#c1c7d2" fill-rule="evenodd"/><path data-name="Rectangle 7791" fill="#fff" d="M108.95 83.039h27.387v1.817H108.95z"/><path data-name="Tracé 22703" d="M108.95 85.04h27.388a.189.189 0 00.188-.188V83.04a.188.188 0 00-.188-.189H108.95a.189.189 0 00-.189.189v1.817a.188.188 0 00.189.183zm27.2-.377h-27.011v-1.44h27.011z" fill="#c1c7d2" fill-rule="evenodd"/><path data-name="Tracé 22704" d="M112.772 87.177h1.6a.378.378 0 01.377.377v4.014h-2.347v-4.011a.377.377 0 01.37-.38z" fill="#fff"/><path data-name="Tracé 22705" d="M112.402 91.753h2.348a.189.189 0 00.189-.186v-4.016a.564.564 0 00-.562-.562h-1.6a.563.563 0 00-.562.562v4.017a.189.189 0 00.187.185zm2.159-.377h-1.971v-3.825a.184.184 0 01.185-.185h1.6a.185.185 0 01.185.185z" fill="#c1c7d2" fill-rule="evenodd"/><path data-name="Tracé 22706" d="M115.228 91.753h-3.342a.189.189 0 110-.377h3.342a.189.189 0 010 .377z" fill="#c1c7d2"/><path data-name="Tracé 22707" d="M118.467 87.177h1.6a.378.378 0 01.377.377v4.014h-2.346v-4.011a.377.377 0 01.369-.38z" fill="#fff"/><path data-name="Tracé 22708" d="M118.098 91.753h2.346a.189.189 0 00.189-.186v-4.016a.562.562 0 00-.562-.562h-1.6a.562.562 0 00-.562.562v4.017a.188.188 0 00.189.185zm2.158-.377h-1.969v-3.825a.184.184 0 01.185-.185h1.6a.185.185 0 01.185.185z" fill="#c1c7d2" fill-rule="evenodd"/><path data-name="Tracé 22709" d="M120.928 91.753h-3.343a.189.189 0 010-.377h3.343a.189.189 0 010 .377z" fill="#c1c7d2"/><path data-name="Tracé 22710" d="M125.568 94.083h-17.262a.189.189 0 010-.377h17.262a.189.189 0 010 .377z" fill="#c1c7d2"/><path data-name="Tracé 22711" d="M125.977 86.326h6.837a.042.042 0 01.042.042v18.844h-6.916V86.368a.042.042 0 01.037-.042z" fill="#fff"/><path data-name="Tracé 22712" d="M125.943 105.399h6.917a.189.189 0 00.136-.054.192.192 0 00.056-.135V86.367a.23.23 0 00-.23-.23h-6.837a.23.23 0 00-.23.23v18.844a.188.188 0 00.188.188zm6.724-.377h-6.539V86.514h6.539z" fill="#c1c7d2" fill-rule="evenodd"/><path data-name="Rectangle 7792" fill="#fff" d="M128.321 87.794h4.088v8.977h-4.088z"/><path data-name="Tracé 22713" d="M127.304 96.962h4.088a.189.189 0 00.188-.189v-8.979a.189.189 0 00-.188-.189h-4.088a.189.189 0 00-.189.189v8.982a.189.189 0 00.189.186zm3.9-.377h-3.711v-8.6h3.711z" fill="#c1c7d2" fill-rule="evenodd"/><path data-name="Tracé 22714" d="M132.859 96.961h-6.917a.189.189 0 010-.377h6.917a.189.189 0 010 .377z" fill="#c1c7d2"/><path data-name="Tracé 22715" d="M132.844 98.537h-6.87a.189.189 0 110-.377h6.87a.189.189 0 110 .377z" fill="#c1c7d2"/><path data-name="Tracé 22716" d="M132.845 99.874h-6.841a.189.189 0 110-.377h6.843a.189.189 0 110 .377z" fill="#c1c7d2"/><path data-name="Tracé 22717" d="M132.845 101.226h-6.841a.189.189 0 110-.377h6.843a.189.189 0 110 .377z" fill="#c1c7d2"/><path data-name="Tracé 22718" d="M132.776 102.679h-6.774a.189.189 0 110-.377h6.776a.189.189 0 110 .377z" fill="#c1c7d2"/><path data-name="Tracé 22719" d="M132.831 104.142h-6.864a.189.189 0 010-.377h6.864a.189.189 0 010 .377z" fill="#c1c7d2"/><path data-name="Rectangle 7793" fill="#fff" d="M112.058 96.185h8.737v5.264h-8.737z"/><path data-name="Tracé 22720" d="M112.062 101.637h8.737a.189.189 0 00.189-.189v-5.264a.189.189 0 00-.189-.189h-8.737a.189.189 0 00-.189.189v5.262a.189.189 0 00.189.191zm8.546-.377h-8.36v-4.887h8.355z" fill="#c1c7d2" fill-rule="evenodd"/><path data-name="Rectangle 7794" fill="#fff" d="M111.364 101.448h10.153v1.737h-10.153z"/><path data-name="Tracé 22721" d="M111.365 103.374h10.153a.189.189 0 00.189-.189v-1.735a.189.189 0 00-.189-.189h-10.153a.188.188 0 00-.189.189v1.737a.189.189 0 00.189.187zm9.964-.377h-9.776v-1.359h9.776z" fill="#c1c7d2" fill-rule="evenodd"/><path data-name="Tracé 22722" d="M113.59 101.637a.189.189 0 01-.189-.189v-5.264a.189.189 0 11.377 0v5.262a.189.189 0 01-.188.189z" fill="#c1c7d2"/><path data-name="Tracé 22723" d="M119.133 101.637a.189.189 0 01-.189-.189v-5.264a.189.189 0 11.377 0v5.262a.189.189 0 01-.188.191z" fill="#c1c7d2"/><path data-name="Tracé 22724" d="M119.081 97.817h-5.343a.189.189 0 110-.377h5.343a.189.189 0 010 .377z" fill="#c1c7d2"/><path data-name="Tracé 22725" d="M132.248 52.475a.189.189 0 01-.189-.189 2.373 2.373 0 011.221-2.074 3.022 3.022 0 015.028-3.249 2.923 2.923 0 014.285 2.588v.135a2.716 2.716 0 011.509 2.433v.155a.189.189 0 11-.377-.021v-.133a2.341 2.341 0 00-1.4-2.145.188.188 0 01-.113-.191c.008-.077.011-.155.011-.231a2.546 2.546 0 00-3.857-2.184.188.188 0 01-.251-.047 2.641 2.641 0 00-4.414 2.886.187.187 0 01.014.15.2.2 0 01-.1.113 1.992 1.992 0 00-1.174 1.817.189.189 0 01-.187.189z" fill="#c1c7d2"/><path data-name="Tracé 22726" d="M137.718 47.853a.192.192 0 01-.126-.052.189.189 0 01-.006-.268 2.945 2.945 0 01.85-.619.189.189 0 01.165.34 2.556 2.556 0 00-.742.539.188.188 0 01-.141.059z" fill="#c1c7d2"/><path data-name="Tracé 22727" d="M133.538 50.494a.188.188 0 01-.079-.36 2.361 2.361 0 011.206-.209.19.19 0 11-.033.377 2 2 0 00-1.015.176.181.181 0 01-.079.016z" fill="#c1c7d2"/><path data-name="Tracé 22728" d="M142.388 49.978a.19.19 0 01-.073-.015 2.339 2.339 0 00-1.006-.181.191.191 0 01-.2-.181.187.187 0 01.049-.136.19.19 0 01.132-.061 2.721 2.721 0 011.165.211.189.189 0 01-.074.362z" fill="#c1c7d2"/><path data-name="Tracé 22729" d="M137.371 52.475h-.718a.189.189 0 010-.377h.718a.189.189 0 010 .377z" fill="#c1c7d2"/><path data-name="Tracé 22730" d="M135.878 52.475h-4.356a.189.189 0 010-.377h4.356a.189.189 0 110 .377z" fill="#c1c7d2"/><path data-name="Tracé 22731" d="M130.98 52.475h-.6a.189.189 0 110-.377h.6a.189.189 0 010 .377z" fill="#c1c7d2"/><path data-name="Tracé 22732" d="M144.935 52.475h-2.92a.189.189 0 010-.377h2.92a.189.189 0 010 .377z" fill="#c1c7d2"/><path data-name="Tracé 22733" d="M15.532 20.818a.189.189 0 01-.189-.189 2.374 2.374 0 011.221-2.074 3.018 3.018 0 015.03-3.251 2.925 2.925 0 014.286 2.588v.135a2.715 2.715 0 011.507 2.434v.156a.189.189 0 01-.377-.021v-.134a2.338 2.338 0 00-1.4-2.144.19.19 0 01-.113-.192 2.009 2.009 0 00.013-.231 2.546 2.546 0 00-3.858-2.183.19.19 0 01-.252-.047 2.644 2.644 0 00-4.414 2.885.191.191 0 01.014.151.186.186 0 01-.1.112 2 2 0 00-1.175 1.818.189.189 0 01-.19.189z" fill="#c1c7d2"/><path data-name="Tracé 22734" d="M20.999 16.196a.19.19 0 01-.137-.319 2.91 2.91 0 01.851-.619.189.189 0 11.164.34 2.548 2.548 0 00-.742.539.187.187 0 01-.136.059z" fill="#c1c7d2"/><path data-name="Tracé 22735" d="M16.821 18.838a.189.189 0 01-.079-.36 2.345 2.345 0 011-.219 1.657 1.657 0 01.21.009.19.19 0 11-.033.377c-.058 0-.118-.008-.177-.008a1.979 1.979 0 00-.838.184.176.176 0 01-.079.016z" fill="#c1c7d2"/><path data-name="Tracé 22736" d="M25.675 18.321a.188.188 0 01-.073-.015 2.349 2.349 0 00-1.006-.182.187.187 0 01-.2-.181.19.19 0 01.182-.2 2.737 2.737 0 011.163.213.188.188 0 01.1.251.191.191 0 01-.171.111z" fill="#c1c7d2"/><path data-name="Tracé 22737" d="M20.653 20.821h-.717a.189.189 0 010-.377h.717a.189.189 0 010 .377z" fill="#c1c7d2"/><path data-name="Tracé 22738" d="M19.162 20.821h-4.356a.189.189 0 010-.377h4.356a.189.189 0 110 .377z" fill="#c1c7d2"/><path data-name="Tracé 22739" d="M14.263 20.821h-.6a.189.189 0 010-.377h.6a.189.189 0 010 .377z" fill="#c1c7d2"/><path data-name="Tracé 22740" d="M28.219 20.821h-2.92a.189.189 0 010-.377h2.92a.189.189 0 010 .377z" fill="#c1c7d2"/><path data-name="Tracé 22741" d="M119.148 17.33a.188.188 0 01-.188-.189 2.373 2.373 0 011.221-2.074 3.018 3.018 0 015.03-3.249 2.923 2.923 0 014.286 2.588v.133a2.719 2.719 0 011.509 2.433v.156a.189.189 0 01-.377-.021v-.135a2.339 2.339 0 00-1.4-2.144.186.186 0 01-.112-.192 2.3 2.3 0 00.011-.23 2.547 2.547 0 00-3.859-2.188.19.19 0 01-.251-.047 2.621 2.621 0 00-2.091-1.03 2.646 2.646 0 00-2.323 3.915.182.182 0 01.014.151.19.19 0 01-.1.113 1.993 1.993 0 00-1.176 1.817.2.2 0 01-.054.136.187.187 0 01-.14.057z" fill="#c1c7d2"/><path data-name="Tracé 22742" d="M124.487 12.708a.189.189 0 01-.136-.319 2.882 2.882 0 01.85-.619.188.188 0 01.277.183.187.187 0 01-.113.157 2.551 2.551 0 00-.741.539.192.192 0 01-.137.059z" fill="#c1c7d2"/><path data-name="Tracé 22743" d="M120.161 15.35a.189.189 0 01-.081-.36 2.361 2.361 0 011.206-.209.188.188 0 01.178.2.19.19 0 01-.2.171 2 2 0 00-1.013.176.188.188 0 01-.086.018z" fill="#c1c7d2"/><path data-name="Tracé 22744" d="M130.38 14.832a.184.184 0 01-.074-.015 2.336 2.336 0 00-1.006-.181.189.189 0 01-.195-.182.184.184 0 01.049-.135.189.189 0 01.132-.06 2.7 2.7 0 011.163.211.189.189 0 01-.073.362z" fill="#c1c7d2"/><path data-name="Tracé 22745" d="M124.1 17.33h-.717a.189.189 0 110-.377h.717a.189.189 0 010 .377z" fill="#c1c7d2"/><path data-name="Tracé 22746" d="M122.519 17.33h-4.356a.189.189 0 110-.377h4.356a.189.189 0 010 .377z" fill="#c1c7d2"/><path data-name="Tracé 22747" d="M117.468 17.33h-.6a.189.189 0 010-.377h.6a.189.189 0 010 .377z" fill="#c1c7d2"/><path data-name="Tracé 22748" d="M132.927 17.33h-2.925a.189.189 0 110-.377h2.921a.189.189 0 110 .377z" fill="#c1c7d2"/><g data-name="Groupe 22309"><path data-name="Tracé 22749" d="M85.041 105.475a1.6 1.6 0 11-1.6-1.643 1.621 1.621 0 011.6 1.643" fill="#fff" opacity=".4"/></g><g data-name="Groupe 22310"><path data-name="Tracé 22750" d="M81.197 71.372a1.264 1.264 0 11-1.258-1.39 1.329 1.329 0 011.258 1.39zm6.791 0a1.264 1.264 0 11-1.257-1.39 1.329 1.329 0 011.257 1.39z" fill="#fff" fill-rule="evenodd" opacity=".15"/></g><path data-name="Rectangle 7795" fill="#fff" d="M48.806 0h2.943v108.47h-2.943z"/><path data-name="Rectangle 7796" d="M2.082 0a.981.981 0 01.981.981v106.508a.981.981 0 01-.981.981h-.981a.981.981 0 01-.981-.981V1.962A1.962 1.962 0 012.082 0z" fill="#fff"/><path data-name="Rectangle 7797" d="M157.528 0a.981.981 0 01.981.981v106.508a.981.981 0 01-.981.981h-.981a.981.981 0 01-.981-.981V1.962A1.962 1.962 0 01157.528 0z" fill="#fff"/><rect data-name="Rectangle 7798" width="3.363" height="158.388" rx="1.682" transform="rotate(90 79.36 79.36)" fill="#fff"/><rect data-name="Rectangle 7799" width="3.363" height="158.388" rx="1.682" transform="rotate(90 26.806 131.913)" fill="#fff"/><path data-name="Rectangle 7800" fill="#fff" d="M105.783 0h2.943v108.47h-2.943z"/><path data-name="Tracé 22751" d="M.625 108.558h157.536a.635.635 0 00.441-.179.6.6 0 00.183-.428V.604a.616.616 0 00-.624-.6H.625a.617.617 0 00-.625.6v107.348a.616.616 0 00.625.606zM.459.448A.24.24 0 01.625.381h157.536a.231.231 0 01.232.228v107.343a.232.232 0 01-.232.229H.625a.232.232 0 01-.234-.229V.604A.223.223 0 01.459.448zm154.972 104.956h-46.6a.192.192 0 01-.2-.189v-77.58a.192.192 0 01.2-.189h46.6a.193.193 0 01.2.189v77.575a.193.193 0 01-.2.194zm-.2-.377h-46.208v-77.2h46.212zm-49.406.377H51.904a.192.192 0 01-.2-.189v-77.58a.192.192 0 01.2-.189h53.925a.193.193 0 01.2.189v77.575a.194.194 0 01-.199.194zm-.2-.377H52.1v-77.2h53.534zm-56.726.377H3.436a.192.192 0 01-.2-.189v-77.58a.192.192 0 01.2-.189h45.472a.192.192 0 01.2.189v77.575a.192.192 0 01-.2.194zm-.2-.377H3.626l.005-77.2h45.076zm106.727-80.093h-46.6a.192.192 0 01-.2-.189V3.353a.192.192 0 01.2-.189h46.6a.193.193 0 01.2.189v21.393a.193.193 0 01-.2.189zm-.2-.377h-46.208l.005-21.015h46.207zm-49.405.377H51.904a.192.192 0 01-.2-.189V3.353a.192.192 0 01.2-.189h53.925a.193.193 0 01.2.189v21.393a.193.193 0 01-.2.189zm-.2-.377H52.095L52.1 3.542h53.528zm-56.725.377H3.436a.192.192 0 01-.2-.189V3.353a.192.192 0 01.2-.189h45.472a.192.192 0 01.2.189v21.393a.192.192 0 01-.2.189zm-.2-.377H3.621l.01-21.015h45.07z" fill="#c1c7d2" fill-rule="evenodd"/></g></g><path data-name="Rectangle 7802" transform="translate(11.219 3.094)" fill="url(#c)" d="M0 0h158.555v33.693H0z"/><g data-name="Groupe 22312"><path data-name="Tracé 22752" d="M85.692 29.52v6.628l4.1.852 4.245-.674-.958-7.777z" fill="#fff"/><g data-name="Groupe 22236"><path data-name="Tracé 22183" d="M77.713 108.221a1.1 1.1 0 00-.1-1.719c-5.294-3.734-12.4-8.415-27.335-8.185a53.171 53.171 0 00-23.48 5.927.879.879 0 00-.34 1.256c1.466 2.327 6.972 8.809 23.447 10.182 16.35 1.368 25.09-5.003 27.808-7.461z" fill="#fbfdff" stroke="#081f4d" stroke-width=".5" fill-rule="evenodd"/><path data-name="Tracé 22185" d="M69.784 107.774a.256.256 0 010-.511c3.241 0 5.453-.184 7.592-.364l.68-.056a.257.257 0 01.043.512l-.683.056c-2.148.176-4.371.363-7.632.363z" fill="#081f4d"/><path data-name="Tracé 22186" d="M38.807 110.221a3.179 3.179 0 01-1.839-.588c-3.737-2.647-10.637-4.3-10.707-4.315a.257.257 0 01.118-.5c.286.067 7.067 1.688 10.886 4.395a2.647 2.647 0 001.854.473c4.105-.481 18.3-2.069 28.7-2.3a.256.256 0 010 .512c-10.38.225-24.555 1.811-28.647 2.3a2.962 2.962 0 01-.365.023z" fill="#081f4d"/><path data-name="Tracé 22187" d="M53.799 104.181a.252.252 0 01-.2-.09l-2.652-3.123a.256.256 0 01-.061-.187.256.256 0 01.45-.143l2.655 3.123a.254.254 0 01-.194.419z" fill="#081f4d"/><path data-name="Tracé 22188" d="M53.632 101.938a.253.253 0 01-.2-.089l-.655-.767a.257.257 0 01.03-.361.253.253 0 01.361.028l.655.767a.255.255 0 01-.194.422z" fill="#081f4d"/><path data-name="Tracé 22189" d="M52.017 104.139a.26.26 0 01-.195-.089l-1.417-1.668a.256.256 0 01.148-.417.252.252 0 01.24.085l1.417 1.668a.255.255 0 01-.194.422z" fill="#081f4d"/></g><g data-name="Groupe 22235"><path data-name="Tracé 22183" d="M153.791 105.252a1.1 1.1 0 00-.1-1.719c-5.294-3.734-12.4-8.415-27.335-8.185a53.171 53.171 0 00-23.48 5.927.879.879 0 00-.34 1.256c1.466 2.327 6.972 8.809 23.447 10.182 16.35 1.368 25.09-5.003 27.808-7.461z" fill="#fbfdff" stroke="#081f4d" stroke-width=".5" fill-rule="evenodd"/><path data-name="Tracé 22185" d="M145.862 104.805a.256.256 0 010-.511c3.241 0 5.453-.184 7.592-.364l.68-.056a.257.257 0 01.043.512l-.683.056c-2.148.176-4.371.363-7.632.363z" fill="#081f4d"/><path data-name="Tracé 22186" d="M114.885 107.252a3.179 3.179 0 01-1.839-.588c-3.737-2.647-10.637-4.3-10.707-4.315a.257.257 0 01.118-.5c.286.067 7.067 1.688 10.886 4.395a2.647 2.647 0 001.854.473c4.105-.481 18.3-2.069 28.7-2.3a.256.256 0 010 .512c-10.38.225-24.555 1.811-28.647 2.3a2.962 2.962 0 01-.365.023z" fill="#081f4d"/><path data-name="Tracé 22187" d="M129.877 101.212a.252.252 0 01-.2-.09l-2.652-3.123a.256.256 0 01-.061-.187.256.256 0 01.45-.143l2.655 3.123a.254.254 0 01-.194.419z" fill="#081f4d"/><path data-name="Tracé 22188" d="M129.71 98.969a.253.253 0 01-.2-.089l-.655-.767a.257.257 0 01.03-.361.253.253 0 01.361.028l.655.767a.255.255 0 01-.194.422z" fill="#081f4d"/><path data-name="Tracé 22189" d="M128.095 101.17a.26.26 0 01-.195-.089l-1.417-1.668a.256.256 0 01.148-.417.252.252 0 01.24.085l1.417 1.668a.255.255 0 01-.194.422z" fill="#081f4d"/></g><g data-name="Illustration 07"><path data-name="Tracé 17399" d="M115.43 88.488a43.661 43.661 0 01-7.8 1.3l-17.881.083h-.059l-17.883-.083a43.632 43.632 0 01-7.795-1.3 12.387 12.387 0 01-8.615-15.272c.19-.679.4-1.389.634-2.115 1.757-5.423 2.749-13.074 3.138-16.512a23.3 23.3 0 011-4.627 18.156 18.156 0 019.414-9.913 62.569 62.569 0 016.149-2.538l3.476-1.135 4.071-1.465c0 .867 2.916 3.4 6.428 3.4s6.361-2.4 6.365-3.265l3.806 1.226 3.806 1.239a62.628 62.628 0 016.149 2.538 18.157 18.157 0 019.414 9.913 24.222 24.222 0 011 4.627c.387 3.438 1.381 11.089 3.136 16.512.239.736.453 1.446.634 2.115a12.373 12.373 0 01-8.587 15.272z" fill="#ffc300" fill-rule="evenodd"/><path data-name="Tracé 17394" d="M123.677 104.656c8.415-5.348 10.164-9.4 10.164-9.4 2.191-4.849-.63-11.106-6.586-11.123-.61 0-1.525-.062-2.6-.135a47.943 47.943 0 00-7.914-.1c-1.912.216-3.688.5-5.417.774a53.126 53.126 0 01-10.995.947c-3.9-.156-8.128-.319-10.765-.389a169.32 169.32 0 00-17.023 1.127 24.27 24.27 0 01-4.31.072l-11.332-.814c-3.049-.074-6.82.736-8.67 3.172a7.172 7.172 0 00-1.48 3.883 8.187 8.187 0 001.73 5.576 23.953 23.953 0 005.058 4.906 31.814 31.814 0 007.264 4.007c.4.139.8.275 1.195.4a56.726 56.726 0 002.656.803c.6.171 1.195.327 1.779.467a27.937 27.937 0 006.253.949h.423c.078 0 .157 0 .235-.006s.184-.008.275-.008h.211a28.363 28.363 0 0010.412-2.472h.013a37.824 37.824 0 013.823 7.416c.141.326.264.637.381.93l.042.106c.577 1.472.926 2.5.926 2.5 5.648-1.474 10.594-3 14.919-4.544q1.487-.526 2.876-1.058a95.63 95.63 0 0014.73-6.929q.904-.528 1.727-1.057z" fill="#fff"/><path data-name="Tracé 17395" d="M115.833 116.214c2.29.863 6.357 2.034 9 1.017a11.7 11.7 0 00-.859-3.984 9.271 9.271 0 01-.677-3.06 13.872 13.872 0 00-.492-2.724l-.007-.021a2.83 2.83 0 00-.091-.247 2.975 2.975 0 00-.073-.169 1.373 1.373 0 00-.061-.144 2.223 2.223 0 00-.068-.148 10.6 10.6 0 00-.554-1.011 95.664 95.664 0 01-14.73 6.93 3.283 3.283 0 001.087 1.985 49.7 49.7 0 017.525 1.576z" fill="#ffc300"/><path data-name="Tracé 17396" d="M73.216 118.611a2.313 2.313 0 00.211-.37 4.2 4.2 0 00.118-2.753 7.23 7.23 0 00-.118-.4l-.074-.212c-.1-.275-.219-.55-.335-.825a8.947 8.947 0 01-.564-1.592 2.448 2.448 0 01-.025-.882c0-.01 0-.021.008-.034a.208.208 0 00.009-.049 1.828 1.828 0 01.063-.241.184.184 0 00.005-.021.545.545 0 01.02-.061c.021-.057.044-.112.072-.173.02-.044.051-.1.071-.144a.377.377 0 00.018-.034.707.707 0 01.038-.063l.011-.019a2.613 2.613 0 01.156-.235c.017-.026.036-.048.055-.072l.032-.038.049-.059.08-.089c.1-.1.2-.2.3-.287.029-.021.057-.044.083-.066l.006-.006.125-.093c-.167.015-.338.015-.51.015h-.423a27.941 27.941 0 01-6.253-.949c-.584-.139-1.178-.3-1.778-.468a5.853 5.853 0 01-3.189.656 11.115 11.115 0 00-9.769 2.825 7.118 7.118 0 00-1.981 6.817 3.381 3.381 0 001.988 2.276 10 10 0 006.175.093c3.728-.89 12.867-2.041 15.081-2.309a.354.354 0 00.245-.138z" fill="#ffc300"/><path data-name="Tracé 17397" d="M85.407 115.701a34.57 34.57 0 002.675-.983 36.887 36.887 0 00-3.821-7.393h-.013a28.367 28.367 0 01-10.415 2.472h-.211l-.125.093-.089.072a3.564 3.564 0 00-.3.288l-.078.089-.051.059-.03.04a2.832 2.832 0 00-.214.305l-.024.042-.023.04-.007.012a1.725 1.725 0 00-.084.165l-.07.174c0 .008-.006.015-.01.023a.149.149 0 00-.018.059 1.9 1.9 0 00-.061.241.145.145 0 00-.017.082 2.365 2.365 0 00.025.882 8.933 8.933 0 00.562 1.59c.116.275.233.55.335.827a7.922 7.922 0 01.076.211v.006c.04.125.081.256.117.391a4.1 4.1 0 01-.1 2.749 68.577 68.577 0 0011.971-2.536z" fill="#fff"/><path data-name="Tracé 17398" d="M125.377 109.562a14.194 14.194 0 00-1.7-4.893q-.82.52-1.73 1.057a10.535 10.535 0 01.554 1.011l.068.148a1.363 1.363 0 01.061.144 1.773 1.773 0 01.091.211c.027.074.055.15.08.226a13.859 13.859 0 01.491 2.722 9.251 9.251 0 00.678 3.062 11.248 11.248 0 01.858 3.855l.007.125a2.752 2.752 0 001.182-.028c.489-.12.683-.332.7-.543a9.26 9.26 0 00-.593-3.529 15.051 15.051 0 01-.737-3.447zM59 107.579l-.236-.03a12.2 12.2 0 00-8.458 2.816c-2.43 2.24-3.656 7.114-1.656 9.139a5.728 5.728 0 002.955 1.442l.1.015a3.38 3.38 0 01-1.988-2.276 7.117 7.117 0 011.981-6.817 11.124 11.124 0 019.77-2.825 5.853 5.853 0 003.189-.655l-.211-.057a9.889 9.889 0 01-.633-.184c-.6-.176-1.205-.364-1.81-.562a10.349 10.349 0 01-3.003-.006z" fill="#fff" fill-rule="evenodd"/><path data-name="Tracé 17393" d="M125.729 83.657l-1.666-.114a44.516 44.516 0 00-7.357-.059c-1.66.188-3.219.425-4.727.664l-1.191.19a50.618 50.618 0 01-10.43.865 990.95 990.95 0 00-9.828-.359l-1.121-.032c-4.175-.087-11.59.586-16.139 1.053l-.761.078a23.921 23.921 0 01-4.229.07l-11.351-.814c-5.912-.14-8.4 2.525-9.025 3.343l-.077.1a7.612 7.612 0 00-1.479 4 8.591 8.591 0 001.816 5.866l.142.184a24.483 24.483 0 005.007 4.811 35.2 35.2 0 006.494 3.73 24.402 24.402 0 01-.985-.1l-.1-.011a12.647 12.647 0 00-8.7 2.935 9.5 9.5 0 00-2.791 6.363 4.533 4.533 0 001.121 3.384 6.25 6.25 0 003.169 1.559l.122.019h-.027a7.359 7.359 0 002.94.529h.205a15.018 15.018 0 003.246-.431c3.261-.778 10.666-1.751 13.851-2.153l1.184-.148a.774.774 0 00.533-.311 2.4 2.4 0 00.149-.231 69.753 69.753 0 0011.347-2.379l.277-.089a7.954 7.954 0 011.352.962 4.246 4.246 0 002.578 1.561 1 1 0 00.249-.025.446.446 0 00.136-.062c5.32-1.389 10.3-2.91 14.814-4.517l-.166.059a19.858 19.858 0 003.943.913h.061a47.211 47.211 0 017.372 1.544 19.454 19.454 0 006.488 1.438h.167a7.374 7.374 0 002.563-.385l-.026.009a2.388 2.388 0 00.442.036 3.426 3.426 0 00.8-.089c.871-.2 1.009-.708 1.025-.92l.01-.133a9.3 9.3 0 00-.543-3.3l-.1-.317a14.463 14.463 0 01-.7-3.3l-.01-.133a14.013 14.013 0 00-1.576-4.718c7.773-5.009 9.746-8.85 9.974-9.332l.068-.15a8.769 8.769 0 00-.615-8.175 7.349 7.349 0 00-6.387-3.417h-.138c-.378 0-.855-.025-1.4-.061zm-64.333 25.828a6.17 6.17 0 003.29-.635c.546.146 1.1.29 1.643.423a29.415 29.415 0 006.113.958h.108l-.01.015a3.2 3.2 0 00-.18.266l-.031.054a.213.213 0 00-.013.021.051.051 0 00-.009.017v.006l-.047.085a1.539 1.539 0 00-.063.131l-.016.036c-.025.059-.05.123-.06.15a.328.328 0 01-.013.034.27.27 0 00-.018.051v.019l-.024.076a2.443 2.443 0 00-.052.213v.017a.33.33 0 00-.015.083 2.862 2.862 0 00.027 1.036 9.454 9.454 0 00.588 1.67c.116.267.228.539.328.8l.047.135.022.061.034.106c.028.089.055.182.08.277l.013.051a3.8 3.8 0 01-.087 2.411l-.035.072a1.739 1.739 0 01-.123.2c-1.878.228-10.908 1.356-14.862 2.258l-.236.055a9.75 9.75 0 01-5.9-.066h-.021a2.958 2.958 0 01-1.713-1.878 3.007 3.007 0 01-.031-.112 7.3 7.3 0 01.294-4.17 5.925 5.925 0 011.565-2.2 10.669 10.669 0 019.408-2.726zm-3.466-1.561a12.134 12.134 0 00-7.338 2.749 8.691 8.691 0 00-2.521 5.762 3.811 3.811 0 00.878 2.77 3.932 3.932 0 00.788.611 3.781 3.781 0 01-.4-.905l-.039-.142a7.612 7.612 0 011.424-6.49 7.191 7.191 0 01.71-.729 11.606 11.606 0 0110.118-2.929 4.086 4.086 0 001.791-.182c-.461-.14-.911-.281-1.345-.423a11.784 11.784 0 01-3.261-.051 6.791 6.791 0 00-.806-.041zm10.6 5.756a.213.213 0 00-.353-.1.212.212 0 00-.058.2 15.412 15.412 0 00.6 1.823l.08.195a9.13 9.13 0 00-.682 1.979.218.218 0 00.031.161.208.208 0 00.134.089h.047a.21.21 0 00.207-.167 8.025 8.025 0 01.5-1.544 4.215 4.215 0 001.255 1.675.209.209 0 00.294-.061.212.212 0 00-.061-.292 4.35 4.35 0 01-1.257-1.827 16.116 16.116 0 011.122-1.956l.014-.021a.212.212 0 00-.361-.22 15.575 15.575 0 00-.99 1.675 14.839 14.839 0 01-.515-1.6zm-2.686-.129a.206.206 0 01.089.1l.009.026a14.023 14.023 0 00.516 1.6l.1-.186a15.512 15.512 0 01.89-1.482.212.212 0 01.361.22l-.014.021a16.2 16.2 0 00-1.12 1.95 4.37 4.37 0 001.259 1.833.212.212 0 01.061.292.209.209 0 01-.294.061 4.226 4.226 0 01-1.257-1.679 7.988 7.988 0 00-.5 1.548.21.21 0 01-.207.167h-.042a.208.208 0 01-.134-.089.219.219 0 01-.031-.161 9.155 9.155 0 01.684-1.983l-.054-.131a15.447 15.447 0 01-.624-1.882.212.212 0 01.152-.256.224.224 0 01.16.031zm46.55-28.6a98.243 98.243 0 014.412-.615 44.024 44.024 0 017.2.064l.628.042.255.017c.884.059 1.651.112 2.223.121h.275a6.53 6.53 0 015.564 3.028 7.909 7.909 0 01.505 7.475l-.019.042c-.641 1.4-3.513 5.058-9.984 9.169l-.277.178c-.465.3-.948.592-1.44.88a96.089 96.089 0 01-14.667 6.9l-.345.133c-.811.307-1.657.617-2.52.924-4.422 1.579-9.3 3.073-14.506 4.441-.142-.4-.4-1.1-.728-1.952l-.075-.195c-.046-.108-.092-.22-.138-.334l-.285-.708.025.061a.486.486 0 00-.019-.057 56.021 56.021 0 00-1.868-4.126 27.37 27.37 0 00-1.634-2.848l-.1-.154 2.794-1.675a68.609 68.609 0 009.4-2.857.212.212 0 00.122-.174.212.212 0 00-.3-.211 54.5 54.5 0 01-7.4 2.343l-.549.142a767.578 767.578 0 014.942-2.9l.817-.472a.423.423 0 00.255-.144c.345-.195.694-.4 1.044-.6.34-.2.683-.4 1.027-.59 3.324-1.924 6.765-3.914 8.778-4.834.4-.159 9.5-3.842 10.642-4.362l.09-.042a.425.425 0 00.04-.732.43.43 0 00-.436-.017c-.693.332-8.052 3.316-10.128 4.157l-.1.04-.382.154-.064.025-.1.047c-1.583.732-3.935 2.047-6.421 3.476l-2.35 1.355c-.7.4-1.405.8-2.09 1.2a39.129 39.129 0 01-2.69-.624l-.194-.053a10.471 10.471 0 01-.306-2.205.212.212 0 10-.423 0 10.852 10.852 0 00.253 2.074 53.984 53.984 0 01-7.4-2.679l-.393-.173c-1.736-.772-3.878-1.687-5.788-2.311l-14.462-4.509a.423.423 0 00-.252.808L77.307 95.6c2.015.658 4.316 1.656 6.094 2.451l.312.142a51.233 51.233 0 009.7 3.2 627.11 627.11 0 00-7.556 4.455l-1.813 1.091a28.05 28.05 0 01-10.241 2.421h-.211a.512.512 0 00-.08.011c-.137.008-.275.008-.417.008h-.471a29.943 29.943 0 01-6.5-3.045l-.044-.026a.211.211 0 00-.2.37 35.533 35.533 0 004.9 2.529l.165.066a35.142 35.142 0 01-4.418-.831c-.586-.141-1.178-.3-1.764-.463l-.831-.241a59.342 59.342 0 01-1.8-.558l-.231-.076c-.311-.1-.63-.209-.955-.326l-.121-.042a31.035 31.035 0 01-7.039-3.91 23.661 23.661 0 01-4.967-4.819l-.071-.091a7.755 7.755 0 01-1.569-5.2 6.79 6.79 0 011.385-3.658c1.757-2.32 5.462-3.079 8.313-3.009l11.33.812a24.92 24.92 0 004.386-.072 169.059 169.059 0 0116.968-1.125h.148l.967.027v2.743a.212.212 0 10.423 0v-2.73c1.728.055 3.987.133 6.825.247l2.395.1a49.34 49.34 0 0010.114-.8zm-17.881 15.815l-.123.07zm-10.391 7.073a36.946 36.946 0 013.253 6.285l.154.368c-.7.281-1.458.554-2.245.808l-.138.044a67.813 67.813 0 01-10.734 2.345l-.343.047a4.476 4.476 0 00.054-1.487 5.074 5.074 0 00-.131-.728l-.017-.068-.017-.065a9.937 9.937 0 00-.129-.423l-.042-.127-.04-.112a15.327 15.327 0 00-.272-.681l-.061-.142-.082-.184a9.103 9.103 0 01-.314-.829c-.054-.167-.1-.338-.146-.51a1.988 1.988 0 01-.021-.732v-.074a1.39 1.39 0 01.053-.195.349.349 0 01.019-.057 1.57 1.57 0 01.059-.146l.026-.057c.014-.029.03-.061.052-.1l.034-.057c.04-.066.084-.131.131-.195l.009-.01.008-.015c.009-.013.019-.023.03-.036l.017-.023.015-.017.04-.049.068-.076a3.5 3.5 0 01.26-.247l.074-.059.043-.032h.073a29.445 29.445 0 0010.26-2.365zm3.227 8.757a5.25 5.25 0 00-.973-.776h.007q.755-.263 1.459-.546l.914 2.417a4.508 4.508 0 01-1.407-1.097zm34.458-10.292a89.082 89.082 0 01-8.874 4.472 6.928 6.928 0 00-.707 1.491 6.266 6.266 0 001.458 1.983.212.212 0 01.021.3.208.208 0 01-.159.072.2.2 0 01-.139-.051 6.355 6.355 0 01-1.37-1.742l-.037.116c-.182.592-.288 1.049-.292 1.064a.209.209 0 01-.2.159.136.136 0 01-.029 0 .051.051 0 01-.018 0 .21.21 0 01-.164-.226v-.04c.029-.12.193-.814.464-1.6a8.465 8.465 0 01-.347-.877q-.559.235-1.129.469c-.151.218-.31.467-.462.715a3.573 3.573 0 001.138 1.144.216.216 0 01.113.119.206.206 0 010 .161.209.209 0 01-.195.133.2.2 0 01-.085-.019 3.582 3.582 0 01-1.207-1.142l-.188.323c-.166.29-.283.5-.3.537a.213.213 0 01-.288.084.208.208 0 01-.1-.125.215.215 0 01.017-.163l.217-.389c.1-.182.233-.41.379-.654l-.074-.114a8.663 8.663 0 00-.1-.154q-.713.285-1.443.564a2.928 2.928 0 00.532 1.047 2.842 2.842 0 00.255.277l.461.065a44.969 44.969 0 016.948 1.484l.32.121c1.787.66 5.588 1.823 8.163 1.028l-.015-.182-.022-.228a9.894 9.894 0 00-.712-2.984l-.047-.1a9.428 9.428 0 01-.722-3.2v-.009a13.69 13.69 0 00-.405-2.408l-.06-.222-.048-.138-.026-.074a3.47 3.47 0 00-.08-.2.12.12 0 00-.011-.027 1.075 1.075 0 00-.02-.051l-.009-.019c0-.006 0-.011-.008-.017v-.006a.038.038 0 010-.009l-.013-.029-.014-.034-.023-.051a.408.408 0 01-.019-.042l-.059-.118-.082-.158zm.954-.577c.254-.152.5-.3.75-.463a12.764 12.764 0 011.453 4.441 15.712 15.712 0 00.755 3.55 8.8 8.8 0 01.575 3.369c-.015.03-.11.114-.374.173a2.575 2.575 0 01-.684.066 16.331 16.331 0 00-.039-.434l-.01-.091a10.126 10.126 0 00-.84-3.282l-.04-.078a7.823 7.823 0 01-.539-2.362l-.115-.983a11.968 11.968 0 00-.45-2.3 6.156 6.156 0 00-.087-.239l-.014-.034-.015-.036-.089-.218-.007-.015-.006-.012a.222.222 0 01-.01-.023c0-.011-.009-.019-.013-.03l-.008-.019c-.021-.051-.045-.1-.068-.15l-.065-.133a10.55 10.55 0 00-.292-.548l.04-.023.081-.049zM81.492 115.3a.21.21 0 01-.07.283 3.236 3.236 0 01-1.432.334h-.175a2.08 2.08 0 01-.252-.013.212.212 0 01.015-.423l.143.006a3.026 3.026 0 001.489-.269.215.215 0 01.282.08zm-28.575-1.144a.213.213 0 00-.151-.148.218.218 0 00-.2.057 3.045 3.045 0 00-.833 1.6.212.212 0 00.184.237h.028a.211.211 0 00.209-.184l.016-.081a2.626 2.626 0 01.7-1.279.21.21 0 00.047-.204zm53.993-.937l-.108.04-.12.047c-.333.127-.673.256-1.017.376.454.123.986.245 1.606.362a3.687 3.687 0 01-.361-.827zm13.379-3.569a.216.216 0 00-.131-.1.212.212 0 00-.256.152c-.025.1-.582 2.32.368 3.185a.207.207 0 00.142.055.21.21 0 00.2-.135.213.213 0 00-.055-.233l-.04-.038c-.554-.579-.365-2.03-.221-2.647l.02-.08a.209.209 0 00-.027-.161zm-8 1.406l-.472.2.039.119c.036.1.08.222.131.351.093-.23.194-.46.302-.672zM91.47 95.499a.212.212 0 00-.072-.2.214.214 0 00-.351.123 9.809 9.809 0 00-.148 1.222.21.21 0 00.2.224h.015a.21.21 0 00.216-.2 9.406 9.406 0 01.141-1.171zm30.1-8.359a.212.212 0 01-.292.3c-1.364-1.311-3.655-.33-5.937.767l-.477.231c-.526.256-1.07.518-1.6.753-3.72 1.654-12.595 3.73-25.359 4.138q-.776.025-1.531.025a40.343 40.343 0 01-18.169-4.2l-1.094-.505a12.8 12.8 0 00-3.061-1.114c-.969-.129-1.527.07-1.658.594a.212.212 0 01-.388.057.211.211 0 01-.023-.161c.133-.527.609-1.112 2.115-.911a12.576 12.576 0 013.169 1.144l1.383.639a39.957 39.957 0 0019.244 4.007c12.7-.406 21.514-2.464 25.2-4.1.347-.152.7-.321 1.054-.49l1.084-.524c2.399-1.145 4.792-2.152 6.342-.652zm-71.258 5.251c-.118.045-.323.108-.423.021a.563.563 0 01-.051-.505.212.212 0 00-.41-.108.949.949 0 00.18.928.609.609 0 00.423.15 1.144 1.144 0 00.427-.084c1.271-.5.937-.821-.144-.405zm80.484-3.749a.214.214 0 01.138.084.219.219 0 01.042.129l-.019.176c-.053.5-.154 2.117.715 2.6l.047.025c.112.055.271.116.366.051a.547.547 0 00.121-.493.212.212 0 01.186-.237.215.215 0 01.237.186.931.931 0 01-.3.895.579.579 0 01-.34.1 1.067 1.067 0 01-.518-.156c-1.28-.715-.929-3.07-.912-3.182a.213.213 0 01.239-.181z" fill="#081f4d" fill-rule="evenodd"/><path data-name="Tracé 17401" d="M83.719 34.896a.426.426 0 00-.567-.4l-4.058 1.463-3.491 1.14a63.1 63.1 0 00-6.192 2.554c-4.811 2.39-7.957 5.709-9.621 10.15a23.46 23.46 0 00-1.03 4.728l-.081.7a91.959 91.959 0 01-3.038 15.724 41.87 41.87 0 01-.13.421c-.181.584-.36 1.163-.517 1.723a12.793 12.793 0 001.214 9.8l.066.116a12.636 12.636 0 007.631 5.876 44.107 44.107 0 007.871 1.313l17.919.082 17.979-.084a44.1 44.1 0 007.87-1.313l.129-.036a12.626 12.626 0 007.569-5.955 12.8 12.8 0 001.212-9.8c-.194-.7-.41-1.421-.647-2.144l-.058-.18a94.186 94.186 0 01-3.012-15.835l-.047-.415a23.687 23.687 0 00-1.03-4.726c-1.664-4.441-4.813-7.767-9.624-10.15a62.733 62.733 0 00-6.2-2.559l-3.806-1.239-3.806-1.229a.425.425 0 00-.372.063.435.435 0 00-.18.338c-.021.489-2.455 2.844-5.942 2.844-3.307.01-5.984-2.367-6.011-2.97zm-4.341 1.869l3.665-1.32c.7 1.318 3.559 3.28 6.691 3.28 3.163 0 5.957-1.871 6.631-3.157l3.417 1.1 3.779 1.229a62.232 62.232 0 016.1 2.516c4.608 2.284 7.621 5.456 9.207 9.685a23.075 23.075 0 01.979 4.525 95.431 95.431 0 003.155 16.595c.23.719.444 1.427.634 2.115a11.945 11.945 0 01-1.131 9.154 11.793 11.793 0 01-7.19 5.6l-.316.083a43.44 43.44 0 01-7.388 1.2l-17.862.082-17.923-.082a43.443 43.443 0 01-7.689-1.281 11.793 11.793 0 01-7.19-5.593 11.952 11.952 0 01-1.133-9.156c.19-.689.4-1.4.634-2.115l.058-.18a93.74 93.74 0 003.016-15.712l.1-.825a23.547 23.547 0 01.966-4.4c1.594-4.231 4.6-7.4 9.207-9.685a62.2 62.2 0 016.092-2.512zM68.907 51.297a.425.425 0 01.242.348l.106 1.408c.211 2.89.647 9.6.448 14.144l-.018.379a48.2 48.2 0 01-1.356 9.71 7.035 7.035 0 002.163 1.25 14.677 14.677 0 003.609.692.423.423 0 01.013.846h-.049a15.6 15.6 0 01-3.823-.729 9.682 9.682 0 01-3.17-1.979l-.419-.347a11.457 11.457 0 00-4.116-2.455 8.243 8.243 0 00-4.513-.165.423.423 0 11-.239-.812 9.034 9.034 0 014.982.163 12.778 12.778 0 014.618 2.776l.013.01.2.167.043-.178a49.513 49.513 0 001.209-9.372l.014-.355c.2-5.667-.506-14.37-.561-15.04v-.04a.424.424 0 01.6-.42zm42.111.379a.424.424 0 00-.847-.037c-.009.1-.812 9.649-.554 15.552l.009.19a49.22 49.22 0 001.3 9.659l.063.245a7 7 0 01-2.17 1.25 14.66 14.66 0 01-3.607.692.423.423 0 10.017.846h.017a15.593 15.593 0 003.823-.727 9.327 9.327 0 003.066-1.895l.729-.6a10.9 10.9 0 013.911-2.286 8.243 8.243 0 014.513-.165.423.423 0 10.239-.812 9.1 9.1 0 00-4.982.163 11.985 11.985 0 00-4.349 2.554l-.281.233-.2.163a49.111 49.111 0 01-1.255-9.552l-.007-.175c-.211-5.308.42-13.455.54-15l.018-.241zm-32.6-.426l2.622 3.085a.213.213 0 01.049.154.211.211 0 01-.373.118l-2.62-3.083a.211.211 0 01.321-.275zm.865 3.041l-1.4-1.647a.212.212 0 10-.323.273l1.4 1.649a.211.211 0 10.321-.275zm.945-2.933l.647.761a.211.211 0 11-.321.273l-.647-.759a.212.212 0 11.322-.275zm32-7.386a16.941 16.941 0 00-2.136-1.412.211.211 0 00-.207.368 16.309 16.309 0 012.081 1.376.212.212 0 00.262-.332z" fill="#081f4d" fill-rule="evenodd"/><path data-name="Tracé 17402" d="M114.187 66.869l-.823 25.026c-2.195.947-4.764 1.84-8.137 3.352a10.42 10.42 0 00-.423.2H78.213c-4.354-1.467-8.706-2.552-11.5-3.637l-.592-.233a.125.125 0 01-.076-.11l-.808-24.6a2.607 2.607 0 012.514-2.774h43.922a2.605 2.605 0 012.514 2.776z" fill="#dae0e9" fill-rule="evenodd"/><path data-name="Tracé 17403" d="M111.673 63.674a2.839 2.839 0 012.053.884 3.208 3.208 0 01.886 2.243v.083l-.822 25.026a.42.42 0 01-.256.374c-.664.288-1.369.573-2.109.865l-1.726.683a102.09 102.09 0 00-4.088 1.711l-.207.091c-.1.042-.195.089-.3.135l-.126.057a.4.4 0 01-.178.042H78.213a.421.421 0 01-.135-.023c-1.95-.656-3.865-1.224-5.714-1.776l-.035-.011-1.008-.3c-1.794-.531-3.462-1.053-4.763-1.56-.146-.055-.288-.11-.428-.167l-.048-.019-.121-.049a.54.54 0 01-.342-.488l-.808-24.595a3.206 3.206 0 01.88-2.325 2.844 2.844 0 012.058-.884zm.008.835H67.748a2.006 2.006 0 00-1.449.634 2.357 2.357 0 00-.636 1.638l.8 24.472.4.159c1.516.588 3.552 1.195 5.709 1.836l1.191.357c1.467.44 2.975.9 4.51 1.417h26.433l.179-.082.172-.078a99.78 99.78 0 014.156-1.747l1.693-.67c.716-.283 1.4-.558 2.046-.833l.816-24.758a2.359 2.359 0 00-.647-1.71 2 2 0 00-1.44-.635zm-43.279 1.3a.212.212 0 00-.279-.245 1.891 1.891 0 00-1.269 1.492.211.211 0 00.173.243h.036a.21.21 0 00.205-.173 1.479 1.479 0 01.986-1.16l.024-.009a.21.21 0 00.124-.144z" fill="#081f4d" fill-rule="evenodd"/><g data-name="Groupe 19979"><path data-name="Tracé 15271" d="M92.408 79.767a2.686 2.686 0 11-2.684-2.764 2.725 2.725 0 012.684 2.764" fill="#fbfdff" opacity=".4"/></g><path data-name="Tracé 17411" d="M77.097 63.93c-5.329-.507-7.577-6.626-8.036-9.621l.423 9.621c4.758.208 4.863 0 7.613 0z" fill="#081f4d"/><path data-name="Tracé 17412" d="M102.366 63.93c5.328-.507 7.577-6.626 8.035-9.621l-.423 9.621c-4.757.208-4.863 0-7.612 0z" fill="#081f4d"/><path data-name="Tracé 17413" d="M79.317 95.22c2.009.529 21.037-.964 24.741.529l-9.9 5.646c-4.654-1.374-12.515-3.848-14.841-6.175z" fill="#081f4d"/><path data-name="Tracé 17414" d="M62.929 90.568c-3.278-4.229-6.767-4.124-7.718-4.652.176-1.2 3.489-.423 3.489-.423s5.78 3.383 7.19 3.489v2.537c-.554-.72-1.379.001-2.961-.951z" fill="#081f4d"/><path data-name="Tracé 17415" d="M116.534 90.885c2.855-1.586 5.709-2.009 6.661-2.537a11.471 11.471 0 011.135-1.664 6.23 6.23 0 014.892-1.931c-.1-.932-6.555-1.163-6.555-1.163.459.687-7.011 5.9-8.881 5.323v2.537c.553-.721 1.162.387 2.748-.565z" fill="#081f4d"/></g><path d="M84.37 30.886s5.182 4.446 11.285 4.786l-.157-4.528s.1-1.059-1.1-.23c-1.477 1.012-4.238 2.126-5.518 1.942a22.735 22.735 0 01-4.51-1.97z" fill="#081f4d" stroke="#081f4d" stroke-linejoin="round" stroke-miterlimit="10" stroke-width=".5"/><path data-name="Path" d="M85.862 8.158l-4.547 3.831c-.259 2.281-.1 4.372-.275 6.627h0c-.358-.635-.647-1.39-1.443-1.279s-1.145 1-1.234 1.73a3.431 3.431 0 002.478 3.773h0c.071 1.915-.26 3.553.563 5.32a7.773 7.773 0 003.837 3.553 10.258 10.258 0 003.578 1.031 8.636 8.636 0 003.775-.718 8.518 8.518 0 004.311-3.36c1.108-1.839.777-3.726.849-5.826h0a3.432 3.432 0 002.478-3.774c-.091-.7-.42-1.574-1.181-1.723s-.762.617-1.129 1.271h0c-.17-2.292-.382-4.375-.642-6.63" fill="#fff" stroke="#081f4d" stroke-linecap="round" stroke-linejoin="round" stroke-miterlimit="10" stroke-width=".5"/><path data-name="Path" d="M80.146 17.761a18.961 18.961 0 01-.663-6.949 6.529 6.529 0 014.041-5.3A2.678 2.678 0 0185.199 3.4a6.259 6.259 0 012.761-.375c1.841.055 2.9.92 4.759.718.966-.083 2.025-.415 2.987-.433a4.188 4.188 0 012.761.755 2.246 2.246 0 01.773 2.586 1.961 1.961 0 011.7 1.841 2.421 2.421 0 01-1.272 2.218.6.6 0 00-.285.258.534.534 0 00.092.4 4.059 4.059 0 01.1 2.623 12.1 12.1 0 01-1.712 4.6 35.649 35.649 0 00-.966-7.29 40.426 40.426 0 01-12.886-.756 10.907 10.907 0 01-2.144 1.435 1.417 1.417 0 00-.58.423 1.362 1.362 0 00-.166.663v3.982l-.1 1.584z" fill="#1e96fc" stroke="#081f4d" stroke-linecap="round" stroke-linejoin="round" stroke-width=".5"/><g data-name="Groupe 22074"><path data-name="Path" d="M85.15 19.09h-.055a.746.746 0 00-.129.11.672.672 0 00-.156.239.7.7 0 000 .1.635.635 0 000 .184v.066a1.1 1.1 0 000 .184.221.221 0 000 .074l.073.169.1.138h.52a.442.442 0 00.212-.12.4.4 0 00.074-.1v-.124a.709.709 0 000-.138.58.58 0 000-.175v-.081l-.068-.186a.515.515 0 00-.083-.156.4.4 0 00-.074.009.552.552 0 00-.174-.055.423.423 0 00-.187 0 .525.525 0 00-.274.211.488.488 0 000 .359l.065.166a.92.92 0 01.046.152v-.244l.046-.11.073-.092.102-.074.11-.046h.193l.111.046.092.064.074.092a.285.285 0 010-.092v.11a.6.6 0 010-.12v.056l-.046.11a.184.184 0 010-.074l-.074.093.055-.055-.092.074h.055a.3.3 0 00.129-.11.3.3 0 00.083-.157.322.322 0 000-.184.3.3 0 00-.055-.175.46.46 0 00-.276-.212h-.117a.506.506 0 00-.23.064zM93.205 19.089h-.055a.746.746 0 00-.129.111.672.672 0 00-.157.239l-.046.1a1.252 1.252 0 000 .184.083.083 0 000 .064.589.589 0 000 .184.221.221 0 000 .074 1.307 1.307 0 00.074.166l.1.138h.056a.166.166 0 00.064 0h.399a.442.442 0 00.212-.12l.074-.1v-.119a.709.709 0 00-.003-.139 1.151 1.151 0 000-.175v-.082l-.055-.184a.515.515 0 00-.083-.159.525.525 0 00-.129-.117.552.552 0 00-.175-.055.414.414 0 00-.184 0 .46.46 0 00-.322.572l.065.164a.188.188 0 00.045.147v-.239l.046-.111.065-.092.092-.069.11-.05h.194l.11.05.092.06.074.092a.285.285 0 010-.092v.11a.6.6 0 010-.12v.12a.184.184 0 010-.1v.12a.3.3 0 010-.083l-.046.11a.184.184 0 010-.074l-.074.092.055-.055-.092.074h.055a.377.377 0 00.129-.111.515.515 0 00.083-.156.423.423 0 000-.184v.009a.46.46 0 00-.276-.212h-.12a.479.479 0 00-.23.064z" fill="#081f4d"/><path data-name="Ligne 2" fill="none" stroke="#081f4d" stroke-linecap="round" stroke-width=".5" d="M89.39 19.469v3.724"/><path data-name="Tracé 20779" d="M84.269 17.394a1.994 1.994 0 01.644-.275 2.277 2.277 0 01.729 0" fill="none" stroke="#081f4d" stroke-linecap="round" stroke-width=".5"/><path data-name="Tracé 20780" d="M92.922 17.187a1.994 1.994 0 01.696-.074 2.277 2.277 0 01.697.213" fill="none" stroke="#081f4d" stroke-linecap="round" stroke-width=".5"/><path data-name="Tracé 20782" d="M87.68 26.261a2.866 2.866 0 001.867.608s.119-.028.427-.137a1.778 1.778 0 001.043-.823" fill="none" stroke="#081f4d" stroke-linecap="round" stroke-linejoin="round" stroke-width=".50026"/></g><path data-name="Ligne 3" fill="none" stroke="#081f4d" stroke-linecap="round" stroke-width=".5" d="M83.619 35.152v-4.404"/></g></g></g></svg>