<svg xmlns="http://www.w3.org/2000/svg" width="120" height="80"><defs><clipPath id="clip-path"><path id="Rectangle_8159" data-name="Rectangle 8159" class="cls-1" transform="translate(-17107 -21270)" d="M0 0h120v80H0z"/></clipPath><style>.cls-1{fill:#fff}.cls-3{fill:#f6f9fb}.cls-11,.cls-6{fill:#1e96fc}.cls-10,.cls-11,.cls-16,.cls-6,.cls-8{stroke:#223254;stroke-width:.5px}.cls-7{fill:#223254}.cls-10,.cls-8{fill:none}.cls-8{stroke-miterlimit:10}.cls-9{fill:#3a3144}.cls-10,.cls-11,.cls-16{stroke-linecap:round;stroke-linejoin:round}.cls-16{fill:#f7f9fb}</style></defs><g id="Groupe_de_masques_122" data-name="Groupe de masques 122" transform="translate(17107 21270)" clip-path="url(#clip-path)"><g id="Groupe_23723" data-name="Groupe 23723" transform="translate(2)"><path id="Tracé_32985" data-name="Tracé 32985" class="cls-3" d="M-17028.3-21170h30.7l.6-11.4v-7.3l-.2-5.3-.6-5.8-.6-2.9-4-8.4-20.5-4.2.2 1.8v1.5l-1 4.6-1 5.6-1 5.4-1.1 8.2-.8 7.7-.5 6.4z"/><path id="Tracé_32984" data-name="Tracé 32984" class="cls-3" d="m-17040.4-21236.6-.6-.9-.4.3-.3.6.3 1.2 2 5.8 1.7 4.6 1.4 3.7 1.7 3.3 1.1 1.8 1.2 1.2 1.2.5 1.3.1h1.6l1.5-.4 1-.8 1-1.2v1.8l.5.6 1.5.5 3 .5 6 .4 9.1-.6 3.2-.8.4-.6-.1-1.4-.3-1.5-.1-3v-1.1l1.3 2.7.7 2 .4 1-.7 1.8-.8 2-1.3 3.5-2.4 5.3-1 1.5.4 1 .7 1 1 .7 1.5.5 1 .2 3.6-4.5 3.4-4.6 1.5-2.7.9-2.1.3-1.5v-1.8l-.3-3-.4-2.3-.8-3-1.5-5.3-1.4-4-1.3-3.9-1.1-2.6-1.4-1.4-1.5-1-1.8-.6-2-.5-2.3-.2h-1.4l-.1 1.3-.5 1.3-.7 1-1 1.3-1 .6-1.7.3-1.5-.1-1.5-.6-1.2-1-.9-1-.5-1-.1-1.2v-1h-1.6l-1.7.3-1.6.5-1.5.6-1.1.7-1 1.4-.4.8-.7 4.2-.4 3.1-.3 2.3-.4 3-.4 2.3-.6-2.2-.8-1.9-1.5-2.1-1.4-2.3-1-1.7-1-1.9-.2-1.2-.6-.4z"/><path id="Tracé_32983" data-name="Tracé 32983" class="cls-1" d="m-17035.2-21244-.3-.7-1.5 1.9-1.1-2-1-3.2-1 2.3-1.1 1.5-1 1.6v2.4l1.5 3.8 1-.2 1.4-.4 1-.7 1-1 .6-1.1.4-1.5z"/><path id="Tracé_32982" data-name="Tracé 32982" class="cls-1" d="m-17019.4-21257-.1 3.4v2.9l.7 1.6 1 1 .8 1-.3 3-.8.2h-1l.3 2 1 1.8 1.1 1.1 1.5.7 1.2.3h1.2l1.2-.3 1.1-.7 1-1 .7-1.1.5-1.7.1-1h-1.9l-.4-6.3 1.5-4.4.5-2.4-1.6-3.8-2.7-1-5 1.3z"/><path id="Tracé_32981" data-name="Tracé 32981" d="m-17096.6-21198.6 1.2-6.1 5.2-8.2 18-4.2.5 2.8.8 2.7 1.7 5.7 2 6.9 1.6 6.3 1.4 5.5 1.4 5.7 1.8 8.8.5 2.7h-39.6l1.3-5.6.9-5.3.4-5.2.2-5.3z" fill="#1e96fc"/><path id="Tracé_32980" data-name="Tracé 32980" d="M-17089-21244.7h-2l-2.5.3-2 .9-1.3 1.2-1.4 2.6-1.7 3.9-1.2 3.3-1.2 3.8-.8 2.8-.7 3.6-.3 2 .3 1.5.5 2 1 1.7 1.3 1.7 3 3.4 4 3.5 1.9 1.4 1.2.9 1-.7 1.3-1 1.3-1.3.3-.7-1-1.8-1.7-3.6-3-5-1.2-1.1-1.4-1.3 1.9-5 .7 2.8v3.9l.3.9h20l.5-.4.2-.6-.2-3.3.3-2 .8-.3.2 1.8 1 2.2 1.5 2.2 1.7 1.7 1.6 1.2 1.6.5h1.6l1.6-.4 1.5-1.1 1-1.5 1.3-2.6 1.2-3.4 1.3-4.8.9-4.7.7-2.4 1.4-2.8-1.9-.7-1.5-1-1-1.1v-.8l-1 1.4-1.7 3.5-1.5 3-1 2-1 1.7-.7 2-.9 3-.7-3-1.1-3.8-1-3.2-1.3-3.3-1-2.1-1.3-1.2-1.5-.9-1.8-.6-1.8-.3-2.3.1-.2 1.5-.6 1.2-1 1.1-1.6.6-1.6.2-1.8-.3-1.8-.8-1.5-1.2-1.1-1z" fill="#ffc300"/><path id="Tracé_32979" data-name="Tracé 32979" class="cls-1" d="m-17085.6-21244-1.5-.4-1.1-.2h-1l1.2 1.4 1.4 1.7 1.2.9 1.2.6 1.4.4 1.1.2 1.3-.2 1.1-.4 1.2-.7.7-1 .4-.7.2-.8v-.9l-2 .4.2-4.1 1-.4.7-.8.6-1 .3-1.2.3-1.6v-4.7l-1.4-3-5 .2-5 1.4-1.1 2.3 2 4.8 1.2 1.1v1.3z"/><g id="Groupe_23722" data-name="Groupe 23722" transform="translate(636.2 -285.8)"><path id="Path" class="cls-6" d="M13.1 6s1-5.8-4.4-6c-3.9-.1-5 3-5 6S.8 8.6.1 10.5a2.2 2.2 0 0 0 .2 2.2 3.2 3.2 0 0 1 .7 2.5 2.7 2.7 0 0 0 1 2.6c1.8 1.4 4.2-.3 4.6-3a2.5 2.5 0 0 1 .7-1.3c.3-.4.7-1.3.5-3.3-.5-3.6 3-6.6 4.2-4.2" transform="translate(-17734 -20983)"/><g id="Groupe_23721" data-name="Groupe 23721" transform="translate(-17683.5 -20978)"><path id="Path-2" data-name="Path" class="cls-7" d="M0 .3a7.2 7.2 0 0 0 .8 3.3L1 0" transform="translate(27 5.7)"/><path id="Path-3" data-name="Path" class="cls-7" d="M.6.2A24 24 0 0 0 0 5a22.2 22.2 0 0 0 0 3.5 5 5 0 0 0 1.4 2.9 3.5 3.5 0 0 0 2.8 1 4.6 4.6 0 0 0 3.3-1.6c.1-.2-.1-.5-.3-.3-1.3 1.6-4 2.2-5.5.7S.4 7.3.4 5.3a25 25 0 0 1 .5-5A.2.2 0 0 0 .8 0a.2.2 0 0 0-.2.2z" transform="translate(27.6 4.1)"/><path id="Path-4" data-name="Path" class="cls-7" d="M.1.3a.5.5 0 0 1 0 .1h.2v.2L.5.4a.2.2 0 0 0 0-.1.2.2 0 0 0 0-.1.2.2 0 0 0-.2 0 .2.2 0 0 0-.1 0L0 .5a.2.2 0 0 0 0 .2.3.3 0 0 0 .1 0 .2.2 0 0 0 .1 0 .2.2 0 0 0 .1 0 .2.2 0 0 0 .1 0 .7.7 0 0 0 0-.1.5.5 0 0 0 .1-.1.6.6 0 0 0 0-.1.7.7 0 0 0 0-.1.3.3 0 0 0 0-.1.3.3 0 0 0-.1-.2.2.2 0 0 0-.2 0 .2.2 0 0 0-.1.1.2.2 0 0 0 0 .1.2.2 0 0 0 0 .2z" transform="translate(32.7 9)"/><path id="Path-5" data-name="Path" class="cls-7" d="M0 .4H.4v.2L.4.4a.2.2 0 0 0 0-.1.2.2 0 0 0 0-.1.2.2 0 0 0-.2 0 .2.2 0 0 0-.1 0 2.3 2.3 0 0 0-.1.3.2.2 0 0 0 .1.2.2.2 0 0 0 .1 0 .2.2 0 0 0 .1 0 .4.4 0 0 0 .1 0 .4.4 0 0 0 0-.1.4.4 0 0 0 .1-.1.6.6 0 0 0 0-.1V.2A.3.3 0 0 0 .4 0a.2.2 0 0 0-.2 0 .2.2 0 0 0-.1.1.2.2 0 0 0 0 .1.2.2 0 0 0 0 .2z" transform="translate(29 9.1)"/><path id="Path-6" data-name="Path" d="M.6 3.9a3.3 3.3 0 0 0 1.8-2A1.6 1.6 0 0 0 2.2.3 1.1 1.1 0 0 0 1 0a1.6 1.6 0 0 0-1 1.2.2.2 0 0 0 .1.2.2.2 0 0 0 .3-.1 1.2 1.2 0 0 1 .9-1 .7.7 0 0 1 .6.2.8.8 0 0 1 .3.7 2.4 2.4 0 0 1-.6 1.3 2.7 2.7 0 0 1-1 .9c-.3 0-.2.5 0 .4z" transform="translate(36.3 6.9)"/><path id="Path-7" data-name="Path" class="cls-7" d="M.9 0a.3.3 0 0 0-.4 0 .7.7 0 0 0-.2.4 2.5 2.5 0 0 0-.3 1A2.4 2.4 0 0 1 .4.4 1 1 0 0 1 .5.2a.3.3 0 0 1 .3 0S1 .1 1 0z" transform="translate(37 8)"/><path id="Path-8" data-name="Path" class="cls-7" d="M.4.2a.2.2 0 0 0-.2 0 .4.4 0 0 0-.2.1v.1A.3.3 0 0 1 .3.2h.1z" transform="translate(37 8.3)"/><path id="Path-9" data-name="Path" class="cls-7" d="M0 .2Q0 4.1.3 8l.1 2c0 .3.4.3.4 0C.6 7.4.4 4.8.4 2.1V.2A.2.2 0 0 0 .2 0a.2.2 0 0 0-.2.2z" transform="translate(36.7 10.4)"/><path id="Path-10" data-name="Path" class="cls-7" d="M0 .2c0 1.4.2 3 .1 4.4a.2.2 0 1 0 .4 0L.4.2a.2.2 0 1 0-.4 0z" transform="translate(29.7 15.8)"/><path id="Path-11" data-name="Path" class="cls-7" d="M.2.1A11.5 11.5 0 0 0 0 2.3a.2.2 0 0 0 .2.2.2.2 0 0 0 .2-.2 11 11 0 0 1 .2-2C.6 0 .3-.2.2 0z" transform="translate(30.3 9)"/><path id="Path-12" data-name="Path" class="cls-7" d="M1 .2A1.4 1.4 0 0 0 .3 0 .2.2 0 0 0 0 0a.2.2 0 0 0-.1.2c0 .1 0 .2.2.2a1.2 1.2 0 0 1 .2 0h.2a1 1 0 0 1 .2 0l.1.1a.2.2 0 0 0 .3 0A.2.2 0 0 0 1 .2z" transform="translate(32.5 7.5)"/><path id="Path-13" data-name="Path" class="cls-7" d="M1 .2A1.4 1.4 0 0 0 .3 0 .2.2 0 0 0 0 0a.2.2 0 0 0-.1.2c0 .1 0 .2.2.2a1.2 1.2 0 0 1 .2 0h.2a1.4 1.4 0 0 1 .2 0l.1.1a.2.2 0 0 0 .3 0A.2.2 0 0 0 1 .2z" transform="translate(28.5 7.8)"/><path id="Path-14" data-name="Path" class="cls-7" d="M4.7 0S2.4 3.8 0 5V3.1l-.1-2 1 .3C2.5 1.7 4.3.5 4.8 0z" transform="translate(29.9 14.8)"/><path id="Path-15" data-name="Path" class="cls-7" d="M.9 0 .7.2a2 2 0 0 1-.3.2H.4a2.2 2.2 0 0 1-.3.1.2.2 0 0 0 0 .3.2.2 0 0 0 .1.1 2.2 2.2 0 0 0 1-.5.2.2 0 0 0 0-.2.2.2 0 0 0-.3 0z" transform="translate(31.1 11.6)"/><path id="Path-16" data-name="Path" class="cls-6" d="M8.7 3.7S2.9 9 .5 6s5-8.7 10.3-4.2a3.7 3.7 0 0 1 2.3 3c.5 2.6-1.1 6.4-1.3 7.5s-.9 1.7-1 1.6.2-2 .2-2-.3-1.2.2-1.2 1.8-2 1.2-3.1-1.5.3-1.5.3-.2 1.4-.6 1-.2-1-.4-1.5-1.7-.9-1.3-2.6 0-1 0-1z" transform="translate(25.9)"/><g id="Group" transform="translate(17.3 19.8)"><path id="Path-17" data-name="Path" class="cls-8" d="M56 0s-9.4-.4-10.5 4.6-2.1 15.8-2.1 15.8" transform="translate(-43.4)"/><path id="Path-18" data-name="Path" class="cls-8" d="M0 0a1.5 1.5 0 0 1 .3.5C1 1.9.8 8.2.7 9.8a53 53 0 0 1-.7 7.4 1.3 1.3 0 0 0 1 1.5c4.9 1.6 15.2 1 21.8 0a1 1 0 0 0 .7-.3 1.2 1.2 0 0 0 .3-.9c-.4-2-.5-2.2-.4-6.6" transform="translate(5.2 11)"/></g><path id="Path-19" data-name="Path" class="cls-8" d="M0 0S10.5-1 12.8 5.2s7.3 20 6 25.5S9.2 45 9.2 45s-3.5-.2-4.2-3.2A93.1 93.1 0 0 0 9 32.4a26.7 26.7 0 0 1 1.6-4.1 1.1 1.1 0 0 0 .1-1c-.6-1.7-2.8-7.5-4-9.2" transform="translate(37.3 20)"/><path id="Path-20" data-name="Path" class="cls-7" d="M0 .1a5.5 5.5 0 0 0 3.3 5.7 5.9 5.9 0 0 0 3.4.5 4.8 4.8 0 0 0 3-2A7 7 0 0 0 11.3.6a.2.2 0 1 0-.4 0C10.7 2.8 9.2 5.2 7 5.8a5.5 5.5 0 0 1-5.7-2.1A4.7 4.7 0 0 1 .4.3C.4 0 .1-.1.1 0z" transform="translate(28.1 19.6)"/><g id="Group-2" data-name="Group" transform="translate(18.8 49.6)"><path id="Path-21" data-name="Path" class="cls-8" d="M0 0a12.7 12.7 0 0 0 .4 3.1l.2.8" transform="translate(26.5)"/><path id="Path-22" data-name="Path" class="cls-8" d="M5.8 0v.2a12.7 12.7 0 0 1-.4 3.1A232.4 232.4 0 0 0 .4 66c2 30 4.2 42.6 4.8 45.3a1 1 0 0 1-.3 1L3 114a1 1 0 0 0-.3 1.1 1 1 0 0 0 .9.7h26.8a1 1 0 0 0 1-1c0-4.7.2-24.8 0-35.7-.1-5.2-.5-10.1-1-14a83.7 83.7 0 0 1 0-18.3c1-8.7 1.9-22.5-.1-34.8" transform="translate(0 .2)"/><path id="Path-23" data-name="Path" class="cls-8" d="M0 0s2.8 2.5 2.6 5.2S.8 46.3 2.6 65C4 79.4 4.7 89 5 92.7a3.3 3.3 0 0 1-1 2.5l-1 1a1 1 0 0 0-.2 1.2 1 1 0 0 0 .9.6h1.8" transform="translate(10.2 18)"/></g><path id="Path-24" data-name="Path" class="cls-7" d="M0 .4s15.7 5.5 20.2 5l.3-.7a1.4 1.4 0 0 0 .1-1.5c-.4-1 0-2.6-.4-3.1C20-.4 12.5 2 0 .4z" transform="translate(25.1 49.5)"/><path id="Path-25" data-name="Path" class="cls-7" d="M0 .3a12.4 12.4 0 0 0 .6 2.1 3.8 3.8 0 0 0 1.1 1.7c.2.1.5-.1.3-.3a3.6 3.6 0 0 1-1-1.6 12.8 12.8 0 0 1-.6-2C.4-.2 0 0 0 .1z" transform="translate(41.3 59.6)"/><path id="Path-26" data-name="Path" class="cls-7" d="M1.9.3a.6.6 0 0 1-.4 0 2.6 2.6 0 0 0-.4-.1A4.5 4.5 0 0 1 .2 0C0 0 0 .3.2.4a5.5 5.5 0 0 0 .9.2c.3 0 .6.2.9.1.2 0 .1-.4-.1-.4z" transform="translate(46 64.8)"/><path id="Path-27" data-name="Path" class="cls-7" d="M1.9 0S-1.4 8 .7 13.6c0 0 .9-.3 1-2.8L2 0z" transform="translate(21.4 33.4)"/><path id="Path-28" data-name="Path" class="cls-7" d="M0 0a9.3 9.3 0 0 0 1.4 5.8V4A2 2 0 0 0 1 2.1" transform="translate(44.5 38.7)"/><path id="Path-29" data-name="Path" class="cls-7" d="M1 0a3.5 3.5 0 0 0-1 1.3.2.2 0 0 0 0 .3.2.2 0 0 0 .2 0 .2.2 0 0 0 .1 0A3.5 3.5 0 0 1 .7.8L.9.7 1 .6a3.6 3.6 0 0 1 .3-.3.2.2 0 0 0 0-.1.2.2 0 0 0 0-.1.2.2 0 0 0-.3 0z" transform="translate(47.8 47)"/><path id="Path-30" data-name="Path" d="M1.9 0s-.5 19.5 0 32 .7 15.3-.2 16.4-2 2-1.6 3.3h3.6s-1.7-.8-.6-1.8 2-2 2-3L3.7 30.6l-1.3-15" transform="translate(29 113.8)"/><path id="Path-31" data-name="Path" class="cls-7" d="M3.4 5.7a6.6 6.6 0 0 0-.7-3A10.3 10.3 0 0 0 .3.2C.1-.1 0 0 .1.3A10.2 10.2 0 0 1 2.3 3 6.2 6.2 0 0 1 3 5.7c0 .3.4.3.4 0z" transform="rotate(47 -16.6 23.7)"/><path id="Path-32" data-name="Path" class="cls-7" d="M.1.4a27 27 0 0 0 2.5 1.1 10.5 10.5 0 0 0 2.6.7c.3 0 .3-.3 0-.3A10.2 10.2 0 0 1 2.7 1 25.4 25.4 0 0 1 .3.1a.2.2 0 1 0-.2.3z" transform="rotate(47 -13.9 17.3)"/><path id="Path-33" data-name="Path" class="cls-7" d="M.1.4a5.8 5.8 0 0 0 1.3.6.2.2 0 0 0 .1 0 .2.2 0 0 0 0-.2.2.2 0 0 0 0-.2A5 5 0 0 1 1 .5 3 3 0 0 1 1 .4 5.5 5.5 0 0 1 .3 0 .2.2 0 0 0 0 0a.2.2 0 0 0 0 .4z" transform="rotate(47 -16.8 17.2)"/><path id="Path-34" data-name="Path" class="cls-7" d="M.1.4a9.8 9.8 0 0 0 1.5.6.2.2 0 0 0 .2 0 .2.2 0 0 0 0-.2.2.2 0 0 0-.1-.2A9.7 9.7 0 0 1 .3 0 .2.2 0 0 0 0 0a.2.2 0 0 0 0 .2.2.2 0 0 0 .1.2z" transform="rotate(47 -19 16.8)"/><path id="Path-35" data-name="Path" class="cls-7" d="M0 .4a4.2 4.2 0 0 1 .8.7 3.5 3.5 0 0 0 .8.7 8.2 8.2 0 0 0 1 .5 24.2 24.2 0 0 0 2.6 1 .2.2 0 0 0 .2-.1.2.2 0 0 0-.1-.3 22.5 22.5 0 0 1-2.5-1 7.4 7.4 0 0 1-1.1-.5C1 1 .8.4.3 0 0 0-.1.2 0 .4z" transform="rotate(47 -21.2 16.4)"/><path id="Path-36" data-name="Path" class="cls-7" d="m1 2.3-.5-1A4.1 4.1 0 0 1 .4.2.2.2 0 0 0 .2 0a.2.2 0 0 0-.2.2 5 5 0 0 0 .1 1.1l.5 1c0 .3.4.2.4 0z" transform="rotate(47 -18.3 22.3)"/><g id="Group-3" data-name="Group" transform="rotate(47 -23 22)"><path id="Path-37" data-name="Path" class="cls-8" d="M15.3 4.9a11 11 0 0 0-5-2.4C7 2 1.8.9 1 .4 1 .4.2-.1 0 0" transform="translate(2.5)"/><path id="Path-38" data-name="Path" class="cls-8" d="M0 0s-.3 1.1 1.1 1.5S18.2 10 22.6 8.7A7.7 7.7 0 0 0 25 7a5.1 5.1 0 0 0 1.4-2.6 7.1 7.1 0 0 0-.6-3.3" transform="translate(0 3.7)"/></g><path id="Path-39" data-name="Path" class="cls-7" d="M.4 4a5 5 0 0 0 .6-.8 8.7 8.7 0 0 0 .5-1 3.8 3.8 0 0 0 .4-2c0-.2-.5-.2-.4 0a3.5 3.5 0 0 1-.4 2L.6 3a4.7 4.7 0 0 1-.5.8c-.2.2.1.4.3.3z" transform="rotate(47 -23.4 22.9)"/></g><path id="Path-40" data-name="Path" class="cls-7" d="M8 .2A21.2 21.2 0 0 1 8 5 23 23 0 0 1 7.8 8a4.7 4.7 0 0 1-1.3 2.7 3.6 3.6 0 0 1-3 .9A4.7 4.7 0 0 1 .5 9.9c-.2-.2-.5 0-.4.2 1.4 1.8 4.2 2.7 6.2 1.5 2-1.3 2.2-3.9 2.3-6A24.7 24.7 0 0 0 8.3 0C8.3 0 8 0 8 .2z" transform="translate(-17720.2 -20973.7)"/><path id="Path-41" data-name="Path" class="cls-7" d="M.2 0a.4.4 0 0 0-.2.2v.2a.4.4 0 0 0 0 .1.4.4 0 0 0 .2.2.2.2 0 0 0 .1 0 .3.3 0 0 0 .2 0 .2.2 0 0 0 0-.2.8.8 0 0 0 0-.2.3.3 0 0 0-.2-.2.2.2 0 0 0-.1 0 .2.2 0 0 0-.1.2.2.2 0 0 0 0 .1v.2-.1L.3.3h.2a.2.2 0 0 0 0-.2.2.2 0 0 0 0-.1.2.2 0 0 0-.2 0z" transform="translate(-17718 -20969.1)"/><path id="Path-42" data-name="Path" class="cls-7" d="M.2 0a.4.4 0 0 0-.2.3.4.4 0 0 0 0 .2.4.4 0 0 0 .2.3.2.2 0 0 0 .1 0 .2.2 0 0 0 .2 0 .2.2 0 0 0 0-.3.6.6 0 0 0 0-.2.2.2 0 0 0-.2-.2.2.2 0 0 0-.1 0 .2.2 0 0 0-.1.2.2.2 0 0 0 0 .1v.2-.1L.3.3h.2a.2.2 0 0 0 0-.1.2.2 0 0 0 0-.2.2.2 0 0 0-.2 0z" transform="translate(-17713.8 -20969)"/><path id="Path-43" data-name="Path" class="cls-7" d="M2.5 3.5A2.4 2.4 0 0 1 .7 2.2a1.8 1.8 0 0 1-.3-1A.8.8 0 0 1 .7.5a.8.8 0 0 1 .6-.2 1.2 1.2 0 0 1 1 1c0 .3.4.2.4 0a1.6 1.6 0 0 0-1-1.3A1.2 1.2 0 0 0 .2.5c-.6 1 .2 2.1.8 2.8a2.3 2.3 0 0 0 1.5.6.2.2 0 1 0 0-.4z" transform="translate(-17723.6 -20971.8)"/><path id="Path-44" data-name="Path" class="cls-7" d="M0 .1a.3.3 0 0 1 .4 0 .9.9 0 0 1 .2.4 2.3 2.3 0 0 1 .2.9 2.4 2.4 0 0 0-.1-1A.7.7 0 0 0 .4 0 .4.4 0 0 0 0 0z" transform="translate(-17722.6 -20970.7)"/><path id="Path-45" data-name="Path" class="cls-7" d="M.1.3h.2a.5.5 0 0 1 0 .1h.2A.4.4 0 0 0 .3 0a.2.2 0 0 0-.3.1z" transform="translate(-17722.3 -20970.3)"/><path id="Path-46" data-name="Path" class="cls-7" d="M.7.2a61.2 61.2 0 0 1-.5 7.7l-.2 2c0 .3.4.3.4 0l.7-7.8V.2a.2.2 0 0 0-.4 0z" transform="translate(-17722 -20968.2)"/><path id="Path-47" data-name="Path" class="cls-7" d="M.2.2 0 4.3a.2.2 0 0 0 .4 0L.6.2a.2.2 0 0 0-.4 0z" transform="translate(-17715 -20962.2)"/><path id="Path-48" data-name="Path" class="cls-7" d="M0 .2a10.3 10.3 0 0 1 .2 2.1.2.2 0 0 0 .4 0A10.7 10.7 0 0 0 .4.1C.4 0 0 0 0 .2z" transform="translate(-17715.7 -20969.3)"/><path id="Path-49" data-name="Path" class="cls-7" d="M.3.6A.8.8 0 0 1 .4.5a2 2 0 0 1 .3 0h.1a1.4 1.4 0 0 1 .3 0 .2.2 0 0 0 .2-.3A.2.2 0 0 0 1 0a1.6 1.6 0 0 0-1 .2.2.2 0 0 0 0 .3.2.2 0 0 0 .2 0z" transform="translate(-17718.7 -20971)"/><path id="Path-50" data-name="Path" class="cls-7" d="M.3.6a.8.8 0 0 1 .1 0V.4a1.1 1.1 0 0 1 .3 0A.5.5 0 0 1 .8.3a1.4 1.4 0 0 1 .3 0 .2.2 0 0 0 .2-.2A.2.2 0 0 0 1 0a1.6 1.6 0 0 0-1 .2.2.2 0 0 0 0 .4.2.2 0 0 0 .2 0z" transform="translate(-17714.4 -20970.9)"/><path id="Path-51" data-name="Path" class="cls-7" d="M0 0a12.2 12.2 0 0 0 4.2 4.1V2.8L4.4.9A7 7 0 0 1 0 0z" transform="translate(-17719.1 -20962.9)"/><path id="Path-52" data-name="Path" class="cls-7" d="M0 .3a2.5 2.5 0 0 0 1.1.4.2.2 0 0 0 .2 0 .2.2 0 0 0 0-.3.2.2 0 0 0-.2 0L.8.2a1.6 1.6 0 0 1-.2 0V.1C.5.2.6.2.6.2H.4A1.8 1.8 0 0 1 .3 0a.2.2 0 0 0-.3.1.2.2 0 0 0 .1.3z" transform="translate(-17716.9 -20966.2)"/><path id="Path-53" data-name="Path" class="cls-1" d="M.1 3.4S.7.4 2 .8l2.3.8L7.8.1a1 1 0 0 1 1 0 1 1 0 0 1 .4.9c.2 1.3.5 4.3-.8 5.3a13.4 13.4 0 0 1-2 1 5 5 0 0 0-1.5.7 2.4 2.4 0 0 1-2.3-.3 17.2 17.2 0 0 1-2-1.5A3.6 3.6 0 0 1 0 3.4z" transform="translate(-17691.4 -20961.5)"/><g id="Group-4" data-name="Group" transform="translate(-17691.6 -20962)"><path id="Path-54" data-name="Path" class="cls-7" d="M4.6 2.8A7.7 7.7 0 0 1 .3 0C.2-.1 0 0 0 .4a8 8 0 0 0 4.5 2.8.2.2 0 0 0 .1-.4z" transform="translate(.1 6)"/><path id="Path-55" data-name="Path" class="cls-7" d="M.5 4.8a6 6 0 0 1 .1-2.7C.8 1.4 1.1.4 2.1.4a3.8 3.8 0 0 1 1.2.3 3.5 3.5 0 0 1 1.1.6.5.5 0 0 1 0 1 1.7 1.7 0 0 1-1.4 0 .2.2 0 0 0-.2 0 .2.2 0 0 0 0 .3 2.9 2.9 0 0 1 .4 1.9c0 .2.4.3.4.1a3.3 3.3 0 0 0-.4-2.2l-.3.3c.7.1 1.7.2 2-.6S4.6.8 4 .5A3.4 3.4 0 0 0 1.5.1C.7.4.5 1.2.2 1.9a6.5 6.5 0 0 0 0 3c0 .3.4.2.3 0z" transform="translate(0 1.2)"/><path id="Path-56" data-name="Path" class="cls-9" d="M3 0a5 5 0 0 1-1.3.8l-1.6.6a.2.2 0 0 0 0 .3.2.2 0 0 0 .2 0L2 1.2A5.1 5.1 0 0 0 3.3.3C3.5.2 3.2 0 3 .1z" transform="translate(5.3)"/><path id="Path-57" data-name="Path" class="cls-9" d="M1 0v.1L.8.3.6.4H.3a1 1 0 0 1-.1.1.2.2 0 0 0-.2.3.2.2 0 0 0 .3.1 3.2 3.2 0 0 0 1-.6.2.2 0 0 0 0-.2.2.2 0 0 0-.2 0z" transform="translate(7.9 2.2)"/><path id="Path-58" data-name="Path" class="cls-9" d="M1.2 0a2.2 2.2 0 0 1-.2.2H.8a4 4 0 0 1-.6.2.2.2 0 0 0-.2.2.2.2 0 0 0 0 .2.2.2 0 0 0 .3 0A3.9 3.9 0 0 0 1.4.4a.2.2 0 0 0 0-.3.2.2 0 0 0-.2 0z" transform="translate(7.7 4.3)"/><path id="Path-59" data-name="Path" class="cls-9" d="M4.7 0a5 5 0 0 1-2.3 1.3 5 5 0 0 0-1.1.5 2.9 2.9 0 0 1-1.2.6c-.2 0-.1.5.2.4a2.8 2.8 0 0 0 1.1-.5 5.4 5.4 0 0 1 1.3-.7A5 5 0 0 0 5 .3C5.2.1 5 0 4.7.1z" transform="translate(4.2 6.1)"/></g><path id="Path-60" data-name="Path" class="cls-6" d="M3.7 11.4 3.5 14S-.2 10 0 6.6C.3 2 3.2 1 4.2.8A5.8 5.8 0 0 0 5 .6c1.1-.4 4.2-1.4 6.8.6 3.5 2.6 2.6 5.6 2.6 5.6h-3.9l-.8-2.4-.2 2.4H4.6s-.7 1-1 .7S2.9 6.3 2 7s-.5 1.9.4 2.8.8.5.8.5.8-.4.5 1.2z" transform="translate(-17724.9 -20978.4)"/><g id="Group-5" data-name="Group" transform="translate(-17747.2 -20959)"><path id="Path-61" data-name="Path" class="cls-8" d="M0 .5s6.8-2 10.4 2.2a59.7 59.7 0 0 1 5.3 15.4.1.1 0 0 0 .2 0 16.7 16.7 0 0 1 2-5.7c2-3 4.6-9.4 4.9-9.8a3.4 3.4 0 0 1 .7-.8" transform="translate(32.3 .6)"/><path id="Path-62" data-name="Path" class="cls-8" d="M21.3 0a13.2 13.2 0 0 0-2.5 5.8c-.8 3.8-2.7 15.6-7 17.8s-8.3-1-11.8-9.3" transform="translate(39.4 5.5)"/><path id="Path-63" data-name="Path" class="cls-8" d="M18.5.7S11.1-1.4 8 1.7-.4 21 0 25.6c.7 6 13.1 14.9 13.1 14.9s3.3-1.8 3.9-3.6c0 0 0-.6-4.6-8.7a14.6 14.6 0 0 0-3.6-4l3.7-11.4" transform="translate(7)"/><path id="Path-64" data-name="Path" class="cls-8" d="M22.2 0a26.8 26.8 0 0 1 0 7 22.2 22.2 0 0 0-.2 4.4v2a1 1 0 0 1-.2.7 1 1 0 0 1-.7.3c-4.2.1-19.3.6-20-.2 0 0 .2-4.7-1.1-6.7" transform="translate(17.2 12.3)"/><path id="Path-65" data-name="Path" class="cls-8" d="M38.6 0v.3a31.8 31.8 0 0 0 1.2 5.1c2.4 8 10 34.1 12.1 52.4a8417 8417 0 0 1 3 26.8 2.7 2.7 0 0 1-2 3c-7.1 1.5-29.1 5.5-51-.7a2.7 2.7 0 0 1-1.6-1.3 2.7 2.7 0 0 1-.2-2.1L10 51.6a81 81 0 0 0 3.6-20.3 87 87 0 0 1 2.8-20.5" transform="translate(0 26.7)"/></g><path id="Path-66" data-name="Path" class="cls-7" d="m.1.4 1.4 1a.2.2 0 0 0 .2-.1.2.2 0 0 0 0-.3L.3 0a.2.2 0 0 0-.2 0 .2.2 0 0 0 0 .4z" transform="translate(-17732.8 -20935.8)"/><path id="Path-67" data-name="Path" class="cls-7" d="M.3 6.2a5.9 5.9 0 0 0 2.1-.8 17 17 0 0 0 2-1.4 6.8 6.8 0 0 0 1.5-1.6A7.6 7.6 0 0 0 7 .3a.2.2 0 0 0-.1-.2.2.2 0 0 0-.2 0 .2.2 0 0 0-.2 0 7.2 7.2 0 0 1-.8 2A6.5 6.5 0 0 1 4 3.8 16.6 16.6 0 0 1 2.2 5a5.7 5.7 0 0 1-2 .8c-.3 0-.2.4 0 .4z" transform="translate(-17729.1 -20923.9)"/><path id="Path-68" data-name="Path" class="cls-7" d="M0 .3A11.6 11.6 0 0 0 5.2 5a5.8 5.8 0 0 0 6.3-1 4.2 4.2 0 0 0 1.2-3 .2.2 0 0 0-.4 0A4.2 4.2 0 0 1 9 5a7.1 7.1 0 0 1-6.2-2A15.3 15.3 0 0 1 .4 0C.2 0-.1 0 0 .4z" transform="translate(-17725.5 -20959)"/><path id="Path-69" data-name="Path" class="cls-7" d="M.4 2.8 1 .3C.9 0 .5-.2.4 0L0 2.7c0 .2.3.4.4.1z" transform="translate(-17699.6 -20940.6)"/><path id="Path-70" data-name="Path" class="cls-7" d="M20.4 1.6S9.2 6.8 4 7.2l-2.8-5L.2.5S-.5 0 .5 0s10 .4 13.2.2l5.5-.2s.8-.1.9.4" transform="translate(-17728.7 -20932.2)"/><path id="Path-71" data-name="Path" class="cls-7" d="M0 2.3s3.6-.3 3.3-.5L1.5.3S.7-.6.5.7" transform="translate(-17731.7 -20921.1)"/><path id="Path-72" data-name="Path" class="cls-7" d="M.2 0s2.4 3 1 8.7L.4 7.3A2.4 2.4 0 0 1 0 5.2 38.6 38.6 0 0 0 .2 0z" transform="translate(-17707.8 -20945.3)"/><path id="Path-73" data-name="Path" class="cls-7" d="M1.8 0s1.9 6-1 9.7L.3 7.4a3.8 3.8 0 0 1-.2-2.2z" transform="translate(-17729.8 -20945.3)"/><g id="Groupe_23720" data-name="Groupe 23720" transform="translate(-17689.2 -20962.9)"><path id="Tracé_11047" data-name="Tracé 11047" class="cls-10" d="M1261.2 74.8a2.7 2.7 0 0 0-.8 5" transform="translate(-1258 -73.3)"/><g id="Groupe_17785" data-name="Groupe 17785" transform="translate(3.5)"><path id="Tracé_11048" data-name="Tracé 11048" class="cls-11" d="M1243.5 71a3 3 0 0 1 4 4.2 2.1 2.1 0 0 1-.1.2 3 3 0 0 1-.5.6l-.1.1-.1.1a2.8 2.8 0 0 1-.4.2 3 3 0 0 1-.5.3 3 3 0 0 1-2.3-5.7" transform="translate(-1241.7 -70.8)"/><path id="Tracé_11049" data-name="Tracé 11049" class="cls-11" d="m1231.8 85.2 3.5 4-.1 1.3-1.3-.1-.2-.3V89l-1.2-.2v-1.1l-1.1-.2v-1.1l-1.1-.2v-1.1l-1.2-.2v-.6a2.8 2.8 0 0 0 .3-.3h.1l.1-.1a3 3 0 0 0 .5-.7l1 1" transform="translate(-1224.5 -78.6)"/><circle id="Ellipse_444" data-name="Ellipse 444" cx=".8" cy=".8" transform="translate(1.3 1.2)" r=".8" stroke-linecap="round" stroke-linejoin="round" stroke="#223254" fill="#fff"/></g><path id="Tracé_11051" data-name="Tracé 11051" d="m.2 9.7-.1.2a.6.6 0 0 0 0 .7L3 14.9a.6.6 0 0 0 1 0L7 10.6a.6.6 0 0 0 0-.7L4 5.6a.6.6 0 0 0-1 0L.9 8.7" stroke-linecap="round" stroke-linejoin="round" stroke-width=".5" stroke="#223254" fill="#ffc300"/><circle id="Ellipse_445" data-name="Ellipse 445" cx=".6" cy=".6" transform="translate(2.9 6.3)" r=".6" fill="#dae0e9" stroke-linecap="round" stroke-linejoin="round" stroke-width=".5" stroke="#223254"/><g id="Groupe_17792" data-name="Groupe 17792" transform="translate(2.4 .2)"><g id="Groupe_17790" data-name="Groupe 17790"><path id="Tracé_11055" data-name="Tracé 11055" class="cls-16" d="M1247.9 71.2a3 3 0 0 1 1.7 5.6 2.2 2.2 0 0 1-.2 0 3 3 0 0 1-.7.4h-.2s0 0 0 0a2.8 2.8 0 0 1-.5.1 3 3 0 0 1-.6 0 3 3 0 0 1 .5-6" transform="translate(-1244.7 -71.2)"/><path id="Tracé_11056" data-name="Tracé 11056" class="cls-16" d="m1245.6 88.8 1.4 5.2-.7 1-1.1-.5-.1-.4.5-1-1-.7.5-1-.9-.6.5-1-1-.7.6-1-1-.7.3-.5a2.8 2.8 0 0 0 .4-.1H1244.3a3 3 0 0 0 .7-.4l.3 1.3" transform="translate(-1240.3 -80.8)"/><circle id="Ellipse_446" data-name="Ellipse 446" cx=".8" cy=".8" transform="translate(1.9 1)" r=".8" stroke-linecap="round" stroke-linejoin="round" stroke-width=".5" stroke="#223254" fill="#fff"/></g></g><path id="Tracé_11061" data-name="Tracé 11061" class="cls-10" d="M1250.4 80a2.7 2.7 0 1 0 1.4-5.1" transform="translate(-1247.4 -73.4)"/></g></g></g></g></svg>