<svg xmlns="http://www.w3.org/2000/svg" id="b_smart" width="57.64" height="16.28"><defs><style>.cls-1{fill:#a0accb}</style></defs><g id="Groupe_23354"><path id="Tracé_24047" d="M38.9 41.3h1.2a.8.8 0 00.92-.91v-3.1a.88.88 0 00-1.01-1h-1.12zm1.16-12.06h-1.17v4.97h1.07a.89.89 0 001.01-1.01v-3.04a.8.8 0 00-.91-.92m3.38 8.32v2.74c0 1.99-.98 2.97-2.97 2.97h-4v-16h3.95c2 0 2.97.98 2.97 2.97v2.56c0 1.42-.47 2.13-1.34 2.45.93.32 1.4 1 1.4 2.3" class="cls-1" transform="translate(-36.47 -27.13)"/><path id="Tracé_24048" d="M163.82 36.69v2.6c0 2-.98 2.98-2.97 2.98h-1.07c-2 0-2.95-.99-2.95-2.95v-2.85h2.37v2.76c0 .61.3.91.94.91h.32c.64 0 .94-.3.94-.91v-2.2a1.4 1.4 0 00-.69-1.3l-2.47-1.8a2.94 2.94 0 01-1.42-2.77v-2.2c0-1.99.99-2.97 2.98-2.97h1.03a2.6 2.6 0 012.94 2.95v2.9h-2.4v-2.81a.8.8 0 00-.9-.92h-.3a.8.8 0 00-.92.92v1.78a1.39 1.39 0 00.68 1.3l2.47 1.8a2.92 2.92 0 011.42 2.78" class="cls-1" transform="translate(-143.98 -25.99)"/><path id="Tracé_24049" d="M353.47 38.59h1.99l-1-9.4zm5 4.68h-2.42l-.32-2.51h-2.53l-.3 2.52h-2.26l2.28-16h3.25z" class="cls-1" transform="translate(-317.1 -27.13)"/><path id="Tracé_24050" d="M440.75 29.27h-1.2v4.94h1.1c.7 0 1.01-.32 1.01-.99v-3.04a.8.8 0 00-.91-.91m3.38 8.07v5.93h-2.44V37.3c0-.7-.32-1.03-1.03-1.03h-1.1v7h-2.45v-16h4.02c2 0 2.98.98 2.98 2.97v2.53a2.29 2.29 0 01-1.4 2.47c1 .27 1.42.89 1.42 2.1" class="cls-1" transform="translate(-394.35 -27.13)"/><path id="Tracé_24051" d="M514.64 43.27v-14h-2.19v-2h6.84v2h-2.2v14z" class="cls-1" transform="translate(-461.65 -27.13)"/><path id="Tracé_24052" d="M242.24 29.2l2.04 1.76-.5-3.69h-3.65v16h2.1V30.95 31z" class="cls-1" transform="translate(-218.4 -27.13)"/><path id="Tracé_24053" d="M297.4 27.27l-.74 5.32 1.56 1.34.41-2.92v3.28l1.17 1.01-1.17 1.01v6.96h2.4v-16z" class="cls-1" transform="translate(-268.89 -27.13)"/><path id="Tracé_24054" d="M272.3 122.18l.43 3h2.4l.88-6.21z" class="cls-1" transform="translate(-247.13 -109.04)"/></g></svg>