<svg xmlns="http://www.w3.org/2000/svg" id="bfm_business" width="37" height="37"><defs><style>.cls-2{fill:#a0accb}</style></defs><path id="Tracé_24030" fill="none" d="M0 0h37v37H0z"/><path id="Tracé_24031" d="M10.62 24.6H8.49v-2.05h2.26c.85 0 1.29.34 1.29 1 0 .84-.66 1.05-1.42 1.05M8.5 18.83h1.91c.75 0 1.24.21 1.24.76 0 .7-.49.91-1.24.91H8.5zm24.08-2.63l-1.69 6.48h-.04L29.2 16.2H15.4v6.48a2.83 2.83 0 00-1.8-1.55 2.27 2.27 0 001.45-2.17c0-1.13-.66-2.76-3.72-2.76H4.9v11.03h6.65a3.96 3.96 0 003.86-2.21v2.21H19v-4.22h3.28v-2.55H19V18.8h5.05v8.4h3.42v-7.02h.04l2.04 7.06h2.7l2.04-7.06h.05v7.06h3.41V16.2z" class="cls-2" transform="translate(-2.85 -8.9)"/><path id="Tracé_24032" d="M4.9 45.47h1.82a3.86 3.86 0 011.24.16 1.88 1.88 0 01.89.63 1.83 1.83 0 01.35 1.13 1.9 1.9 0 01-.22.92 1.36 1.36 0 01-.62.58v.05a2.42 2.42 0 01.4.29 1.5 1.5 0 01.3.42 2.48 2.48 0 01.23.5 2.7 2.7 0 01.09.63 1.8 1.8 0 01-.58 1.46 2.42 2.42 0 01-1.73.54H4.9zm1.6 1.42v1.5h.4a.68.68 0 00.53-.21.79.79 0 00.17-.58.64.64 0 00-.22-.54.93.93 0 00-.58-.17zm0 2.92v1.55h.4c.62 0 .89-.25.89-.75 0-.34-.1-.54-.22-.63a1.12 1.12 0 00-.67-.17zm8.12-4.34H13.1v4.01a3.78 3.78 0 01-.22 1.38c-.14.33-.45.46-.89.46a.87.87 0 01-.58-.21 1.43 1.43 0 01-.3-.5 3.54 3.54 0 01-.1-.75v-4.4h-1.5v4.94a2.9 2.9 0 00.31 1.46 2.07 2.07 0 00.85.88 3 3 0 001.24.3 2.88 2.88 0 001.37-.34 2.24 2.24 0 00.93-.96 3 3 0 00.36-1.46v-4.81zm4.08.67a2.87 2.87 0 00-.8-.63 2.5 2.5 0 00-.94-.21 1.99 1.99 0 00-.97.25 2.26 2.26 0 00-.76.8 2.6 2.6 0 00-.26 1.2 2.48 2.48 0 00.3 1.39 1.99 1.99 0 00.8.66l.23.13.22.12a4.2 4.2 0 00.45.21c.26.17.44.34.44.59a.67.67 0 01-.22.5.7.7 0 01-.5.17 1.19 1.19 0 01-1.01-.59l-.8 1.38a2.7 2.7 0 00.89.67 2.77 2.77 0 001.02.2 1.97 1.97 0 001.5-.62 2.54 2.54 0 00.58-1.8 2.3 2.3 0 00-.31-1.38 1.99 1.99 0 00-.8-.67c-.31-.12-.58-.29-.89-.42a.68.68 0 01-.44-.58.47.47 0 01.18-.42.56.56 0 01.4-.17.94.94 0 01.48.13 2.05 2.05 0 01.5.42zm.35 6.64h1.5V45.3l-1.5.8zm6.92-7.31h-1.51v3.38L21 45.35v7.43h1.5v-3.47l3.46 3.51zm3.46 5.76h-1.56v-1.42h1.55v-1.54h-1.55V47h1.86v-1.54h-3.37v7.31h3.06zm4.21-5.1a2.87 2.87 0 00-.8-.62 2.5 2.5 0 00-.93-.21 1.99 1.99 0 00-.98.25 2.26 2.26 0 00-.75.8 2.6 2.6 0 00-.27 1.2 2.48 2.48 0 00.31 1.38 1.99 1.99 0 00.8.67l.23.13.22.12a4.2 4.2 0 00.44.21c.27.17.44.34.44.59a.67.67 0 01-.22.5.77.77 0 01-.49.16 1.19 1.19 0 01-1.02-.58l-.8 1.38a2.7 2.7 0 00.89.67 2.77 2.77 0 001.02.2 1.97 1.97 0 001.5-.62 2.54 2.54 0 00.58-1.8 2.3 2.3 0 00-.3-1.38 1.99 1.99 0 00-.8-.67c-.32-.12-.58-.3-.9-.42a.68.68 0 01-.44-.58.47.47 0 01.18-.42.56.56 0 01.4-.17.94.94 0 01.49.13 2.05 2.05 0 01.49.42zm3.95 0a2.87 2.87 0 00-.8-.62 2.5 2.5 0 00-.93-.21 1.99 1.99 0 00-.98.25 2.26 2.26 0 00-.75.8 2.6 2.6 0 00-.27 1.2 2.48 2.48 0 00.31 1.38 1.99 1.99 0 00.8.67l.22.13.22.12a4.2 4.2 0 00.45.21c.26.17.44.34.44.59a.67.67 0 01-.22.5.7.7 0 01-.49.16 1.19 1.19 0 01-1.02-.58l-.8 1.38a2.7 2.7 0 00.89.67 2.77 2.77 0 001.02.2 1.97 1.97 0 001.5-.62 2.54 2.54 0 00.58-1.8 2.69 2.69 0 00-.3-1.38 1.99 1.99 0 00-.8-.67c-.32-.12-.58-.3-.9-.42a.68.68 0 01-.44-.58.47.47 0 01.18-.41.56.56 0 01.4-.17.94.94 0 01.49.13 2.05 2.05 0 01.49.42z" class="cls-2" transform="translate(-2.85 -25.06)"/><path id="Tracé_24033" d="M33.09 63.1l-4.54 3.47-4.41-2.68-5.08 3.22-4.23-1.58L4 71.79v.05h2.76l8.29-4.56 4.18 1.63 4.9-3.13 4.46 2.71 5.97-4.64a2.54 2.54 0 01-1.47-.75z" class="cls-2" transform="translate(-2.33 -34.84)"/></svg>