<svg xmlns="http://www.w3.org/2000/svg" width="223.9" height="63.6"><g fill="#a0accb"><path d="M29 19.1a53.8 53.8 0 019 0v17.5a18.5 18.5 0 00.4 4.3 6.3 6.3 0 001.3 2.7 4.7 4.7 0 002.1 1.4 9.7 9.7 0 003 .4 15 15 0 004-.4V19a53 53 0 019 0v33c-1.4.5-10 .8-12.4.8a37.4 37.4 0 01-6.3-.5 12.2 12.2 0 01-5.2-2.2 11.2 11.2 0 01-3.6-4.9 22.3 22.3 0 01-1.4-8.4V19zM62.2 19.1l1.9-.3a31.5 31.5 0 013.7 0l1.8.4a3.7 3.7 0 01.4.9l.3 1.3.2 1.3.2 1.1a16.5 16.5 0 013.4-3.5 8.1 8.1 0 015.1-1.6h1.5a5.7 5.7 0 011.2.3 12.3 12.3 0 01.2 1.4v4.1a17.2 17.2 0 01-.4 2.5 9 9 0 00-1.6-.2h-1a15 15 0 00-2.4.3 5.6 5.6 0 00-2.6 1.1 7 7 0 00-2 3 14.3 14.3 0 00-.8 5.3v15.7h-9zM98.2 52.9a17.2 17.2 0 01-7-1.3 13.2 13.2 0 01-5-3.7 15.8 15.8 0 01-2.9-5.4 22.3 22.3 0 01-1-6.8 23 23 0 011-6.8 15.8 15.8 0 013-5.5 13.6 13.6 0 014.9-3.7 16.8 16.8 0 017-1.4 17 17 0 017 1.4 13.8 13.8 0 015 3.7 15.1 15.1 0 013 5.5 23.7 23.7 0 01.9 6.8 23 23 0 01-1 6.8 15.2 15.2 0 01-3 5.4 13.5 13.5 0 01-4.9 3.7 17.4 17.4 0 01-7 1.3zm0-7a5.5 5.5 0 005.1-2.6q1.6-2.6 1.6-7.6t-1.6-7.6a5.5 5.5 0 00-5.1-2.7 5.4 5.4 0 00-5 2.7q-1.7 2.6-1.7 7.6t1.6 7.6a5.4 5.4 0 005 2.7zM117.2 19a47.5 47.5 0 017.3.1 3.7 3.7 0 01.4 1l.3 1.2.2 1.4.2 1.1a13.2 13.2 0 011.4-2 9 9 0 012-1.7 11.3 11.3 0 012.7-1.3 10.5 10.5 0 013.2-.5 13 13 0 015.2 1 11.4 11.4 0 014.1 3.2 14.6 14.6 0 012.8 5.2 24.6 24.6 0 011 7.4 21.4 21.4 0 01-1.2 7.4 15.2 15.2 0 01-3.5 5.6 15.5 15.5 0 01-5.6 3.5A21.4 21.4 0 01130 53l-2.1-.1-1.8-.3v11h-9V19zm9 26a13.9 13.9 0 004 .6 7.4 7.4 0 006-2.6q2.2-2.5 2.2-7.7a20 20 0 00-.3-3.7 8.3 8.3 0 00-1.1-2.9 5.8 5.8 0 00-2-1.9 6.4 6.4 0 00-5.6 0 5 5 0 00-1.8 1.6 7.3 7.3 0 00-1 2.4 13.5 13.5 0 00-.4 3zM180.1 27.9a14 14 0 00-2.8-5 13.5 13.5 0 00-4.6-3.3 14.7 14.7 0 00-6.1-1.3 16.3 16.3 0 00-7 1.4 14.3 14.3 0 00-5 3.7 16 16 0 00-3 5.6 22.2 22.2 0 00-1 6.8 22.5 22.5 0 001 6.9 14.2 14.2 0 003 5.4 14 14 0 005.4 3.5 21.8 21.8 0 008 1.3 31.1 31.1 0 0011.1-2 15.7 15.7 0 00-.5-3.8 15 15 0 00-1.2-3 25 25 0 01-4.3 1.1 24.5 24.5 0 01-4.5.5 11 11 0 01-6.4-1.8c-2.1-1.4-3.7-4.6-3-7.1a.1.1 0 01.2 0c.7 1.2 2.3 1.5 3.7 1.6h17.6l.3-1.9v-2.4a19.7 19.7 0 00-.9-6.2zM159.6 32a8.4 8.4 0 012-5 6.3 6.3 0 014.8-1.9 5.4 5.4 0 014.4 2 8 8 0 011.7 4.9h-12.9zm21.1 6.3zM26.8 44.2H16.2a10.2 10.2 0 01-3-.4 4.9 4.9 0 01-2.1-1.4 6.5 6.5 0 01-1.3-2.8 18.7 18.7 0 01-.5-4.3v-3.2h13.3v-8H9.3v-10H26V6.4H0v29.2a23 23 0 001.3 8.7 11.6 11.6 0 003.8 5 12.6 12.6 0 005.4 2.3 38.3 38.3 0 006.5.6h9.8v-8zM216.6 0c-4.3 0-7.2.2-7.2.2L190.5 14l.2 1a11.4 11.4 0 001.1 3.1 18.2 18.2 0 003 4l9.5-3.7-7.7 45.2 7.4.1h.7l8.3-.1L224 .2s-3.2-.2-7.4-.2z"/></g></svg>