<svg xmlns="http://www.w3.org/2000/svg" width="236.893" height="62"><path d="M22.869 5.779h5.188a17.475 17.475 0 0 1 9.329 1.183 16.519 16.519 0 0 1 7.463 9.968c.774 2.184.774 2.184 2.639 1.411h1.457V1.047H.115v3.049h2A5.825 5.825 0 0 1 6.668 6.23c1.866 3 2.184 6.371 2.184 23.892 0 18.613-.41 23.163-2.184 25.484a4.915 4.915 0 0 1-3.777 2c-2.776.507-2.776.462-2.776 1.691a1.82 1.82 0 0 0 0 1.274h30.81a2.867 2.867 0 0 0 0-2.594 15.7 15.7 0 0 0-2.275-.455 15.2 15.2 0 0 1-2.457-.5 8.191 8.191 0 0 1-3.322-7.418 105.821 105.821 0 0 1-.683-13.061v-3.6h1.82a24.574 24.574 0 0 1 6.735.728 8.419 8.419 0 0 1 3.914 6.007l.41 1.411h2.776V20.93h-2.551l-.41 1.957a8.1 8.1 0 0 1-4.141 6.007 7.6 7.6 0 0 1-3.322.228h-5.233V24.21c0-5.1.273-15.837.455-17.52Zm212.976 36.088a16.519 16.519 0 0 0-9.42-7.145 22.754 22.754 0 0 1-8.146-4.551 4.551 4.551 0 0 1-1.32-4.05 5.415 5.415 0 0 1 1.593-3.823 5.506 5.506 0 0 1 5.461-1.5 11.468 11.468 0 0 1 8.055 8.555c.728 2.048.819 2.048 2.139 1.5l.819-.319v-11.33l-.592-.273a35.178 35.178 0 0 0-13.971-1.911 16.383 16.383 0 0 0-10.922 4.551 12.56 12.56 0 0 0-3.959 9.83 10.785 10.785 0 0 0 3.095 7.463 18.476 18.476 0 0 0 7.736 4.551c7.054 2.776 9.1 4.551 9.1 7.782a6.007 6.007 0 0 1-4.551 5.962 11.24 11.24 0 0 1-4.824 0 14.016 14.016 0 0 1-8.51-9.6l-.592-1.456h-.819a3.641 3.641 0 0 0-1.138.273h-.454v12.921h.774a46.919 46.919 0 0 0 9.466 2.093h4.551a17.839 17.839 0 0 0 5.871-.546 14.153 14.153 0 0 0 10.74-9.1 10.558 10.558 0 0 0 .819-4.1 11.331 11.331 0 0 0-1.001-5.777ZM192.977 18.34a20.979 20.979 0 0 0-17.156.41A19.978 19.978 0 0 0 165.4 31.174a24.3 24.3 0 0 0-1.229 9.1 24.891 24.891 0 0 0 .41 5.006 20.2 20.2 0 0 0 16.337 16.292 31.855 31.855 0 0 0 7.964 0 21.844 21.844 0 0 0 7.736-2.958 13.653 13.653 0 0 0 4.824-4.551 2.275 2.275 0 0 0-1.092-1.411 5.87 5.87 0 0 0-1.456.774 13.015 13.015 0 0 1-7.645 2.139 12.151 12.151 0 0 1-9.693-3.823 10.876 10.876 0 0 1-2.321-3.095 21.161 21.161 0 0 1-2.23-9.1v-1.776h25.21v-.91a22.347 22.347 0 0 0 0-2.73 18.2 18.2 0 0 0-9.238-15.791Zm-12.7 15.746h-3.182V31.4c1.046-6.87 3.64-10.97 6.83-10.97s4.551 4.05 5.142 11.468v2.093h-2.73Zm-65.44-17.247a9.557 9.557 0 0 0-4.551.956 15.245 15.245 0 0 0-7.054 7.054l-.592 1.092v-9.1h-.228c-.546 0-17.384 3.368-17.93 3.6s-.364.273-.364 1.092 0 .956.364 1l1.775.364a3.277 3.277 0 0 1 2.548 1.32c1.138 1.5 1.365 4.141 1.365 15.382a87.875 87.875 0 0 1-.637 15.154 3.732 3.732 0 0 1-3.14 2.958l-1.547.319h-.592v1.274a1.82 1.82 0 0 0 0 1.32h25.439v-1.32a3.322 3.322 0 0 0 0-1.32 25.44 25.44 0 0 1-4.551-.592 4.551 4.551 0 0 1-2.407-4.562 158.509 158.509 0 0 1-.455-16.292c.091-5.916 0-6.28.5-6.69a8.191 8.191 0 0 1 5.324-1.684 11.878 11.878 0 0 1 5.188 1.32 6.826 6.826 0 0 0 1.775.683s4.551-11.013 4.551-11.513a5.37 5.37 0 0 0-4.778-1.82ZM84.168 35.951a20.433 20.433 0 0 0-9.375-16.2 23.664 23.664 0 0 0-21.3-.592 20.57 20.57 0 0 0-9.968 11.832 30.4 30.4 0 0 0 0 17.475 19.068 19.068 0 0 0 4.869 8.237 18.476 18.476 0 0 0 10.512 5.1 45.872 45.872 0 0 0 7.645 0 24.071 24.071 0 0 0 2.776-.592 20.251 20.251 0 0 0 14.522-16.158 39.774 39.774 0 0 0 .319-9.102ZM65.236 58.705c-4.551 1.365-7.964-3.049-9.1-12.333a85.281 85.281 0 0 1 0-14.608c.91-7.463 3.231-11.24 6.826-11.24a4.551 4.551 0 0 1 3.823 1.684c3.049 3.049 4.551 9.1 4.551 18.2a33.721 33.721 0 0 1-2.366 15.109 6.917 6.917 0 0 1-3.732 2.958v.228Zm81.914-40.957a15.154 15.154 0 0 0-3.868 0 17.2 17.2 0 0 0-7.145 1.547l-1.411.592v-9.875a67.854 67.854 0 0 0 0-10.012c-.546 0-17.93 3.322-18.2 3.459a1.411 1.411 0 0 0 0 1.047c0 .956 0 .91 2.048 1.365a5.87 5.87 0 0 1 1.638.637 5.6 5.6 0 0 1 1.684 3.14 52.106 52.106 0 0 1 .5 10.467V60.07l1.229.273c1.82.41 6.963 1.274 8.646 1.456a63.712 63.712 0 0 0 10.1 0 20.615 20.615 0 0 0 17.02-12.788 31.355 31.355 0 0 0 1.729-6.917 40.957 40.957 0 0 0-.319-9.6 17.52 17.52 0 0 0-13.652-14.745ZM135.225 57.93c0-.592-.455-20.524-.364-28.488v-6.233l1.32-.319a9.466 9.466 0 0 1 2.685 0 4.551 4.551 0 0 1 2.821.637 13.652 13.652 0 0 1 5.87 10.376 50.06 50.06 0 0 1 0 9.966 21.889 21.889 0 0 1-5.276 13.061 6.325 6.325 0 0 1-3.231 1.638 8.1 8.1 0 0 1-2.776 0c-.865 0-.865-.273-.865-.637h-.184Z" fill="#a0accb"/></svg>