<svg xmlns="http://www.w3.org/2000/svg" id="largus_de_lassurance" width="42.06" height="22.57"><defs><style>.cls-1{fill:#a0accb}</style></defs><path id="XMLID_15_" d="M94.42 166.31l-2.27 8.1H90.6l1.64-8.12h2.18z" class="cls-1" transform="translate(-86.1 -166.18)"/><path id="Tracé_24072" d="M28.65 164.83v14.24h2.31v1.8h-4.2v-16.04zM47.1 171a2.2 2.2 0 01-.34 1.15 1.64 1.64 0 01-.92.74 1.88 1.88 0 011.26 1.87v6.12h-1.87v-6.18a.85.85 0 00-.87-.94h-1.05v7.13H41.4v-16.06h2.85a2.82 2.82 0 012.03.85 2.79 2.79 0 01.84 2.02zm-1.87-.05v-3.3a.93.93 0 00-.29-.66.94.94 0 00-.69-.29h-.94v5.18h1.04a.85.85 0 00.88-.93zm8.85 7.18a2.84 2.84 0 01-2.85 2.86 2.87 2.87 0 01-2.05-.84 2.73 2.73 0 01-.86-2.02v-10.53a2.87 2.87 0 012.89-2.87 2.85 2.85 0 012.05.84 2.79 2.79 0 01.84 2.03v4.43h-1.92v-4.5a.93.93 0 00-.29-.66.9.9 0 00-.66-.29.94.94 0 00-.69.29.9.9 0 00-.29.66v10.63a.93.93 0 00.3.67.94.94 0 00.68.28.93.93 0 00.66-.28.9.9 0 00.3-.67v-2.3h-.95v-1.77h2.85v4.03h-.01zm7.1 0a2.84 2.84 0 01-2.84 2.86 2.87 2.87 0 01-2.05-.84 2.73 2.73 0 01-.86-2.02v-13.29h1.95v13.34a.93.93 0 00.28.67.94.94 0 00.7.29.93.93 0 00.66-.3.9.9 0 00.28-.66v-13.34h1.92v13.29zm7.02-.92v.92a2.9 2.9 0 01-.84 2.04 2.72 2.72 0 01-2 .82 2.87 2.87 0 01-2.05-.84 2.73 2.73 0 01-.86-2.02v-2.64h1.94v2.68a.93.93 0 00.29.66.94.94 0 00.68.3.93.93 0 00.67-.3.9.9 0 00.29-.66v-.77c0-.86-.02-1.36-.04-1.5a4.75 4.75 0 00-.7-1.44 15.65 15.65 0 00-1.11-1.34 9.57 9.57 0 01-1.11-1.37 5.69 5.69 0 01-.73-1.57 7.25 7.25 0 01-.15-1.82v-.76a2.9 2.9 0 01.86-2.03 2.75 2.75 0 012.02-.84 2.85 2.85 0 012.05.84 2.79 2.79 0 01.84 2.03v2.61h-1.9v-2.68a.93.93 0 00-.3-.66.9.9 0 00-.66-.3.94.94 0 00-.69.3.9.9 0 00-.28.66v.63a5.56 5.56 0 00.07 1.29 5.15 5.15 0 00.69 1.43 9.7 9.7 0 001.09 1.33 8.28 8.28 0 011.1 1.38 6.08 6.08 0 01.71 1.55 8.93 8.93 0 01.12 2.07zm-28.93-11.76a2.83 2.83 0 00-2.05-.84 2.74 2.74 0 00-1.85.7l-.95 3.1v12.45h1.91v-5.61h1.87v5.63h1.93v-13.4a2.93 2.93 0 00-.86-2.03zm-1.1 8h-1.87v-6a1 1 0 01.27-.67.88.88 0 01.66-.29.86.86 0 01.67.29.93.93 0 01.26.66v6zm-11.88 11.9c0-1.22.53-1.87 1.3-1.87a1.18 1.18 0 011.03.51v-1.81h1.02v4.05a2.33 2.33 0 00.1.86h-1.06a2 2 0 01-.08-.53 1.22 1.22 0 01-1.03.6c-.75-.02-1.28-.6-1.28-1.81zm2.33.65v-1.32a.93.93 0 00-.67-.32c-.42 0-.65.34-.65 1 0 .6.21 1 .65 1a1.04 1.04 0 00.67-.36zm1.5-.69a1.7 1.7 0 011.7-1.85c.7 0 1.54.37 1.54 1.97v.16h-2.24c.06.6.36.8.78.8a1.55 1.55 0 001-.43l.4.64a2.14 2.14 0 01-1.48.53c-.87.03-1.7-.44-1.7-1.82zm2.32-.34c-.06-.5-.27-.74-.65-.74-.33 0-.6.2-.67.74zm2.99 2.12v-4.93h1v4.93zm2.82-.9c0-.82.65-1.27 2.14-1.4v-.1c0-.27-.13-.43-.46-.43a1.77 1.77 0 00-1.1.45l-.43-.61a2.3 2.3 0 011.69-.63c.91 0 1.3.47 1.3 1.4v1.36a2.33 2.33 0 00.1.86h-1.01a2.25 2.25 0 01-.08-.52 1.46 1.46 0 01-1.18.57.94.94 0 01-.97-.95zm2.13-.16v-.66c-.8.1-1.15.3-1.15.63 0 .23.15.34.38.34a1.02 1.02 0 00.77-.3zm1.35.58l.4-.6a1.79 1.79 0 001.16.45c.33 0 .54-.1.54-.34s-.18-.35-.64-.42c-.63-.11-1.31-.29-1.31-1.11a1.16 1.16 0 011.3-1.13 2.1 2.1 0 011.47.5l-.4.61a1.73 1.73 0 00-1-.39c-.29 0-.46.12-.46.31s.2.31.6.39c.67.11 1.36.29 1.36 1.09 0 .86-.7 1.2-1.5 1.2a2.3 2.3 0 01-1.52-.56zm3.19 0l.4-.6a1.79 1.79 0 001.16.45c.32 0 .54-.1.54-.34s-.18-.35-.64-.42c-.63-.11-1.31-.29-1.31-1.11a1.16 1.16 0 011.3-1.13 2.1 2.1 0 011.47.5l-.4.61a1.73 1.73 0 00-1-.39c-.29 0-.46.12-.46.31s.2.31.6.39c.67.11 1.36.29 1.36 1.09 0 .86-.7 1.2-1.5 1.2a2.3 2.3 0 01-1.52-.56zm3.46-.48v-2.58h1.01v2.27c0 .32.11.5.4.5a1.12 1.12 0 00.73-.36v-2.4h1v3.53h-1v-.55a1.47 1.47 0 01-1.17.63.91.91 0 01-.97-1.04zm3.82.95v-3.55h1.01v.6a1.25 1.25 0 011.15-.67h.04l-.02.95-.26-.02a1.15 1.15 0 00-.9.47v2.22H52.2zm2.22-.9c0-.82.65-1.26 2.14-1.4v-.1c0-.26-.14-.42-.46-.42a1.77 1.77 0 00-1.1.44l-.43-.6a2.3 2.3 0 011.68-.64c.92 0 1.3.48 1.3 1.4v1.36a2.33 2.33 0 00.1.86h-1.01a2.25 2.25 0 01-.08-.51 1.46 1.46 0 01-1.18.57.94.94 0 01-.96-.95zm2.14-.15v-.67c-.8.1-1.15.31-1.15.63 0 .23.16.35.39.35a1.04 1.04 0 00.76-.3zm1.6 1.05v-3.55h1.02v.55a1.42 1.42 0 011.16-.63.9.9 0 01.98 1.03v2.6h-1.01v-2.26c0-.32-.12-.48-.4-.48a1.2 1.2 0 00-.73.35v2.39zm3.6-1.77a1.66 1.66 0 011.7-1.85 1.43 1.43 0 011.47 1.08l-.86.31c-.14-.46-.32-.6-.63-.6-.4 0-.67.37-.67 1.07 0 .63.19 1.1.65 1.1.27 0 .52-.16.67-.64l.84.3a1.52 1.52 0 01-1.53 1.08 1.64 1.64 0 01-1.64-1.85zm3.34 0a1.7 1.7 0 011.7-1.85c.69 0 1.55.36 1.55 1.97v.15h-2.23c.06.6.36.8.78.8a1.55 1.55 0 001-.42l.4.63a2.17 2.17 0 01-1.47.53 1.59 1.59 0 01-1.73-1.81zm2.34-.35c-.06-.5-.27-.74-.66-.74-.32 0-.6.21-.66.74zm-30.28-2.31l.08-.48h.86l-.4 1.8h-.65z" class="cls-1" transform="translate(-26.3 -164.6)"/></svg>