<svg xmlns="http://www.w3.org/2000/svg" id="le_figaro" width="121.72" height="16.28"><defs><style>.cls-1{fill:#a0accb;fill-rule:evenodd}</style></defs><path id="Tracé_24028" d="M0 8.3h8.16v2.75h-.98c-.51 0-.63.2-.63.66V18a.6.6 0 00.59.59h2.4a.69.69 0 00.7-.63v-2.31h3.25v5.64H0v-2.74h.94c.43 0 .67-.16.67-.59v-6.24c0-.39-.04-.63-.59-.63H0V8.3zm14.9 0h13.46v4.2h-3.37v-.67c0-.43-.2-.74-.87-.74h-2.94v2.35h3.18v2.5h-3.14v2.64h3.06a.66.66 0 00.7-.63v-.79h3.38v4.16H14.91v-2.74h.78c.4 0 .63-.16.63-.55V11.7c0-.39-.04-.66-.59-.66h-.78L14.9 8.3zm20.13 0h13.73v4.2h-3.34v-.67a.66.66 0 00-.62-.7h-3.18v2.35h2.82v2.47h-2.82v1.88c0 .55.23.75.9.75h1.06v2.74h-8.55v-2.74h1.14a.52.52 0 00.54-.47v-6.4c0-.39-.03-.66-.58-.66h-1.1zm21.53 3.41c0-.47.16-.62.63-.62h1.02V8.34H50.1v2.75h1.02c.55 0 .63.23.63.62V18c0 .47-.27.59-.63.59H50.1v2.74h8.12v-2.74h-.98c-.4 0-.67-.16-.67-.6v-6.27zM70.17 8.3h2.87v4.59h-2.9a3.5 3.5 0 00-3.14-2c-1.77 0-3.14 1.25-3.14 3.6 0 3.93 2.2 4.32 3.14 4.32a2.12 2.12 0 002.4-1.96h-1.8v-2.4h6.23l-.04 1.66c0 .35-.35 5.17-7.34 5.17-5.02 0-7.6-2.62-7.6-6.74C58.84 11.79 61 8.3 66.1 8.3a6.8 6.8 0 014.08.98zm18.87 10.24c-.59 0-.74-.51-1.06-1.3L84.53 8.3h-4.98l-3.53 9.61a1.03 1.03 0 01-1.02.63h-.7v2.74h6.11v-2.62h-.86c-.4 0-.43-.28-.31-.67l.39-1.18h3.68l.4 1.26c.15.43-.32.58-.6.58h-.74v2.63h7.34v-2.74zm-8.82-3.5l1.25-3.8h.04l1.25 3.8zm26.08 3.5c-.51 0-.59-.24-.82-.59-.28-.31-1.8-2.75-1.8-2.75a3.2 3.2 0 002.27-3.06 3.7 3.7 0 00-2.9-3.53 21.99 21.99 0 00-3.22-.31h-8.87v2.75h.87c.55 0 .63.31.63.66v6.16c0 .28-.04.67-.63.67h-.87v2.74h7.81v-2.74h-.78c-.55 0-.63-.32-.63-.63v-2.08h1.76l3.14 5.5h4.94v-2.8zm-7.18-4.98h-1.76v-2.63h1.96a1.37 1.37 0 011.53 1.37c0 .86-.67 1.3-1.73 1.26zm15.22-5.26c-5.41 0-7.33 3.45-7.33 6.4 0 3.84 2.74 6.58 7.33 6.58 4.16 0 7.38-2.04 7.38-6.43 0-4.2-3.14-6.55-7.38-6.55zm.2 10.47c-1.17 0-2.47-.7-2.47-4.31 0-2.24.86-3.61 2.36-3.61 1.37 0 2.35.94 2.35 3.84 0 3.18-1.02 4.08-2.24 4.08z" class="cls-1" transform="translate(0 -5.04)"/><path id="Tracé_24029" d="M92.79 12.67a19.38 19.38 0 013.33 3.6l-.5-.38a21.74 21.74 0 00-2.48-2.36 10.86 10.86 0 00-2.35-1.6l-1.1-.48v-.58h1.33a25.04 25.04 0 001.77 1.8zm-8.43-9.41a7.19 7.19 0 013.53 3.53v4.07a14.48 14.48 0 01-4.63-2.2l1.21.08a17.14 17.14 0 01-3.68-2.47 6.54 6.54 0 001.17.32 6.6 6.6 0 01-2.86-4.24 1.57 1.57 0 00.63.51A10.22 10.22 0 0179.22 0a13.11 13.11 0 005.1 3.53c.08 0 0-.28.04-.28z" class="cls-1" transform="translate(-48.07)"/></svg>