<svg xmlns="http://www.w3.org/2000/svg" width="52.1" height="16.3"><path data-name="Cartouche blanc" fill="#fff" d="M0 0h52.1v16.3H0z"/><path data-name="Cartouche bleu" fill="#a0accb" d="M0 0h52.1v14.7H0z"/><path data-name="Filet rouge" fill="#a0accb" d="M0 15.2h52.1v1.1H0z"/><g data-name="Le Parisien" fill="#fff"><path d="M9.5 14.1H5.7v-9h1.6v8h2.2zM13.1 9a2.7 2.7 0 01-2.4 2.6c.1 1 .6 1.4 1 1.4a2.3 2.3 0 00.5 0v1a3.1 3.1 0 01-.5.1c-1 0-2.5-.6-2.5-3.6 0-3.1 1.3-3.6 2.1-3.6A1.9 1.9 0 0113.1 9zm-1.4 0c0-.7-.1-1-.4-1-.3 0-.6.4-.6 2.2a1.4 1.4 0 000 .3 1.6 1.6 0 001-1.6zM20 5.6a4.6 4.6 0 01-3.4 4.6v4h-2V1.8h1.7c2 0 3.7 1 3.7 3.7zm-1.9 0c0-1.8-.7-2.3-1.5-2.3v5.3c.5 0 1.5-.8 1.5-3zM23.9 14.1h-1.6v-.5l-.5.5a.8.8 0 01-.3 0 2.4 2.4 0 01-2-2.6 3.5 3.5 0 012.8-3.6v-.1c0-.5-.3-.7-.8-.7a4.6 4.6 0 00-1 .1V6a4 4 0 011.2-.1c1.3 0 2.2.5 2.2 2.3v6zm-1.6-1.7V9.3c-.3 0-1.2.7-1.2 2.2 0 1 .4 1.4.7 1.4a.5.5 0 00.5-.5zM27.7 7.3c-.9 0-1.4.7-1.4 1.7V14h-1.6v-8L26 6v.6a2.1 2.1 0 011.5-.6h.2v1.3zM28.2 5.2V3.5h1.6v1.7zm1.6 9V6h-1.6V14zM34.4 11.8a2.5 2.5 0 01-2.6 2.3 3.9 3.9 0 01-1.6-.2l.7-1.3a1.7 1.7 0 00.7.2.9.9 0 001-.9 2.5 2.5 0 00-.9-1.7c-1-1-1.3-1.5-1.3-2.3a2.2 2.2 0 012.3-2 3.6 3.6 0 011.4.2l-.6 1.1a1.4 1.4 0 00-.7 0 .7.7 0 00-.7.5c0 .4.1.7.8 1.3a3.5 3.5 0 011.5 2.8z"/><path data-name="i" d="M34.7 5.2V3.5h1.7v1.7zm1.7 9V6h-1.7V14z"/><path data-name="e" d="M41.4 8.2a3.2 3.2 0 01-2.8 3c.1 1.2.6 1.7 1.1 1.7a1.1 1.1 0 00.4 0V14a1.8 1.8 0 01-.5 0c-1.3 0-2.8-.6-2.8-4.1 0-3.6 1.5-4.1 2.5-4.1a2.1 2.1 0 012 2.3zm-1.6 0c0-.8-.2-1.1-.5-1.1-.4 0-.7.4-.7 2.5a1.6 1.6 0 000 .3c.5 0 1.2-.7 1.2-1.8z"/><path d="M46.4 14.1h-1.6V8.3c0-.6-.3-1-.7-1s-.7.4-.7 1V14h-1.6V6H43v.4l.6-.5a.8.8 0 01.3 0c1.5 0 2.4.9 2.4 2.8V14z"/></g></svg>