<svg xmlns="http://www.w3.org/2000/svg" width="85.67" height="16.28"><path fill="#a0accb" d="M5.14 3.43V13.5c0 .93.29 1.41 1.5 1.41H8.1a2.88 2.88 0 003-1.85l.53-1.17.85.24-.64 3.84H0v-.86c2.11-.44 2.19-.53 2.19-1.34V3.37c0-.86-.13-.88-2.19-1.3v-.86h7.41v.86c-2.15.43-2.27.47-2.27 1.36zm16.6 4.45c0 1.37-.76 2.92-5.9 3.16.12 2.11 1.21 3.48 3 3.48a3.92 3.92 0 002.7-1.17l.5.57a5.19 5.19 0 01-4.26 2.36c-2.87 0-4.94-2.07-4.94-5.27a5.55 5.55 0 015.47-5.58c2.47-.1 3.44 1.4 3.44 2.45zm-3.56-1.65c-1.62 0-2.32 1.74-2.39 3.92 3.53-.52 3.64-1.85 3.64-2.62a1.22 1.22 0 00-1.25-1.3zm7.98 10c-2.56 0-3.53-1.02-3.53-2.12a1.49 1.49 0 011.86-1.34l.28.33c-.64 1.13-.15 2.18 1.5 2.18 1.06 0 1.83-.57 1.83-1.45 0-1.02-.85-1.46-2.18-1.99-1.86-.77-3-1.61-3-3.35 0-1.7 1.5-3.16 3.81-3.16 2.43 0 3.53 1.17 3.53 2.14a1.43 1.43 0 01-1.94 1.3l-.25-.37c.77-1.01.37-2.23-1.3-2.23a1.5 1.5 0 00-1.65 1.46c0 .97 1.05 1.46 2.23 1.86 1.85.64 3.35 1.5 3.35 3.4.04 2-1.34 3.33-4.54 3.33zm6.81-14.98H44.8l.13 3.88h-.81l-.4-1.21a2.26 2.26 0 00-2.51-1.6h-3.09v5.52h3.04c.65 0 .69-.13 1.13-2.03h.86v5.31h-.86c-.44-1.82-.48-2.1-1.13-2.1h-3.04v4.5c0 .92.29 1.4 1.5 1.4h1.46a2.88 2.88 0 003-1.85l.53-1.17.85.24-.68 3.84H32.99v-.81c2.1-.44 2.18-.53 2.18-1.34V3.37c0-.86-.13-.88-2.18-1.3v-.83zm21.63 12.1l.49.57a5.15 5.15 0 01-4.26 2.32c-2.87 0-4.94-2.08-4.94-5.27a5.4 5.4 0 015.31-5.59c2.36 0 3.44 1.3 3.44 2.32 0 .85-.53 1.7-2.07 1.45l-.24-.4c.4-.97.57-2.51-1.1-2.51-1.7 0-2.39 1.94-2.39 4.34 0 2.36 1.1 3.97 3 3.97a4.4 4.4 0 002.76-1.2zm7.72 1.42V9.05c0-1.21-.44-1.74-1.3-1.74-1.34 0-2.46 2.11-2.46 5.23v3.4h-2.8V2.16c0-.82-.1-.86-1.42-1.3V0h4.34c-.13.89-.13 7.81-.13 8.27h.05c.73-1.74 1.99-2.96 3.77-2.96 1.59 0 2.71 1.1 2.71 3.2v5.19c0 .97.16 1.05 1.62 1.4v.87c-1.26.13-2.27.2-2.87.2a1.24 1.24 0 01-1.5-1.4zm9.49.57c1.85 0 2.35-2.19 2.35-4.42 0-2.42-.32-4.7-2.35-4.7-1.86 0-2.36 2.19-2.36 4.42-.02 2.38.38 4.7 2.36 4.7zm-.25.88a4.84 4.84 0 01-5.1-5.1c0-3.48 2.19-5.8 5.56-5.8a4.82 4.82 0 015.1 5.1c0 3.5-2.15 5.8-5.55 5.8zm9.6 0c-2.55 0-3.52-1.01-3.52-2.11a1.49 1.49 0 011.85-1.34l.29.32c-.64 1.13-.16 2.19 1.5 2.19 1.06 0 1.83-.57 1.83-1.46 0-1.01-.86-1.45-2.19-1.98-1.85-.77-3-1.62-3-3.36 0-1.7 1.5-3.15 3.77-3.15 2.43 0 3.53 1.17 3.53 2.14a1.43 1.43 0 01-1.94 1.3l-.25-.37c.78-1.02.4-2.23-1.3-2.23a1.5 1.5 0 00-1.65 1.46c0 .97 1.01 1.45 2.23 1.85 1.85.64 3.35 1.5 3.35 3.4.09 2.01-1.28 3.34-4.5 3.34z"/></svg>