<svg xmlns="http://www.w3.org/2000/svg" width="350" height="350"><defs><clipPath id="a"><path d="M0 0h350v350H0z"/></clipPath></defs><g clip-path="url(#a)"><path data-name="Big numbers" d="M171.45 290.256q-37.8 0-72.3-21.9l18.6-35.4q27.3 16.5 51.3 16.5 16.8 0 26.4-7.65a24.61 24.61 0 009.6-20.25 24.453 24.453 0 00-9.45-19.95q-9.45-7.65-24.75-7.65h-28.2v-39.6h24.3q15.3 0 24.45-7.2a22.9 22.9 0 009.15-18.9q0-11.7-8.55-18.6t-22.35-6.9q-20.4 0-44.1 17.1l-21.3-31.8a98.312 98.312 0 0132.25-19.8 106.675 106.675 0 0138.55-7.2q29.7 0 50.1 16.8 20.1 16.5 20.1 41.1a48.8 48.8 0 01-10.35 30.75 56.42 56.42 0 01-27.15 19.05v1.2q20.4 4.5 31.95 19.35t11.55 35.25q0 28.8-22.2 47.4-21.9 18.3-57.6 18.3z" fill="none" stroke="#ffc300" stroke-width="2"/></g></svg>