<svg xmlns="http://www.w3.org/2000/svg" width="111" height="109.249"><g data-name="Fintech of the year"><g data-name="Groupe 51922"><path data-name="Ready to start your" d="m13.912-18.23.483-2.9q.018-.072.036-.17a.97.97 0 0 0 .018-.17q0-.3-.34-.3H5.486a.641.641 0 0 0-.385.089.731.731 0 0 0-.206.322L3.84-18.355h.376a5.765 5.765 0 0 1 1.61-2.326 3.275 3.275 0 0 1 2.111-.805h.322L5.2-10.036h-.966l-.072.286h4.795l.089-.286H8.08l3.059-11.45h.716a1.237 1.237 0 0 1 .608.17 1.774 1.774 0 0 1 .555.51 2.757 2.757 0 0 1 .4.841 4.014 4.014 0 0 1 .152 1.163q0 .143-.009.286t-.027.286zm3.113 1.7.358-1.342-3.793.626-.072.286.984-.161-2 7.371h2.7l1.539-5.671a2.253 2.253 0 0 1 .751-1.19 2.675 2.675 0 0 1 1.181-.581.872.872 0 0 0-.492.376 1.179 1.179 0 0 0-.188.662 1.2 1.2 0 0 0 .349.85 1.258 1.258 0 0 0 .957.367 1.535 1.535 0 0 0 .939-.313 1.1 1.1 0 0 0 .42-.939 1.257 1.257 0 0 0-.394-.993 1.429 1.429 0 0 0-.984-.349 2.8 2.8 0 0 0-1.36.3 3.194 3.194 0 0 0-.895.701zm3.6 3.65a4.108 4.108 0 0 0 .206 1.324 2.8 2.8 0 0 0 .635 1.056 3.035 3.035 0 0 0 1.073.707 4.058 4.058 0 0 0 1.521.259 5.082 5.082 0 0 0 1.9-.349 4.664 4.664 0 0 0 1.521-.966 4.474 4.474 0 0 0 1.011-1.458 4.559 4.559 0 0 0 .367-1.843 3.33 3.33 0 0 0-.939-2.5 3.63 3.63 0 0 0-2.639-.912 4.34 4.34 0 0 0-1.753.367 4.949 4.949 0 0 0-1.485.993 4.762 4.762 0 0 0-1.029 1.485 4.456 4.456 0 0 0-.393 1.837zm5.886-3.328a2.573 2.573 0 0 1-.036.4q-.036.224-.134.662t-.286 1.163q-.188.725-.51 1.887-.107.394-.233.8a3.492 3.492 0 0 1-.313.725 1.935 1.935 0 0 1-.438.528.954.954 0 0 1-.626.206.834.834 0 0 1-.787-.367 1.651 1.651 0 0 1-.215-.85 2.669 2.669 0 0 1 .027-.358q.027-.2.116-.581t.25-1.047q.161-.662.447-1.753.125-.483.268-.921a3.466 3.466 0 0 1 .358-.778 1.928 1.928 0 0 1 .5-.546 1.2 1.2 0 0 1 .716-.206.773.773 0 0 1 .707.3 1.358 1.358 0 0 1 .185.736zm4.289-1.235-.143.286 1.02-.161-3.291 12.095H27.4l-.089.286h4.939l.072-.286h-1.163l1.431-5.367a1.643 1.643 0 0 0 .474.662 1.645 1.645 0 0 0 1.082.286 4.342 4.342 0 0 0 2.048-.474 5.038 5.038 0 0 0 1.53-1.217 5.289 5.289 0 0 0 .948-1.646 5.231 5.231 0 0 0 .322-1.762 3.812 3.812 0 0 0-.161-1.118 2.571 2.571 0 0 0-.483-.912 2.358 2.358 0 0 0-.814-.617 2.675 2.675 0 0 0-1.154-.233 2.248 2.248 0 0 0-1.306.358 5.86 5.86 0 0 0-.912.769l.411-1.521zm2.147 5.475.895-3.363a2.085 2.085 0 0 1 .25-.483 3.4 3.4 0 0 1 .492-.59 3.413 3.413 0 0 1 .644-.492 1.378 1.378 0 0 1 .707-.206q.519 0 .519.7a4.048 4.048 0 0 1-.116.778q-.116.528-.286 1.181t-.358 1.343q-.188.7-.349 1.27a3.968 3.968 0 0 1-.555 1.36.95.95 0 0 1-.787.394 1.039 1.039 0 0 1-.832-.367 1.423 1.423 0 0 1-.313-.957q0-.089.009-.206a2.1 2.1 0 0 1 .081-.362zm14.044-5.618a5 5 0 0 0-.9.072 3.278 3.278 0 0 0-.68.2 2.389 2.389 0 0 0-.537.313q-.242.188-.492.4l1.485-5.51-3.793.537-.074.267 1-.161L39.836-9.75h2.7l1.521-5.814a1.485 1.485 0 0 1 .268-.5 3.037 3.037 0 0 1 .51-.528 3.4 3.4 0 0 1 .636-.408 1.444 1.444 0 0 1 .644-.17.476.476 0 0 1 .447.259 1.259 1.259 0 0 1 .143.617 2.276 2.276 0 0 1-.089.608l-1 3.739a2.64 2.64 0 0 0-.125.805 1.4 1.4 0 0 0 .385 1.064 1.38 1.38 0 0 0 .993.367 3.205 3.205 0 0 0 1.19-.2 2.645 2.645 0 0 0 .85-.537 3.713 3.713 0 0 0 .626-.787q.268-.447.519-.93a.288.288 0 0 0 .036-.125.127.127 0 0 0-.143-.143.155.155 0 0 0-.125.072 5.291 5.291 0 0 1-.832 1.279 1 1 0 0 1-.6.367q-.268 0-.268-.394a1.577 1.577 0 0 1 .054-.376l.895-3.274a4.767 4.767 0 0 0 .107-.5 2.942 2.942 0 0 0 .036-.447 1.678 1.678 0 0 0-.6-1.413 2.574 2.574 0 0 0-1.622-.467zm10.18-3.972-2 2.755.394.2 3.417-2.952zm1.5 6.119a1.972 1.972 0 0 0-.17-.787 1.864 1.864 0 0 0-.519-.689 2.792 2.792 0 0 0-.877-.483 3.772 3.772 0 0 0-1.261-.188 5.272 5.272 0 0 0-2.2.438 5.033 5.033 0 0 0-1.619 1.136 4.905 4.905 0 0 0-.993 1.556 4.593 4.593 0 0 0-.34 1.7 3.647 3.647 0 0 0 .208 1.226 2.809 2.809 0 0 0 .626 1.02 3.106 3.106 0 0 0 1.064.707 3.938 3.938 0 0 0 1.521.268 4.609 4.609 0 0 0 1.306-.179 4.835 4.835 0 0 0 1.118-.483 5.083 5.083 0 0 0 .912-.689 5.619 5.619 0 0 0 .707-.814.443.443 0 0 0 .089-.161.526.526 0 0 0 .018-.125q0-.161-.125-.161a.288.288 0 0 0-.215.143 5.251 5.251 0 0 1-1.637 1.53 4.068 4.068 0 0 1-2.1.564 1.487 1.487 0 0 1-.877-.277.915.915 0 0 1-.394-.8 3.387 3.387 0 0 1 .036-.528q.036-.224.125-.6l.286-1.217a6.111 6.111 0 0 0 .823.188 6.2 6.2 0 0 0 1.02.081 5.743 5.743 0 0 0 1.4-.161 3.5 3.5 0 0 0 1.1-.465 2.293 2.293 0 0 0 .716-.742 1.947 1.947 0 0 0 .256-1.008zm-4.759.072a6.9 6.9 0 0 1 .25-.725 2.68 2.68 0 0 1 .349-.617 1.65 1.65 0 0 1 .489-.429 1.242 1.242 0 0 1 .635-.161.736.736 0 0 1 .662.3 1.345 1.345 0 0 1 .2.76 2.927 2.927 0 0 1-.635 2.048 2.105 2.105 0 0 1-1.619.689 2.3 2.3 0 0 1-.411-.036l-.394-.072zm13.388-.072a1.972 1.972 0 0 0-.17-.787 1.864 1.864 0 0 0-.519-.689 2.792 2.792 0 0 0-.877-.483 3.772 3.772 0 0 0-1.261-.188 5.272 5.272 0 0 0-2.2.438 5.033 5.033 0 0 0-1.619 1.136 4.905 4.905 0 0 0-.993 1.556 4.593 4.593 0 0 0-.34 1.7 3.646 3.646 0 0 0 .206 1.226 2.809 2.809 0 0 0 .626 1.02 3.106 3.106 0 0 0 1.064.707 3.938 3.938 0 0 0 1.521.268 4.609 4.609 0 0 0 1.306-.179 4.835 4.835 0 0 0 1.116-.486 5.083 5.083 0 0 0 .912-.689 5.619 5.619 0 0 0 .707-.814.443.443 0 0 0 .089-.161.526.526 0 0 0 .018-.125q0-.161-.125-.161a.288.288 0 0 0-.215.143 5.251 5.251 0 0 1-1.637 1.53 4.068 4.068 0 0 1-2.1.564 1.487 1.487 0 0 1-.877-.277.915.915 0 0 1-.394-.8 3.387 3.387 0 0 1 .036-.528q.036-.224.125-.6l.286-1.217a6.111 6.111 0 0 0 .823.188 6.2 6.2 0 0 0 1.02.081 5.743 5.743 0 0 0 1.4-.161 3.5 3.5 0 0 0 1.1-.465 2.293 2.293 0 0 0 .716-.742 1.947 1.947 0 0 0 .256-1.005zm-4.759.072a6.9 6.9 0 0 1 .25-.725 2.68 2.68 0 0 1 .349-.617 1.65 1.65 0 0 1 .483-.429 1.242 1.242 0 0 1 .635-.161.736.736 0 0 1 .662.3 1.345 1.345 0 0 1 .2.76 2.927 2.927 0 0 1-.64 2.039 2.105 2.105 0 0 1-1.619.689 2.3 2.3 0 0 1-.411-.036l-.394-.072zm12.38-.7a1.068 1.068 0 0 0-.17-.564 1.611 1.611 0 0 0-.519-.5 2.985 2.985 0 0 0-.877-.358 5.088 5.088 0 0 0-1.243-.134 4.669 4.669 0 0 0-1.279.17 3.217 3.217 0 0 0-1.038.492 2.416 2.416 0 0 0-.7.8 2.181 2.181 0 0 0-.259 1.064 1.867 1.867 0 0 0 .358 1.073 3.364 3.364 0 0 0 1.163.966 3.108 3.108 0 0 1 1.118.921 1.718 1.718 0 0 1 .331.957 1.224 1.224 0 0 1-.42 1.038 1.761 1.761 0 0 1-1.1.322 3.065 3.065 0 0 1-.8-.1 3.9 3.9 0 0 1-.635-.224 1.985 1.985 0 0 1-.429-.259q-.161-.134-.161-.224 0-.054.107-.089a1.239 1.239 0 0 0 .653-.3.782.782 0 0 0 .277-.617.863.863 0 0 0-.313-.716 1.1 1.1 0 0 0-.707-.25.915.915 0 0 0-.734.313 1.1 1.1 0 0 0-.268.742 1.444 1.444 0 0 0 .2.7 2.029 2.029 0 0 0 .581.644 3.335 3.335 0 0 0 .957.474 4.183 4.183 0 0 0 1.306.188 5.345 5.345 0 0 0 1.628-.224 3.461 3.461 0 0 0 1.163-.608 2.5 2.5 0 0 0 .7-.895 2.619 2.619 0 0 0 .233-1.1 2.8 2.8 0 0 0-1.717-2.576 3.961 3.961 0 0 1-1.109-.751 1.062 1.062 0 0 1-.3-.716.744.744 0 0 1 .411-.716 1.833 1.833 0 0 1 .859-.215 3.284 3.284 0 0 1 1.208.179q.438.179.438.322 0 .072-.125.125a.767.767 0 0 0-.385.3.751.751 0 0 0-.116.4.719.719 0 0 0 .259.6.963.963 0 0 0 .617.206.766.766 0 0 0 .626-.259.913.913 0 0 0 .209-.599z" transform="translate(2.218 88.683)" style="fill:#fff"/><path data-name="Ready to start your" d="M-.128-4.741H4.13a.279.279 0 0 0 .206-.081.465.465 0 0 0 .116-.206l.331-1.261a1.482 1.482 0 0 0 .036-.161q0-.1-.063-.1-.089 0-.152.179a3.439 3.439 0 0 1-.25.546A2.2 2.2 0 0 1 4-5.349a1.753 1.753 0 0 1-.47.335 1.31 1.31 0 0 1-.586.13H1.84l1.539-5.725h.483l.027-.143H1.482l-.027.143h.483L.4-4.884h-.483zm9.455-2.844a.986.986 0 0 0-.085-.394.932.932 0 0 0-.259-.344 1.4 1.4 0 0 0-.438-.242 1.886 1.886 0 0 0-.631-.094 2.636 2.636 0 0 0-1.1.219A2.516 2.516 0 0 0 6-7.872a2.453 2.453 0 0 0-.5.778 2.3 2.3 0 0 0-.17.85 1.823 1.823 0 0 0 .1.613 1.4 1.4 0 0 0 .313.51 1.553 1.553 0 0 0 .532.353 1.969 1.969 0 0 0 .76.134 2.3 2.3 0 0 0 .665-.089 2.418 2.418 0 0 0 .559-.242 2.542 2.542 0 0 0 .456-.344 2.809 2.809 0 0 0 .353-.407.221.221 0 0 0 .044-.084.263.263 0 0 0 .009-.063q0-.081-.063-.081a.144.144 0 0 0-.107.072 2.625 2.625 0 0 1-.818.765 2.034 2.034 0 0 1-1.051.282.744.744 0 0 1-.438-.139.457.457 0 0 1-.2-.4 1.694 1.694 0 0 1 .018-.264q.018-.112.063-.3l.145-.602a3.055 3.055 0 0 0 .411.094 3.1 3.1 0 0 0 .51.04 2.872 2.872 0 0 0 .7-.081 1.749 1.749 0 0 0 .55-.233 1.146 1.146 0 0 0 .359-.37.973.973 0 0 0 .127-.505zm-2.379.035a3.453 3.453 0 0 1 .125-.362 1.34 1.34 0 0 1 .174-.309.825.825 0 0 1 .242-.215.621.621 0 0 1 .318-.081.368.368 0 0 1 .331.148.673.673 0 0 1 .1.38 1.463 1.463 0 0 1-.318 1.024 1.053 1.053 0 0 1-.81.344 1.149 1.149 0 0 1-.21-.016l-.2-.036zm6.19-.349a.534.534 0 0 0-.085-.282.805.805 0 0 0-.259-.25 1.492 1.492 0 0 0-.438-.179 2.544 2.544 0 0 0-.622-.067 2.335 2.335 0 0 0-.64.085 1.608 1.608 0 0 0-.519.246 1.208 1.208 0 0 0-.349.4 1.09 1.09 0 0 0-.13.532.933.933 0 0 0 .179.537 1.682 1.682 0 0 0 .581.483 1.554 1.554 0 0 1 .559.461.859.859 0 0 1 .165.479.612.612 0 0 1-.21.519.88.88 0 0 1-.55.161 1.532 1.532 0 0 1-.4-.049 1.95 1.95 0 0 1-.318-.112.993.993 0 0 1-.215-.13q-.081-.067-.081-.112 0-.027.054-.045a.62.62 0 0 0 .327-.148.391.391 0 0 0 .139-.309.432.432 0 0 0-.157-.358.551.551 0 0 0-.353-.125.458.458 0 0 0-.367.157.552.552 0 0 0-.134.371.722.722 0 0 0 .1.349 1.014 1.014 0 0 0 .291.322 1.668 1.668 0 0 0 .479.237 2.092 2.092 0 0 0 .653.094 2.672 2.672 0 0 0 .814-.112 1.73 1.73 0 0 0 .581-.3 1.251 1.251 0 0 0 .349-.447 1.31 1.31 0 0 0 .116-.55 1.4 1.4 0 0 0-.859-1.288 1.98 1.98 0 0 1-.555-.376.531.531 0 0 1-.152-.358.372.372 0 0 1 .206-.358.916.916 0 0 1 .429-.107 1.642 1.642 0 0 1 .6.089q.219.089.219.161 0 .036-.063.063a.383.383 0 0 0-.192.148.376.376 0 0 0-.058.2.36.36 0 0 0 .13.3.482.482 0 0 0 .309.1.383.383 0 0 0 .313-.13.456.456 0 0 0 .113-.303z" transform="translate(28.567 72.772)" style="fill:#fff"/><path data-name="Ready to start your" d="M2.663-7.746a2.49 2.49 0 0 1 .246-.59.438.438 0 0 1 .4-.206.479.479 0 0 1 .233.054.651.651 0 0 1 .174.139.833.833 0 0 1 .125.183 1.387 1.387 0 0 1 .076.179l-.617 2.2a1.008 1.008 0 0 1-.335.528.778.778 0 0 1-.488.188.335.335 0 0 1-.282-.121A.488.488 0 0 1 2.1-5.5a2.187 2.187 0 0 1 .058-.349q.058-.268.148-.6t.188-.689q.097-.362.169-.608zM4.2-10.823l-.036.143.5-.1L4-8.309a.924.924 0 0 0-.3-.331 1.05 1.05 0 0 0-.6-.143 2.173 2.173 0 0 0-1 .228 2.532 2.532 0 0 0-.756.577 2.581 2.581 0 0 0-.474.769 2.176 2.176 0 0 0-.165.8 2.274 2.274 0 0 0 .085.64 1.351 1.351 0 0 0 .268.505 1.253 1.253 0 0 0 .461.335 1.651 1.651 0 0 0 .662.121 1.458 1.458 0 0 0 .689-.143 1.518 1.518 0 0 0 .483-.42.55.55 0 0 0 .058.2.6.6 0 0 0 .147.171.766.766 0 0 0 .255.139A1.213 1.213 0 0 0 4.2-4.8a1.239 1.239 0 0 0 .528-.116 2.02 2.02 0 0 0 .461-.3 2.789 2.789 0 0 0 .38-.394q.17-.215.3-.411a.11.11 0 0 0 .018-.063q0-.089-.081-.089a.109.109 0 0 0-.1.063 3.2 3.2 0 0 1-.568.662.722.722 0 0 1-.389.2q-.188 0-.188-.25a.653.653 0 0 1 .018-.165l.045-.174 1.422-5.3zm5.9 3.068a.986.986 0 0 0-.085-.394.932.932 0 0 0-.259-.344 1.4 1.4 0 0 0-.438-.242 1.886 1.886 0 0 0-.631-.094 2.636 2.636 0 0 0-1.1.219 2.517 2.517 0 0 0-.81.568 2.453 2.453 0 0 0-.5.778 2.3 2.3 0 0 0-.17.85 1.823 1.823 0 0 0 .1.613 1.4 1.4 0 0 0 .313.51 1.553 1.553 0 0 0 .532.353 1.969 1.969 0 0 0 .76.134 2.3 2.3 0 0 0 .653-.089 2.418 2.418 0 0 0 .559-.242 2.542 2.542 0 0 0 .456-.344 2.809 2.809 0 0 0 .353-.407.221.221 0 0 0 .045-.081.263.263 0 0 0 .009-.063q0-.081-.063-.081a.144.144 0 0 0-.107.072 2.625 2.625 0 0 1-.818.765 2.034 2.034 0 0 1-1.051.282.744.744 0 0 1-.438-.139.457.457 0 0 1-.2-.4 1.694 1.694 0 0 1 .018-.264q.018-.112.063-.3L7.44-6.7a3.055 3.055 0 0 0 .411.094 3.1 3.1 0 0 0 .51.04 2.872 2.872 0 0 0 .7-.081 1.749 1.749 0 0 0 .55-.233 1.146 1.146 0 0 0 .358-.371.973.973 0 0 0 .131-.504zm-2.379.036a3.453 3.453 0 0 1 .125-.362 1.34 1.34 0 0 1 .174-.309.825.825 0 0 1 .238-.21.621.621 0 0 1 .318-.081.368.368 0 0 1 .331.148.673.673 0 0 1 .1.38 1.463 1.463 0 0 1-.318 1.024 1.053 1.053 0 0 1-.81.344 1.149 1.149 0 0 1-.206-.018l-.2-.036z" transform="translate(.246 93.068)" style="fill:#fff"/><path data-name="Ready to start your" d="m4.021-21.631 1.038-.161-2.576 9.3q-.089.3-.134.537a2.553 2.553 0 0 0-.045.483 1.582 1.582 0 0 0 .152.716 1.5 1.5 0 0 0 .394.5 1.64 1.64 0 0 0 .564.3 2.253 2.253 0 0 0 .662.1 3.315 3.315 0 0 0 1.118-.17 2.9 2.9 0 0 0 .859-.483 3.531 3.531 0 0 0 .689-.76 10.973 10.973 0 0 0 .608-1.02.923.923 0 0 0 .063-.143.245.245 0 0 0 .009-.054.127.127 0 0 0-.143-.143.127.127 0 0 0-.125.089A5.558 5.558 0 0 1 6.1-11.013a1.41 1.41 0 0 1-.859.456q-.394 0-.394-.5a1.2 1.2 0 0 1 .018-.2q.018-.107.072-.322L7.94-22.562l-3.846.626zm9.375.787a1.2 1.2 0 0 0 .018-.2v-.156a1.609 1.609 0 0 0-.474-1.154 1.694 1.694 0 0 0-1.279-.492 1.561 1.561 0 0 0-.662.125 1.2 1.2 0 0 0-.429.322 1.244 1.244 0 0 0-.233.438 1.664 1.664 0 0 0-.072.474 1.128 1.128 0 0 0 .376.877 1.2 1.2 0 0 0 .823.34 1.052 1.052 0 0 0 1.109-.68.554.554 0 0 0 .036-.107q.018-.072.072-.072.125 0 .125.25a1.063 1.063 0 0 1-.036.34 2.184 2.184 0 0 1-.25.662 3.009 3.009 0 0 1-.546.7 4.4 4.4 0 0 1-.832.626 3.861 3.861 0 0 1-1.091.429q-.143.054-.143.125 0 .089.107.089a.318.318 0 0 0 .143-.036 4.69 4.69 0 0 0 1.324-.483 4.261 4.261 0 0 0 .966-.725 3.666 3.666 0 0 0 .626-.841 3.331 3.331 0 0 0 .326-.851zm2.183 9.7a1.747 1.747 0 0 1 .018-.224 3.363 3.363 0 0 1 .107-.438l1.771-6.53-3.811.572-.089.3 1.02-.125-1.521 5.564a3.154 3.154 0 0 0-.107.751 1.323 1.323 0 0 0 .411 1.056 1.632 1.632 0 0 0 1.109.358 2.639 2.639 0 0 0 1.879-.653 5.49 5.49 0 0 0 1.2-1.744.476.476 0 0 0 .054-.215q0-.161-.125-.161t-.2.161a5.486 5.486 0 0 1-.832 1.3q-.385.4-.635.4t-.249-.376zm2.415-9.393a1.316 1.316 0 0 0-.322-.868 1.234 1.234 0 0 0-1-.385 1.6 1.6 0 0 0-.671.134 1.6 1.6 0 0 0-.5.349 1.362 1.362 0 0 0-.3.492 1.674 1.674 0 0 0-.1.564 1.3 1.3 0 0 0 .313.859 1.2 1.2 0 0 0 .975.376 1.713 1.713 0 0 0 .7-.134 1.477 1.477 0 0 0 .5-.349 1.548 1.548 0 0 0 .3-.492 1.5 1.5 0 0 0 .105-.549zm10.054 7.764q-.107 0-.2.143a8.318 8.318 0 0 1-.841 1.243q-.34.385-.555.385-.286 0-.286-.465a1.28 1.28 0 0 1 .036-.268q.036-.161.125-.519l.769-2.827a3.262 3.262 0 0 0 .116-.537 3.429 3.429 0 0 0 .031-.382 2.066 2.066 0 0 0-.51-1.4 1.822 1.822 0 0 0-1.458-.59 3.143 3.143 0 0 0-1.619.376 4.244 4.244 0 0 0-1.1.93l.429-1.467-3.829.59-.089.3 1.02-.2-1.968 7.371h2.648l1.449-5.349a2.593 2.593 0 0 1 .394-.841 3.509 3.509 0 0 1 .572-.635 2.851 2.851 0 0 1 .6-.4 1.188 1.188 0 0 1 .492-.143.4.4 0 0 1 .394.206 1.094 1.094 0 0 1 .107.51 4.656 4.656 0 0 1-.179 1.038l-.859 3.2a3.737 3.737 0 0 0-.143.948 1.7 1.7 0 0 0 .358 1.136 1.309 1.309 0 0 0 1.056.42 2.665 2.665 0 0 0 1.87-.716 5.163 5.163 0 0 0 1.243-1.807.568.568 0 0 0 .036-.161.1.1 0 0 0-.109-.092zm10.233 0q-.107 0-.2.143a8.318 8.318 0 0 1-.841 1.243q-.34.387-.55.387-.286 0-.286-.465a1.281 1.281 0 0 1 .036-.268q.036-.161.125-.519l.769-2.827a3.263 3.263 0 0 0 .116-.537 3.431 3.431 0 0 0 .027-.384 2.066 2.066 0 0 0-.51-1.4 1.822 1.822 0 0 0-1.458-.59 3.143 3.143 0 0 0-1.619.376 4.244 4.244 0 0 0-1.1.93l.429-1.467-3.829.59-.089.3 1.02-.2-1.968 7.371H31l1.449-5.349a2.593 2.593 0 0 1 .394-.841 3.509 3.509 0 0 1 .572-.635 2.851 2.851 0 0 1 .6-.4 1.188 1.188 0 0 1 .492-.143.4.4 0 0 1 .394.206 1.094 1.094 0 0 1 .107.51 4.656 4.656 0 0 1-.179 1.038l-.859 3.2a3.737 3.737 0 0 0-.143.948 1.7 1.7 0 0 0 .358 1.136 1.309 1.309 0 0 0 1.056.42 2.665 2.665 0 0 0 1.87-.716 5.163 5.163 0 0 0 1.243-1.807.568.568 0 0 0 .036-.161.1.1 0 0 0-.108-.092zm.877-.429a4.108 4.108 0 0 0 .206 1.324A2.8 2.8 0 0 0 40-10.826a3.035 3.035 0 0 0 1.073.707 4.058 4.058 0 0 0 1.521.259 5.082 5.082 0 0 0 1.9-.349 4.664 4.664 0 0 0 1.521-.966 4.474 4.474 0 0 0 1.011-1.458 4.559 4.559 0 0 0 .367-1.843 3.33 3.33 0 0 0-.939-2.5 3.63 3.63 0 0 0-2.639-.912 4.34 4.34 0 0 0-1.753.367 4.949 4.949 0 0 0-1.485.993 4.762 4.762 0 0 0-1.029 1.485 4.456 4.456 0 0 0-.389 1.843zm5.886-3.328a2.572 2.572 0 0 1-.036.4q-.036.224-.134.662t-.286 1.163q-.188.725-.51 1.887-.107.394-.233.8a3.491 3.491 0 0 1-.313.725 1.934 1.934 0 0 1-.438.528.954.954 0 0 1-.626.206.834.834 0 0 1-.787-.367 1.651 1.651 0 0 1-.215-.85 2.668 2.668 0 0 1 .027-.358q.027-.2.116-.581t.25-1.047q.161-.662.447-1.753.125-.483.268-.921a3.466 3.466 0 0 1 .358-.778 1.928 1.928 0 0 1 .5-.546 1.2 1.2 0 0 1 .716-.206.773.773 0 0 1 .707.3 1.358 1.358 0 0 1 .19.733zm3.328 1.378q.125 0 .215-.2.161-.322.367-.671a4.627 4.627 0 0 1 .447-.635 3.033 3.033 0 0 1 .492-.474.813.813 0 0 1 .483-.188q.447 0 .447.5a3.407 3.407 0 0 1-.116.895q-.116.429-.349 1.038-.286.769-.483 1.422a5.044 5.044 0 0 0-.2 1.458 2.007 2.007 0 0 0 .215.957 2.009 2.009 0 0 0 .572.671 2.393 2.393 0 0 0 .823.394 3.77 3.77 0 0 0 .984.125 3.2 3.2 0 0 0 1.458-.367 6.874 6.874 0 0 0 1.4-.948 10.025 10.025 0 0 0 1.252-1.306 12.523 12.523 0 0 0 1.011-1.449 8.531 8.531 0 0 0 .671-1.378 3.263 3.263 0 0 0 .239-1.082 1.709 1.709 0 0 0-.429-1.234 1.56 1.56 0 0 0-1.181-.447 1.649 1.649 0 0 0-1.163.429 1.441 1.441 0 0 0-.465 1.109 1.378 1.378 0 0 0 .456 1.073 1.562 1.562 0 0 0 1.082.411 1.746 1.746 0 0 0 .823-.2.159.159 0 0 1 .072-.018q.054 0 .054.072a1.625 1.625 0 0 1-.215.581 9.614 9.614 0 0 1-.581.966q-.367.546-.85 1.136a10.391 10.391 0 0 1-1.02 1.082 5.815 5.815 0 0 1-1.1.805 2.231 2.231 0 0 1-1.082.313.571.571 0 0 1-.51-.224 1.05 1.05 0 0 1-.152-.6 4.705 4.705 0 0 1 .17-1.145q.17-.662.4-1.378.2-.59.411-1.226a3.451 3.451 0 0 0 .215-1.064 1.816 1.816 0 0 0-.51-1.422 2.419 2.419 0 0 0-1.637-.456 2.19 2.19 0 0 0-1.056.242 3.24 3.24 0 0 0-.787.59 3.585 3.585 0 0 0-.572.769q-.233.42-.411.76a.355.355 0 0 0-.036.161.127.127 0 0 0 .146.15zM68.8-17.767h-2.824l-.34 1.2a1.864 1.864 0 0 0-.9-1.073 2.811 2.811 0 0 0-1.19-.268 4.545 4.545 0 0 0-1.717.34 4.911 4.911 0 0 0-1.494.939 4.548 4.548 0 0 0-1.047 1.44 4.335 4.335 0 0 0-.394 1.861 3.9 3.9 0 0 0 .25 1.44 3.151 3.151 0 0 0 .671 1.064 3.061 3.061 0 0 0 .939.662 2.557 2.557 0 0 0 1.056.233 2.8 2.8 0 0 0 .957-.152 3.006 3.006 0 0 0 .742-.385 3.665 3.665 0 0 0 .546-.474 4.919 4.919 0 0 0 .367-.438 1.7 1.7 0 0 0 .17.519 1.65 1.65 0 0 0 .385.492 1.977 1.977 0 0 0 .633.367 2.767 2.767 0 0 0 .957.143 2.577 2.577 0 0 0 1.2-.259 3.077 3.077 0 0 0 .85-.635 3.777 3.777 0 0 0 .573-.8q.224-.42.367-.742a.2.2 0 0 0 .018-.089.127.127 0 0 0-.143-.143.161.161 0 0 0-.143.107 4.642 4.642 0 0 1-.9 1.36 1.269 1.269 0 0 1-.778.429q-.429 0-.429-.608a2.011 2.011 0 0 1 .072-.519zm-6.709 2.093a3.71 3.71 0 0 1 .653-1.342 1.386 1.386 0 0 1 1.136-.519 1.223 1.223 0 0 1 .671.188 1.931 1.931 0 0 1 .5.456 2.046 2.046 0 0 1 .3.537 1.33 1.33 0 0 1 .1.429.562.562 0 0 1-.009.089q-.009.054-.063.233l-.966 3.489a1.482 1.482 0 0 1-.3.519 4.16 4.16 0 0 1-.581.59 4.192 4.192 0 0 1-.725.492 1.6 1.6 0 0 1-.76.206 1.038 1.038 0 0 1-.725-.268 1.084 1.084 0 0 1-.3-.841 2.844 2.844 0 0 1 .045-.5 5.06 5.06 0 0 1 .116-.5zm13.418-5.1a7.874 7.874 0 0 1-.7 1.163 5.06 5.06 0 0 1-.751.823 4.7 4.7 0 0 1-.841.581 7.513 7.513 0 0 1-.984.438l-.179.68h-1.283l-.071.289h1.288l-.966 3.6a3.574 3.574 0 0 0-.125 1.342 2.33 2.33 0 0 0 .376 1.056 2.038 2.038 0 0 0 .832.7 2.829 2.829 0 0 0 1.226.25 2.638 2.638 0 0 0 1.583-.483 2.846 2.846 0 0 0 .975-1.181.2.2 0 0 0 .009-.152.17.17 0 0 0-.081-.089.133.133 0 0 0-.116 0 .2.2 0 0 0-.1.1 2.592 2.592 0 0 1-.707.912 1.254 1.254 0 0 1-.742.286.8.8 0 0 1-.725-.349 1.508 1.508 0 0 1-.009-1.154l1.252-4.83h1.54l.072-.286h-1.539l1-3.685zm4.1 9.625a1.748 1.748 0 0 1 .018-.224 3.363 3.363 0 0 1 .107-.438l1.771-6.53-3.811.572-.089.3 1.02-.125-1.525 5.57a3.153 3.153 0 0 0-.107.751 1.323 1.323 0 0 0 .411 1.056 1.632 1.632 0 0 0 1.109.358 2.639 2.639 0 0 0 1.879-.653 5.49 5.49 0 0 0 1.2-1.744.476.476 0 0 0 .054-.215q0-.161-.125-.161t-.2.161a5.486 5.486 0 0 1-.832 1.3q-.385.4-.635.4t-.245-.377zm2.415-9.393a1.316 1.316 0 0 0-.322-.868 1.234 1.234 0 0 0-1-.385 1.6 1.6 0 0 0-.671.134 1.6 1.6 0 0 0-.5.349 1.362 1.362 0 0 0-.3.492 1.674 1.674 0 0 0-.1.564 1.3 1.3 0 0 0 .313.859 1.2 1.2 0 0 0 .975.376 1.713 1.713 0 0 0 .7-.134 1.477 1.477 0 0 0 .5-.349 1.548 1.548 0 0 0 .3-.492 1.5 1.5 0 0 0 .105-.544zm.7 7.335a4.108 4.108 0 0 0 .206 1.324 2.8 2.8 0 0 0 .635 1.056 3.035 3.035 0 0 0 1.073.707 4.058 4.058 0 0 0 1.521.259 5.082 5.082 0 0 0 1.9-.349 4.664 4.664 0 0 0 1.521-.966 4.474 4.474 0 0 0 1.011-1.458 4.559 4.559 0 0 0 .367-1.843 3.33 3.33 0 0 0-.939-2.5 3.63 3.63 0 0 0-2.639-.912 4.34 4.34 0 0 0-1.753.367 4.949 4.949 0 0 0-1.485.993 4.762 4.762 0 0 0-1.029 1.485 4.456 4.456 0 0 0-.391 1.844zm5.886-3.328a2.573 2.573 0 0 1-.036.4q-.036.224-.134.662t-.286 1.163q-.188.725-.51 1.887-.107.394-.233.8a3.492 3.492 0 0 1-.313.725 1.935 1.935 0 0 1-.438.528.954.954 0 0 1-.626.206.834.834 0 0 1-.787-.367 1.651 1.651 0 0 1-.215-.85 2.668 2.668 0 0 1 .027-.358q.027-.2.116-.581t.25-1.047q.161-.662.447-1.753.125-.483.268-.921a3.466 3.466 0 0 1 .358-.778 1.928 1.928 0 0 1 .5-.546 1.2 1.2 0 0 1 .716-.206.773.773 0 0 1 .707.3 1.358 1.358 0 0 1 .187.738zm12.631 3.757q-.107 0-.2.143a8.318 8.318 0 0 1-.841 1.243q-.34.385-.555.385-.286 0-.286-.465a1.281 1.281 0 0 1 .036-.268q.036-.161.125-.519l.769-2.827a3.261 3.261 0 0 0 .116-.537 3.428 3.428 0 0 0 .027-.376 2.066 2.066 0 0 0-.51-1.4 1.822 1.822 0 0 0-1.458-.59 3.143 3.143 0 0 0-1.619.376 4.244 4.244 0 0 0-1.1.93l.429-1.467-3.829.59-.089.3 1.02-.2-1.968 7.371h2.648l1.449-5.349a2.593 2.593 0 0 1 .394-.841 3.508 3.508 0 0 1 .572-.635 2.851 2.851 0 0 1 .6-.4 1.188 1.188 0 0 1 .492-.143.4.4 0 0 1 .394.206 1.094 1.094 0 0 1 .107.51 4.655 4.655 0 0 1-.179 1.038l-.859 3.2a3.737 3.737 0 0 0-.143.948 1.7 1.7 0 0 0 .358 1.136 1.309 1.309 0 0 0 1.056.42 2.665 2.665 0 0 0 1.87-.716 5.163 5.163 0 0 0 1.243-1.807.568.568 0 0 0 .036-.161.1.1 0 0 0-.107-.093z" transform="translate(9.604 104.662)" style="fill:#fff"/><path data-name="Ready to start your" d="M5.223-12.434a1.133 1.133 0 0 0-.135-.58 1.1 1.1 0 0 0-.358-.374 1.438 1.438 0 0 0-.5-.2 2.953 2.953 0 0 0-.58-.056 2.289 2.289 0 0 1 .342-.334 2.7 2.7 0 0 1 .5-.318 3.448 3.448 0 0 1 .636-.238 2.768 2.768 0 0 1 .731-.1 1.092 1.092 0 0 1 .882.413 2.349 2.349 0 0 1 .342 1.463 5.6 5.6 0 0 1-.175 1.479 4.641 4.641 0 0 1-.477 1.145 4.718 4.718 0 0 1-.684.9q-.382.39-.779.723-.413.35-1.057.8t-1.288.962a10.723 10.723 0 0 0-1.16 1.064A2.762 2.762 0 0 0 .787-4.6l-.127.433h6.09l1.495-2.91q.048-.111.087-.215a.519.519 0 0 0 .04-.183q0-.079-.064-.079-.1 0-.238.27-.1.175-.238.39a2.256 2.256 0 0 1-.35.405 1.866 1.866 0 0 1-.509.326 1.7 1.7 0 0 1-.7.135H2.536a3.927 3.927 0 0 1 .636-.429q.35-.191.723-.358t.739-.31a5.811 5.811 0 0 0 .684-.318 9.123 9.123 0 0 0 1.518-.779 6.283 6.283 0 0 0 1.28-1.073 5.024 5.024 0 0 0 .89-1.375 4.12 4.12 0 0 0 .334-1.669 2.689 2.689 0 0 0-.231-1.137 2.4 2.4 0 0 0-.636-.843 2.753 2.753 0 0 0-.962-.517 3.956 3.956 0 0 0-1.191-.174 4.873 4.873 0 0 0-1.52.23 4.391 4.391 0 0 0-1.232.612 3.112 3.112 0 0 0-.827.867 1.833 1.833 0 0 0-.3.978 1.3 1.3 0 0 0 .127.588 1.265 1.265 0 0 0 .318.413 1.3 1.3 0 0 0 .437.238 1.574 1.574 0 0 0 .485.084 1.5 1.5 0 0 0 .986-.358 1.317 1.317 0 0 0 .429-1.076zM9.341-7.6a5.075 5.075 0 0 0 .183 1.39 3.238 3.238 0 0 0 .576 1.137 2.664 2.664 0 0 0 .994.771 3.48 3.48 0 0 0 1.463.278 4.2 4.2 0 0 0 1.638-.326 5.3 5.3 0 0 0 1.431-.89 7.56 7.56 0 0 0 1.185-1.3 8.678 8.678 0 0 0 .9-1.566 9.339 9.339 0 0 0 .558-1.694 7.432 7.432 0 0 0 .2-1.662 5.1 5.1 0 0 0-.183-1.383 3.223 3.223 0 0 0-.564-1.137 2.629 2.629 0 0 0-.986-.763 3.437 3.437 0 0 0-1.447-.278 4.241 4.241 0 0 0-1.654.326 5.535 5.535 0 0 0-1.439.882 6.934 6.934 0 0 0-1.185 1.3 9.36 9.36 0 0 0-.9 1.566A9.03 9.03 0 0 0 9.54-9.27a7.393 7.393 0 0 0-.199 1.67zm6.408-4.07q-.286 1.1-.58 2.194t-.629 2.32q-.143.541-.286 1.057a5.074 5.074 0 0 1-.342.914 1.8 1.8 0 0 1-.509.636 1.28 1.28 0 0 1-.8.238.933.933 0 0 1-.779-.27 1.12 1.12 0 0 1-.207-.7 3.725 3.725 0 0 1 .119-.882q.119-.485.246-.978l.587-2.259q.3-1.161.62-2.305.143-.477.286-1.01a5.419 5.419 0 0 1 .366-.986 2.441 2.441 0 0 1 .549-.747 1.2 1.2 0 0 1 .835-.294.768.768 0 0 1 .708.294 1.411 1.411 0 0 1 .183.755 4.671 4.671 0 0 1-.119 1q-.121.545-.248 1.022zm6.9-.763a1.133 1.133 0 0 0-.135-.58 1.1 1.1 0 0 0-.358-.374 1.438 1.438 0 0 0-.5-.2 2.953 2.953 0 0 0-.58-.056 2.289 2.289 0 0 1 .342-.334 2.7 2.7 0 0 1 .5-.318 3.448 3.448 0 0 1 .636-.238 2.768 2.768 0 0 1 .731-.1 1.092 1.092 0 0 1 .882.413 2.349 2.349 0 0 1 .342 1.463 5.6 5.6 0 0 1-.175 1.479 4.641 4.641 0 0 1-.477 1.145 4.718 4.718 0 0 1-.684.9q-.382.39-.779.723-.413.35-1.057.8t-1.288.962a10.723 10.723 0 0 0-1.161 1.057 2.762 2.762 0 0 0-.675 1.091l-.127.429h6.09l1.495-2.91q.048-.111.087-.215a.519.519 0 0 0 .04-.183q0-.079-.064-.079-.1 0-.238.27-.1.175-.238.39a2.256 2.256 0 0 1-.35.405 1.866 1.866 0 0 1-.509.326 1.7 1.7 0 0 1-.7.135h-3.737a3.927 3.927 0 0 1 .636-.429q.35-.191.723-.358t.739-.31a5.811 5.811 0 0 0 .684-.318 9.123 9.123 0 0 0 1.518-.779 6.283 6.283 0 0 0 1.28-1.073 5.024 5.024 0 0 0 .89-1.375 4.12 4.12 0 0 0 .334-1.669 2.689 2.689 0 0 0-.231-1.137 2.4 2.4 0 0 0-.636-.843 2.754 2.754 0 0 0-.962-.517 3.956 3.956 0 0 0-1.192-.175 4.873 4.873 0 0 0-1.518.231 4.391 4.391 0 0 0-1.227.617 3.112 3.112 0 0 0-.827.867 1.833 1.833 0 0 0-.3.978 1.3 1.3 0 0 0 .127.588 1.265 1.265 0 0 0 .318.413 1.3 1.3 0 0 0 .437.238 1.574 1.574 0 0 0 .485.079 1.5 1.5 0 0 0 .986-.358 1.317 1.317 0 0 0 .423-1.072zm5.9-.525a1.092 1.092 0 0 0 .318.867 1.283 1.283 0 0 0 .874.278 1.281 1.281 0 0 0 .882-.334 1.275 1.275 0 0 0 .374-1 1.112 1.112 0 0 0-.238-.723.745.745 0 0 0-.6-.294q-.127 0-.127-.048t.127-.135a1.625 1.625 0 0 1 .334-.167 3 3 0 0 1 .485-.135 2.953 2.953 0 0 1 .58-.056.87.87 0 0 1 .779.31 1.728 1.728 0 0 1 .207.946 5.046 5.046 0 0 1-.111.946 4.1 4.1 0 0 1-.382 1.089 2.748 2.748 0 0 1-.723.89 1.752 1.752 0 0 1-1.137.366h-1.4q-.238 0-.238.175 0 .127.207.127h1.351a1.088 1.088 0 0 1 .89.366 1.608 1.608 0 0 1 .3 1.049 7.414 7.414 0 0 1-.119 1.2 5.841 5.841 0 0 1-.4 1.351 3.587 3.587 0 0 1-.731 1.105 1.491 1.491 0 0 1-1.105.461 3.418 3.418 0 0 1-.835-.087 2 2 0 0 1-.549-.215 1.014 1.014 0 0 1-.3-.262.427.427 0 0 1-.1-.231.084.084 0 0 1 .1-.1h.032a1.057 1.057 0 0 0 .334.048 2 2 0 0 0 .5-.064 1.319 1.319 0 0 0 .437-.2 1.041 1.041 0 0 0 .31-.35 1.049 1.049 0 0 0 .119-.517 1.065 1.065 0 0 0-.366-.882 1.284 1.284 0 0 0-.827-.294 1.319 1.319 0 0 0-.612.135 1.45 1.45 0 0 0-.445.35 1.409 1.409 0 0 0-.27.485 1.747 1.747 0 0 0-.087.541 1.713 1.713 0 0 0 .167.747 1.787 1.787 0 0 0 .485.612 2.469 2.469 0 0 0 .787.421 3.337 3.337 0 0 0 1.073.159 6.072 6.072 0 0 0 2.417-.405A3.96 3.96 0 0 0 32.73-5.4a3.01 3.01 0 0 0 .66-1.161 3.761 3.761 0 0 0 .167-.962 2.691 2.691 0 0 0-.167-.994 2.144 2.144 0 0 0-.453-.715 2.4 2.4 0 0 0-.652-.477 3.557 3.557 0 0 0-.763-.278 4.463 4.463 0 0 0 1.367-.318 3.466 3.466 0 0 0 1.018-.636 2.612 2.612 0 0 0 .628-.867 2.468 2.468 0 0 0 .215-1.01 2.236 2.236 0 0 0-.167-.874 1.815 1.815 0 0 0-.517-.692 2.536 2.536 0 0 0-.874-.461 4.168 4.168 0 0 0-1.256-.167 5.242 5.242 0 0 0-1.447.183 3.671 3.671 0 0 0-1.065.477 2.2 2.2 0 0 0-.652.66 1.4 1.4 0 0 0-.224.733z" transform="translate(72.979 113.272)" style="fill:#fff"/></g><path data-name="Tracé 104485" d="M8.629-22.916h2.443V-24.7H8.125a4.223 4.223 0 0 0-4.615 4.615v2.754H.95v1.707h2.56V.51h2.133v-16.134h5v-1.707h-5v-2.676a2.712 2.712 0 0 1 2.986-2.909zm7.718 1.4a1.431 1.431 0 0 0 1.435-1.435 1.39 1.39 0 0 0-1.435-1.357 1.381 1.381 0 0 0-1.4 1.357 1.423 1.423 0 0 0 1.4 1.431zM17.433.51v-17.841H15.3V.51zM30.93-17.6a6.935 6.935 0 0 0-5.973 2.948v-2.676h-2.133V.51h2.133v-10.743a5.189 5.189 0 0 1 5.507-5.507 5.208 5.208 0 0 1 5.507 5.507V.51h2.133V-10.5c.002-4.892-3.489-7.1-7.174-7.1zm20.09 1.978v-1.707h-4.46v-5.43h-2.133v5.43h-2.56v1.707h2.56v12.176A3.659 3.659 0 0 0 48.422.51h2.4v-1.784h-1.74a2.241 2.241 0 0 1-2.521-2.443v-11.907zm11.286-2.017c-5.352 0-8.765 3.917-8.765 9.231s3.607 9.269 9 9.269a8.7 8.7 0 0 0 7.447-3.8l-1.514-1.05a6.932 6.932 0 0 1-5.934 2.948c-3.917 0-6.632-2.676-6.942-6.632H70.84v-.737c0-5.314-3.491-9.231-8.533-9.231zm0 1.823c3.723 0 6.206 2.754 6.516 6.593H55.6c.308-3.919 2.79-6.595 6.707-6.595zm27.3 2.948 1.551-1.164A8.6 8.6 0 0 0 83.91-17.6c-5.352 0-9 3.84-9 9.192S78.558.82 83.91.82a8.534 8.534 0 0 0 7.253-3.607l-1.552-1.125a6.781 6.781 0 0 1-5.663 2.676c-4.189 0-6.942-2.986-6.942-7.175s2.754-7.175 6.942-7.175a6.754 6.754 0 0 1 5.663 2.715zm13.851-4.732a6.935 6.935 0 0 0-5.973 2.948V-24.7h-2.133V.51h2.133v-10.743a5.189 5.189 0 0 1 5.507-5.507 5.208 5.208 0 0 1 5.507 5.507V.51h2.133V-10.5c.002-4.892-3.489-7.1-7.174-7.1zM11.539 4.337v7.3a5.191 5.191 0 0 0-4.695-2.63c-3.394 0-5.767 2.526-5.767 6.047 0 3.5 2.373 6.073 5.767 6.073a5.212 5.212 0 0 0 4.695-2.654v2.45h1.4V4.337zM7 19.775a4.435 4.435 0 0 1-4.567-4.72A4.435 4.435 0 0 1 7 10.334a4.4 4.4 0 0 1 4.542 4.72A4.4 4.4 0 0 1 7 19.775zM21.72 8.981c-3.521 0-5.767 2.577-5.767 6.073a5.769 5.769 0 0 0 5.92 6.1 5.725 5.725 0 0 0 4.9-2.5l-1-.689a4.56 4.56 0 0 1-3.9 1.939 4.437 4.437 0 0 1-4.567-4.363h10.028v-.485c0-3.498-2.297-6.075-5.614-6.075zm0 1.2c2.45 0 4.083 1.812 4.287 4.338h-8.7c.203-2.578 1.836-4.338 4.413-4.338zm15.106 10.742V4.337h-1.4v16.586zm3.419-16.586-.612 2.934h1.148L41.9 4.337zm14.11 4.848v2.45a5.191 5.191 0 0 0-4.695-2.628c-3.394 0-5.767 2.526-5.767 6.047 0 3.5 2.373 6.073 5.767 6.073a5.212 5.212 0 0 0 4.695-2.654v2.45h1.4V9.185zm-4.542 10.59a4.435 4.435 0 0 1-4.567-4.72 4.558 4.558 0 1 1 9.109 0 4.4 4.4 0 0 1-4.542 4.72zm14.6-10.768a4.562 4.562 0 0 0-3.929 1.939V9.185h-1.4v11.738h1.4v-7.068a3.623 3.623 0 1 1 7.247 0v7.068h1.4v-7.247a4.422 4.422 0 0 0-4.722-4.669zm13.37 0a4.562 4.562 0 0 0-3.929 1.939V9.185h-1.4v11.738h1.4v-7.068a3.623 3.623 0 0 1 7.247 0v7.068h1.4v-7.247a4.422 4.422 0 0 0-4.722-4.669zM91.736 5.1l-1.1 2.373h1.25l1.2-2.373zm-.459 3.878c-3.521 0-5.767 2.577-5.767 6.073a5.965 5.965 0 0 0 10.819 3.6l-1-.689a4.56 4.56 0 0 1-3.9 1.939 4.437 4.437 0 0 1-4.567-4.363h10.029v-.485c0-3.495-2.297-6.072-5.614-6.072zm0 1.2c2.45 0 4.083 1.812 4.287 4.338h-8.7c.203-2.575 1.836-4.335 4.413-4.335zm14.059-1.2c-3.521 0-5.767 2.577-5.767 6.073a5.965 5.965 0 0 0 10.819 3.6l-1-.689a4.56 4.56 0 0 1-3.9 1.939 4.437 4.437 0 0 1-4.567-4.363h10.029v-.485c0-3.495-2.296-6.072-5.614-6.072zm0 1.2c2.45 0 4.083 1.812 4.287 4.338h-8.7c.203-2.575 1.836-4.335 4.413-4.335z" transform="translate(0 24.7)" style="fill:#fff"/><path data-name="Ligne 3506" transform="translate(.5 55.02)" style="fill:none;stroke:#fff;stroke-linecap:round" d="M0 0h110"/></g></svg>