<svg xmlns="http://www.w3.org/2000/svg" width="126" height="90" viewBox="0 0 126 90">
    <defs>
        <linearGradient id="xpm9t0tpka" x1=".5" x2=".5" y2="1" gradientUnits="objectBoundingBox">
            <stop offset="0" stop-color="#d81882"/>
            <stop offset="1" stop-color="#003a6e" stop-opacity="0"/>
        </linearGradient>
    </defs>
    <g transform="translate(-607 -807)">
        <rect data-name="Rectangle 15313" width="126" height="90" rx="4" transform="translate(607 807)" style="opacity:.999;fill:url(#xpm9t0tpka)"/>
        <path data-name="Tracé 104482" d="M.192 5.389h9.139V3.738H.192zm12.23-2.726h3v-4.148H16.9c2.63 0 4.915-1.306 4.915-4.3 0-3.072-2.246-4.051-4.992-4.051h-4.4zm3-6.509v-3.629h1.229c1.459 0 2.246.442 2.246 1.69s-.691 1.939-2.17 1.939zm10.1 6.739A3.993 3.993 0 0 0 28.243 1.7h.077l.211.96h2.419v-5.412c0-3-1.382-4.358-3.84-4.358A7.764 7.764 0 0 0 23-5.862l1.037 1.92a5.1 5.1 0 0 1 2.5-.806A1.256 1.256 0 0 1 27.994-3.5c-3.763.384-5.318 1.478-5.318 3.494a2.767 2.767 0 0 0 2.841 2.899zm1.018-2.3c-.653 0-1.018-.269-1.018-.826 0-.672.576-1.19 2.477-1.44V-.16a1.988 1.988 0 0 1-1.465.749zm9.446 2.3a3.957 3.957 0 0 0 1.478-.25l-.35-2.189a1.185 1.185 0 0 1-.346.038c-.23 0-.538-.192-.538-.806v-10.444h-2.956V-.429c0 1.997.672 3.322 2.707 3.322zm2.861-.23H41.8v-6.394a2.392 2.392 0 0 1 1.534-.869c.768 0 1.114.4 1.114 1.728v5.53h2.976v-6.389A2.35 2.35 0 0 1 48.96-4.6c.749 0 1.114.4 1.114 1.728v5.53h2.956v-5.909c0-2.381-.922-3.859-3-3.859a4.142 4.142 0 0 0-2.976 1.574 2.637 2.637 0 0 0-2.63-1.574 3.948 3.948 0 0 0-2.88 1.421h-.077l-.211-1.19h-2.414zm18.95.23A3.993 3.993 0 0 0 60.518 1.7h.082l.211.96h2.419v-5.412c0-3-1.382-4.358-3.84-4.358a7.764 7.764 0 0 0-4.109 1.248l1.037 1.92a5.1 5.1 0 0 1 2.5-.806A1.256 1.256 0 0 1 60.269-3.5c-3.763.384-5.318 1.478-5.318 3.494a2.767 2.767 0 0 0 2.841 2.899zM58.81.589c-.653 0-1.018-.269-1.018-.826 0-.672.576-1.19 2.477-1.44V-.16a1.988 1.988 0 0 1-1.459.749zm6.739 2.074h2.957V-2.79a2.34 2.34 0 0 1 2.074-1.728 3.807 3.807 0 0 1 .979.115l.557-2.515a2.491 2.491 0 0 0-1.152-.192 3.187 3.187 0 0 0-2.707 1.882h-.077l-.212-1.652h-2.419zm11.885.23a6.152 6.152 0 0 0 3.436-1.075L79.91.032a4.142 4.142 0 0 1-2.054.6 2.2 2.2 0 0 1-2.381-1.843H81.1a6.925 6.925 0 0 0 .115-1.306c0-2.592-1.344-4.589-4.109-4.589A4.692 4.692 0 0 0 72.6-2.118a4.652 4.652 0 0 0 4.834 5.011zm-2-6.106a1.758 1.758 0 0 1 1.747-1.651c1.075 0 1.5.71 1.5 1.651zm2.422-5.107 1.478-1.459-4.013-3.533-1.69 1.978zm8.122 11.213c2.592 0 3.974-1.363 3.974-3.11 0-1.574-1.152-2.438-2.611-2.9-1.21-.384-1.747-.614-1.747-1.114 0-.422.326-.691 1.018-.691a3.47 3.47 0 0 1 2.054.691L89.933-5.9a5.33 5.33 0 0 0-3.418-1.21c-2.227 0-3.686 1.21-3.686 3.014 0 1.478 1.152 2.342 2.515 2.842 1.018.384 1.824.634 1.824 1.21 0 .461-.326.749-1.133.749a3.994 3.994 0 0 1-2.5-.922l-1.248 1.67a5.469 5.469 0 0 0 3.691 1.44zM12.922 21.862h3v-4.78h4.262v-2.5h-4.267v-2.723h4.992v-2.5h-7.987zm9.907 0h2.957V12.32h-2.957zm1.478-10.886a1.533 1.533 0 1 0 0-3.053 1.533 1.533 0 1 0 0 3.053zm3.9 10.886h2.957v-6.393a2.384 2.384 0 0 1 1.67-.864c.768 0 1.114.4 1.114 1.728v5.53h2.976v-5.914c0-2.381-.883-3.859-2.957-3.859a4.3 4.3 0 0 0-3.053 1.421h-.077l-.211-1.19H28.2zm14.784.23a6.021 6.021 0 0 0 2.17-.384l-.461-2.073a2.585 2.585 0 0 1-.883.134c-.71 0-1.21-.4-1.21-1.478v-3.648h2.246V12.32H42.6V9.4h-2.453l-.347 2.92-1.459.1v2.227h1.286v3.683c.002 2.246.981 3.763 3.362 3.763zm7.642 0a6.152 6.152 0 0 0 3.437-1.075l-.96-1.786a4.142 4.142 0 0 1-2.054.6 2.2 2.2 0 0 1-2.381-1.843H54.3a6.925 6.925 0 0 0 .115-1.306c0-2.592-1.344-4.589-4.109-4.589a4.692 4.692 0 0 0-4.512 4.992 4.652 4.652 0 0 0 4.836 5.008zm-2-6.106a1.758 1.758 0 0 1 1.747-1.651c1.075 0 1.5.71 1.5 1.651zm11.885 6.106a4.658 4.658 0 0 0 3.149-1.133L62.515 19.1a2.672 2.672 0 0 1-1.651.6c-1.171 0-2.054-1.018-2.054-2.611 0-1.574.826-2.611 2.15-2.611a1.966 1.966 0 0 1 1.229.461l1.382-1.824a4.109 4.109 0 0 0-2.784-1.018 4.821 4.821 0 0 0-5.011 4.992c0 3.161 2.054 5.004 4.742 5.004zm4.8-.23h2.957v-6.393a2.384 2.384 0 0 1 1.67-.864c.768 0 1.114.4 1.114 1.728v5.53h2.976v-5.914c0-2.381-.883-3.859-2.957-3.859a4.321 4.321 0 0 0-2.938 1.286l.134-1.709V8.442h-2.956zm-52.531 19.2h7.891v-2.4h-2.265V28.87h-2.189A8.023 8.023 0 0 1 13.152 30v1.843h2.285v6.816h-2.65zm14.016.23c2.65 0 4.416-2.227 4.416-6.374S29.453 28.64 26.8 28.64s-4.416 2.112-4.416 6.278c.003 4.148 1.77 6.375 4.416 6.375zm0-2.285c-.9 0-1.613-.806-1.613-4.09 0-3.3.71-3.974 1.613-3.974.883 0 1.613.672 1.613 3.974 0 3.283-.73 4.091-1.616 4.091zm10.214 2.285c2.65 0 4.416-2.227 4.416-6.374s-1.766-6.278-4.416-6.278-4.417 2.112-4.417 6.278c0 4.148 1.768 6.375 4.418 6.375zm0-2.285c-.9 0-1.613-.806-1.613-4.09 0-3.3.71-3.974 1.613-3.974.883 0 1.613.672 1.613 3.974 0 3.283-.73 4.091-1.612 4.091z" transform="translate(622.638 836.738)" style="fill:#fff"/>
    </g>
</svg>
