<svg xmlns="http://www.w3.org/2000/svg" width="22" height="17.868"><path d="M19.739 4.453c.014.2.014.391.014.586A12.741 12.741 0 016.924 17.868 12.742 12.742 0 010 15.844a9.328 9.328 0 001.089.056 9.03 9.03 0 005.6-1.926 4.517 4.517 0 01-4.218-3.128 5.686 5.686 0 00.852.07 4.769 4.769 0 001.187-.154A4.509 4.509 0 01.894 6.337v-.053a4.541 4.541 0 002.038.572 4.506 4.506 0 01-2.01-3.755A4.475 4.475 0 011.536.826a12.816 12.816 0 009.3 4.718 5.09 5.09 0 01-.112-1.033A4.507 4.507 0 0115.23 0a4.5 4.5 0 013.294 1.424A8.877 8.877 0 0021.386.335 4.5 4.5 0 0119.4 2.82a9.039 9.039 0 002.6-.7 9.692 9.692 0 01-2.261 2.331z" fill="#081f4d"/></svg>