<svg xmlns="http://www.w3.org/2000/svg" width="19.25" height="19.25"><path d="M17.875 0h-16.5A1.381 1.381 0 00.004 1.388v16.474a1.381 1.381 0 001.367 1.388h16.504a1.385 1.385 0 001.375-1.388V1.388A1.385 1.385 0 0017.875 0zM5.818 16.5H2.965V7.313h2.86V16.5zM4.391 6.059a1.655 1.655 0 01-1.654-1.654 1.655 1.655 0 011.654-1.654 1.658 1.658 0 011.654 1.654 1.652 1.652 0 01-1.654 1.654zM16.513 16.5H13.66v-4.469c0-1.066-.021-2.436-1.482-2.436-1.487 0-1.715 1.16-1.715 2.359V16.5H7.61V7.313h2.737v1.255h.039a3.005 3.005 0 012.7-1.482c2.887 0 3.425 1.9 3.425 4.379z" fill="#081f4d"/></svg>