<svg xmlns="http://www.w3.org/2000/svg" width="19.261" height="19.256"><path d="M9.628 4.692a4.929 4.929 0 00-4.933 4.937 4.929 4.929 0 004.933 4.937 4.929 4.929 0 004.941-4.937 4.929 4.929 0 00-4.941-4.937zm0 8.146a3.216 3.216 0 01-3.21-3.21 3.213 3.213 0 013.21-3.209 3.213 3.213 0 013.21 3.21 3.216 3.216 0 01-3.21 3.209zm6.291-8.349a1.152 1.152 0 00-1.152-1.152 1.152 1.152 0 00-1.152 1.152 1.149 1.149 0 001.152 1.152 1.149 1.149 0 001.156-1.151zm3.27 1.169a5.7 5.7 0 00-1.555-4.035A5.736 5.736 0 0013.599.068c-1.59-.09-6.355-.09-7.945 0a5.728 5.728 0 00-4.035 1.551A5.717 5.717 0 00.064 5.654c-.09 1.59-.09 6.355 0 7.945a5.7 5.7 0 001.559 4.035 5.744 5.744 0 004.035 1.555c1.59.09 6.355.09 7.945 0a5.7 5.7 0 004.034-1.555 5.736 5.736 0 001.556-4.035c.09-1.59.09-6.351 0-7.941zm-2.05 9.647a3.25 3.25 0 01-1.831 1.83c-1.267.503-4.275.387-5.68.387s-4.413.112-5.676-.387a3.25 3.25 0 01-1.824-1.83c-.5-1.268-.387-4.275-.387-5.676s-.113-4.413.387-5.676a3.25 3.25 0 011.83-1.83c1.268-.5 4.275-.387 5.676-.387s4.413-.112 5.676.387a3.25 3.25 0 011.83 1.83c.5 1.268.387 4.275.387 5.676s.115 4.413-.388 5.676z" fill="#081f4d"/></svg>